<?xml version="1.0" encoding="UTF-8"?>
<svg width="14px" height="14px" viewBox="0 0 14 14" version="1.1" xmlns="http://www.w3.org/2000/svg" xmlns:xlink="http://www.w3.org/1999/xlink">
    <!-- Generator: Sketch 46.2 (44496) - http://www.bohemiancoding.com/sketch -->
    <title>check</title>
    <desc>Created with Sketch.</desc>
    <defs></defs>
    <g id="Symbols" stroke="none" stroke-width="1" fill="none" fill-rule="evenodd">
        <g id="check" transform="translate(-7.000000, -7.000000)">
            <g id="Group-2" transform="translate(7.000000, 7.000000)">
                <ellipse id="Oval" fill="#FFF100" cx="6.03448276" cy="7.51851852" rx="6.03448276" ry="6.48148148"></ellipse>
                <g id="noun_1150137_cc" transform="translate(2.896552, 0.000000)" fill-rule="nonzero" fill="#000000">
                    <g id="Group" transform="translate(0.000000, 0.330721)">
                        <path d="M9.71588475,0.209531004 C8.11619559,2.00720677 4.91910825,5.72149349 3.14451639,7.73108201 L1.01095524,5.70936939 C0.848342069,5.55472399 0.621268778,5.505005 0.415271686,5.57894109 C0.209274594,5.65287718 0.0556495656,5.8392357 0.0122656678,6.06781718 C-0.03111823,6.29639866 0.0423300502,6.53247614 0.204943249,6.68712151 L2.78418162,9.13151404 C3.02958047,9.3649464 3.40321034,9.34691017 3.62812359,9.09077444 C5.32508037,7.18383506 8.91839942,2.98769496 10.593023,1.10580229 C10.7664561,0.913768734 10.8130435,0.627415573 10.7105216,0.383588725 C10.6079996,0.139761877 10.3771845,-0.0120318052 10.1283808,0.000748681625 C9.97084308,0.0101100895 9.82289104,0.0849950968 9.71588475,0.209531004 Z" id="Shape"></path>
                    </g>
                </g>
            </g>
        </g>
    </g>
</svg>