<?xml version="1.0" encoding="UTF-8"?>
<svg width="28px" height="28px" viewBox="0 0 28 28" version="1.1" xmlns="http://www.w3.org/2000/svg" xmlns:xlink="http://www.w3.org/1999/xlink">
    <!-- Generator: Sketch 46.2 (44496) - http://www.bohemiancoding.com/sketch -->
    <title>treebox-black</title>
    <desc>Created with Sketch.</desc>
    <defs></defs>
    <g id="wireframe-ebook-3" stroke="none" stroke-width="1" fill="none" fill-rule="evenodd">
        <g id="wireframe-ebook-desktop-2" transform="translate(-649.000000, -3155.000000)" fill="#000000">
            <g id="treebox" transform="translate(649.000000, 3155.000000)">
                <path d="M23.9182724,0.189830508 L3.9627907,0.189830508 C1.88704319,0.189830508 0.188704319,1.89830508 0.188704319,3.98644068 L0.188704319,24.0610169 C0.188704319,26.1491525 1.88704319,27.8576271 3.9627907,27.8576271 L23.9182724,27.8576271 C25.9940199,27.8576271 27.6923588,26.1491525 27.6923588,24.0610169 L27.6923588,3.98644068 C27.6923588,1.85084746 25.9940199,0.189830508 23.9182724,0.189830508 L23.9182724,0.189830508 Z M25.8053156,24.0610169 C25.8053156,25.1050847 24.9561462,25.959322 23.9182724,25.959322 L14.9076412,25.959322 L14.9076412,13.3355932 L21.323588,18.8881356 C21.5122924,19.0305085 21.7009967,19.1254237 21.9368771,19.1254237 C22.2199336,19.1254237 22.455814,19.0305085 22.6445183,18.7932203 C22.9747508,18.4135593 22.9275748,17.7966102 22.5501661,17.4644068 L14.9076412,10.8677966 L14.9076412,7.68813559 L21.323588,13.240678 C21.5122924,13.3830508 21.7009967,13.4779661 21.9368771,13.4779661 C22.2199336,13.4779661 22.455814,13.3830508 22.6445183,13.1457627 C22.9747508,12.7661017 22.9275748,12.1491525 22.5501661,11.8169492 L14.5774086,4.88813559 C14.2,4.60338983 13.6810631,4.60338983 13.3508306,4.88813559 L5.37807309,11.8169492 C5.00066445,12.1491525 4.95348837,12.7661017 5.28372093,13.1457627 C5.61395349,13.5254237 6.22724252,13.5728814 6.60465116,13.240678 L13.020598,7.68813559 L13.020598,10.8677966 L5.37807309,17.4644068 C5.00066445,17.7966102 4.95348837,18.4135593 5.28372093,18.7932203 C5.61395349,19.1728814 6.22724252,19.220339 6.60465116,18.8881356 L13.020598,13.3355932 L13.020598,25.9118644 L3.9627907,25.9118644 C2.92491694,25.9118644 2.07574751,25.0576271 2.07574751,24.0135593 L2.07574751,3.98644068 C2.07574751,2.94237288 2.92491694,2.08813559 3.9627907,2.08813559 L23.9182724,2.08813559 C24.9561462,2.08813559 25.8053156,2.94237288 25.8053156,3.98644068 L25.8053156,24.0610169 L25.8053156,24.0610169 Z" id="Shape"></path>
            </g>
        </g>
    </g>
</svg>