<?xml version="1.0" encoding="UTF-8"?>
<svg width="1440px" height="307px" viewBox="0 0 1440 307" version="1.1" xmlns="http://www.w3.org/2000/svg" xmlns:xlink="http://www.w3.org/1999/xlink">
    <!-- Generator: Sketch 46.2 (44496) - http://www.bohemiancoding.com/sketch -->
    <title>treebox-growth</title>
    <desc>Created with Sketch.</desc>
    <defs></defs>
    <g id="wireframe-ebook-3" stroke="none" stroke-width="1" fill="none" fill-rule="evenodd">
        <g id="wireframe-ebook-desktop-2" transform="translate(0.000000, -1766.000000)">
            <g id="Group-4" transform="translate(0.000000, 1766.000000)">
                <path d="M0,255.730512 L114.086542,255.730512 L276,255.730512 L502,189 L720,226 L890,169 L1177,213.786192 L1246,104.957684 L1341,114.026726 L1440,12 L1440,521 C1119.55774,483.666667 879.55774,465 720,465 C560.44226,465 320.44226,483.666667 0,521 L0,255.730512 Z" id="Rectangle-8" fill="#FFF87F"></path>
                <path d="M0,295.730512 L114.086542,295.730512 L276,295.730512 L502,229 L720,266 L890,209 L1177,253.786192 L1246,144.957684 L1341,154.026726 L1440,52 L1440,561 C1201.33333,511.666667 961.333333,485.666667 720,483 C478.666667,480.333333 238.666667,506.333333 0,561 L0,295.730512 Z" id="Rectangle-8" fill="#FFF100"></path>
                <circle id="Oval-4" stroke="#FFFFFF" stroke-width="3" fill="#FFF100" cx="1247" cy="145" r="8"></circle>
                <circle id="Oval-4" stroke="#FFFFFF" stroke-width="3" fill="#FFF100" cx="1341" cy="153" r="8"></circle>
                <circle id="Oval-4" stroke="#FFFFFF" stroke-width="3" fill="#FFF100" cx="889" cy="209" r="8"></circle>
                <circle id="Oval-4" stroke="#FFFFFF" stroke-width="3" fill="#FFF100" cx="502" cy="229" r="8"></circle>
                <circle id="Oval-4" stroke="#FFFFFF" stroke-width="3" fill="#FFF100" cx="720" cy="265" r="8"></circle>
                <circle id="Oval-4" stroke="#FFFFFF" stroke-width="3" fill="#FFF100" cx="277" cy="295" r="8"></circle>
                <circle id="Oval-4" stroke="#FFFFFF" stroke-width="3" fill="#FFF100" cx="1178" cy="252" r="8"></circle>
            </g>
        </g>
    </g>
</svg>