<?xml version="1.0" encoding="UTF-8"?>
<svg width="83px" height="84px" viewBox="0 0 83 84" version="1.1" xmlns="http://www.w3.org/2000/svg" xmlns:xlink="http://www.w3.org/1999/xlink">
    <!-- Generator: Sketch 49 (51002) - http://www.bohemiancoding.com/sketch -->
    <title>beneficio-consultoria-3</title>
    <desc>Created with Sketch.</desc>
    <defs></defs>
    <g id="Page-1" stroke="none" stroke-width="1" fill="none" fill-rule="evenodd">
        <g id="beneficio-consultoria-1" transform="translate(-277.000000, -88.000000)" fill="#FFF100">
            <circle id="Oval" cx="335" cy="96" r="4"></circle>
        </g>
        <g id="noun_1287602_cc" fill="#000524" fill-rule="nonzero">
            <path d="M6.2,58.49 C6.43043631,58.9740949 6.38510671,59.5443533 6.0810864,59.9859644 C5.77706609,60.4275756 5.260543,60.6734482 4.72608639,60.6309644 C4.19162977,60.5884807 3.7204363,60.2640949 3.49,59.78 C2.00955962,56.66751 0.924461269,53.38198 0.26,50 C0.158179298,49.4730333 0.345226506,48.9317752 0.75068275,48.5801125 C1.15613899,48.2284498 1.71840582,48.1198084 2.22568276,48.2951125 C2.7329597,48.4704166 3.10817931,48.9030332 3.21,49.43 C3.82505429,52.5628439 4.82951628,55.6064645 6.2,58.49 Z M6.2,22.12 C5.47288975,21.7517674 4.58479489,22.0315172 4.2,22.75 C2.59073934,25.8184677 1.37449496,29.0774651 0.58,32.45 C0.389461761,33.2563357 0.888664265,34.0644618 1.695,34.255 C2.50133573,34.4455382 3.30946176,33.9463357 3.5,33.14 C4.23424068,30.0112088 5.35977117,26.9873956 6.85,24.14 C7.22960041,23.4182907 6.96310433,22.5255288 6.25,22.13 L6.2,22.12 Z M16.35,12 C16.6838567,11.9994157 17.0078442,11.8867244 17.27,11.68 C19.7972929,9.70030364 22.562041,8.04414221 25.5,6.75 C26.2593915,6.41862915 26.6063708,5.53439153 26.275,4.775 C25.9436292,4.01560847 25.0593915,3.66862915 24.3,4 C21.1332454,5.39687939 18.1534866,7.18406281 15.43,9.32 C14.927711,9.71418694 14.7300079,10.3831361 14.9373182,10.98704 C15.1446285,11.590944 15.7115089,11.9974241 16.35,12 Z M41.41,3.5 C44.6213356,3.53250533 47.8160474,3.96585739 50.92,4.79 C51.7208129,5.00262963 52.5423704,4.52581289 52.755,3.725 C52.9676296,2.92418711 52.4908129,2.10262963 51.69,1.89 C48.344508,1.00183561 44.9012043,0.534890048 41.44,0.5 C40.6115729,0.5 39.94,1.17157288 39.94,2 C39.94,2.82842712 40.6115729,3.5 41.44,3.5 L41.41,3.5 Z M24.13,76.62 C21.2558024,75.2087628 18.5684709,73.4452016 16.13,71.37 C15.497634,70.8342838 14.5507163,70.912634 14.0150001,71.5450001 C13.4792839,72.1773661 13.557634,73.1242838 14.19,73.66 C16.8299703,75.899577 19.739117,77.8009361 22.85,79.32 C23.3323085,79.5557953 23.9037753,79.5163706 24.3491343,79.2165768 C24.7944933,78.916783 25.0460839,78.4021659 25.0091343,77.8665768 C24.9721847,77.3309877 24.6523085,76.8557953 24.17,76.62 L24.13,76.62 Z M49.45,79.62 C46.3166639,80.3185489 43.1090653,80.6275531 39.9,80.54 C39.0777378,80.5337656 38.3975973,81.1785741 38.36,82 C38.3492487,82.3978643 38.4970622,82.7836904 38.7708952,83.072528 C39.0447281,83.3613655 39.4221281,83.5295316 39.82,83.54 L41,83.54 C44.0641579,83.5419013 47.1192175,83.206549 50.11,82.54 C50.6333941,82.4221024 51.0541325,82.033933 51.2137272,81.5217116 C51.3733219,81.0094902 51.2475266,80.4510354 50.8837272,80.0567116 C50.5199278,79.6623879 49.9733941,79.4921024 49.45,79.61 L49.45,79.62 Z M67.27,9.92 C66.85759,9.56173113 66.2830123,9.45600235 65.7700834,9.64399841 C65.2571545,9.83199448 64.8869895,10.2839855 64.8037794,10.8239065 C64.7205693,11.3638275 64.9374732,11.9062948 65.37,12.24 C67.8590624,14.289083 70.082887,16.6405591 71.99,19.24 C72.2960484,19.7020357 72.83192,19.9576737 73.3835982,19.9048172 C73.9352764,19.8519606 74.4128593,19.4992231 74.6256096,18.987481 C74.8383599,18.4757389 74.7516076,17.8883862 74.4,17.46 C72.3495747,14.6422136 69.9542618,12.0923643 67.27,9.87 L67.27,9.92 Z M73.17,65.87 C72.8597824,65.6204816 72.4630972,65.5045206 72.067328,65.5476613 C71.6715588,65.590802 71.3091735,65.7895054 71.06,66.1 C69.0524901,68.6062444 66.7414671,70.8534455 64.18,72.79 C63.6547573,73.3252528 63.6055153,74.1661668 64.0646961,74.7590651 C64.5238769,75.3519635 65.3503728,75.5146465 66,75.14 C68.7622308,73.0530549 71.2546326,70.6311928 73.42,67.93 C73.6672818,67.6172894 73.7799056,67.2190033 73.7329982,66.8231045 C73.6860907,66.4272057 73.4835112,66.0662659 73.17,65.82 L73.17,65.87 Z M81.59,33.37 C81.4983479,32.8256596 81.1151301,32.3756435 80.592343,32.1984424 C80.0695558,32.0212413 79.4916874,32.1454929 79.0879387,32.521915 C78.6841899,32.8983371 78.5198111,33.4660958 78.66,34 C79.8916839,39.8089761 79.7753719,45.822992 78.32,51.58 C78.1156546,52.3835743 78.6014257,53.2006546 79.405,53.405 C80.2085743,53.6093454 81.0256546,53.1235743 81.23,52.32 C82.7993757,46.1179356 82.9259515,39.6386257 81.6,33.38 L81.59,33.37 Z M71.4,42 C71.4080767,58.1862956 58.7318257,71.540391 42.567047,72.3747537 C26.4022683,73.2091165 12.418473,61.2311086 10.76,45.13 C9.50372635,44.5970599 8.68781776,43.3646423 8.68781776,42 C8.68781776,40.6353577 9.50372635,39.4029401 10.76,38.87 C12.0556805,26.3345071 20.9536917,15.8993264 33.126945,12.6390695 C45.3001982,9.37881258 58.2225972,13.970022 65.61,24.18 C65.7299122,24.1735088 65.8500878,24.1735088 65.97,24.18 C67.853291,24.18 69.38,25.706709 69.38,27.59 C69.3786159,28.3099435 69.147387,29.0106374 68.72,29.59 C70.482301,33.4901307 71.3958046,37.7201979 71.4,42 Z M68.4,43.5 L58.64,43.5 C58.4935354,47.1681558 57.778348,50.7913221 56.52,54.24 C56.7130263,54.4709035 56.874445,54.726483 57,55 L65.15,55 C67.0585101,51.4517164 68.1549214,47.5237631 68.36,43.5 L68.4,43.5 Z M16.86,55 L25.75,55 C24.3192245,51.3262878 23.5114665,47.439586 23.36,43.5 L15.14,43.5 C14.8436829,44.1289982 14.3621677,44.6523843 13.76,45 C14.1357687,48.5026796 15.1886159,51.8989612 16.86,55 Z M13.76,39 C14.3561741,39.3370474 14.8370477,39.8457977 15.14,40.46 L23.36,40.46 C23.5075225,36.8058861 24.2192672,33.196565 25.47,29.76 C25.2805801,29.5284471 25.1225489,29.2729073 25,29 L16.9,29 C15.2146802,32.0981387 14.1482019,35.4945663 13.76,39 Z M55.64,43.5 L44,43.5 C43.6721939,44.1467609 43.1467609,44.6721939 42.5,45 L42.5,53.36 C43.1691179,53.723813 43.6971787,54.3011596 44,55 L50.9,55 C51.4409921,53.9033204 52.5292435,53.1816379 53.75,53.11 C54.8625724,50.0207367 55.499829,46.7805057 55.64,43.5 Z M38,40.5 C38.3278061,39.8532391 38.8532391,39.3278061 39.5,39 L39.5,29 L31.05,29 C30.516727,30.0794156 29.4509554,30.7950051 28.25,30.88 C27.1413845,33.956543 26.5041865,37.1829898 26.36,40.45 L38,40.5 Z M55.68,40.5 C55.4995374,36.5347419 54.5910827,32.6365222 53,29 L42.5,29 L42.5,39 C43.1467609,39.3278061 43.6721939,39.8532391 44,40.5 L55.68,40.5 Z M51.52,26 C49.271093,22.0269676 46.2032909,18.5773945 42.52,15.88 L42.52,26 L51.52,26 Z M39.52,15.88 C35.9847968,18.4663076 33.014254,21.7464947 30.79,25.52 C30.8962741,25.672092 30.9899202,25.832628 31.07,26 L39.5,26 L39.52,15.88 Z M29,55 L38,55 C38.331997,54.3268255 38.8768255,53.781997 39.55,53.45 L39.55,45 C38.8846423,44.6808816 38.340756,44.1545401 38,43.5 L26.36,43.5 C26.5278013,47.4627294 27.4226738,51.3608485 29,55 Z M30.48,58 C32.728907,61.9730324 35.7967091,65.4226055 39.48,68.12 L39.48,59.5 C38.8406758,59.168791 38.322598,58.6437121 38,58 L30.48,58 Z M42.48,68.12 C46.0049056,65.5403843 48.9683054,62.2707779 51.19,58.51 C51.0788194,58.3486733 50.9817916,58.1780382 50.9,58 L44,58 C43.6688009,58.6678672 43.1278672,59.2088009 42.46,59.54 L42.48,68.12 Z M68.36,40.5 C68.1826518,37.2040579 67.4066634,33.9679492 66.07,30.95 L66,30.95 C64.7201971,30.9287852 63.560756,30.1906078 63,29.04 L56.25,29.04 C57.6764332,32.7011006 58.4841164,36.5739244 58.64,40.5 L68.36,40.5 Z M46.3,15.12 C49.8672864,18.1357678 52.7947987,21.8351097 54.91,26 L62.91,26 C62.91,25.91 63,25.82 63.05,25.73 C58.9842525,20.2292391 53.0106011,16.4453322 46.3,15.12 Z M18.74,26 L25,26 C25.560756,24.8493922 26.7201971,24.1112148 28,24.09 L28.11,24.09 C30.112074,20.6847312 32.6747631,17.6419605 35.69,15.09 C28.8608608,16.4454854 22.8019491,20.3453512 18.74,26 Z M35.74,68.83 C32.163547,65.8327208 29.2225551,62.150531 27.09,58 L18.74,58 C22.809711,63.6454928 28.8718567,67.5344164 35.7,68.88 L35.74,68.83 Z M63.26,58 L57,58 C56.439244,59.1506078 55.2798029,59.8887852 54,59.91 L53.93,59.91 C51.927926,63.3152688 49.3652369,66.3580395 46.35,68.91 C53.1645385,67.5451254 59.2076903,63.6462025 63.26,58 Z" id="Shape"></path>
        </g>
        <circle id="Oval-2" stroke="#000524" stroke-width="2" cx="59.5" cy="6.5" r="3.5"></circle>
    </g>
</svg>