<?xml version="1.0" encoding="UTF-8"?>
<svg width="84px" height="81px" viewBox="0 0 84 81" version="1.1" xmlns="http://www.w3.org/2000/svg" xmlns:xlink="http://www.w3.org/1999/xlink">
    <!-- Generator: Sketch 49 (51002) - http://www.bohemiancoding.com/sketch -->
    <title>beneficio-consultoria-4</title>
    <desc>Created with Sketch.</desc>
    <defs></defs>
    <g id="Page-1" stroke="none" stroke-width="1" fill="none" fill-rule="evenodd">
        <g id="beneficio-consultoria-1" transform="translate(-123.000000, -171.000000)">
            <g id="Group" transform="translate(123.000000, 171.000000)">
                <circle id="Oval" fill="#FFF100" cx="7" cy="28" r="5"></circle>
                <path d="M9.35,17.0294549 C16.2168813,5.61594069 28.9452689,-0.93555919 42.2242826,0.108548266 C55.5032963,1.15265572 67.0513291,9.61297143 72.05,21.9594549 C72.2782779,22.4615499 72.2125928,23.0484202 71.8789605,23.4876237 C71.5453282,23.9268271 70.9975756,24.1475044 70.4526516,24.0622517 C69.9077276,23.976999 69.4535479,23.5995706 69.27,23.0794549 C64.6962816,11.7871327 54.1324418,4.05030651 41.9863668,3.0972579 C29.8402918,2.14420929 18.1990166,8.13869865 11.92,18.5794549 C11.4919793,19.2891408 10.5696859,19.5174756 9.86,19.0894549 C9.1503141,18.6614342 8.92197932,17.7391408 9.35,17.0294549 Z M24.66,63.6694549 C14.4093912,58.3347391 7.80338595,47.9162559 7.35,36.3694549 C7.31962434,35.5410278 6.62342712,34.8940792 5.795,34.9244549 C4.96657288,34.9548305 4.31962434,35.6510278 4.35,36.4794549 C4.84683468,49.1053243 12.0710414,60.4969022 23.28,66.3294549 C23.7581333,66.6068655 24.3500921,66.5988213 24.8205107,66.3085207 C25.2909294,66.0182201 25.5635586,65.4927173 25.5299999,64.9409547 C25.4964411,64.3891921 25.1621338,63.9006039 24.66,63.6694549 Z M73.1,33.6694549 C72.2715729,33.6694549 71.6,34.3410278 71.6,35.1694549 C71.6071223,47.1653708 64.9167474,58.1616618 54.26,63.6694549 C53.7578662,63.9006039 53.4235589,64.3891921 53.3900001,64.9409547 C53.3564414,65.4927173 53.6290706,66.0182201 54.0994893,66.3085207 C54.5699079,66.5988213 55.1618667,66.6068655 55.64,66.3294549 C67.3287878,60.3215218 74.6667347,48.2718407 74.64,35.1294549 C74.640144,34.7246017 74.4766297,34.3368815 74.1866136,34.0543982 C73.8965975,33.771915 73.5047092,33.6186588 73.1,33.6294549 L73.1,33.6694549 Z M67.61,23.3094549 L40.74,66.3094549 C40.4655053,66.7462059 39.9858477,67.0112694 39.47,67.0112694 C38.9541523,67.0112694 38.4744947,66.7462059 38.2,66.3094549 L11.33,23.3094549 C11.0438471,22.8475938 11.0298182,22.2670996 11.2933265,21.7919547 C11.5568348,21.3168099 12.0566808,21.0213031 12.6,21.0194549 L66.34,21.0194549 C66.8833192,21.0213031 67.3831652,21.3168099 67.6466735,21.7919547 C67.9101818,22.2670996 67.8961529,22.8475938 67.61,23.3094549 Z M63.61,24.0194549 L15.3,24.0194549 L39.51,62.6894549 L63.61,24.0194549 Z M35.21,42.8494549 C34.8713144,43.0598366 34.6303223,43.3964016 34.5402579,43.7848045 C34.4501935,44.1732075 34.518468,44.5814865 34.73,44.9194549 L38.19,50.4494549 C38.4644947,50.8862059 38.9441523,51.1512694 39.46,51.1512694 C39.9758477,51.1512694 40.4555053,50.8862059 40.73,50.4494549 L42.57,47.4494549 C42.9621533,46.7513245 42.7368169,45.8682709 42.0580988,45.443404 C41.3793806,45.0185372 40.4866216,45.2016807 40.03,45.8594549 L39.46,46.7794549 L37.28,43.2894549 C36.8286795,42.5980981 35.9035052,42.4014427 35.21,42.8494549 Z M46.34,38.6394549 C46.6779684,38.8509869 47.0862474,38.9192614 47.4746503,38.829197 C47.8630532,38.7391325 48.1996183,38.4981405 48.41,38.1594549 L52.41,31.7194549 C52.6961529,31.2575938 52.7101818,30.6770996 52.4466735,30.2019547 C52.1831652,29.7268099 51.6833192,29.4313031 51.14,29.4294549 L48.74,29.4294549 C47.9115729,29.3493736 47.1750813,29.9560278 47.095,30.7844549 C47.0149187,31.612882 47.6215729,32.3493736 48.45,32.4294549 L45.87,36.5794549 C45.4344031,37.2786814 45.6442317,38.1983554 46.34,38.6394549 Z M26.51,31.7194549 L28.93,35.5794549 C29.2007838,36.0615173 29.7148045,36.3555288 30.2676041,36.3445426 C30.8204037,36.3335564 31.3223369,36.0193541 31.5737537,35.5269135 C31.8251704,35.034473 31.7852995,34.4436512 31.47,33.9894549 L30.47,32.4194549 L37.76,32.4194549 C38.5884271,32.4194549 39.26,31.747882 39.26,30.9194549 C39.26,30.0910278 38.5884271,29.4194549 37.76,29.4194549 L27.76,29.4194549 C27.2170352,29.4262546 26.7201401,29.7259677 26.4608468,30.2030673 C26.2015536,30.6801669 26.2203535,31.260149 26.51,31.7194549 Z M5,31.1694549 C2.23857625,31.1694549 0,28.9308786 0,26.1694549 C0,23.4080311 2.23857625,21.1694549 5,21.1694549 C7.76142375,21.1694549 10,23.4080311 10,26.1694549 C9.99522397,27.3452438 9.56952308,28.4804461 8.8,29.3694549 L20.8,48.5994549 C21.1152995,49.0536512 21.1551704,49.644473 20.9037537,50.1369135 C20.6523369,50.6293541 20.1504037,50.9435564 19.5976041,50.9545426 C19.0448045,50.9655288 18.5307838,50.6715173 18.26,50.1894549 L6.26,30.9594549 C5.84449771,31.0857528 5.41407609,31.1563688 4.98,31.1694549 L5,31.1694549 Z M5,28.1694549 C6.1045695,28.1694549 7,27.2740244 7,26.1694549 C7,25.0648854 6.1045695,24.1694549 5,24.1694549 C3.8954305,24.1694549 3,25.0648854 3,26.1694549 C2.99994516,27.2662608 3.88324892,28.1584868 4.98,28.1694549 L5,28.1694549 Z M26,57.0094549 C25.7644168,56.4631487 25.2282292,56.1077056 24.6333075,56.1034633 C24.0383858,56.0992209 23.4971837,56.4469813 23.2538335,56.9898722 C23.0104834,57.5327632 23.1109839,58.1681659 23.51,58.6094549 L36.51,79.4594549 C36.9666216,80.1172291 37.8593806,80.3003726 38.5380988,79.8755057 C39.2168169,79.4506389 39.4421533,78.5675852 39.05,77.8694549 L26,57.0094549 Z M57.62,52.3194549 C57.2820316,52.1079229 56.8737526,52.0396484 56.4853497,52.1297128 C56.0969468,52.2197772 55.7603817,52.4607692 55.55,52.7994549 L43.82,71.5794549 C43.5047005,72.0336512 43.4648296,72.624473 43.7162463,73.1169135 C43.9676631,73.6093541 44.4695963,73.9235564 45.0223959,73.9345426 C45.5751955,73.9455288 46.0892162,73.6515173 46.36,73.1694549 L58.1,54.3994549 C58.311532,54.0614865 58.3798065,53.6532075 58.2897421,53.2648045 C58.1996777,52.8764016 57.9586856,52.5398366 57.62,52.3294549 L57.62,52.3194549 Z M71.51,27.3394549 L61.11,43.9194549 C60.7947005,44.3736512 60.7548296,44.964473 61.0062463,45.4569135 C61.2576631,45.9493541 61.7595963,46.2635564 62.3123959,46.2745426 C62.8651955,46.2855288 63.3792162,45.9915173 63.65,45.5094549 L74.02,28.9294549 C74.329282,28.2480051 74.0889786,27.442842 73.4567954,27.0423754 C72.8246122,26.6419087 71.99397,26.7686641 71.51,27.3394549 Z M82.86,13.3394549 C82.5779778,12.8669055 82.059839,12.5867267 81.51,12.6094549 L71.42,12.6094549 C70.5915729,12.6094549 69.92,13.2810278 69.92,14.1094549 C69.92,14.937882 70.5915729,15.6094549 71.42,15.6094549 L78.81,15.6094549 L75.06,21.6094549 C74.7447005,22.0636512 74.7048296,22.654473 74.9562463,23.1469135 C75.2076631,23.6393541 75.7095963,23.9535564 76.2623959,23.9645426 C76.8151955,23.9755288 77.3292162,23.6815173 77.6,23.1994549 L82.79,14.8994549 C83.0750376,14.4357577 83.0865189,13.8540381 82.82,13.3794549 L82.86,13.3394549 Z M43.71,12.5694549 C42.8815729,12.5694549 42.21,13.2410278 42.21,14.0694549 C42.21,14.897882 42.8815729,15.5694549 43.71,15.5694549 L57.51,15.5694549 C58.3384271,15.5694549 59.01,14.897882 59.01,14.0694549 C59.01,13.2410278 58.3384271,12.5694549 57.51,12.5694549 L43.71,12.5694549 Z M28.89,12.5694549 C28.0615729,12.5694549 27.39,13.2410278 27.39,14.0694549 C27.39,14.897882 28.0615729,15.5694549 28.89,15.5694549 L37.3,15.5694549 C38.1284271,15.5694549 38.8,14.897882 38.8,14.0694549 C38.8,13.2410278 38.1284271,12.5694549 37.3,12.5694549 L28.89,12.5694549 Z" id="Shape" fill="#000524" fill-rule="nonzero"></path>
            </g>
        </g>
        <g id="Group-2">
            <g id="noun_1287595_cc"></g>
        </g>
    </g>
</svg>