<?xml version="1.0" encoding="UTF-8"?>
<svg width="100px" height="100px" viewBox="0 0 100 100" version="1.1" xmlns="http://www.w3.org/2000/svg" xmlns:xlink="http://www.w3.org/1999/xlink">
    <!-- Generator: Sketch 49 (51002) - http://www.bohemiancoding.com/sketch -->
    <title>beneficio-consultoria-2</title>
    <desc>Created with Sketch.</desc>
    <defs></defs>
    <g id="Page-1" stroke="none" stroke-width="1" fill="none" fill-rule="evenodd">
        <g id="beneficio-consultoria-1" transform="translate(-165.000000, -16.000000)" fill="#FFF100">
            <circle id="Oval" cx="195" cy="90" r="6"></circle>
        </g>
        <g id="noun_1287598_cc" fill="#000524" fill-rule="nonzero">
            <path d="M43.8690476,57.1428571 L40.1666667,54.0357143 C39.4361557,53.4196022 38.3500701,53.4878105 37.702381,54.1904762 L35.547619,56.5714286 C34.7409513,56.1975481 33.9047741,55.8909498 33.047619,55.6547619 L32.9047619,52.4880952 C32.8602156,51.5345597 32.0736225,50.7846743 31.1190476,50.7857143 L26.297619,50.7857143 C25.3430442,50.7846743 24.5564511,51.5345597 24.5119048,52.4880952 L24.3690476,55.6547619 C23.5118594,55.8908462 22.6756737,56.1974476 21.8690476,56.5714286 L19.7142857,54.1904762 C19.0665966,53.4878105 17.9805109,53.4196022 17.25,54.0357143 L13.5595238,57.1428571 C12.8272881,57.7556497 12.706662,58.8360396 13.2857143,59.5952381 L15.25,62.1547619 C14.7609304,62.8768598 14.330962,63.6372669 13.9642857,64.4285714 L10.7142857,64.0119048 C9.76916586,63.8899129 8.89654307,64.5364949 8.73809524,65.4761905 L7.9047619,70.2380952 C7.74203205,71.1765146 8.34442627,72.0774868 9.27380952,72.2857143 L12.5357143,73.0119048 C12.6260207,73.8480939 12.7812511,74.6759891 13,75.4880952 L10.1547619,77.3095238 C9.74488793,77.5501474 9.44785004,77.9442411 9.32942454,78.4045364 C9.21099904,78.8648317 9.28095795,79.3533469 9.52380952,79.7619048 L11.9047619,83.9404762 C12.3833456,84.7737822 13.43556,85.0789244 14.2857143,84.6309524 L17.3452381,83.047619 C17.9618636,83.5884805 18.6184967,84.0819503 19.3095238,84.5238095 L18.2738095,87.8333333 C17.987102,88.7456237 18.4699657,89.7218482 19.3690476,90.047619 L23.9047619,91.6666667 C24.8016518,91.9952652 25.7983154,91.5598806 26.1666667,90.6785714 L27.5119048,87.452381 C28.3041729,87.5186337 29.100589,87.5186337 29.8928571,87.452381 L31.2380952,90.6785714 C31.6064465,91.5598806 32.6031101,91.9952652 33.5,91.6666667 L38.0952381,90.0714286 C38.99432,89.7456577 39.4771837,88.7694332 39.1904762,87.8571429 L38.0952381,84.5238095 C38.7602529,84.0516245 39.3889933,83.5303271 39.9761905,82.9642857 L43.0595238,84.5238095 C43.9096781,84.9717815 44.9618925,84.6666394 45.4404762,83.8333333 L47.8214286,79.6547619 C48.2884639,78.8319023 48.0326074,77.78759 47.2380952,77.2738095 L44.3928571,75.452381 C44.6116061,74.6402748 44.7668364,73.8123796 44.8571429,72.9761905 L48.1190476,72.25 C49.0420724,72.0528511 49.6522781,71.1714429 49.5119048,70.2380952 L48.6785714,65.4761905 C48.5200985,64.5312653 47.6398818,63.882962 46.6904762,64.0119048 L43.452381,64.4285714 C43.0857046,63.6372669 42.6557363,62.8768598 42.1666667,62.1547619 L44.1309524,59.5952381 C44.7128395,58.8390827 44.5974987,57.7590735 43.8690476,57.1428571 Z M42.5595238,68.1547619 L45.4642857,67.7738095 L45.7142857,69.1666667 L42.8095238,69.8214286 C42.0051275,70.0027359 41.4294699,70.7112375 41.4166667,71.5357143 C41.3899109,72.9422417 41.1283749,74.3344181 40.6428571,75.6547619 C40.3544703,76.4412145 40.6515062,77.322421 41.3571429,77.7738095 L43.9166667,79.4047619 L43.202381,80.5952381 L40.4761905,79.202381 C39.7442822,78.8251183 38.8493013,78.99723 38.3095238,79.6190476 C37.4001714,80.6630991 36.3265391,81.551761 35.1309524,82.25 C34.4161109,82.671305 34.085657,83.5294989 34.3333333,84.3214286 L35.2619048,87.297619 L33.9285714,87.7857143 L32.7380952,84.8809524 C32.4604667,84.2187893 31.8132458,83.7873087 31.0952381,83.7857143 L30.8095238,83.7857143 C29.4554157,84.030472 28.0683939,84.030472 26.7142857,83.7857143 C25.8972528,83.6495948 25.0938659,84.0931826 24.7738095,84.8571429 L23.5833333,87.7619048 L22.25,87.2738095 L23.1785714,84.297619 C23.4262478,83.5056894 23.0957938,82.6474955 22.3809524,82.2261905 C21.1853657,81.5279515 20.1117334,80.6392896 19.202381,79.5952381 C18.6626035,78.9734205 17.7676226,78.8013088 17.0357143,79.1785714 L14.2857143,80.6309524 L13.5714286,79.4404762 L16.1309524,77.8095238 C16.836589,77.3581353 17.1336249,76.4769288 16.8452381,75.6904762 C16.3603659,74.3699545 16.0988504,72.9778874 16.0714286,71.5714286 C16.0586253,70.7469518 15.4829678,70.0384502 14.6785714,69.8571429 L11.7738095,69.202381 L12.0238095,67.8095238 L14.9285714,68.1904762 C15.7648228,68.2926512 16.5587288,67.7964599 16.8333333,67 C17.3163937,65.6521975 18.0248829,64.3962393 18.9285714,63.2857143 C19.4414243,62.6367058 19.4414243,61.7204371 18.9285714,61.0714286 L17.1904762,58.797619 L18.2738095,57.8809524 L20.1904762,59.9642857 C20.7568516,60.5757562 21.6709001,60.7140986 22.3928571,60.297619 C23.6462773,59.572147 25.0156272,59.0687095 26.4404762,58.8095238 C27.2469296,58.6515963 27.8414856,57.9636803 27.8809524,57.1428571 L28.0119048,54.3333333 L29.4285714,54.3333333 L29.547619,57.1428571 C29.5831787,57.9529103 30.1600435,58.6373262 30.952381,58.8095238 C32.3731186,59.0700259 33.7383356,59.5734245 34.9880952,60.297619 C35.7100523,60.7140986 36.6241007,60.5757562 37.1904762,59.9642857 L39.1071429,57.8809524 L40.1904762,58.797619 L38.452381,61.0714286 C37.9395281,61.7204371 37.9395281,62.6367058 38.452381,63.2857143 C39.3560695,64.3962393 40.0645587,65.6521975 40.547619,67 C40.8428929,67.8274174 41.6961371,68.3171493 42.5595238,68.1547619 Z M28.7142857,63.8690476 C24.6181738,63.8690476 21.297619,67.1896024 21.297619,71.2857143 C21.297619,75.3818262 24.6181738,78.702381 28.7142857,78.702381 C32.8103976,78.702381 36.1309524,75.3818262 36.1309524,71.2857143 C36.1243977,67.1923205 32.8076795,63.8756023 28.7142857,63.8690476 Z M28.7142857,75.1428571 C26.5906194,75.1428571 24.8690476,73.4212854 24.8690476,71.297619 C24.8690476,69.1739527 26.5906194,67.452381 28.7142857,67.452381 C30.8379521,67.452381 32.5595238,69.1739527 32.5595238,71.297619 C32.5529877,73.4185722 30.8352388,75.136321 28.7142857,75.1428571 Z M52.1547619,37.1309524 L54.5357143,41.3095238 C55.014298,42.1428298 56.0665123,42.447972 56.9166667,42 L59.9761905,40.4166667 C60.5786226,40.9846016 61.2233353,41.5059433 61.9047619,41.9761905 L60.8452381,45.2380952 C60.5246437,46.1547322 60.9953166,47.1595395 61.9047619,47.5 L66.4404762,49.1547619 C67.3373661,49.4833604 68.3340297,49.0479758 68.702381,48.1666667 L70.047619,44.9404762 C70.8398872,45.006729 71.6363033,45.006729 72.4285714,44.9404762 L73.8095238,48.1547619 C74.1778751,49.0360711 75.1745387,49.4714557 76.0714286,49.1428571 L80.6071429,47.4880952 C81.534046,47.1718589 82.0332866,46.1680666 81.7261905,45.2380952 L80.6904762,41.9285714 C81.3556545,41.4565994 81.9844104,40.9352892 82.5714286,40.3690476 L85.6309524,41.952381 C86.4811067,42.400353 87.5333211,42.0952108 88.0119048,41.2619048 L90.3928571,37.0833333 C90.8598925,36.2604738 90.6040359,35.2161614 89.8095238,34.702381 L86.9642857,32.8809524 C87.1830816,32.068857 87.3383127,31.240958 87.4285714,30.4047619 L90.7261905,29.7619048 C91.6555737,29.5536773 92.257968,28.6527051 92.0952381,27.7142857 L91.2619048,22.952381 C91.1262658,21.9920787 90.2489452,21.3155905 89.2857143,21.4285714 L86.0595238,21.8452381 C85.6929399,21.0538861 85.2629674,20.2934717 84.7738095,19.5714286 L86.7380952,17.0119048 C87.3171475,16.2527063 87.1965215,15.1723163 86.4642857,14.5595238 L82.7619048,11.452381 C82.0313938,10.8362689 80.9453082,10.9044771 80.297619,11.6071429 L78.1428571,13.9880952 C77.336231,13.6141143 76.5000454,13.3075129 75.6428571,13.0714286 L75.5,9.9047619 C75.4554537,8.95122641 74.6688606,8.20134099 73.7142857,8.20238095 L68.8690476,8.20238095 C67.9144727,8.20134099 67.1278796,8.95122641 67.0833333,9.9047619 L66.9404762,13.0952381 C66.0833212,13.331426 65.2471439,13.6380243 64.4404762,14.0119048 L62.2857143,11.6309524 C61.6380251,10.9282867 60.5519395,10.8600784 59.8214286,11.4761905 L56.1190476,14.5833333 C55.3868119,15.1961259 55.2661858,16.2765158 55.8452381,17.0357143 L57.8095238,19.5952381 C57.3203659,20.3172813 56.8903934,21.0776956 56.5238095,21.8690476 L53.3095238,21.4285714 C52.3617724,21.3060659 51.4855584,21.9514211 51.3214286,22.8928571 L50.4880952,27.6547619 C50.2894421,28.6137201 50.9002006,29.5537571 51.8571429,29.7619048 L55.1190476,30.4880952 C55.209115,31.3243196 55.3643488,32.1522333 55.5833333,32.9642857 L52.7380952,34.7261905 C51.9297658,35.2413103 51.6722954,36.3027187 52.1547619,37.1309524 Z M54.297619,26.5952381 L54.547619,25.202381 L57.452381,25.5833333 C58.2896815,25.6902636 59.086353,25.1923439 59.3571429,24.3928571 C59.8399924,23.0449583 60.5485009,21.7889659 61.452381,20.6785714 C61.9652338,20.0295629 61.9652338,19.1132942 61.452381,18.4642857 L59.7142857,16.1904762 L60.797619,15.2738095 L62.7380952,17.3809524 C63.3044707,17.9924229 64.2185191,18.1307653 64.9404762,17.7142857 C66.2121902,16.9823688 67.6022194,16.478735 69.047619,16.2261905 C69.8676399,16.076964 70.4753629,15.3803059 70.5119048,14.547619 L70.6428571,11.7380952 L72.0595238,11.7380952 L72.1904762,14.547619 C72.227018,15.3803059 72.8347411,16.076964 73.6547619,16.2261905 C75.0796109,16.4853762 76.4489608,16.9888137 77.702381,17.7142857 C78.424338,18.1307653 79.3383864,17.9924229 79.9047619,17.3809524 L81.8214286,15.297619 L82.9047619,16.2142857 L81.1666667,18.4880952 C80.6538138,19.1371037 80.6538138,20.0533725 81.1666667,20.702381 C82.0703552,21.812906 82.7788444,23.0688642 83.2619048,24.4166667 C83.5326946,25.2161534 84.3293662,25.7140731 85.1666667,25.6071429 L88.0952381,25.202381 L88.3452381,26.5952381 L85.4404762,27.25 C84.6360798,27.4313073 84.0604223,28.139809 84.047619,28.9642857 C84.0201972,30.3707446 83.7586818,31.7628117 83.2738095,33.0833333 C82.9854227,33.8697859 83.2824586,34.7509924 83.9880952,35.202381 L86.547619,36.8333333 L85.7142857,38.0952381 L82.9761905,36.6785714 C82.2442822,36.3013088 81.3493013,36.4734205 80.8095238,37.0952381 C79.9001714,38.1392896 78.8265391,39.0279515 77.6309524,39.7261905 C76.9161109,40.1474955 76.585657,41.0056894 76.8333333,41.797619 L77.7619048,44.7738095 L76.4880952,45.2380952 L75.297619,42.3333333 C74.9786373,41.5742932 74.1820344,41.131736 73.3690476,41.2619048 C72.011045,41.5078407 70.6199074,41.5078407 69.2619048,41.2619048 C68.4497065,41.1361835 67.6556747,41.5773123 67.3333333,42.3333333 L66.1428571,45.2380952 L64.8095238,44.75 L65.7380952,41.7738095 C65.9857716,40.9818798 65.6553176,40.123686 64.9404762,39.702381 C63.7448895,39.004142 62.6712572,38.11548 61.7619048,37.0714286 C61.2190626,36.4051726 60.278638,36.2200891 59.5238095,36.6309524 L56.8095238,38.0952381 L56.1071429,36.9047619 L58.6666667,35.2738095 C59.3723033,34.822421 59.6693392,33.9412145 59.3809524,33.1547619 C58.8956502,31.8343587 58.634121,30.4422188 58.6071429,29.0357143 C58.5943396,28.2112375 58.0186821,27.5027359 57.2142857,27.3214286 L54.297619,26.5952381 Z M71.2857143,36.1190476 C75.3818262,36.1190476 78.702381,32.7984928 78.702381,28.702381 C78.702381,24.6062691 75.3818262,21.2857143 71.2857143,21.2857143 C67.1896024,21.2857143 63.8690476,24.6062691 63.8690476,28.702381 C63.8690424,32.8004231 67.1876774,36.124385 71.2857143,36.1309524 L71.2857143,36.1190476 Z M71.2857143,24.8452381 C73.4093806,24.8452381 75.1309524,26.5668098 75.1309524,28.6904762 C75.1309524,30.8141425 73.4093806,32.5357143 71.2857143,32.5357143 C69.1620479,32.5357143 67.4404762,30.8141425 67.4404762,28.6904762 C67.4535301,26.5741736 69.1693814,24.8636345 71.2857143,24.8571429 L71.2857143,24.8452381 Z M99.4047619,28.7142857 C99.3943605,37.5864728 95.2008189,45.9342785 88.0893103,51.2392062 C80.9778017,56.5441338 71.7810998,58.1849645 63.2738095,55.6666667 L63.2142857,55.6666667 L56.3571429,53.702381 C55.4504967,53.39822 54.9444017,52.4337968 55.2092255,51.5148901 C55.4740493,50.5959834 56.4157767,50.0488145 57.3452381,50.2738095 L64.8690476,52.3809524 C75.5647324,55.2618982 86.8634192,50.6117623 92.4326757,41.0367478 C98.0019322,31.4617333 96.4576211,19.3415356 88.6652628,11.4690091 C80.8729046,3.59648254 68.769148,1.92820026 59.1376329,7.39916336 C49.5061178,12.8701265 44.7405818,24.1206267 47.5119048,34.8452381 L55.7261905,63.4880952 C59.2748026,75.8113453 54.0247361,88.9731567 42.9687191,95.4708201 C31.912702,101.968483 17.8594326,100.151316 8.81978363,91.0551692 C-0.219865374,81.9590224 -1.94943902,67.8947039 4.61698235,56.879385 C11.1834037,45.8640661 24.37767,40.6961057 36.6785714,44.3214286 L41.6666667,45.75 C42.5733128,46.054161 43.0794078,47.0185842 42.814584,47.9374909 C42.5497602,48.8563976 41.6080328,49.4035665 40.6785714,49.1785714 L35.7142857,47.7619048 C24.9823843,44.5794543 13.4578772,49.0716471 7.71079695,58.6775186 C1.96371666,68.2833901 3.45425176,80.5623299 11.3326597,88.5142094 C19.2110677,96.4660889 31.4756431,98.0705353 41.1344463,92.4128662 C50.7932495,86.7551971 55.3922215,75.272884 52.3095238,64.5119048 L44.3214286,36.6428571 L44.3214286,36.4642857 C41.1907659,25.8755243 44.5471698,14.4345188 52.9021077,7.21524391 C61.2570456,-0.00403098018 73.0639306,-1.66521147 83.0865239,2.96841983 C93.1091173,7.60205113 99.4921316,17.6727603 99.4047619,28.7142857 Z" id="Shape"></path>
        </g>
    </g>
</svg>