<?xml version="1.0" encoding="UTF-8"?>
<svg width="100px" height="100px" viewBox="0 0 100 100" version="1.1" xmlns="http://www.w3.org/2000/svg" xmlns:xlink="http://www.w3.org/1999/xlink">
    <!-- Generator: Sketch 49 (51002) - http://www.bohemiancoding.com/sketch -->
    <title>beneficio-consultoria-1</title>
    <desc>Created with Sketch.</desc>
    <defs></defs>
    <g id="Page-1" stroke="none" stroke-width="1" fill="none" fill-rule="evenodd">
        <g id="beneficio-consultoria-1">
            <circle id="Oval" fill="#FFF100" cx="50.9677419" cy="53.5483871" r="8.38709677"></circle>
            <g id="noun_1287600_cc" fill="#000524" fill-rule="nonzero">
                <path d="M6.07228916,53.0779424 C5.94012702,53.0919077 5.80686093,53.0919077 5.6746988,53.0779424 L1.80722892,53.0779424 C0.809123946,53.0779424 0,52.2689159 0,51.2709312 C0,50.2729465 0.809123946,49.46392 1.80722892,49.46392 L4.3373494,49.46392 C4.4726781,45.7910353 5.06354266,42.1491583 6.09638554,38.6218528 C6.37918195,37.6637874 7.38519272,37.1163462 8.34337349,37.3991085 C9.30155426,37.6818709 9.84906147,38.6877605 9.56626506,39.6458258 C8.62846281,42.8442802 8.08626785,46.145607 7.95180723,49.4759668 L10.3614458,49.4759668 C11.3595508,49.4759668 12.1686747,50.2849932 12.1686747,51.282978 C12.1686747,52.2809627 11.3595508,53.0899892 10.3614458,53.0899892 L6.45783133,53.0899892 C6.32927143,53.1004161 6.19994708,53.0963752 6.07228916,53.0779424 Z M46.9638554,12.7936393 C46.9638555,13.791624 47.7729794,14.6006504 48.7710843,14.6006504 C49.7691893,14.6006504 50.5783132,13.791624 50.5783133,12.7936393 L50.5783133,10.384291 C53.8963624,10.518347 57.1856898,11.0563886 60.373494,11.9865076 C60.9933283,12.1694228 61.6636746,12.0078056 62.13202,11.5625356 C62.6003655,11.1172656 62.7955571,10.45599 62.6440682,9.82780484 C62.4925793,9.19961968 62.0174247,8.69996128 61.3975904,8.51704614 C57.8692069,7.48901244 54.2269769,6.90227941 50.5542169,6.77026864 L50.5542169,4.24045296 C50.5542168,3.24246827 49.7450929,2.43344186 48.746988,2.43344186 C47.748883,2.43344186 46.9397591,3.24246827 46.939759,4.24045296 L46.9638554,12.7936393 Z M12.8072289,70.6902783 C12.3314655,69.8120517 11.2337541,69.4857444 10.3554217,69.9614504 C9.47708931,70.4371565 9.15074266,71.5347357 9.62650602,72.4129623 C11.6876785,76.2097985 14.2890933,79.6874021 17.3493976,82.7370196 C17.7999291,83.220463 18.4784471,83.4194656 19.1187685,83.2559584 C19.7590898,83.0924513 20.2590889,82.5925124 20.4226158,81.9522682 C20.5861426,81.312024 20.3871161,80.6335877 19.9036145,80.1831105 C17.0903884,77.3795623 14.6999079,74.1818174 12.8072289,70.6902783 Z M18.5060241,22.9249488 C18.9851695,22.924527 19.4445365,22.7338694 19.7831325,22.3948922 C22.5825177,19.5786846 25.7765755,17.1844444 29.2650602,15.2873148 C30.1433926,14.8116087 30.4697392,13.7140295 29.9939759,12.8358029 C29.5182125,11.9575764 28.420501,11.631269 27.5421687,12.1069751 C23.7477973,14.1717143 20.2737281,16.7769523 17.2289157,19.840983 C16.7127222,20.3577565 16.558414,21.1344225 16.8378627,21.8092363 C17.1173114,22.48405 17.7755623,22.9243064 18.5060241,22.9249488 Z M77.6987952,80.11083 C74.8940934,82.9194553 71.6960044,85.3055591 68.2048193,87.1943139 C67.3264869,87.67002 67.0001402,88.7675992 67.4759036,89.6458258 C67.951667,90.5240524 69.0493785,90.8503597 69.9277108,90.3746537 C73.7285728,88.3185515 77.2106875,85.7214829 80.2650602,82.6647392 C80.9285756,81.9527533 80.9089973,80.8432485 80.2207754,80.1551095 C79.5325535,79.4669705 78.4229151,79.4473946 77.7108434,80.11083 L77.6987952,80.11083 Z M50.5783133,93.6754608 L50.5783133,89.6398024 C50.5783133,88.9942195 50.2338574,88.3976762 49.6746988,88.0748847 C49.1155402,87.7520933 48.4266284,87.7520933 47.8674698,88.0748847 C47.3083113,88.3976762 46.9638554,88.9942195 46.9638554,89.6398024 L46.9638554,92.0491507 C43.6164394,91.9142286 40.2983409,91.3680221 37.0843373,90.4228406 C36.4645031,90.2377735 35.7930086,90.3974023 35.3227993,90.8415963 C34.85259,91.2857903 34.655102,91.9470659 34.804727,92.576327 C34.954352,93.2055882 35.4283585,93.707235 36.0481928,93.8923021 C39.5950236,94.9332935 43.2577982,95.5281697 46.9518072,95.6631731 L46.9518072,98.1929888 C46.9518072,99.1909735 47.7609312,100 48.7590361,100 C49.7571411,100 50.5662651,99.1909735 50.5662651,98.1929888 L50.5662651,94.133237 C50.5710388,94.0570156 50.5710388,93.9805702 50.5662651,93.9043489 C50.5752884,93.8283989 50.5793131,93.7519383 50.5783133,93.6754608 Z M95.7349398,49.415733 L87.2048193,49.415733 C86.2067143,49.415733 85.3975904,50.2247595 85.3975904,51.2227442 C85.3975904,52.220729 86.2067143,53.0297555 87.2048193,53.0297555 L89.6144578,53.0297555 C89.4790473,56.3894732 88.9286873,59.7195597 87.9759036,62.9442236 C87.7908142,63.5639832 87.9504622,64.2353968 88.3947097,64.7055494 C88.8389573,65.175702 89.5003126,65.3731663 90.1296495,65.2235593 C90.7589864,65.0739523 91.2606937,64.600003 91.4457831,63.9802433 C92.4990172,60.4193244 93.1021034,56.7405371 93.2409639,53.0297555 L95.7710843,53.0297555 C96.7691893,53.0297555 97.5783133,52.220729 97.5783133,51.2227442 C97.5783133,50.2247595 96.7691893,49.415733 95.7710843,49.415733 L95.7349398,49.415733 Z M100,10.3481508 C100,11.3461356 99.1908761,12.155162 98.1927711,12.155162 L90.3975904,12.155162 L87.2891566,15.2632213 L91.4698795,15.2632213 C92.4679845,15.2632213 93.2771084,16.0722478 93.2771084,17.0702325 C93.2771084,18.0682172 92.4679845,18.8772437 91.4698795,18.8772437 L83.6746988,18.8772437 L81.4698795,21.0817974 C83.9582133,23.7635683 86.1069031,26.7414312 87.8674699,29.948199 C88.2029095,30.516147 88.2022097,31.2217224 87.8656442,31.789004 C87.5290786,32.3562856 86.9101226,32.6951409 86.2508241,32.6730576 C85.5915256,32.6509742 84.9966372,32.271461 84.6987952,31.6829298 C83.1039047,28.7763879 81.1619857,26.0742096 78.9156627,23.6357065 L75.4337349,27.1172148 C88.5382492,41.6056792 87.6988373,63.8992317 73.5419041,77.361477 C59.3849709,90.8237223 37.0746922,90.5438933 23.259945,76.7308104 C9.44519779,62.9177274 9.16533512,40.6101363 22.6292024,26.4549086 C36.0930696,12.2996808 58.3893081,11.46037 72.8795181,24.5633056 L77.1686747,20.2746657 C77.3471542,19.8021435 77.720192,19.4291507 78.1927711,19.2506927 L81.1204819,16.3233345 L81.1204819,8.52909288 C81.1204819,7.53110815 81.9296059,6.72208168 82.9277108,6.72208168 C83.9258158,6.72208168 84.7349398,7.53110815 84.7349398,8.52909288 L84.7349398,12.7093121 L87.8433735,9.60125286 L87.8433735,1.8070112 C87.8433735,0.809026473 88.6524974,0 89.6506024,0 C90.6487074,0 91.4578313,0.809026473 91.4578313,1.8070112 L91.4578313,8.54113962 L98.1927711,8.54113962 C98.672078,8.54113962 99.1317537,8.73152061 99.4706749,9.07040095 C99.8095961,9.40928129 100,9.86890166 100,10.3481508 Z M72.8795181,29.622937 L66.3614458,36.1402241 C74.4668591,45.6164677 73.6372989,59.8025338 64.4826068,68.2696995 C55.3279147,76.7368651 41.118601,76.4602386 32.3004788,67.6431787 C23.4823566,58.8261188 23.2056967,44.6185168 31.6738825,35.4649275 C40.1420683,26.3113383 54.3298436,25.481878 63.8072289,33.5863149 L70.3253012,27.0690278 C57.2498716,15.3779231 37.2436029,16.2152282 25.1910294,28.9579936 C13.1384559,41.700759 13.4176636,61.720187 25.8209238,74.121953 C38.224184,86.523719 58.246024,86.8028931 70.9903247,74.7517716 C83.7346254,62.70065 84.5720314,42.6967915 72.8795181,29.622937 Z M54.626506,47.8978436 L50.0481928,52.4756053 C49.3361211,53.1390407 48.2264826,53.1194648 47.5382607,52.4313259 C46.8500389,51.7431869 46.8304606,50.6336821 47.4939759,49.9216962 L52.0722892,45.3439345 C49.1348879,43.6840515 45.4227559,44.4490002 43.3810949,47.1349047 C41.3394338,49.8208093 41.5960153,53.6018055 43.9818277,55.9873305 C46.3676401,58.3728554 50.1490918,58.629406 52.83532,56.5879909 C55.5215481,54.5465758 56.286589,50.834891 54.626506,47.8978436 Z M61.2409639,36.1763643 C53.197587,29.4985616 41.3249044,30.3229045 34.2818023,38.0481901 C27.2387002,45.7734757 27.5137101,57.6701375 34.906264,65.0618008 C42.2988179,72.4534642 54.196913,72.7284409 61.9231294,65.6861873 C69.6493458,58.6439337 70.473788,46.7726814 63.7951807,38.7302735 L57.2409639,45.2837008 C60.3234761,49.6898277 59.5272443,55.7207735 55.4068198,59.1761663 C51.2863953,62.6315592 45.2082167,62.365502 41.4055522,58.5632955 C37.6028877,54.7610891 37.3367985,48.6836428 40.7926076,44.5637147 C44.2484167,40.4437866 50.2800892,39.6476507 54.686747,42.7297916 L61.2409639,36.1763643 Z" id="Shape"></path>
            </g>
        </g>
    </g>
</svg>