<?xml version="1.0" encoding="UTF-8"?>
<svg width="75px" height="258px" viewBox="0 0 75 258" version="1.1" xmlns="http://www.w3.org/2000/svg" xmlns:xlink="http://www.w3.org/1999/xlink">
    <!-- Generator: Sketch 49 (51002) - http://www.bohemiancoding.com/sketch -->
    <title>desarrollo-consultoria</title>
    <desc>Created with Sketch.</desc>
    <defs></defs>
    <g id="Page-1" stroke="none" stroke-width="1" fill="none" fill-rule="evenodd">
        <g id="beneficio-consultoria-1" transform="translate(33.000000, 16.000000)"></g>
        <g id="Artboard-2" transform="translate(-61.000000, -8.000000)">
            <g id="Group" transform="translate(61.000000, 8.000000)">
                <g id="noun_1287603_cc"></g>
            </g>
            <g id="noun_1287594_cc" transform="translate(61.000000, 200.000000)"></g>
            <g id="Group-2" transform="translate(61.000000, 8.000000)">
                <path d="M32.5,86.5 C43.6377468,97.9253586 49.2066202,109.719985 49.2066202,121.88388 C49.2066202,134.047775 45.1377468,145.842402 37,157.267761" id="Line" stroke="#000524" stroke-width="3" stroke-linecap="round" stroke-dasharray="9"></path>
                <circle id="Oval" fill="#FFF100" cx="37.5" cy="38.5" r="4.5"></circle>
                <circle id="Oval-3" fill="#FFF100" cx="41" cy="214" r="26"></circle>
                <path d="M65.32,232.35 C65.6145654,232.617765 65.7906135,232.991638 65.80937,233.389275 C65.8281264,233.786912 65.6880527,234.175697 65.42,234.47 C64.2520801,235.756145 62.9956847,236.959076 61.66,238.07 C61.2473582,238.412975 60.6830866,238.509755 60.1797407,238.323884 C59.6763947,238.138014 59.3104448,237.69773 59.2197407,237.168884 C59.1290365,236.640039 59.3273582,236.102975 59.74,235.76 C60.9691624,234.738761 62.1253221,233.632724 63.2,232.45 C63.4677648,232.155435 63.8416383,231.979386 64.239275,231.96063 C64.6369117,231.941874 65.0256966,232.081947 65.32,232.35 Z M4,210.91 C3.97514717,210.081573 3.28342711,209.430147 2.455,209.455 C1.62657289,209.479853 0.975147204,210.171573 1,211 C1.14136994,214.625545 1.81524875,218.21058 3,221.64 C3.2761424,222.424244 4.13575566,222.836142 4.91999998,222.56 C5.7042443,222.283858 6.11614233,221.424244 5.84,220.64 C4.75511437,217.503841 4.13520785,214.225749 4,210.91 Z M15.28,184.21 C15.7133218,183.862321 15.9189896,183.303614 15.8145148,182.757965 C15.7100401,182.212315 15.3125352,181.769097 14.7814303,181.606076 C14.2503254,181.443054 13.6726129,181.586931 13.28,181.98 C10.583455,184.40171 8.25549788,187.204692 6.37,190.3 C5.97663369,191.003967 6.21024995,191.89297 6.89888132,192.312605 C7.58751269,192.73224 8.48469386,192.532316 8.93,191.86 C10.6532127,189.016067 12.782324,186.438899 15.25,184.21 L15.28,184.21 Z M33.08,175.85 C36.3794754,175.372432 39.7305246,175.372432 43.03,175.85 L43.25,175.85 C44.0784271,175.910751 44.7992486,175.288427 44.86,174.46 C44.9207513,173.631573 44.2984271,172.910751 43.47,172.85 C39.8853958,172.330434 36.2446042,172.330434 32.66,172.85 C32.1241016,172.926812 31.6698898,173.283688 31.4684619,173.786195 C31.2670339,174.288703 31.3489914,174.8605 31.6834619,175.286195 C32.0179323,175.711891 32.5541016,175.926812 33.09,175.85 L33.08,175.85 Z M73.59,209.53 C73.1819856,209.505407 72.7816062,209.648389 72.4814689,209.925875 C72.1813316,210.20336 72.0074346,210.591313 72,211 C71.8663275,214.32983 71.2429724,217.621819 70.15,220.77 C69.9713672,221.275531 70.0760011,221.83796 70.4244873,222.245426 C70.7729734,222.652892 71.3123684,222.843491 71.8394873,222.745426 C72.3666062,222.647361 72.8013672,222.275531 72.98,221.77 C74.1647733,218.344031 74.8386664,214.762289 74.98,211.14 C75.0102684,210.741927 74.8806015,210.348209 74.6197106,210.046026 C74.3588197,209.743843 73.9882305,209.558127 73.59,209.53 Z M62.8,182 C62.1787948,181.501571 61.2763595,181.575529 60.7445939,182.168447 C60.2128283,182.761366 60.2371546,183.6665 60.8,184.23 C63.2755232,186.460542 65.4114661,189.041192 67.14,191.89 C67.407994,192.369601 67.9167401,192.664318 68.466104,192.658214 C69.0154679,192.652109 69.5175392,192.346159 69.7748094,191.860721 C70.0320796,191.375283 70.0033797,190.788038 69.7,190.33 C67.8183579,187.231826 65.4937637,184.425468 62.8,182 Z M13,232.65 C12.6640335,232.181218 12.0890485,231.946576 11.5210215,232.046452 C10.9529945,232.146328 10.4925359,232.563033 10.3366283,233.118301 C10.1807207,233.673569 10.3569787,234.26905 10.79,234.65 C11.9684258,235.927035 13.2348586,237.119955 14.58,238.22 C15.2224641,238.715677 16.1426297,238.610572 16.656767,237.982783 C17.1709044,237.354995 17.0925831,236.432163 16.48,235.9 C15.2459019,234.898833 14.0830843,233.812868 13,232.65 Z M66.19,209.55 C66.1897501,218.978043 61.4713726,227.780426 53.62,233 L52,246.11 C52.012973,246.222962 52.012973,246.337038 52,246.45 L51.4,251.22 C51.3042708,251.969675 50.6657618,252.531049 49.91,252.53 L45.43,252.53 L45.43,256 C45.43,256.828427 44.7584271,257.5 43.93,257.5 L32.07,257.5 C31.2415729,257.5 30.57,256.828427 30.57,256 L30.57,252.54 L26.15,252.54 C25.3942382,252.541049 24.7557292,251.979675 24.66,251.23 L22.38,233 C11.2047584,225.54319 6.85334099,211.230575 11.9869772,198.815431 C17.1206135,186.400286 30.3094599,179.340534 43.4875131,181.95376 C56.6655663,184.566986 66.1624154,196.125344 66.17,209.56 L66.19,209.55 Z M42.45,252.55 L33.57,252.55 L33.57,254.55 L42.42,254.55 L42.45,252.55 Z M50.39,234.87 C42.5894088,238.690823 33.4605912,238.690823 25.66,234.87 L26.26,239.7 L31.09,239.7 C31.9184271,239.7 32.59,240.371573 32.59,241.2 C32.59,242.028427 31.9184271,242.7 31.09,242.7 L26.62,242.7 L26.86,244.63 L29.11,244.63 C29.9384271,244.63 30.61,245.301573 30.61,246.13 C30.61,246.958427 29.9384271,247.63 29.11,247.63 L27.23,247.63 L27.47,249.56 L48.53,249.56 L48.77,247.63 L43.93,247.63 C43.1015729,247.63 42.43,246.958427 42.43,246.13 C42.43,245.301573 43.1015729,244.63 43.93,244.63 L49.15,244.63 L49.39,242.7 L37,242.7 C36.1715729,242.7 35.5,242.028427 35.5,241.2 C35.5,240.371573 36.1715729,239.7 37,239.7 L49.76,239.7 L50.39,234.87 Z M63.19,209.57 C63.2010413,195.668999 51.941006,184.39106 38.0400053,184.380016 C24.1390046,184.368972 12.861063,195.629005 12.8500159,209.530005 C12.8389687,223.431006 24.0989993,234.70895 38,234.72 C51.8902564,234.703481 63.1479618,223.450249 63.17,209.56 L63.19,209.57 Z M32.57,246.11 C32.57,246.938427 33.2415729,247.61 34.07,247.61 L39,247.61 C39.8284271,247.61 40.5,246.938427 40.5,246.11 C40.5,245.281573 39.8284271,244.61 39,244.61 L34.07,244.61 C33.2415729,244.61 32.57,245.281573 32.57,246.11 Z" id="Shape" fill="#000524" fill-rule="nonzero"></path>
                <circle id="Oval" fill="#FFF100" cx="37.5" cy="38.5" r="4.5"></circle>
                <path d="M60.29,43.15 C61.9963699,33.9135257 58.0846327,24.5412369 50.3183028,19.2584086 C42.5519729,13.9755803 32.3979955,13.7800608 24.4340514,18.7599956 C16.4701074,23.7399303 12.2004682,32.954683 13.55,42.25 L13.55,42.34 L16.34,61.22 L13.46,72.76 C13.2698578,73.5269186 13.7072441,74.3098401 14.46,74.55 L41.09,83.43 C41.4853516,83.5554786 41.9150132,83.5116484 42.2768845,83.3089247 C42.6387558,83.106201 42.9005294,82.7626827 43,82.36 L45.68,71.66 L55.75,71.66 C56.5091291,71.6604247 57.1489046,71.0936437 57.24,70.34 L58.86,56.87 L63.74,56.87 C64.240649,56.8708415 64.7087141,56.6218493 64.9878131,56.2062126 C65.2669121,55.790576 65.3202476,55.2630939 65.13,54.8 L60.29,43.15 Z M57.52,53.87 C56.7494626,53.8541745 56.0923215,54.4248497 56,55.19 L54.42,68.66 L44.51,68.66 C43.8188051,68.6582308 43.2158851,69.129004 43.05,69.8 L40.48,80.06 L16.71,72.14 L19.33,61.65 C19.3679919,61.4585331 19.3679919,61.2614669 19.33,61.07 L16.54,42 L16.54,41.91 C16.3885627,40.8970018 16.3116895,39.8742537 16.31,38.85 C16.4009169,31.0133737 20.9118435,23.900777 27.9619597,20.4777901 C35.0120759,17.0548031 43.3910822,17.9090531 49.6053721,22.6843624 C55.819662,27.4596717 58.802423,35.3362589 57.31,43.03 C57.2477026,43.324712 57.2755791,43.6313533 57.39,43.91 L61.53,53.91 L57.52,53.87 Z M20.52,5.87 C20.1692992,5.11889274 20.4938928,4.22570083 21.245,3.87500002 C21.9961073,3.52429921 22.8892992,3.84889275 23.24,4.6 L25.74,9.96 C25.9668637,10.4458812 25.9172798,11.0158843 25.6099261,11.4552946 C25.3025725,11.8947049 24.7841434,12.1367655 24.2499261,12.0902946 C23.7157088,12.0438236 23.2468636,11.7158812 23.02,11.23 L20.52,5.87 Z M32.85,8 L32.33,2.1 C32.2835554,1.5641016 32.5265373,1.04413318 32.9674167,0.735961832 C33.408296,0.427790481 33.9800928,0.378234759 34.4674167,0.605961828 C34.9547406,0.833688897 35.2835555,1.30410159 35.33,1.84 L35.85,7.74 C35.9193366,8.5621259 35.3117116,9.28591452 34.49,9.36 L34.36,9.36 C33.5794771,9.36860661 32.9228058,8.77716753 32.85,8 Z M43.13,8.35 L44.66,2.63 C44.8753911,1.82918711 45.6991871,1.35460895 46.5,1.57 C47.3008129,1.78539105 47.7753911,2.60918711 47.56,3.41 L46,9.15 C45.7846089,9.95081289 44.9608129,10.4253911 44.16,10.21 C43.3591871,9.99460895 42.8846089,9.17081289 43.1,8.37 L43.13,8.35 Z M52.67,12.2 L56.06,7.35 C56.5349649,6.67068976 57.4706898,6.50503512 58.15,6.98 C58.8293102,7.45496488 58.9949649,8.39068976 58.52,9.07 L55.13,13.92 C54.6550351,14.5993102 53.7193102,14.7649649 53.04,14.29 C52.3606898,13.8150351 52.1950351,12.8793102 52.67,12.2 Z M59.95,21.2 C59.7216937,20.8738549 59.6324064,20.4703281 59.7018067,20.0783103 C59.771207,19.6862925 59.9936014,19.3379437 60.32,19.11 L65.17,15.72 C65.6094367,15.4127516 66.179408,15.363279 66.6652112,15.5902182 C67.1510145,15.8171573 67.4788447,16.2860306 67.5252112,16.8202182 C67.5715778,17.3544057 67.3294367,17.8727516 66.89,18.18 L62.04,21.57 C61.3679447,22.0099945 60.4685585,21.8424618 60,21.19 L59.95,21.2 Z M65.16,28.2 L70.88,26.67 C71.6808129,26.4546089 72.5046089,26.9291871 72.72,27.73 C72.9353911,28.5308129 72.4608129,29.3546089 71.66,29.57 L65.94,31.1 C65.1391871,31.3153911 64.3153911,30.8408129 64.1,30.04 C63.8846089,29.2391871 64.3591871,28.4153911 65.16,28.2 Z M73.86,40.53 C73.7927178,41.3034501 73.1463677,41.8977451 72.37,41.9 L72.24,41.9 L66.34,41.38 C65.8041016,41.3335555 65.3336889,41.0047406 65.1059619,40.5174167 C64.8782348,40.0300928 64.9277906,39.458296 65.2359619,39.0174167 C65.5441332,38.5765373 66.0641016,38.3335555 66.6,38.38 L72.5,38.9 C73.3215011,38.96901 73.9333491,39.688043 73.87,40.51 L73.86,40.53 Z M9.86,44.73 C9.96386005,45.1145786 9.9104784,45.5246755 9.71162749,45.8698506 C9.51277658,46.2150258 9.18479009,46.4669264 8.8,46.57 L3.08,48.1 C2.56196489,48.2393336 2.00894714,48.0917147 1.62926316,47.7127499 C1.24957919,47.3337851 1.10091203,46.7810483 1.23926316,46.2627499 C1.3776143,45.7444516 1.78196489,45.3393336 2.3,45.2 L8.02,43.67 C8.40595214,43.5562679 8.82141517,43.6023609 9.17305288,43.7979241 C9.52469059,43.9934874 9.78301788,44.3221226 9.89,44.71 L9.86,44.73 Z M1.46,35.86 C0.631572875,35.788203 0.0182029825,35.0584271 0.09,34.23 C0.161797017,33.4015729 0.891572875,32.788203 1.72,32.86 L7.62,33.38 C8.15589838,33.4032223 8.63869998,33.7105789 8.88653811,34.1862917 C9.13437623,34.6620044 9.10959837,35.2338012 8.82153811,35.6862917 C8.53347784,36.1387821 8.02589838,36.4032223 7.49,36.38 L7.36,36.38 L1.46,35.86 Z M11.46,25.58 C11.2927242,25.9430414 10.9874645,26.2243011 10.6119702,26.3613566 C10.2364758,26.498412 9.82180871,26.4799255 9.46,26.31 L4.1,23.81 C3.34889275,23.4592992 3.02429921,22.5661073 3.37500002,21.815 C3.72570083,21.0638928 4.61889274,20.7392992 5.37,21.09 L10.73,23.59 C11.4886269,23.9193499 11.8375452,24.8005921 11.51,25.56 L11.46,25.58 Z M10.73,13.39 C10.1792823,12.7989805 10.1955322,11.8779806 10.7667564,11.3067564 C11.3379806,10.7355322 12.2589805,10.7192823 12.85,11.27 L17.04,15.45 C17.5578824,15.7745736 17.8270477,16.3809037 17.7204118,16.9827168 C17.6137759,17.5845299 17.1526664,18.0614618 16.554792,18.1883333 C15.9569176,18.3152049 15.3418548,18.0666414 15,17.56 L10.73,13.39 Z M51.12,33.29 C51.0158877,32.4936871 50.299405,31.9231546 49.5,32 L47.43,32.27 C47.2137129,31.8316848 46.9698919,31.407503 46.7,31 L48,29.38 C48.4864039,28.7422733 48.385078,27.8347457 47.77,27.32 L45.19,25.16 C44.5763708,24.6424658 43.6640589,24.6997608 43.12,25.29 L41.75,26.78 C41.2855191,26.5720494 40.8078131,26.3949976 40.32,26.25 L40.23,24.25 C40.1925811,23.4490302 39.5318429,22.8191264 38.73,22.82 L35.32,22.82 C34.5181571,22.8191264 33.8574189,23.4490302 33.82,24.25 L33.73,26.25 C33.2421869,26.3949976 32.7644809,26.5720494 32.3,26.78 L30.93,25.29 C30.3859411,24.6997608 29.4736292,24.6424658 28.86,25.16 L26.28,27.32 C25.6487974,27.8201619 25.5251971,28.7295072 26,29.38 L27.3,31 C27.0289942,31.4172024 26.7851556,31.8514356 26.57,32.3 L24.5,32 C23.7038888,31.8970954 22.967869,32.4391938 22.83,33.23 L22.25,36.54 C22.1133069,37.3282723 22.6193181,38.0850889 23.4,38.26 L25.5,38.73 C25.5577148,39.2015816 25.6445473,39.6691412 25.76,40.13 L23.94,41.3 C23.2726098,41.7315756 23.0576903,42.608798 23.45,43.3 L25.13,46.21 C25.5320103,46.9099771 26.4158704,47.1662965 27.13,46.79 L29.13,45.79 C29.4656026,46.104057 29.8195589,46.3979076 30.19,46.67 L29.52,48.8 C29.2791657,49.5663239 29.6847712,50.3863525 30.44,50.66 L33.6,51.81 C34.3533875,52.0860228 35.1905849,51.7202997 35.5,50.98 L36.36,48.9 C36.8128245,48.9303753 37.2671755,48.9303753 37.72,48.9 L38.54,51 C38.8494151,51.7402997 39.6866125,52.1060228 40.44,51.83 L43.6,50.7 C44.3552288,50.4263525 44.7608343,49.6063239 44.52,48.84 L43.85,46.71 C44.2204411,46.4379076 44.5743974,46.144057 44.91,45.83 L46.91,46.83 C47.6241296,47.2062965 48.5079897,46.9499771 48.91,46.25 L50.59,43.34 C50.9823097,42.648798 50.7673902,41.7715756 50.1,41.34 L48.28,40.17 C48.3954527,39.7091412 48.4822852,39.2415816 48.54,38.77 L50.64,38.3 C51.4206819,38.1250889 51.9266931,37.3682723 51.79,36.58 L51.12,33.29 Z M46.76,36.1 C46.0843071,36.2522982 45.6007547,36.8474395 45.59,37.54 C45.5720095,38.4890892 45.3962781,39.4285761 45.07,40.32 C44.8277551,40.9806202 45.0772652,41.7208337 45.67,42.1 L47.25,43.1 L47,43.53 L45.31,42.65 C44.695197,42.3330994 43.9434131,42.4776732 43.49,43 C42.8749181,43.7063229 42.148711,44.3075549 41.34,44.78 C40.7395332,45.1338962 40.4619519,45.8547791 40.67,46.52 L41.25,48.36 L40.78,48.53 L40,46.75 C39.766792,46.193783 39.2231265,45.8313393 38.62,45.83 L38.38,45.83 C37.4608096,45.9964691 36.5191904,45.9964691 35.6,45.83 C34.9130342,45.7117879 34.2359213,46.0856539 33.97,46.73 L33.22,48.53 L32.75,48.36 L33.33,46.52 C33.5380481,45.8547791 33.2604668,45.1338962 32.66,44.78 C31.8548442,44.3066638 31.1320677,43.7054759 30.52,43 C30.0665869,42.4776732 29.314803,42.3330994 28.7,42.65 L27,43.54 L26.75,43.11 L28.33,42.11 C28.9227348,41.7308337 29.1722449,40.9906202 28.93,40.33 C28.6037219,39.4385761 28.4279905,38.4990892 28.41,37.55 C28.3992453,36.8574395 27.9156929,36.2622982 27.24,36.11 L25.45,35.71 L25.54,35.22 L27.32,35.45 C28.0224511,35.535827 28.6893322,35.1190263 28.92,34.45 C29.2445728,33.5395701 29.7213459,32.6908463 30.33,31.94 C30.7607964,31.3948329 30.7607964,30.6251671 30.33,30.08 L29.3,28.69 L29.68,28.37 L30.85,29.64 C31.3272041,30.1587552 32.1012216,30.2752739 32.71,29.92 C33.5559007,29.4325358 34.479375,29.0942668 35.44,28.92 C36.1288175,28.7946498 36.6393048,28.2094569 36.67,27.51 L36.75,25.79 L37.25,25.79 L37.33,27.51 C37.3606952,28.2094569 37.8711825,28.7946498 38.56,28.92 C39.520625,29.0942668 40.4440993,29.4325358 41.29,29.92 C41.8987784,30.2752739 42.6727959,30.1587552 43.15,29.64 L44.32,28.37 L44.7,28.69 L43.64,30.08 C43.2092036,30.6251671 43.2092036,31.3948329 43.64,31.94 C44.2486541,32.6908463 44.7254272,33.5395701 45.05,34.45 C45.2806678,35.1190263 45.9475489,35.535827 46.65,35.45 L48.43,35.22 L48.52,35.71 L46.76,36.1 Z M37,31.94 C34.0010938,31.94 31.57,34.3710938 31.57,37.37 C31.57,40.3689062 34.0010938,42.8 37,42.8 C39.9989062,42.8 42.43,40.3689062 42.43,37.37 C42.43,34.3710938 39.9989062,31.94 37,31.94 Z M37,39.79 C35.6579481,39.79 34.57,38.7020519 34.57,37.36 C34.57,36.0179481 35.6579481,34.93 37,34.93 C38.3420519,34.93 39.43,36.0179481 39.43,37.36 C39.4326593,38.006207 39.1778167,38.6268591 38.7218147,39.0847376 C38.2658127,39.5426161 37.6462124,39.8000055 37,39.8 L37,39.79 Z" id="Shape" fill="#000524" fill-rule="nonzero"></path>
            </g>
        </g>
    </g>
</svg>