<?xml version="1.0" encoding="UTF-8"?>
<svg width="112px" height="179px" viewBox="0 0 112 179" version="1.1" xmlns="http://www.w3.org/2000/svg" xmlns:xlink="http://www.w3.org/1999/xlink">
    <!-- Generator: Sketch 43.2 (39069) - http://www.bohemiancoding.com/sketch -->
    <title>diseno-y-desarrollo-treebox</title>
    <desc>Created with Sketch.</desc>
    <defs></defs>
    <g id="Page-1" stroke="none" stroke-width="1" fill="none" fill-rule="evenodd">
        <g id="home" transform="translate(-979.000000, -958.000000)" fill-rule="nonzero" fill="#000000">
            <g id="diseno-y-desarrollo-treebox" transform="translate(979.000000, 958.000000)">
                <g id="Group">
                    <circle id="Oval" transform="translate(27.966115, 54.524330) rotate(-87.812406) translate(-27.966115, -54.524330) " cx="27.9661151" cy="54.5243301" r="1.60004611"></circle>
                    <circle id="Oval" transform="translate(24.144192, 155.446627) rotate(-87.812364) translate(-24.144192, -155.446627) " cx="24.1441916" cy="155.446627" r="1.60004615"></circle>
                    <circle id="Oval" cx="108.5" cy="78.8" r="2.4"></circle>
                    <circle id="Oval" cx="5.5" cy="109.9" r="2.4"></circle>
                    <circle id="Oval" cx="102.5" cy="71.4" r="1.1"></circle>
                    <circle id="Oval" cx="29.1" cy="163.9" r="1.1"></circle>
                    <circle id="Oval" cx="1.5" cy="118.4" r="1.1"></circle>
                    <path d="M101.2,22 L101.8,22.2 C102.3,22.4 102.9,22.9 103.1,23.4 L103.3,24.1 C103.4,24.4 103.6,24.6 103.8,24.6 C104,24.6 104.2,24.4 104.3,24.1 L104.5,23.4 C104.7,22.9 105.2,22.3 105.8,22.1 L106.4,21.9 C106.7,21.8 106.9,21.6 106.9,21.3 C106.9,21.1 106.7,20.8 106.4,20.8 L105.8,20.6 C105.3,20.4 104.7,19.9 104.5,19.4 L104.3,18.7 C104.2,18.4 104,18.2 103.8,18.2 C103.6,18.2 103.4,18.4 103.3,18.7 L103.1,19.4 C102.9,19.9 102.4,20.5 101.8,20.7 L101.2,20.9 C100.9,21 100.7,21.2 100.7,21.5 C100.7,21.7 100.9,21.9 101.2,22 Z" id="Shape"></path>
                    <path d="M109.8,154 L109.1,153.8 C108.4,153.6 107.7,152.9 107.5,152.3 L107.2,151.5 C107.1,151.1 106.8,150.9 106.5,150.9 C106.2,150.9 106,151.1 105.9,151.5 L105.6,152.3 C105.4,153 104.7,153.7 104,153.9 L103.3,154.1 C102.9,154.2 102.7,154.5 102.7,154.8 C102.7,155.1 102.9,155.4 103.3,155.5 L104,155.7 C104.7,155.9 105.4,156.6 105.6,157.2 L105.9,158 C106,158.4 106.3,158.6 106.6,158.6 C106.9,158.6 107.1,158.4 107.2,158 L107.5,157.2 C107.7,156.5 108.4,155.8 109.1,155.6 L109.8,155.4 C110.2,155.3 110.4,155 110.4,154.7 C110.4,154.4 110.2,154.1 109.8,154 Z" id="Shape"></path>
                    <circle id="Oval" transform="translate(96.533714, 29.302402) rotate(-87.811814) translate(-96.533714, -29.302402) " cx="96.5337138" cy="29.3024017" r="1.4000409"></circle>
                    <path d="M54.2,48.7 C54.2,50.1 55.3,51.2 56.7,51.2 C58.1,51.2 59.2,50.1 59.2,48.7 C59.2,44.9 61.6,41.8 64.5,41.8 C67.4,41.8 69.8,44.9 69.8,48.7 C69.8,50.1 70.9,51.2 72.3,51.2 C73.7,51.2 74.8,50.1 74.8,48.7 C74.8,42.2 70.2,36.8 64.5,36.8 C58.8,36.8 54.2,42.1 54.2,48.7 Z" id="Shape"></path>
                    <path d="M101.9,102.4 C97.5,100 94.1,98.1 94.1,89.9 C94.1,76.3 92.1,68.2 88.1,65.3 C87.7,65 87.2,64.8 86.8,64.6 L86.8,43.8 C86.8,23.9 74.7,0.3 64.5,0.3 C54.7,0.3 42.2,20.8 42.2,43.8 L42.2,64.6 C41.8,64.8 41.3,65 40.8,65.3 C36.7,68.2 34.8,76.3 34.8,89.9 C34.8,98.1 31.4,100 27,102.4 C22.5,104.9 16.8,108 16.8,118.8 L16.8,127 C16.8,128.4 17.9,129.5 19.3,129.5 L42.2,129.5 L42.2,134.2 C42.2,135.6 43.3,136.7 44.7,136.7 L46.3,136.7 L43.6,145.2 C43.4,146 43.5,146.8 44,147.4 C44.5,148 45.2,148.4 46,148.4 L51.5,148.4 L51.5,167.6 C51.5,169 52.6,170.1 54,170.1 C55.4,170.1 56.5,169 56.5,167.6 L56.5,148.4 L62,148.4 L62,175.8 C62,177.2 63.1,178.3 64.5,178.3 C65.9,178.3 67,177.2 67,175.8 L67,148.4 L72.4,148.4 L72.4,162.3 C72.4,163.7 73.5,164.8 74.9,164.8 C76.3,164.8 77.4,163.7 77.4,162.3 L77.4,148.4 L82.9,148.4 C83.7,148.4 84.4,148 84.9,147.4 C85.4,146.8 85.5,145.9 85.3,145.2 L82.6,136.7 L84.2,136.7 C85.6,136.7 86.7,135.6 86.7,134.2 L86.7,129.5 L109.5,129.5 C110.9,129.5 112,128.4 112,127 L112,118.8 C112.1,108.1 106.4,105 101.9,102.4 Z M42.1,124.5 L39.1,124.5 L39.1,113.6 C39.1,112.5 38.2,111.6 37.1,111.6 C36,111.6 35.1,112.5 35.1,113.6 L35.1,124.5 L33.5,124.5 L33.5,118.8 C33.5,117.7 32.6,116.8 31.5,116.8 C30.4,116.8 29.5,117.7 29.5,118.8 L29.5,124.5 L21.8,124.5 L21.8,118.8 C21.8,111 25.2,109.1 29.4,106.7 C34,104.1 39.8,101 39.8,89.8 C39.8,79.8 41,74.5 42.1,71.7 L42.1,124.5 L42.1,124.5 Z M55.3,143.5 L49.5,143.5 L51.6,136.7 L55.3,136.7 L55.3,143.5 Z M67.9,143.5 L60.3,143.5 L60.3,136.7 L67.9,136.7 L67.9,143.5 Z M72.9,143.5 L72.9,136.7 L77.4,136.7 L79.5,143.5 L72.9,143.5 Z M81.8,66.7 L81.8,127 L81.8,131.7 L79.3,131.7 L67,131.7 L67,79.4 C67,78 65.9,76.9 64.5,76.9 C63.1,76.9 62,78 62,79.4 L62,131.7 L49.8,131.7 L47.3,131.7 L47.3,43.8 C47.3,22.7 58.7,5.3 64.6,5.3 C70,5.3 81.9,23.9 81.9,43.8 L81.9,66.7 L81.8,66.7 Z M107.1,124.5 L99.4,124.5 L99.4,118.8 C99.4,117.7 98.5,116.8 97.4,116.8 C96.3,116.8 95.4,117.7 95.4,118.8 L95.4,124.5 L93.8,124.5 L93.8,113.6 C93.8,112.5 92.9,111.6 91.8,111.6 C90.7,111.6 89.8,112.5 89.8,113.6 L89.8,124.5 L86.8,124.5 L86.8,71.8 C88,74.6 89.1,80 89.1,89.9 C89.1,101 94.9,104.2 99.5,106.8 C103.8,109.2 107.1,111 107.1,118.9 L107.1,124.5 Z" id="Shape"></path>
                </g>
            </g>
        </g>
    </g>
</svg>