<?xml version="1.0" encoding="UTF-8"?>
<svg width="152px" height="149px" viewBox="0 0 152 149" version="1.1" xmlns="http://www.w3.org/2000/svg" xmlns:xlink="http://www.w3.org/1999/xlink">
    <!-- Generator: Sketch 43.2 (39069) - http://www.bohemiancoding.com/sketch -->
    <title>estrategia-digital-treebox</title>
    <desc>Created with Sketch.</desc>
    <defs></defs>
    <g id="Page-1" stroke="none" stroke-width="1" fill="none" fill-rule="evenodd">
        <g id="home" transform="translate(-644.000000, -969.000000)" fill-rule="nonzero" fill="#000000">
            <g id="planet" transform="translate(644.000000, 969.000000)">
                <g id="Group">
                    <path d="M81,144.9 L80.4,144.7 C79.9,144.5 79.3,144 79.1,143.5 L78.9,142.8 C78.8,142.5 78.6,142.3 78.4,142.3 C78.2,142.3 78,142.5 77.9,142.8 L77.7,143.5 C77.5,144 77,144.6 76.4,144.8 L75.8,145 C75.5,145.1 75.3,145.3 75.3,145.6 C75.3,145.8 75.5,146.1 75.8,146.1 L76.4,146.3 C76.9,146.5 77.5,147 77.7,147.5 L77.9,148.2 C78,148.5 78.2,148.7 78.4,148.7 C78.6,148.7 78.8,148.5 78.9,148.2 L79.1,147.5 C79.3,147 79.8,146.4 80.4,146.2 L81,146 C81.3,145.9 81.5,145.7 81.5,145.4 C81.5,145.2 81.3,145 81,144.9 Z" id="Shape"></path>
                    <path d="M76.3,16.5 C44.4,16.5 18.5,42.4 18.5,74.3 C18.5,106.2 44.4,132 76.3,132 C108.2,132 134,106.1 134,74.3 C134,42.5 108.1,16.5 76.3,16.5 Z M76.3,125 C57.6,125 41.2,114.8 32.4,99.6 L74.4,99.6 C76.3,99.6 77.9,98 77.9,96.1 C77.9,94.2 76.3,92.6 74.4,92.6 L29,92.6 C28.3,90.9 27.7,89.1 27.2,87.2 L58.2,87.2 C60.1,87.2 61.7,85.6 61.7,83.7 C61.7,81.8 60.1,80.2 58.2,80.2 L25.9,80.2 C25.7,78.2 25.5,76.2 25.5,74.2 C25.5,46.2 48.3,23.4 76.3,23.4 C93.8,23.4 109.3,32.3 118.5,45.9 L68.6,45.9 C66.7,45.9 65.1,47.5 65.1,49.4 C65.1,51.3 66.7,52.9 68.6,52.9 L122,52.9 L122.4,52.9 C123.1,54.4 123.7,55.8 124.2,57.4 L90.6,57.4 C88.7,57.4 87.1,59 87.1,60.9 C87.1,62.8 88.7,64.4 90.6,64.4 L126.1,64.4 C126.7,67.6 127.1,70.9 127.1,74.2 L127.1,75.5 L107.8,75.5 C105.9,75.5 104.3,77.1 104.3,79 C104.3,80.9 105.9,82.5 107.8,82.5 L126.5,82.5 C122.4,106.6 101.5,125 76.3,125 Z" id="Shape"></path>
                    <path d="M130.4,26.3 C137.4,26.3 143.1,20.6 143.1,13.6 C143.1,6.6 137.4,1 130.4,1 C123.4,1 117.7,6.7 117.7,13.7 C117.7,20.7 123.4,26.3 130.4,26.3 Z M130.4,6 C134.6,6 138.1,9.4 138.1,13.7 C138.1,17.9 134.7,21.4 130.4,21.4 C126.1,21.4 122.7,18 122.7,13.7 C122.8,9.4 126.2,6 130.4,6 Z" id="Shape"></path>
                    <circle id="Oval" cx="89.5" cy="141.1" r="1.4"></circle>
                    <circle id="Oval" transform="translate(113.520397, 1.910888) rotate(-87.811315) translate(-113.520397, -1.910888) " cx="113.520397" cy="1.91088787" r="1.50004432"></circle>
                    <circle id="Oval" transform="translate(143.099007, 74.009033) rotate(-87.812541) translate(-143.099007, -74.009033) " cx="143.099007" cy="74.009033" r="2.2000632"></circle>
                    <circle id="Oval" transform="translate(8.756416, 65.595135) rotate(-87.811861) translate(-8.756416, -65.595135) " cx="8.75641604" cy="65.5951348" r="1.40004085"></circle>
                    <circle id="Oval" cx="2.5" cy="73.9" r="2.5"></circle>
                    <circle id="Oval" cx="105.3" cy="7.4" r="2.5"></circle>
                    <path d="M150.7,37.4 L145.4,32.1 C144.8,31.5 143.9,31.5 143.3,32.1 L138,37.4 C137.4,38 137.4,38.9 138,39.5 L143.3,44.8 C143.6,45.1 144,45.2 144.4,45.2 C144.8,45.2 145.2,45 145.5,44.8 L150.8,39.5 C151.1,39.2 151.2,38.8 151.2,38.4 C151.2,38 151,37.6 150.7,37.4 Z M144.4,41.6 L141.2,38.4 L144.4,35.2 L147.6,38.4 L144.4,41.6 Z" id="Shape"></path>
                </g>
            </g>
        </g>
    </g>
</svg>