<?xml version="1.0" encoding="UTF-8"?>
<svg width="50px" height="84px" viewBox="0 0 50 84" version="1.1" xmlns="http://www.w3.org/2000/svg" xmlns:xlink="http://www.w3.org/1999/xlink">
    <!-- Generator: Sketch 49 (51002) - http://www.bohemiancoding.com/sketch -->
    <title>estrategia-consultoria</title>
    <desc>Created with Sketch.</desc>
    <defs></defs>
    <g id="Page-1" stroke="none" stroke-width="1" fill="none" fill-rule="evenodd">
        <g id="Group-3">
            <rect id="Rectangle" fill="#FFF100" x="5" y="72" width="45" height="7" rx="3.5"></rect>
            <g id="noun_1287601_cc" fill="#FFFFFF" fill-rule="nonzero">
                <path d="M45.71,77.56 C47.3566322,76.1097366 48.0678473,73.8687477 47.5588626,71.7343635 C47.0498779,69.5999793 45.4038975,67.9211086 43.28,67.37 L43.28,66.72 C43.28,64.510861 41.489139,62.72 39.28,62.72 C38.8122336,62.7348006 38.396766,62.4231999 38.28,61.97 C35.6718304,51.5371264 34.3519936,40.823948 34.35,30.07 L34.35,25.52 C36.8860505,24.8543269 38.6961525,22.6190332 38.82,20 L43.23,2.36 C43.3404367,1.91331265 43.2397457,1.44065064 42.956844,1.07775605 C42.6739423,0.714861465 42.2401329,0.501888465 41.78,0.5 L34.37,0.5 C33.6376748,0.499521547 33.0120541,1.02791746 32.89,1.75 L31.62,9.39 L29.94,9.39 L29.94,2 C29.94,1.17157288 29.2684271,0.5 28.44,0.5 L19.56,0.5 C18.7315729,0.5 18.06,1.17157288 18.06,2 L18.06,9.39 L16.38,9.39 L15.11,1.75 C14.9879459,1.02791746 14.3623252,0.499521547 13.63,0.5 L6.22,0.5 C5.75811124,0.498816981 5.32143368,0.710494864 5.03624049,1.07382318 C4.75104729,1.43715149 4.64914482,1.91160982 4.76,2.36 L9.18,20 C9.30285235,22.6040224 11.0931273,24.8307526 13.61,25.51 L13.61,30.06 C13.6112763,40.8273315 12.2914151,51.5541424 9.68,62 C9.56323396,62.4531999 9.14776644,62.7648006 8.68,62.75 C6.470861,62.75 4.68,64.540861 4.68,66.75 L4.68,67.4 C2.55610247,67.9511086 0.910122061,69.6299793 0.401137402,71.7643635 C-0.107847257,73.8987477 0.603367825,76.1397366 2.25,77.59 C0.978372873,78.7153792 0.250206377,80.3319088 0.25,82.03 C0.25,82.8584271 0.921572875,83.53 1.75,83.53 L46.22,83.53 C47.0484271,83.53 47.72,82.8584271 47.72,82.03 C47.7258884,80.3198755 46.9932013,78.6904667 45.71,77.56 Z M16.61,25.72 L31.39,25.72 L31.39,27.16 L16.61,27.16 L16.61,25.72 Z M12.36,3.5 L13.63,11.14 C13.7520541,11.8620825 14.3776748,12.3904785 15.11,12.39 L19.55,12.39 C20.3784271,12.39 21.05,11.7184271 21.05,10.89 L21.05,3.5 L26.94,3.5 L26.94,10.89 C26.94,11.7184271 27.6115729,12.39 28.44,12.39 L32.88,12.39 C33.6123252,12.3904785 34.2379459,11.8620825 34.36,11.14 L35.63,3.5 L39.85,3.5 L36.16,18.28 L11.84,18.28 L8.14,3.5 L12.36,3.5 Z M12.58,21.28 L35.42,21.28 C34.8816625,22.1644256 33.9253208,22.7087466 32.89,22.72 L15.11,22.72 C14.0746792,22.7087466 13.1183375,22.1644256 12.58,21.28 Z M7.72,66.72 C7.72,66.1677153 8.16771525,65.72 8.72,65.72 C10.5466049,65.7232034 12.1433509,64.4886061 12.6,62.72 C15.2531609,52.0800341 16.5964457,41.1557706 16.6,30.19 L31.39,30.19 C31.3935543,41.1557706 32.7368391,52.0800341 35.39,62.72 C35.8466491,64.4886061 37.4433951,65.7232034 39.27,65.72 C39.8222847,65.72 40.27,66.1677153 40.27,66.72 L40.27,67.17 L7.72,67.17 L7.72,66.72 Z M3.28,73.11 C3.31189685,71.49968 4.60967998,70.2018968 6.22,70.17 L41.78,70.17 C43.4064786,70.17 44.725,71.4885214 44.725,73.115 C44.725,74.7414786 43.4064786,76.06 41.78,76.06 L6.22,76.06 C4.6058759,76.0279301 3.30658882,74.7242237 3.28,73.11 Z M3.69,80.5 C4.22833748,79.6155744 5.18467916,79.0712534 6.22,79.06 L41.78,79.06 C42.8153208,79.0712534 43.7716625,79.6155744 44.31,80.5 L3.69,80.5 Z M29.94,60.78 C29.94,61.6084271 29.2684271,62.28 28.44,62.28 L24,62.28 C23.1715729,62.28 22.5,61.6084271 22.5,60.78 C22.5,59.9515729 23.1715729,59.28 24,59.28 L28.44,59.28 C29.2684271,59.28 29.94,59.9515729 29.94,60.78 Z M28.44,45.95 C28.0415464,45.9437672 27.6612471,45.7823194 27.38,45.5 C27.0967274,45.2202322 26.9381202,44.8381329 26.94,44.44 C26.9306336,44.3435602 26.9306336,44.2464398 26.94,44.15 C26.9609389,44.0539931 26.9910782,43.9602267 27.03,43.87 C27.0664799,43.7782225 27.1134591,43.6909754 27.17,43.61 C27.2213076,43.5269112 27.281677,43.4497724 27.35,43.38 C27.7244091,43.0356241 28.2424658,42.8939971 28.74,43 C28.8360069,43.0209389 28.9297733,43.0510782 29.02,43.09 C29.1117775,43.1264799 29.1990246,43.1734591 29.28,43.23 C29.4478759,43.3314178 29.5885822,43.4721241 29.69,43.64 C29.7465409,43.7209754 29.7935201,43.8082225 29.83,43.9 C29.8689218,43.9902267 29.8990611,44.0839931 29.92,44.18 C29.9296242,44.2764271 29.9296242,44.3735729 29.92,44.47 C29.9234075,44.8664713 29.7686563,45.2479508 29.49,45.53 C29.2064827,45.7989587 28.8307944,45.949234 28.44,45.95 Z M18.06,44.44 C18.06,43.6115729 18.7315729,42.94 19.56,42.94 L24,42.94 C24.8284271,42.94 25.5,43.6115729 25.5,44.44 C25.5,45.2684271 24.8284271,45.94 24,45.94 L19.56,45.94 C18.7315729,45.94 18.06,45.2684271 18.06,44.44 Z M29.94,39 C29.94,39.8284271 29.2684271,40.5 28.44,40.5 L19.56,40.5 C18.7315729,40.5 18.06,39.8284271 18.06,39 C18.06,38.1715729 18.7315729,37.5 19.56,37.5 L28.45,37.5 C29.2745192,37.5054969 29.9400183,38.1754625 29.94,39 Z M24,56.83 L19.56,56.83 C18.7315729,56.83 18.06,56.1584271 18.06,55.33 C18.06,54.5015729 18.7315729,53.83 19.56,53.83 L24,53.83 C24.8284271,53.83 25.5,54.5015729 25.5,55.33 C25.5,56.1584271 24.8284271,56.83 24,56.83 Z M29.94,49.89 C29.94,50.7184271 29.2684271,51.39 28.44,51.39 L24,51.39 C23.1715729,51.39 22.5,50.7184271 22.5,49.89 C22.5,49.0615729 23.1715729,48.39 24,48.39 L28.44,48.39 C29.2684271,48.39 29.94,49.0615729 29.94,49.89 Z" id="Shape"></path>
            </g>
        </g>
    </g>
</svg>