<svg width="257" height="258" viewBox="0 0 257 258" xmlns="http://www.w3.org/2000/svg"><title>treebox</title><g id="Page-1" fill="none" fill-rule="evenodd"><g id="treebox"><rect id="Rectangle-1" fill="#FFF100" x="8.286" y="8.286" width="241.429" height="241.429" rx="37"/><path d="M221.098.763h-185.3C16.522.763.751 16.627.751 36.017v186.407c0 19.39 15.77 35.254 35.045 35.254h185.301c19.275 0 35.045-15.864 35.045-35.254V36.017c0-19.83-15.77-35.254-35.045-35.254zm17.523 221.66c0 9.696-7.885 17.628-17.523 17.628h-83.67V122.83l59.577 51.559c1.752 1.322 3.504 2.203 5.695 2.203 2.628 0 4.818-.881 6.57-3.085 3.067-3.525 2.629-9.254-.876-12.339l-70.966-61.254V70.39l59.577 51.56c1.752 1.321 3.504 2.203 5.695 2.203 2.628 0 4.818-.882 6.57-3.085 3.067-3.526 2.629-9.254-.876-12.34L134.362 44.39c-3.505-2.644-8.324-2.644-11.39 0l-74.033 64.339c-3.504 3.085-3.942 8.813-.876 12.339 3.067 3.525 8.761 3.966 12.266.881l59.577-51.56v29.526L48.939 161.17c-3.504 3.085-3.942 8.814-.876 12.34 3.067 3.525 8.761 3.966 12.266.88l59.577-51.558v116.78H35.797c-9.637 0-17.522-7.933-17.522-17.628V36.017c0-9.695 7.885-17.627 17.522-17.627h185.301c9.638 0 17.523 7.932 17.523 17.627v186.407z" id="Shape" fill="#000"/></g></g></svg>