<?xml version="1.0" encoding="utf-8"?>
<!-- Generator: Adobe Illustrator 20.1.0, SVG Export Plug-In . SVG Version: 6.00 Build 0)  -->
<svg version="1.1" id="Layer_1" xmlns="http://www.w3.org/2000/svg" xmlns:xlink="http://www.w3.org/1999/xlink" x="0px" y="0px"
	 viewBox="0 0 545 276.5" style="enable-background:new 0 0 545 276.5;" xml:space="preserve">
<style type="text/css">
	.st0{fill:#FFFFFF;}
	.st1{fill:none;stroke:#000000;stroke-width:4;stroke-linecap:round;stroke-linejoin:round;stroke-miterlimit:10;}
</style>
<g>
	<path d="M540,273.4H6c-1.1,0-2-0.9-2-2s0.9-2,2-2H540c1.1,0,2,0.9,2,2S541.1,273.4,540,273.4z"/>
</g>
<g>
	<g>
		<path d="M513.2,231.9c-0.5,0-1-0.2-1.4-0.6l-5.7-5.7c-0.4-0.4-0.6-0.9-0.6-1.4s0.2-1,0.6-1.4l5.7-5.7c0.8-0.8,2-0.8,2.8,0l5.7,5.7
			c0.4,0.4,0.6,0.9,0.6,1.4s-0.2,1-0.6,1.4l-5.7,5.7C514.3,231.7,513.8,231.9,513.2,231.9z M510.4,224.2l2.8,2.8l2.8-2.8l-2.8-2.8
			L510.4,224.2z"/>
	</g>
</g>
<g>
	<g>
		<path d="M468.5,272.9c-1.1,0-2-0.9-2-2v-72.2c0-1.1,0.9-2,2-2s2,0.9,2,2v72.2C470.5,272,469.6,272.9,468.5,272.9z"/>
	</g>
</g>
<g>
	<g>
		<path d="M485.4,216.2c-0.5,0-1-0.2-1.4-0.6l-15.5-15.5L453,215.6c-0.8,0.8-2,0.8-2.8,0c-0.8-0.8-0.8-2,0-2.8l16.9-16.9
			c0.8-0.8,2-0.8,2.8,0l16.9,16.9c0.8,0.8,0.8,2,0,2.8C486.4,216,485.9,216.2,485.4,216.2z"/>
	</g>
</g>
<g>
	<g>
		<path d="M485.4,228.3c-0.5,0-1-0.2-1.4-0.6l-15.5-15.5L453,227.8c-0.8,0.8-2,0.8-2.8,0c-0.8-0.8-0.8-2,0-2.8l16.9-16.9
			c0.8-0.8,2-0.8,2.8,0l16.9,16.9c0.8,0.8,0.8,2,0,2.8C486.4,228.1,485.9,228.3,485.4,228.3z"/>
	</g>
</g>
<g>
	<g>
		<g>
			<g>
				<path d="M437.7,273.4h-35.2c-0.9,0-1.6-0.7-1.6-1.6V49.7c0-0.9,0.7-1.6,1.6-1.6h35.2c0.9,0,1.6,0.7,1.6,1.6v222.1
					C439.3,272.7,438.5,273.4,437.7,273.4z M404,270.2h32.1v-219H404V270.2z"/>
			</g>
		</g>
	</g>
	<g>
		<g>
			<g>
				<path d="M437.7,88.6h-35.2c-0.9,0-1.6-0.7-1.6-1.6c0-0.9,0.7-1.6,1.6-1.6h35.2c0.9,0,1.6,0.7,1.6,1.6
					C439.3,87.9,438.5,88.6,437.7,88.6z"/>
			</g>
		</g>
	</g>
	<g>
		<g>
			<g>
				<path d="M437.7,86.5c-0.4,0-0.8-0.2-1.1-0.5l-35.2-35.2c-0.6-0.6-0.6-1.6,0-2.2c0.6-0.6,1.6-0.6,2.2,0l35.2,35.2
					c0.6,0.6,0.6,1.6,0,2.2C438.5,86.3,438.1,86.5,437.7,86.5z"/>
			</g>
		</g>
	</g>
	<g>
		<g>
			<g>
				<path d="M437.7,163.4h-35.2c-0.9,0-1.6-0.7-1.6-1.6s0.7-1.6,1.6-1.6h35.2c0.9,0,1.6,0.7,1.6,1.6S438.5,163.4,437.7,163.4z"/>
			</g>
		</g>
	</g>
	<g>
		<g>
			<g>
				<path d="M437.7,161.2c-0.4,0-0.8-0.2-1.1-0.5l-35.2-35.2c-0.6-0.6-0.6-1.6,0-2.2c0.6-0.6,1.6-0.6,2.2,0l35.2,35.2
					c0.6,0.6,0.6,1.6,0,2.2C438.5,161.1,438.1,161.2,437.7,161.2z"/>
			</g>
		</g>
	</g>
	<g>
		<g>
			<g>
				<path d="M437.7,238.1h-35.2c-0.9,0-1.6-0.7-1.6-1.6c0-0.9,0.7-1.6,1.6-1.6h35.2c0.9,0,1.6,0.7,1.6,1.6
					C439.3,237.4,438.5,238.1,437.7,238.1z"/>
			</g>
		</g>
	</g>
	<g>
		<g>
			<g>
				<path d="M437.7,236c-0.4,0-0.8-0.2-1.1-0.5l-35.2-35.2c-0.6-0.6-0.6-1.6,0-2.2c0.6-0.6,1.6-0.6,2.2,0l35.2,35.2
					c0.6,0.6,0.6,1.6,0,2.2C438.5,235.8,438.1,236,437.7,236z"/>
			</g>
		</g>
	</g>
	<g>
		<g>
			<g>
				<path d="M437.7,126h-35.2c-0.9,0-1.6-0.7-1.6-1.6s0.7-1.6,1.6-1.6h35.2c0.9,0,1.6,0.7,1.6,1.6S438.5,126,437.7,126z"/>
			</g>
		</g>
	</g>
	<g>
		<g>
			<g>
				<path d="M402.4,123.9c-0.4,0-0.8-0.2-1.1-0.5c-0.6-0.6-0.6-1.6,0-2.2l35.2-35.2c0.6-0.6,1.6-0.6,2.2,0c0.6,0.6,0.6,1.6,0,2.2
					l-35.2,35.2C403.3,123.7,402.9,123.9,402.4,123.9z"/>
			</g>
		</g>
	</g>
	<g>
		<g>
			<g>
				<path d="M437.7,200.8h-35.2c-0.9,0-1.6-0.7-1.6-1.6s0.7-1.6,1.6-1.6h35.2c0.9,0,1.6,0.7,1.6,1.6S438.5,200.8,437.7,200.8z"/>
			</g>
		</g>
	</g>
	<g>
		<g>
			<g>
				<path d="M402.4,198.6c-0.4,0-0.8-0.2-1.1-0.5c-0.6-0.6-0.6-1.6,0-2.2l35.2-35.2c0.6-0.6,1.6-0.6,2.2,0c0.6,0.6,0.6,1.6,0,2.2
					l-35.2,35.2C403.3,198.5,402.9,198.6,402.4,198.6z"/>
			</g>
		</g>
	</g>
	<g>
		<g>
			<g>
				<path d="M402.4,271.2c-0.4,0-0.8-0.2-1.1-0.5c-0.6-0.6-0.6-1.6,0-2.2l35.2-35.2c0.6-0.6,1.6-0.6,2.2,0c0.6,0.6,0.6,1.6,0,2.2
					l-35.2,35.2C403.3,271.1,402.9,271.2,402.4,271.2z"/>
			</g>
		</g>
	</g>
	<g>
		<g>
			<g>
				<path d="M402.4,88.6h-51.8c-0.9,0-1.6-0.7-1.6-1.6c0-0.9,0.7-1.6,1.6-1.6h51.8c0.9,0,1.6,0.7,1.6,1.6
					C404,87.9,403.3,88.6,402.4,88.6z"/>
			</g>
		</g>
	</g>
	<g>
		<g>
			<g>
				<path d="M402.4,126h-51.8c-0.9,0-1.6-0.7-1.6-1.6s0.7-1.6,1.6-1.6h51.8c0.9,0,1.6,0.7,1.6,1.6S403.3,126,402.4,126z"/>
			</g>
		</g>
	</g>
	<g>
		<g>
			<g>
				<path d="M402.4,163.4h-51.8c-0.9,0-1.6-0.7-1.6-1.6s0.7-1.6,1.6-1.6h51.8c0.9,0,1.6,0.7,1.6,1.6S403.3,163.4,402.4,163.4z"/>
			</g>
		</g>
	</g>
</g>
<g>
	<g>
		<g>
			<path class="st0" d="M315.8,189.6h-69.9c0,0,0-105.4,0-122.6c0-32.7,15.8-60.2,35-60.2s35,30.9,35,60.2
				C315.8,84.8,315.8,189.6,315.8,189.6z"/>
		</g>
	</g>
	<g>
		<g>
			<path d="M315.8,191.2h-69.9c-0.9,0-1.6-0.7-1.6-1.6V67c0-16.1,3.7-31.4,10.5-43.1c7-12,16.2-18.6,26-18.6c9.6,0,18.9,7.1,26,19.9
				c6.7,12,10.5,27.2,10.5,41.8v122.6C317.3,190.5,316.6,191.2,315.8,191.2z M247.4,188.1h66.8V67c0-30.1-16.2-58.6-33.4-58.6
				c-18.1,0-33.4,26.8-33.4,58.6V188.1z"/>
		</g>
	</g>
</g>
<g>
	<g>
		<g>
			<path class="st0" d="M350.6,216.4h-27.7c0,0,0-134.8,0-141.8c0-16.6,8.4-24.4,13.9-24.4c5.5,0,13.9,7.8,13.9,24.4
				C350.6,81.9,350.6,216.4,350.6,216.4z"/>
		</g>
	</g>
	<g>
		<g>
			<path d="M350.6,218h-27.7c-0.9,0-1.6-0.7-1.6-1.6V74.7c0-17.7,9.2-26,15.4-26c6.2,0,15.4,8.3,15.4,26v141.8
				C352.2,217.3,351.5,218,350.6,218z M324.5,214.8H349V74.7c0-16.1-8-22.8-12.3-22.8c-4.3,0-12.3,6.7-12.3,22.8V214.8z"/>
		</g>
	</g>
</g>
<g>
	<g>
		<g>
			<path class="st0" d="M239.2,216.4h-27.7c0,0,0-134.8,0-141.8c0-16.6,8.4-24.4,13.9-24.4s13.9,7.8,13.9,24.4
				C239.2,81.9,239.2,216.4,239.2,216.4z"/>
		</g>
	</g>
	<g>
		<g>
			<path d="M239.2,218h-27.7c-0.9,0-1.6-0.7-1.6-1.6V74.7c0-17.7,9.2-26,15.4-26s15.4,8.3,15.4,26v141.8
				C240.7,217.3,240,218,239.2,218z M213,214.8h24.6V74.7c0-16.1-8-22.8-12.3-22.8S213,58.5,213,74.7V214.8z"/>
		</g>
	</g>
</g>
<g>
	<g>
		<g>
			<path d="M140.6,185.9c-3.8,0-6.9-3.1-6.9-6.9c0-3.8,3.1-6.9,6.9-6.9c3.8,0,6.9,3.1,6.9,6.9C147.5,182.8,144.4,185.9,140.6,185.9z
				 M140.6,175.2c-2.1,0-3.7,1.7-3.7,3.7c0,2.1,1.7,3.7,3.7,3.7c2.1,0,3.7-1.7,3.7-3.7C144.3,176.9,142.6,175.2,140.6,175.2z"/>
		</g>
	</g>
</g>
<g>
	<g>
		<g>
			<path d="M327.3,29.5c-4.2,0-7.5-3.4-7.5-7.5s3.4-7.5,7.5-7.5c4.2,0,7.5,3.4,7.5,7.5S331.5,29.5,327.3,29.5z M327.3,17.6
				c-2.4,0-4.4,2-4.4,4.4c0,2.4,2,4.4,4.4,4.4s4.4-2,4.4-4.4C331.7,19.5,329.7,17.6,327.3,17.6z"/>
		</g>
	</g>
</g>
<g>
	<g>
		<g>
			<circle cx="171.9" cy="204.2" r="3.1"/>
		</g>
	</g>
</g>
<g>
	<g>
		<g>
			<circle cx="337" cy="6.5" r="3.5"/>
		</g>
	</g>
</g>
<g>
	<g>
		<g>
			<path d="M315.8,85.1h-69.9c-0.9,0-1.6-0.7-1.6-1.6c0-0.9,0.7-1.6,1.6-1.6h69.9c0.9,0,1.6,0.7,1.6,1.6
				C317.3,84.4,316.6,85.1,315.8,85.1z"/>
		</g>
	</g>
</g>
<g>
	<g>
		<g>
			<path d="M315.8,76.3h-69.9c-0.9,0-1.6-0.7-1.6-1.6s0.7-1.6,1.6-1.6h69.9c0.9,0,1.6,0.7,1.6,1.6S316.6,76.3,315.8,76.3z"/>
		</g>
	</g>
</g>
<g>
	<g>
		<g>
			<path class="st0" d="M299.9,188.8h-38.2c0,0,0-88.4,0-97.8c0-17.9,11.6-32.9,19.1-32.9c7.5,0,19.1,16.9,19.1,32.9
				C299.9,100.6,299.9,188.8,299.9,188.8z"/>
		</g>
	</g>
	<g>
		<g>
			<path d="M299.9,190.3h-38.2c-0.9,0-1.6-0.7-1.6-1.6V90.9c0-8.4,2.5-17,7-24c4.1-6.5,9.4-10.5,13.7-10.5c4.3,0,9.4,4.2,13.7,11.2
				c4.4,7.2,7,15.7,7,23.3v97.8C301.5,189.6,300.8,190.3,299.9,190.3z M263.3,187.2h35.1V90.9c0-15.5-11.2-31.3-17.5-31.3
				c-6.6,0-17.5,14.6-17.5,31.3V187.2z"/>
		</g>
	</g>
</g>
<g>
	<g>
		<g>
			<path class="st0" d="M273.3,94.8c0-4.2,3.4-7.5,7.5-7.5s7.5,3.4,7.5,7.5"/>
		</g>
	</g>
	<g>
		<g>
			<path d="M288.3,96.4c-0.9,0-1.6-0.7-1.6-1.6c0-3.3-2.7-5.9-5.9-5.9c-3.3,0-5.9,2.7-5.9,5.9c0,0.9-0.7,1.6-1.6,1.6
				s-1.6-0.7-1.6-1.6c0-5,4.1-9.1,9.1-9.1c5,0,9.1,4.1,9.1,9.1C289.9,95.7,289.2,96.4,288.3,96.4z"/>
		</g>
	</g>
</g>
<g>
	<g>
		<g>
			<path class="st0" d="M299.9,126v57h24.5c0,0,0-2,0-6.6c0-15.1-18.6-10-18.6-29.7C305.8,126.2,299.9,126,299.9,126z"/>
		</g>
	</g>
	<g>
		<g>
			<path d="M324.4,184.6h-24.5c-0.9,0-1.6-0.7-1.6-1.6v-57c0-0.4,0.2-0.8,0.5-1.1c0.3-0.3,0.7-0.5,1.2-0.4c1.2,0,7.4,1.3,7.4,22.4
				c0,9.6,4.6,12.7,9.5,15.9c4.5,2.9,9.1,5.9,9.1,13.8v6.6C326,183.9,325.2,184.6,324.4,184.6z M301.5,181.4h21.3v-5
				c0-6.2-3.4-8.4-7.6-11.2c-5.1-3.3-10.9-7.1-10.9-18.5c0-10.2-1.5-15-2.7-17.3V181.4z"/>
		</g>
	</g>
</g>
<g>
	<g>
		<g>
			<path class="st1" d="M313.3,165.3"/>
		</g>
	</g>
</g>
<g>
	<g>
		<g>
			<path class="st1" d="M313.3,144.8"/>
		</g>
	</g>
</g>
<g>
	<g>
		<g>
			<path class="st1" d="M319,165.3"/>
		</g>
	</g>
</g>
<g>
	<g>
		<g>
			<path class="st1" d="M319,154.1"/>
		</g>
	</g>
</g>
<g>
	<g>
		<g>
			<path class="st1" d="M248.3,166.4"/>
		</g>
	</g>
</g>
<g>
	<g>
		<g>
			<path class="st1" d="M248.3,145.9"/>
		</g>
	</g>
</g>
<g>
	<g>
		<g>
			<path class="st1" d="M242.5,165.3"/>
		</g>
	</g>
</g>
<g>
	<g>
		<g>
			<path class="st1" d="M242.5,154.1"/>
		</g>
	</g>
</g>
<g>
	<g>
		<g>
			<path d="M305.7,184.6c-0.9,0-1.6-0.7-1.6-1.6v-10.8c0-0.9,0.7-1.6,1.6-1.6s1.6,0.7,1.6,1.6V183
				C307.3,183.9,306.6,184.6,305.7,184.6z"/>
		</g>
	</g>
</g>
<g>
	<g>
		<g>
			<path d="M311.1,184.6c-0.9,0-1.6-0.7-1.6-1.6v-6.6c0-0.9,0.7-1.6,1.6-1.6s1.6,0.7,1.6,1.6v6.6C312.7,183.9,312,184.6,311.1,184.6
				z"/>
		</g>
	</g>
</g>
<g>
	<g>
		<g>
			<path class="st0" d="M261.1,126v57h-24.5c0,0,0-2,0-6.6c0-15.1,18.6-10,18.6-29.7C255.3,126.2,261.1,126,261.1,126z"/>
		</g>
	</g>
	<g>
		<g>
			<path d="M261.1,184.6h-24.5c-0.9,0-1.6-0.7-1.6-1.6v-6.6c0-7.9,4.6-10.9,9.1-13.8c4.9-3.2,9.5-6.2,9.5-15.9
				c0-21,6.2-22.3,7.4-22.4c0.4,0,0.8,0.1,1.2,0.4c0.3,0.3,0.5,0.7,0.5,1.1v57C262.7,183.9,262,184.6,261.1,184.6z M238.3,181.4
				h21.3v-51.9c-1.3,2.3-2.7,7.1-2.7,17.3c0,11.4-5.8,15.1-10.9,18.5c-4.3,2.8-7.6,5-7.6,11.2V181.4z"/>
		</g>
	</g>
</g>
<g>
	<g>
		<g>
			<path d="M255.3,184.6c-0.9,0-1.6-0.7-1.6-1.6v-10.8c0-0.9,0.7-1.6,1.6-1.6c0.9,0,1.6,0.7,1.6,1.6V183
				C256.9,183.9,256.2,184.6,255.3,184.6z"/>
		</g>
	</g>
</g>
<g>
	<g>
		<g>
			<path d="M250,184.6c-0.9,0-1.6-0.7-1.6-1.6v-6.6c0-0.9,0.7-1.6,1.6-1.6s1.6,0.7,1.6,1.6v6.6C251.5,183.9,250.8,184.6,250,184.6z"
				/>
		</g>
	</g>
</g>
<g>
	<g>
		<g>
			<path d="M349.7,120.1h-25.9c-0.9,0-1.6-0.7-1.6-1.6s0.7-1.6,1.6-1.6h25.9c0.9,0,1.6,0.7,1.6,1.6S350.6,120.1,349.7,120.1z"/>
		</g>
	</g>
</g>
<g>
	<g>
		<g>
			<path d="M349.7,114h-25.9c-0.9,0-1.6-0.7-1.6-1.6s0.7-1.6,1.6-1.6h25.9c0.9,0,1.6,0.7,1.6,1.6S350.6,114,349.7,114z"/>
		</g>
	</g>
</g>
<g>
	<g>
		<g>
			<path d="M238.3,120.1h-25.9c-0.9,0-1.6-0.7-1.6-1.6s0.7-1.6,1.6-1.6h25.9c0.9,0,1.6,0.7,1.6,1.6S239.2,120.1,238.3,120.1z"/>
		</g>
	</g>
</g>
<g>
	<g>
		<g>
			<path d="M238.3,114h-25.9c-0.9,0-1.6-0.7-1.6-1.6s0.7-1.6,1.6-1.6h25.9c0.9,0,1.6,0.7,1.6,1.6S239.2,114,238.3,114z"/>
		</g>
	</g>
</g>
<g>
	<g>
		<path class="st0" d="M417,240.8c-7.7,0-14.7,2.8-20.2,7.5c-3.5-8.2-11.6-14-21-14c0-17.8-14.4-32.3-32.3-32.3
			c-12.3,0-23,6.9-28.4,17c-2.7-3-6.6-4.9-11-4.9c-4.6,0-8.8,2.1-11.5,5.4v-27.6h-23.4v27.1c-2.7-3-6.7-4.9-11.1-4.9
			c-5.1,0-9.5,2.5-12.2,6.4c-5.2-11-16.3-18.5-29.2-18.5c-17.8,0-32.3,14.4-32.3,32.3c-9.1,0-17,5.4-20.7,13.1
			c-5.3-4.2-11.9-6.6-19.1-6.6c-17.1,0-31,13.9-31,31h334.3C447.9,254.7,434.1,240.8,417,240.8z"/>
	</g>
</g>
<g>
	<g>
		<path d="M447.9,273.4H113.6c-0.9,0-1.6-0.7-1.6-1.6c0-17.9,14.6-32.5,32.5-32.5c6.7,0,13.1,2,18.6,5.8
			c4.1-7.1,11.5-11.8,19.7-12.3c0.8-18,15.7-32.3,33.8-32.3c12.2,0,23.5,6.7,29.5,17.3c3.1-3.2,7.4-5.1,11.9-5.1
			c3.4,0,6.7,1.1,9.5,3v-23.6c0-0.9,0.7-1.6,1.6-1.6h23.4c0.9,0,1.6,0.7,1.6,1.6V216c2.8-2.1,6.3-3.3,9.9-3.3
			c3.9,0,7.7,1.4,10.7,3.9c6.2-10,17-16.1,28.8-16.1c18.1,0,33,14.4,33.8,32.3c8.5,0.5,16.1,5.5,20.1,13c5.6-4.2,12.5-6.6,19.6-6.6
			c17.9,0,32.5,14.6,32.5,32.5C449.5,272.7,448.8,273.4,447.9,273.4z M115.2,270.2h331.1c-0.8-15.5-13.7-27.8-29.3-27.8
			c-7,0-13.8,2.5-19.1,7.1c-0.4,0.3-0.9,0.5-1.4,0.3c-0.5-0.1-0.9-0.5-1.1-0.9c-3.3-7.9-11-13-19.6-13c-0.9,0-1.6-0.7-1.6-1.6
			c0-16.9-13.8-30.7-30.7-30.7c-11.3,0-21.7,6.2-27.1,16.2c-0.2,0.5-0.7,0.8-1.2,0.8c-0.5,0.1-1-0.1-1.4-0.5
			c-2.5-2.8-6.1-4.4-9.9-4.4c-4,0-7.8,1.8-10.3,4.9c-0.4,0.5-1.1,0.7-1.7,0.5c-0.6-0.2-1-0.8-1-1.5v-26h-20.3v25.5
			c0,0.7-0.4,1.2-1,1.5c-0.6,0.2-1.3,0.1-1.7-0.4c-2.5-2.8-6.1-4.4-9.9-4.4c-4.4,0-8.4,2.1-10.9,5.7c-0.3,0.5-0.9,0.7-1.4,0.7
			c-0.6,0-1.1-0.4-1.3-0.9c-5-10.7-15.9-17.6-27.8-17.6c-16.9,0-30.7,13.8-30.7,30.7c0,0.9-0.7,1.6-1.6,1.6
			c-8.2,0-15.8,4.8-19.2,12.2c-0.2,0.4-0.6,0.8-1.1,0.9c-0.5,0.1-1,0-1.3-0.3c-5.2-4.1-11.5-6.3-18.2-6.3
			C128.9,242.4,116,254.7,115.2,270.2z"/>
	</g>
</g>
<g>
	<g>
		<g>
			<path d="M276.9,226c-0.9,0-1.6-0.7-1.6-1.6v-25.3c0-0.9,0.7-1.6,1.6-1.6s1.6,0.7,1.6,1.6v25.3C278.5,225.3,277.8,226,276.9,226z"
				/>
		</g>
	</g>
</g>
<g>
	<g>
		<g>
			<path d="M285.2,238.8c-0.9,0-1.6-0.7-1.6-1.6v-38.1c0-0.9,0.7-1.6,1.6-1.6c0.9,0,1.6,0.7,1.6,1.6v38.1
				C286.7,238.1,286,238.8,285.2,238.8z"/>
		</g>
	</g>
</g>
<g>
	<g>
		<g>
			<path d="M365.6,235.2c-0.9,0-1.6-0.7-1.6-1.6c0-11.4-9.3-20.6-20.6-20.6c-11.4,0-20.6,9.3-20.6,20.6c0,0.9-0.7,1.6-1.6,1.6
				s-1.6-0.7-1.6-1.6c0-13.1,10.7-23.8,23.8-23.8c13.1,0,23.8,10.7,23.8,23.8C367.2,234.5,366.5,235.2,365.6,235.2z"/>
		</g>
	</g>
</g>
<g>
	<g>
		<g>
			<path d="M239.2,235.2c-0.9,0-1.6-0.7-1.6-1.6c0-11.4-9.3-20.6-20.6-20.6s-20.6,9.3-20.6,20.6c0,0.9-0.7,1.6-1.6,1.6
				s-1.6-0.7-1.6-1.6c0-13.1,10.7-23.8,23.8-23.8c13.1,0,23.8,10.7,23.8,23.8C240.7,234.5,240,235.2,239.2,235.2z"/>
		</g>
	</g>
</g>
<g>
	<g>
		<g>
			<path d="M259.5,250.4c-0.9,0-1.6-0.7-1.6-1.6c0-7.5-6.1-13.6-13.6-13.6s-13.6,6.1-13.6,13.6c0,0.9-0.7,1.6-1.6,1.6
				s-1.6-0.7-1.6-1.6c0-9.2,7.5-16.7,16.7-16.7c9.2,0,16.7,7.5,16.7,16.7C261.1,249.7,260.4,250.4,259.5,250.4z"/>
		</g>
	</g>
</g>
<g>
	<g>
		<g>
			<path d="M330.9,250.4c-0.9,0-1.6-0.7-1.6-1.6c0-7.5-6.1-13.6-13.6-13.6c-7.5,0-13.6,6.1-13.6,13.6c0,0.9-0.7,1.6-1.6,1.6
				s-1.6-0.7-1.6-1.6c0-9.2,7.5-16.7,16.7-16.7c9.2,0,16.7,7.5,16.7,16.7C332.5,249.7,331.8,250.4,330.9,250.4z"/>
		</g>
	</g>
</g>
<g>
	<g>
		<g>
			<polygon class="st0" points="298.6,198.2 263,198.2 266.6,188.8 295.1,188.8 			"/>
		</g>
	</g>
	<g>
		<g>
			<path d="M298.6,199.8H263c-0.5,0-1-0.3-1.3-0.7c-0.3-0.4-0.4-1-0.2-1.5l3.5-9.5c0.2-0.6,0.8-1,1.5-1h28.5c0.7,0,1.2,0.4,1.5,1
				l3.5,9.5c0.2,0.5,0.1,1-0.2,1.5C299.6,199.6,299.1,199.8,298.6,199.8z M265.3,196.7h31l-2.4-6.3h-26.3L265.3,196.7z"/>
		</g>
	</g>
</g>
<g>
	<g>
		<g>
			<path d="M164.7,170.3c-0.4,0-0.8-0.2-1.1-0.5l-4.5-4.5c-0.3-0.3-0.5-0.7-0.5-1.1c0-0.4,0.2-0.8,0.5-1.1l4.5-4.5
				c0.6-0.6,1.6-0.6,2.2,0l4.5,4.5c0.3,0.3,0.5,0.7,0.5,1.1c0,0.4-0.2,0.8-0.5,1.1l-4.5,4.5C165.5,170.1,165.1,170.3,164.7,170.3z
				 M162.4,164.2l2.2,2.2l2.2-2.2l-2.2-2.2L162.4,164.2z"/>
		</g>
	</g>
</g>
<g>
	<g>
		<g>
			<path d="M286.5,198.9c-0.9,0-1.6-0.7-1.6-1.6v-7.7c0-0.9,0.7-1.6,1.6-1.6s1.6,0.7,1.6,1.6v7.7
				C288.1,198.2,287.4,198.9,286.5,198.9z"/>
		</g>
	</g>
</g>
<g>
	<g>
		<g>
			<path d="M274.3,199.2c-0.9,0-1.6-0.7-1.6-1.6v-8.7c0-0.9,0.7-1.6,1.6-1.6s1.6,0.7,1.6,1.6v8.7
				C275.9,198.5,275.2,199.2,274.3,199.2z"/>
		</g>
	</g>
</g>
<g>
	<g>
		<g>
			<path d="M280.8,190.3c-0.9,0-1.6-0.7-1.6-1.6v-68.3c0-0.9,0.7-1.6,1.6-1.6s1.6,0.7,1.6,1.6v68.3
				C282.4,189.6,281.7,190.3,280.8,190.3z"/>
		</g>
	</g>
</g>
<g>
	<g>
		<g>
			<path d="M285.2,250.4c-0.9,0-1.6-0.7-1.6-1.6v-4.5c0-0.9,0.7-1.6,1.6-1.6c0.9,0,1.6,0.7,1.6,1.6v4.5
				C286.7,249.7,286,250.4,285.2,250.4z"/>
		</g>
	</g>
</g>
<g>
	<path d="M55.8,189.6c-0.5,0-1-0.2-1.4-0.6L41,175.6c-0.8-0.8-0.8-2,0-2.8c0.8-0.8,2-0.8,2.8,0l13.4,13.4c0.8,0.8,0.8,2,0,2.8
		C56.9,189.4,56.4,189.6,55.8,189.6z"/>
</g>
<g>
	<path d="M37.3,208.2c-0.3,0-0.6-0.1-0.9-0.2c-0.8-0.4-1.2-1.2-1.1-2.1l5.2-32c0.1-0.9,0.8-1.5,1.7-1.7l32-5.2
		c0.8-0.1,1.7,0.3,2.1,1.1c0.4,0.8,0.2,1.7-0.4,2.3l-37.1,37.1C38.3,208,37.8,208.2,37.3,208.2z M44.2,175.9l-3.9,24.4L68.6,172
		L44.2,175.9z"/>
</g>
<g>
	<ellipse transform="matrix(0.7071 -0.7071 0.7071 0.7071 -110.9729 81.5797)" class="st0" cx="43" cy="174.7" rx="4" ry="4"/>
	<path d="M43,180.7c-1.5,0-3.1-0.6-4.2-1.8c-2.3-2.3-2.3-6.1,0-8.5c2.3-2.3,6.1-2.3,8.5,0c2.3,2.3,2.3,6.1,0,8.5
		C46.1,180.1,44.5,180.7,43,180.7z M43,172.8c-0.5,0-1,0.2-1.4,0.6c-0.8,0.8-0.8,2,0,2.8c0.8,0.8,2,0.8,2.8,0c0.8-0.8,0.8-2,0-2.8
		C44,173,43.5,172.8,43,172.8z"/>
</g>
<g>
	<path d="M34.5,186.9c-0.5,0-1-0.2-1.4-0.6c-5.9-5.9-5.9-15.5,0-21.4c5.9-5.9,15.5-5.9,21.4,0c0.8,0.8,0.8,2,0,2.8
		c-0.8,0.8-2,0.8-2.8,0c-4.3-4.3-11.4-4.3-15.8,0c-4.3,4.3-4.3,11.4,0,15.8c0.8,0.8,0.8,2,0,2.8C35.5,186.7,35,186.9,34.5,186.9z"/>
</g>
<g>
	<path d="M28.6,192.7c-0.5,0-1-0.2-1.4-0.6c-9.1-9.1-9.1-24,0-33.2c9.1-9.1,24-9.1,33.2,0c0.8,0.8,0.8,2,0,2.8c-0.8,0.8-2,0.8-2.8,0
		c-7.6-7.6-19.9-7.6-27.5,0c-7.6,7.6-7.6,19.9,0,27.5c0.8,0.8,0.8,2,0,2.8C29.7,192.5,29.2,192.7,28.6,192.7z"/>
</g>
<g>
	<path d="M33.1,213.4l49.3-49.3c9.4,10.5,11.3,25.3,5.7,37.6c0.9,1.6,1.5,3.4,1.8,5.3c8.7-14.9,6.7-34.4-6.1-47.1
		c-0.4-0.4-0.9-0.6-1.4-0.6s-1,0.2-1.4,0.6L28.8,212c-0.4,0.4-0.6,0.9-0.6,1.4s0.2,1,0.6,1.4c7.3,7.3,16.7,11,26.3,11.3v-4
		C47.2,221.9,39.3,219,33.1,213.4z"/>
</g>
<path d="M89.7,258.8H54.6c-1.1,0-2-0.9-2-2v-46.6c0-10.8,8.8-19.5,19.5-19.5s19.5,8.8,19.5,19.5v46.6
	C91.7,258,90.8,258.8,89.7,258.8z M56.6,254.8h31.1v-44.6c0-8.6-7-15.5-15.5-15.5s-15.5,7-15.5,15.5V254.8z"/>
<g>
	<circle class="st0" cx="72.2" cy="204.7" r="3"/>
	<path d="M72.2,209.8c-2.8,0-5-2.3-5-5s2.3-5,5-5s5,2.3,5,5S74.9,209.8,72.2,209.8z M72.2,203.7c-0.6,0-1,0.5-1,1s0.5,1,1,1
		s1-0.5,1-1S72.7,203.7,72.2,203.7z"/>
</g>
<g>
	<rect x="46.1" y="256.8" class="st0" width="52.1" height="12.7"/>
	<path d="M98.2,271.6H46.1c-1.1,0-2-0.9-2-2v-12.7c0-1.1,0.9-2,2-2h52.1c1.1,0,2,0.9,2,2v12.7C100.2,270.7,99.3,271.6,98.2,271.6z
		 M48.1,267.6h48.1v-8.7H48.1V267.6z"/>
</g>
</svg>
