<?xml version="1.0" encoding="utf-8"?>
<!-- Generator: Adobe Illustrator 20.1.0, SVG Export Plug-In . SVG Version: 6.00 Build 0)  -->
<svg version="1.1" id="Layer_1" xmlns="http://www.w3.org/2000/svg" xmlns:xlink="http://www.w3.org/1999/xlink" x="0px" y="0px"
	 viewBox="0 0 773 354" style="enable-background:new 0 0 773 354;" xml:space="preserve">
<style type="text/css">
	.st0{fill:#FFFFFF;}
	.st1{fill:none;stroke:#000000;stroke-width:4;stroke-linecap:round;stroke-linejoin:round;stroke-miterlimit:10;}
</style>
<g>
	<g>
		<path class="st0" d="M211.8,240c14.4,14.4,14.4,37.8,0,52.2c-14.4,14.4-37.8,14.4-52.2,0L211.8,240z"/>
		<path d="M185.7,304.9c-10,0-19.9-3.8-27.5-11.4c-0.8-0.8-0.8-2,0-2.8l52.2-52.2c0.8-0.8,2-0.8,2.8,0c7.3,7.3,11.4,17.1,11.4,27.5
			c0,10.4-4,20.2-11.4,27.5C205.6,301.1,195.7,304.9,185.7,304.9z M162.5,292.1c13.7,12.2,34.8,11.8,47.9-1.4
			c6.6-6.6,10.2-15.4,10.2-24.7c0-8.7-3.1-16.8-8.8-23.2L162.5,292.1z"/>
	</g>
	<g>
		<path d="M185.7,268.1c-0.5,0-1-0.2-1.4-0.6l-13.4-13.4c-0.8-0.8-0.8-2,0-2.8s2-0.8,2.8,0l13.4,13.4c0.8,0.8,0.8,2,0,2.8
			C186.7,267.9,186.2,268.1,185.7,268.1z"/>
	</g>
	<g>
		<path d="M167.1,286.6c-0.3,0-0.6-0.1-0.9-0.2c-0.8-0.4-1.2-1.2-1.1-2.1l5.2-32c0.1-0.9,0.8-1.5,1.7-1.7l32-5.2
			c0.8-0.1,1.7,0.3,2.1,1.1c0.4,0.8,0.2,1.7-0.4,2.3l-37.1,37.1C168.2,286.4,167.7,286.6,167.1,286.6z M174,254.4l-3.9,24.4
			l28.4-28.4L174,254.4z"/>
	</g>
	<g>
		<ellipse transform="matrix(0.7071 -0.7071 0.7071 0.7071 -128.426 196.3879)" class="st0" cx="172.8" cy="253.2" rx="4" ry="4"/>
		<path d="M172.8,259.2c-1.5,0-3.1-0.6-4.2-1.8c-2.3-2.3-2.3-6.1,0-8.5c2.3-2.3,6.1-2.3,8.5,0c2.3,2.3,2.3,6.1,0,8.5
			C175.9,258.6,174.4,259.2,172.8,259.2z M172.8,251.2c-0.5,0-1,0.2-1.4,0.6c-0.8,0.8-0.8,2,0,2.8c0.8,0.8,2,0.8,2.8,0
			c0.8-0.8,0.8-2,0-2.8C173.9,251.4,173.4,251.2,172.8,251.2z"/>
	</g>
	<g>
		<path d="M164.4,265.3c-0.5,0-1-0.2-1.4-0.6c-2.9-2.9-4.4-6.7-4.4-10.7c0-4,1.6-7.8,4.4-10.7c5.9-5.9,15.5-5.9,21.4,0
			c0.8,0.8,0.8,2,0,2.8s-2,0.8-2.8,0c-4.3-4.3-11.4-4.3-15.8,0c-2.1,2.1-3.3,4.9-3.3,7.9c0,3,1.2,5.8,3.3,7.9c0.8,0.8,0.8,2,0,2.8
			C165.4,265.1,164.9,265.3,164.4,265.3z"/>
	</g>
	<g>
		<path d="M158.5,271.2c-0.5,0-1-0.2-1.4-0.6c-4.4-4.4-6.9-10.3-6.9-16.6c0-6.3,2.4-12.2,6.9-16.6c4.4-4.4,10.3-6.9,16.6-6.9
			c6.3,0,12.2,2.4,16.6,6.9c0.8,0.8,0.8,2,0,2.8s-2,0.8-2.8,0c-3.7-3.7-8.6-5.7-13.8-5.7c-5.2,0-10.1,2-13.8,5.7
			c-7.6,7.6-7.6,19.9,0,27.5c0.8,0.8,0.8,2,0,2.8C159.5,271,159,271.2,158.5,271.2z"/>
	</g>
</g>
<g>
	<g>
		<path d="M652.6,350h-44.7c-1.1,0-2-0.9-2-2V66.2c0-1.1,0.9-2,2-2h44.7c1.1,0,2,0.9,2,2V348C654.6,349.1,653.7,350,652.6,350z
			 M609.9,346h40.7V68.2h-40.7V346z"/>
	</g>
	<g>
		<path d="M652.6,115.6h-44.7c-1.1,0-2-0.9-2-2s0.9-2,2-2h44.7c1.1,0,2,0.9,2,2S653.7,115.6,652.6,115.6z"/>
	</g>
	<g>
		<path d="M652.6,112.9c-0.5,0-1-0.2-1.4-0.6l-44.7-44.7c-0.8-0.8-0.8-2,0-2.8c0.8-0.8,2-0.8,2.8,0l44.7,44.7c0.8,0.8,0.8,2,0,2.8
			C653.7,112.7,653.1,112.9,652.6,112.9z"/>
	</g>
	<g>
		<path d="M652.6,210.5h-44.7c-1.1,0-2-0.9-2-2s0.9-2,2-2h44.7c1.1,0,2,0.9,2,2S653.7,210.5,652.6,210.5z"/>
	</g>
	<g>
		<path d="M652.6,207.7c-0.5,0-1-0.2-1.4-0.6l-44.7-44.7c-0.8-0.8-0.8-2,0-2.8c0.8-0.8,2-0.8,2.8,0l44.7,44.7c0.8,0.8,0.8,2,0,2.8
			C653.7,207.5,653.1,207.7,652.6,207.7z"/>
	</g>
	<g>
		<path d="M652.6,305.3h-44.7c-1.1,0-2-0.9-2-2s0.9-2,2-2h44.7c1.1,0,2,0.9,2,2S653.7,305.3,652.6,305.3z"/>
	</g>
	<g>
		<path d="M652.6,302.6c-0.5,0-1-0.2-1.4-0.6l-44.7-44.7c-0.8-0.8-0.8-2,0-2.8s2-0.8,2.8,0l44.7,44.7c0.8,0.8,0.8,2,0,2.8
			C653.7,302.4,653.1,302.6,652.6,302.6z"/>
	</g>
	<g>
		<path d="M652.6,163h-44.7c-1.1,0-2-0.9-2-2s0.9-2,2-2h44.7c1.1,0,2,0.9,2,2S653.7,163,652.6,163z"/>
	</g>
	<g>
		<path d="M607.9,160.3c-0.5,0-1-0.2-1.4-0.6c-0.8-0.8-0.8-2,0-2.8l44.7-44.7c0.8-0.8,2-0.8,2.8,0c0.8,0.8,0.8,2,0,2.8l-44.7,44.7
			C608.9,160.1,608.4,160.3,607.9,160.3z"/>
	</g>
	<g>
		<path d="M652.6,257.9h-44.7c-1.1,0-2-0.9-2-2c0-1.1,0.9-2,2-2h44.7c1.1,0,2,0.9,2,2C654.6,257,653.7,257.9,652.6,257.9z"/>
	</g>
	<g>
		<path d="M607.9,255.2c-0.5,0-1-0.2-1.4-0.6c-0.8-0.8-0.8-2,0-2.8l44.7-44.7c0.8-0.8,2-0.8,2.8,0s0.8,2,0,2.8l-44.7,44.7
			C608.9,255,608.4,255.2,607.9,255.2z"/>
	</g>
	<g>
		<path d="M607.9,347.3c-0.5,0-1-0.2-1.4-0.6c-0.8-0.8-0.8-2,0-2.8l44.7-44.7c0.8-0.8,2-0.8,2.8,0s0.8,2,0,2.8l-44.7,44.7
			C608.9,347.1,608.4,347.3,607.9,347.3z"/>
	</g>
	<g>
		<path d="M607.9,115.6h-65.8c-1.1,0-2-0.9-2-2s0.9-2,2-2h65.8c1.1,0,2,0.9,2,2S609,115.6,607.9,115.6z"/>
	</g>
	<g>
		<path d="M607.9,163h-65.8c-1.1,0-2-0.9-2-2s0.9-2,2-2h65.8c1.1,0,2,0.9,2,2S609,163,607.9,163z"/>
	</g>
	<g>
		<path d="M607.9,210.5h-65.8c-1.1,0-2-0.9-2-2s0.9-2,2-2h65.8c1.1,0,2,0.9,2,2S609,210.5,607.9,210.5z"/>
	</g>
</g>
<g>
	<path class="st0" d="M497.9,243.8h-88.7c0,0,0-133.8,0-155.6c0-41.4,20.1-76.4,44.4-76.4c24.3,0,44.4,39.3,44.4,76.4
		C497.9,110.7,497.9,243.8,497.9,243.8z"/>
	<path d="M497.9,245.8h-88.7c-1.1,0-2-0.9-2-2V88.2c0-20.4,4.7-39.9,13.4-54.7c8.8-15.2,20.6-23.6,33-23.6c12.2,0,23.9,9,33,25.3
		c8.5,15.2,13.3,34.5,13.3,53.1v155.6C499.9,244.9,499,245.8,497.9,245.8z M411.2,241.8h84.7V88.2c0-38.2-20.6-74.4-42.4-74.4
		c-23,0-42.4,34.1-42.4,74.4V241.8z"/>
</g>
<g>
	<path class="st0" d="M542.2,277.7H507c0,0,0-171,0-179.9c0-21.1,10.7-31,17.6-31s17.6,9.9,17.6,31
		C542.2,107,542.2,277.7,542.2,277.7z"/>
	<path d="M542.2,279.7H507c-1.1,0-2-0.9-2-2V97.9c0-22.5,11.7-33,19.6-33c7.9,0,19.6,10.5,19.6,33v179.9
		C544.2,278.9,543.3,279.7,542.2,279.7z M509,275.7h31.2V97.9c0-20.5-10.2-29-15.6-29c-5.4,0-15.6,8.5-15.6,29V275.7z"/>
</g>
<g>
	<path class="st0" d="M400.7,277.7h-35.2c0,0,0-171,0-179.9c0-21.1,10.7-31,17.6-31c6.9,0,17.6,9.9,17.6,31
		C400.7,107,400.7,277.7,400.7,277.7z"/>
	<path d="M400.7,279.7h-35.2c-1.1,0-2-0.9-2-2V97.9c0-22.5,11.7-33,19.6-33s19.6,10.5,19.6,33v179.9
		C402.7,278.9,401.8,279.7,400.7,279.7z M367.6,275.7h31.2V97.9c0-20.5-10.2-29-15.6-29s-15.6,8.5-15.6,29V275.7z"/>
</g>
<g>
	<path d="M767,350H2c-1.1,0-2-0.9-2-2s0.9-2,2-2h765c1.1,0,2,0.9,2,2S768.1,350,767,350z"/>
</g>
<g>
	<path d="M275.6,239c-4.8,0-8.7-3.9-8.7-8.7c0-4.8,3.9-8.8,8.7-8.8c4.8,0,8.8,3.9,8.8,8.8C284.4,235.1,280.4,239,275.6,239z
		 M275.6,225.5c-2.6,0-4.7,2.1-4.7,4.8c0,2.6,2.1,4.7,4.7,4.7c2.6,0,4.8-2.1,4.8-4.7C280.4,227.6,278.2,225.5,275.6,225.5z"/>
</g>
<g>
	<path d="M512.6,40.6c-5.3,0-9.6-4.3-9.6-9.6s4.3-9.6,9.6-9.6c5.3,0,9.6,4.3,9.6,9.6S517.8,40.6,512.6,40.6z M512.6,25.4
		c-3.1,0-5.6,2.5-5.6,5.6s2.5,5.6,5.6,5.6c3.1,0,5.6-2.5,5.6-5.6S515.6,25.4,512.6,25.4z"/>
</g>
<g>
	<circle cx="315.4" cy="262.2" r="3.9"/>
</g>
<g>
	<circle cx="676.6" cy="229" r="3.9"/>
</g>
<g>
	<circle cx="86.6" cy="207.4" r="3.9"/>
</g>
<g>
	<circle cx="524.9" cy="11.4" r="4.4"/>
</g>
<g>
	<path d="M497.9,111.2h-88.7c-1.1,0-2-0.9-2-2s0.9-2,2-2h88.7c1.1,0,2,0.9,2,2S499,111.2,497.9,111.2z"/>
</g>
<g>
	<path d="M497.9,99.9h-88.7c-1.1,0-2-0.9-2-2s0.9-2,2-2h88.7c1.1,0,2,0.9,2,2S499,99.9,497.9,99.9z"/>
</g>
<g>
	<path class="st0" d="M477.8,242.7h-48.5c0,0,0-112.2,0-124.2c0-22.7,14.7-41.7,24.3-41.7c9.5,0,24.3,21.5,24.3,41.7
		C477.8,130.8,477.8,242.7,477.8,242.7z"/>
	<path d="M477.8,244.7h-48.5c-1.1,0-2-0.9-2-2V118.5c0-10.7,3.1-21.5,8.9-30.4c5.3-8.2,11.9-13.3,17.4-13.3
		c5.4,0,11.9,5.3,17.4,14.2c5.6,9.1,8.8,19.9,8.8,29.5v124.2C479.8,243.8,478.9,244.7,477.8,244.7z M431.3,240.7h44.5V118.5
		c0-19.7-14.3-39.7-22.3-39.7c-8.4,0-22.3,18.6-22.3,39.7V240.7z"/>
</g>
<g>
	<path class="st0" d="M444,123.5c0-5.3,4.3-9.5,9.5-9.5c5.3,0,9.5,4.3,9.5,9.5"/>
	<path d="M463.1,125.5c-1.1,0-2-0.9-2-2c0-4.2-3.4-7.5-7.5-7.5s-7.5,3.4-7.5,7.5c0,1.1-0.9,2-2,2s-2-0.9-2-2
		c0-6.4,5.2-11.5,11.5-11.5c6.4,0,11.5,5.2,11.5,11.5C465.1,124.6,464.2,125.5,463.1,125.5z"/>
</g>
<g>
	<path class="st0" d="M477.8,163v72.3h31c0,0,0-2.5,0-8.3c0-19.1-23.6-12.7-23.6-37.6C485.3,163.3,477.8,163,477.8,163z"/>
	<path d="M508.9,237.3h-31c-1.1,0-2-0.9-2-2V163c0-0.5,0.2-1.1,0.6-1.4c0.4-0.4,0.9-0.6,1.5-0.6c1.6,0.1,9.4,1.7,9.4,28.4
		c0,12.2,5.9,16.1,12.1,20.1c5.7,3.7,11.5,7.5,11.5,17.5v8.3C510.9,236.4,510,237.3,508.9,237.3z M479.8,233.3h27V227
		c0-7.8-4.3-10.6-9.7-14.2c-6.5-4.2-13.9-9.1-13.9-23.5c0-12.9-1.9-19-3.5-21.9V233.3z"/>
</g>
<g>
	<path class="st1" d="M494.8,212.9"/>
</g>
<g>
	<path class="st1" d="M494.8,186.8"/>
</g>
<g>
	<path class="st1" d="M502,212.9"/>
</g>
<g>
	<path class="st1" d="M502,198.7"/>
</g>
<g>
	<path class="st1" d="M412.4,214.3"/>
</g>
<g>
	<path class="st1" d="M412.4,188.3"/>
</g>
<g>
	<path class="st1" d="M404.9,212.9"/>
</g>
<g>
	<path class="st1" d="M404.9,198.7"/>
</g>
<g>
	<path d="M485.2,237.3c-1.1,0-2-0.9-2-2v-13.7c0-1.1,0.9-2,2-2s2,0.9,2,2v13.7C487.2,236.4,486.3,237.3,485.2,237.3z"/>
</g>
<g>
	<path d="M492,237.3c-1.1,0-2-0.9-2-2V227c0-1.1,0.9-2,2-2s2,0.9,2,2v8.3C494,236.4,493.1,237.3,492,237.3z"/>
</g>
<g>
	<path class="st0" d="M428.6,163v72.3h-31c0,0,0-2.5,0-8.3c0-19.1,23.6-12.7,23.6-37.6C421.1,163.3,428.6,163,428.6,163z"/>
	<path d="M428.6,237.3h-31c-1.1,0-2-0.9-2-2V227c0-10,5.9-13.8,11.5-17.5c6.2-4.1,12.1-7.9,12.1-20.1c0-26.7,7.8-28.3,9.4-28.4
		c0.5,0,1.1,0.2,1.5,0.6s0.6,0.9,0.6,1.4v72.3C430.6,236.4,429.7,237.3,428.6,237.3z M399.6,233.3h27v-65.9c-1.6,2.9-3.5,9-3.5,21.9
		c0,14.4-7.4,19.2-13.9,23.5c-5.4,3.5-9.7,6.3-9.7,14.2V233.3z"/>
</g>
<g>
	<path d="M421.3,237.3c-1.1,0-2-0.9-2-2v-13.7c0-1.1,0.9-2,2-2s2,0.9,2,2v13.7C423.3,236.4,422.4,237.3,421.3,237.3z"/>
</g>
<g>
	<path d="M414.4,237.3c-1.1,0-2-0.9-2-2V227c0-1.1,0.9-2,2-2s2,0.9,2,2v8.3C416.4,236.4,415.5,237.3,414.4,237.3z"/>
</g>
<g>
	<path d="M541,155.6h-32.9c-1.1,0-2-0.9-2-2s0.9-2,2-2H541c1.1,0,2,0.9,2,2S542.1,155.6,541,155.6z"/>
</g>
<g>
	<path d="M541,147.8h-32.9c-1.1,0-2-0.9-2-2s0.9-2,2-2H541c1.1,0,2,0.9,2,2S542.1,147.8,541,147.8z"/>
</g>
<g>
	<path d="M399.6,155.6h-32.9c-1.1,0-2-0.9-2-2s0.9-2,2-2h32.9c1.1,0,2,0.9,2,2S400.7,155.6,399.6,155.6z"/>
</g>
<g>
	<path d="M399.6,147.8h-32.9c-1.1,0-2-0.9-2-2s0.9-2,2-2h32.9c1.1,0,2,0.9,2,2S400.7,147.8,399.6,147.8z"/>
</g>
<g>
	<path class="st0" d="M626.3,308.7c-9.8,0-18.7,3.6-25.6,9.5c-4.4-10.4-14.7-17.7-26.7-17.7c0-22.6-18.3-40.9-40.9-40.9
		c-15.6,0-29.2,8.7-36.1,21.6c-3.5-3.8-8.4-6.2-14-6.2c-5.9,0-11.1,2.7-14.6,6.9v-35h-29.7v34.4c-3.5-3.8-8.5-6.3-14-6.3
		c-6.4,0-12.1,3.2-15.5,8.1c-6.5-13.9-20.7-23.5-37.1-23.5c-22.6,0-40.9,18.3-40.9,40.9c-11.6,0-21.6,6.8-26.2,16.7
		c-6.7-5.3-15.1-8.4-24.3-8.4c-21.7,0-39.3,17.6-39.3,39.3h424.3C665.6,326.3,648,308.7,626.3,308.7z"/>
	<path d="M665.6,350H241.4c-1.1,0-2-0.9-2-2c0-22.8,18.5-41.3,41.3-41.3c8.5,0,16.7,2.6,23.6,7.4c5.1-9,14.6-14.9,25-15.6
		c1-22.8,19.9-41,42.9-41c15.5,0,29.9,8.5,37.4,21.9c3.9-4.1,9.4-6.5,15.1-6.5c4.3,0,8.5,1.4,12,3.8v-29.9c0-1.1,0.9-2,2-2h29.7
		c1.1,0,2,0.9,2,2v30.3c3.6-2.7,8-4.2,12.6-4.2c5,0,9.8,1.8,13.5,5c7.8-12.6,21.6-20.4,36.5-20.4c23,0,41.9,18.2,42.9,41
		c10.8,0.7,20.4,6.9,25.5,16.5c7.1-5.4,15.9-8.3,24.9-8.3c22.8,0,41.3,18.5,41.3,41.3C667.6,349.1,666.7,350,665.6,350z M243.4,346
		h420.2c-1-19.6-17.3-35.3-37.2-35.3c-8.9,0-17.5,3.2-24.3,9c-0.5,0.4-1.1,0.6-1.8,0.4c-0.6-0.1-1.1-0.6-1.4-1.2
		c-4.2-10-14-16.5-24.9-16.5c-1.1,0-2-0.9-2-2c0-21.5-17.5-38.9-38.9-38.9c-14.4,0-27.5,7.9-34.3,20.6c-0.3,0.6-0.9,1-1.5,1
		c-0.6,0.1-1.3-0.2-1.7-0.6c-3.2-3.5-7.8-5.6-12.5-5.6c-5.1,0-9.8,2.3-13.1,6.2c-0.5,0.7-1.4,0.9-2.2,0.6c-0.8-0.3-1.3-1-1.3-1.9
		v-33h-25.7v32.4c0,0.8-0.5,1.6-1.3,1.9c-0.8,0.3-1.6,0.1-2.2-0.5c-3.2-3.6-7.8-5.6-12.6-5.6c-5.5,0-10.7,2.7-13.9,7.3
		c-0.4,0.6-1.1,0.9-1.8,0.9c-0.7-0.1-1.3-0.5-1.6-1.1c-6.4-13.6-20.2-22.4-35.2-22.4c-21.5,0-38.9,17.5-38.9,38.9c0,1.1-0.9,2-2,2
		c-10.4,0-20,6.1-24.4,15.5c-0.3,0.6-0.8,1-1.4,1.1c-0.6,0.1-1.2,0-1.7-0.4c-6.6-5.2-14.6-8-23.1-8
		C260.8,310.7,244.5,326.4,243.4,346z"/>
</g>
<g>
	<path d="M448.6,290c-1.1,0-2-0.9-2-2v-32.2c0-1.1,0.9-2,2-2s2,0.9,2,2V288C450.6,289.1,449.7,290,448.6,290z"/>
</g>
<g>
	<path d="M459.1,306.1c-1.1,0-2-0.9-2-2v-48.3c0-1.1,0.9-2,2-2s2,0.9,2,2v48.3C461.1,305.2,460.2,306.1,459.1,306.1z"/>
</g>
<g>
	<path d="M561.2,301.6c-1.1,0-2-0.9-2-2c0-14.4-11.7-26.2-26.2-26.2s-26.2,11.7-26.2,26.2c0,1.1-0.9,2-2,2s-2-0.9-2-2
		c0-16.6,13.5-30.2,30.2-30.2c16.6,0,30.2,13.5,30.2,30.2C563.2,300.8,562.3,301.6,561.2,301.6z"/>
</g>
<g>
	<path d="M400.7,301.6c-1.1,0-2-0.9-2-2c0-14.4-11.7-26.2-26.2-26.2s-26.2,11.7-26.2,26.2c0,1.1-0.9,2-2,2s-2-0.9-2-2
		c0-16.6,13.5-30.2,30.2-30.2c16.6,0,30.2,13.5,30.2,30.2C402.7,300.8,401.8,301.6,400.7,301.6z"/>
</g>
<g>
	<path d="M426.5,320.9c-1.1,0-2-0.9-2-2c0-9.5-7.7-17.2-17.2-17.2s-17.2,7.7-17.2,17.2c0,1.1-0.9,2-2,2s-2-0.9-2-2
		c0-11.7,9.5-21.2,21.2-21.2c11.7,0,21.2,9.5,21.2,21.2C428.5,320,427.6,320.9,426.5,320.9z"/>
</g>
<g>
	<path d="M517.1,320.9c-1.1,0-2-0.9-2-2c0-9.5-7.7-17.2-17.2-17.2s-17.2,7.7-17.2,17.2c0,1.1-0.9,2-2,2s-2-0.9-2-2
		c0-11.7,9.5-21.2,21.2-21.2c11.7,0,21.2,9.5,21.2,21.2C519.1,320,518.2,320.9,517.1,320.9z"/>
</g>
<g>
	<polygon class="st0" points="476.2,254.7 431,254.7 435.5,242.7 471.7,242.7 	"/>
	<path d="M476.2,256.7H431c-0.7,0-1.3-0.3-1.6-0.9c-0.4-0.5-0.5-1.2-0.2-1.8l4.5-12c0.3-0.8,1-1.3,1.9-1.3h36.2
		c0.8,0,1.6,0.5,1.9,1.3l4.5,12c0.2,0.6,0.1,1.3-0.2,1.8C477.4,256.4,476.8,256.7,476.2,256.7z M433.9,252.7h39.4l-3-8h-33.4
		L433.9,252.7z"/>
</g>
<g>
	<path d="M306.2,219.2c-0.5,0-1-0.2-1.4-0.6l-5.7-5.7c-0.4-0.4-0.6-0.9-0.6-1.4s0.2-1,0.6-1.4l5.7-5.7c0.8-0.8,2-0.8,2.8,0l5.7,5.7
		c0.4,0.4,0.6,0.9,0.6,1.4s-0.2,1-0.6,1.4l-5.7,5.7C307.2,219,306.7,219.2,306.2,219.2z M303.4,211.5l2.8,2.8l2.8-2.8l-2.8-2.8
		L303.4,211.5z"/>
</g>
<g>
	<path d="M66.7,235c-0.5,0-1-0.2-1.4-0.6l-5.7-5.7c-0.4-0.4-0.6-0.9-0.6-1.4s0.2-1,0.6-1.4l5.7-5.7c0.8-0.8,2-0.8,2.8,0l5.7,5.7
		c0.4,0.4,0.6,0.9,0.6,1.4s-0.2,1-0.6,1.4l-5.7,5.7C67.7,234.8,67.2,235,66.7,235z M63.8,227.4l2.8,2.8l2.8-2.8l-2.8-2.8L63.8,227.4
		z"/>
</g>
<g>
	<path d="M750,303.5c-0.5,0-1-0.2-1.4-0.6l-5.7-5.7c-0.8-0.8-0.8-2,0-2.8l5.7-5.7c0.4-0.4,0.9-0.6,1.4-0.6l0,0c0.5,0,1,0.2,1.4,0.6
		l5.7,5.7c0.8,0.8,0.8,2,0,2.8l-5.7,5.7C751.1,303.3,750.5,303.5,750,303.5z M747.2,295.9l2.8,2.8l2.8-2.8L750,293L747.2,295.9z"/>
</g>
<g>
	<path d="M698.3,216.2c-0.5,0-1-0.2-1.4-0.6l-5.7-5.7c-0.4-0.4-0.6-0.9-0.6-1.4s0.2-1,0.6-1.4l5.7-5.7c0.8-0.8,2-0.8,2.8,0l5.7,5.7
		c0.8,0.8,0.8,2,0,2.8l-5.7,5.7C699.4,216,698.9,216.2,698.3,216.2z M695.5,208.5l2.8,2.8l2.8-2.8l-2.8-2.8L695.5,208.5z"/>
</g>
<g>
	<path d="M460.8,255.6c-1.1,0-2-0.9-2-2v-9.8c0-1.1,0.9-2,2-2s2,0.9,2,2v9.8C462.8,254.7,461.9,255.6,460.8,255.6z"/>
</g>
<g>
	<path d="M445.3,255.9c-1.1,0-2-0.9-2-2v-11c0-1.1,0.9-2,2-2s2,0.9,2,2v11C447.3,255,446.5,255.9,445.3,255.9z"/>
</g>
<g>
	<path d="M453.6,244.7c-1.1,0-2-0.9-2-2V156c0-1.1,0.9-2,2-2s2,0.9,2,2v86.7C455.6,243.8,454.7,244.7,453.6,244.7z"/>
</g>
<g>
	<path d="M459.1,320.9c-1.1,0-2-0.9-2-2v-5.7c0-1.1,0.9-2,2-2s2,0.9,2,2v5.7C461.1,320,460.2,320.9,459.1,320.9z"/>
</g>
<g>
	<path class="st0" d="M202,271.2c-9.7,0-17.5,7.8-17.5,17.5v46.6h35.1v-46.6C219.5,279,211.7,271.2,202,271.2z"/>
	<path d="M219.5,337.3h-35.1c-1.1,0-2-0.9-2-2v-46.6c0-10.8,8.8-19.5,19.5-19.5c10.8,0,19.5,8.8,19.5,19.5v46.6
		C221.5,336.4,220.6,337.3,219.5,337.3z M186.5,333.3h31.1v-44.6c0-8.6-7-15.5-15.5-15.5s-15.5,7-15.5,15.5V333.3z"/>
</g>
<g>
	<circle class="st0" cx="202" cy="283.2" r="3"/>
	<path d="M202,288.2c-2.8,0-5-2.3-5-5s2.3-5,5-5s5,2.3,5,5S204.8,288.2,202,288.2z M202,282.2c-0.6,0-1,0.5-1,1s0.5,1,1,1s1-0.5,1-1
		S202.6,282.2,202,282.2z"/>
</g>
<g>
	<rect x="175.9" y="335.3" class="st0" width="52.1" height="12.7"/>
	<path d="M228.1,350h-52.1c-1.1,0-2-0.9-2-2v-12.7c0-1.1,0.9-2,2-2h52.1c1.1,0,2,0.9,2,2V348C230.1,349.1,229.2,350,228.1,350z
		 M177.9,346h48.1v-8.7h-48.1V346z"/>
</g>
<g>
	<path d="M705.2,344.6c-1.1,0-2-0.9-2-2v-72.2c0-1.1,0.9-2,2-2s2,0.9,2,2v72.2C707.2,343.7,706.3,344.6,705.2,344.6z"/>
</g>
<g>
	<path d="M722.2,287.9c-0.5,0-1-0.2-1.4-0.6l-15.5-15.5l-15.5,15.5c-0.8,0.8-2,0.8-2.8,0s-0.8-2,0-2.8l16.9-16.9
		c0.8-0.8,2-0.8,2.8,0l16.9,16.9c0.8,0.8,0.8,2,0,2.8C723.2,287.7,722.7,287.9,722.2,287.9z"/>
</g>
<g>
	<path d="M722.2,300c-0.5,0-1-0.2-1.4-0.6l-15.5-15.5l-15.5,15.5c-0.8,0.8-2,0.8-2.8,0s-0.8-2,0-2.8l16.9-16.9c0.8-0.8,2-0.8,2.8,0
		l16.9,16.9c0.8,0.8,0.8,2,0,2.8C723.2,299.8,722.7,300,722.2,300z"/>
</g>
<g>
	<path d="M77.9,350.1c-1.1,0-2-0.9-2-2V276c0-1.1,0.9-2,2-2s2,0.9,2,2v72.2C79.9,349.2,79,350.1,77.9,350.1z"/>
</g>
<g>
	<path d="M94.8,293.4c-0.5,0-1-0.2-1.4-0.6l-15.5-15.5l-15.5,15.5c-0.8,0.8-2,0.8-2.8,0s-0.8-2,0-2.8L76.5,273c0.8-0.8,2-0.8,2.8,0
		L96.3,290c0.8,0.8,0.8,2,0,2.8C95.9,293.2,95.4,293.4,94.8,293.4z"/>
</g>
<g>
	<path d="M94.8,305.5c-0.5,0-1-0.2-1.4-0.6l-15.5-15.5l-15.5,15.5c-0.8,0.8-2,0.8-2.8,0s-0.8-2,0-2.8l16.9-16.9c0.8-0.8,2-0.8,2.8,0
		l16.9,16.9c0.8,0.8,0.8,2,0,2.8C95.9,305.3,95.4,305.5,94.8,305.5z"/>
</g>
<g>
	<path d="M123.5,349.7c-1.1,0-2-0.9-2-2v-44.9c0-1.1,0.9-2,2-2s2,0.9,2,2v44.9C125.5,348.8,124.6,349.7,123.5,349.7z"/>
</g>
<g>
	<path d="M140.4,320.2c-0.5,0-1-0.2-1.4-0.6l-15.5-15.5L108,319.6c-0.8,0.8-2,0.8-2.8,0s-0.8-2,0-2.8l16.9-16.9
		c0.4-0.4,0.9-0.6,1.4-0.6l0,0c0.5,0,1,0.2,1.4,0.6l16.9,16.9c0.8,0.8,0.8,2,0,2.8C141.5,320,141,320.2,140.4,320.2z"/>
</g>
<g>
	<path d="M140.4,332.3c-0.5,0-1-0.2-1.4-0.6l-15.5-15.5L108,331.8c-0.8,0.8-2,0.8-2.8,0s-0.8-2,0-2.8l16.9-16.9c0.8-0.8,2-0.8,2.8,0
		l16.9,16.9c0.8,0.8,0.8,2,0,2.8C141.5,332.1,141,332.3,140.4,332.3z"/>
</g>
</svg>
