<?xml version="1.0" encoding="UTF-8"?>
<svg width="147px" height="154px" viewBox="0 0 147 154" version="1.1" xmlns="http://www.w3.org/2000/svg" xmlns:xlink="http://www.w3.org/1999/xlink">
    <!-- Generator: Sketch 43.2 (39069) - http://www.bohemiancoding.com/sketch -->
    <title>inbound-marketing-treebox</title>
    <desc>Created with Sketch.</desc>
    <defs></defs>
    <g id="Page-1" stroke="none" stroke-width="1" fill="none" fill-rule="evenodd">
        <g id="home" transform="translate(-327.000000, -967.000000)" fill-rule="nonzero" fill="#000000">
            <g id="galaxy" transform="translate(327.000000, 967.000000)">
                <g id="Group">
                    <circle id="Oval" transform="translate(20.818711, 38.669703) rotate(-85.600277) translate(-20.818711, -38.669703) " cx="20.8187105" cy="38.6697026" r="2.40011284"></circle>
                    <circle id="Oval" cx="47.4" cy="145.1" r="2.4"></circle>
                    <circle id="Oval" cx="134.2" cy="40.1" r="2.4"></circle>
                    <circle id="Oval" transform="translate(15.626623, 44.583581) rotate(-85.600153) translate(-15.626623, -44.583581) " cx="15.6266232" cy="44.5835808" r="1.1000519"></circle>
                    <circle id="Oval" cx="126.1" cy="33.8" r="1.1"></circle>
                    <circle id="Oval" cx="145.8" cy="69.5" r="1.1"></circle>
                    <circle id="Oval" transform="translate(4.605301, 66.900836) rotate(-5.271606) translate(-4.605301, -66.900836) " cx="4.60530109" cy="66.9008356" r="1.10003275"></circle>
                    <circle id="Oval" cx="52.1" cy="152.8" r="1.1"></circle>
                    <circle id="Oval" cx="129.2" cy="97.4" r="1.1"></circle>
                    <path d="M128.5,111 L127.6,110.7 C126.7,110.5 125.8,109.6 125.5,108.7 L125.1,107.6 C124.9,107.1 124.6,106.9 124.2,106.8 C123.8,106.8 123.5,107.1 123.4,107.6 L123.1,108.7 C122.8,109.6 121.9,110.5 121.1,110.8 L120.2,111.1 C119.7,111.3 119.4,111.6 119.4,112 C119.4,112.4 119.7,112.7 120.2,112.9 L121.1,113.2 C122,113.4 122.9,114.3 123.2,115.2 L123.6,116.3 C123.8,116.8 124.1,117 124.5,117.1 C124.9,117.1 125.2,116.8 125.3,116.3 L125.6,115.2 C125.9,114.3 126.8,113.4 127.6,113.1 L128.5,112.8 C129,112.6 129.3,112.3 129.3,111.9 C129.3,111.5 129.1,111.1 128.5,111 Z" id="Shape"></path>
                    <path d="M82.3,4.7 L83,4.9 C83.6,5.1 84.3,5.7 84.6,6.4 L84.9,7.2 C85,7.6 85.3,7.8 85.5,7.8 C85.8,7.8 86,7.6 86.1,7.2 L86.3,6.4 C86.5,5.8 87.2,5.1 87.8,4.9 L88.5,4.7 C88.9,4.6 89.1,4.3 89.1,4 C89.1,3.7 88.9,3.5 88.5,3.4 L87.8,3.2 C87.2,3 86.5,2.4 86.2,1.7 L85.9,0.9 C85.8,0.5 85.5,0.3 85.3,0.3 C85,0.3 84.8,0.5 84.7,0.9 L84.5,1.7 C84.3,2.3 83.6,3 83,3.2 L82.3,3.4 C81.9,3.5 81.7,3.8 81.7,4.1 C81.7,4.4 81.9,4.6 82.3,4.7 Z" id="Shape"></path>
                    <circle id="Oval" cx="1.6" cy="112.6" r="1.1"></circle>
                    <circle id="Oval" cx="17.6" cy="119.2" r="1.1"></circle>
                    <path d="M13.9,107.3 L13.3,107.1 C12.8,106.9 12.2,106.4 12,105.9 L11.8,105.2 C11.7,104.9 11.5,104.7 11.3,104.7 C11.1,104.7 10.9,104.9 10.8,105.2 L10.6,105.9 C10.4,106.4 9.9,107 9.3,107.2 L8.7,107.4 C8.4,107.5 8.2,107.7 8.2,108 C8.2,108.2 8.4,108.5 8.7,108.5 L9.3,108.7 C9.8,108.9 10.4,109.4 10.6,109.9 L10.8,110.6 C10.9,110.9 11.1,111.1 11.3,111.1 C11.5,111.1 11.7,110.9 11.8,110.6 L12,109.9 C12.2,109.4 12.7,108.8 13.3,108.6 L13.9,108.4 C14.2,108.3 14.4,108.1 14.4,107.8 C14.4,107.6 14.2,107.4 13.9,107.3 Z" id="Shape"></path>
                    <path d="M70.2,96.5 C80.2,96.5 88.4,88.4 88.4,78.3 C88.4,68.3 80.3,60.1 70.2,60.1 C60.1,60.1 52,68.2 52,78.3 C52.1,88.3 60.2,96.5 70.2,96.5 Z M70.2,67.1 C76.4,67.1 81.4,72.1 81.4,78.3 C81.4,84.5 76.4,89.5 70.2,89.5 C64,89.5 59,84.5 59,78.3 C59.1,72.2 64.1,67.1 70.2,67.1 Z" id="Shape"></path>
                    <path d="M34.7,33.4 C53.4,15.5 86.4,15.9 103.9,34.2 C113,43.7 118.3,55.6 118.9,67.6 C119.5,80.6 114.6,92.5 104.7,102 C99.8,106.6 90.7,112 79.7,113 C71.5,113.8 59.4,112.3 48.6,101 C40.2,92.3 39.9,82.1 40.6,76.9 C41.5,68.8 45.6,61.5 51.3,57.9 C52.9,56.9 53.4,54.7 52.3,53.1 C51.2,51.5 49.1,51 47.5,52.1 C40,56.9 34.9,65.9 33.7,76.2 C32.4,87.3 36,98.1 43.7,106 C54.7,117.4 66.9,120.3 76.2,120.3 C77.7,120.3 79.1,120.2 80.5,120.1 C91.4,119.1 102.3,114.3 109.7,107.2 C121.2,96.2 126.8,82.5 126.1,67.4 C125.4,53.7 119.4,40.2 109.2,29.5 C89.2,8.5 51.5,8.1 30.1,28.5 C28.7,29.8 28.7,32.1 30,33.4 C31.1,34.7 33.3,34.7 34.7,33.4 Z" id="Shape"></path>
                    <path d="M109.3,116.3 C92.4,136 59.6,138.8 40.3,122.3 C30.3,113.7 23.9,102.4 22.1,90.5 C20.2,77.6 24,65.3 33,54.8 C37.4,49.7 45.9,43.5 56.8,41.4 C64.9,39.8 77,40.1 89,50.3 C98.2,58.2 99.5,68.2 99.4,73.5 C99.3,81.6 95.9,89.3 90.7,93.4 C89.2,94.6 88.9,96.8 90.1,98.3 C91.3,99.8 93.5,100.1 95,98.9 C102,93.4 106.2,83.9 106.4,73.6 C106.6,62.5 101.9,52 93.6,44.9 C79.5,32.9 65.2,32.6 55.6,34.5 C44.8,36.6 34.4,42.4 27.8,50.2 C17.5,62.2 13.2,76.5 15.4,91.4 C17.4,105 24.7,117.8 36,127.5 C45.3,135.5 57.9,139.9 71.2,139.9 C73,139.9 74.8,139.8 76.7,139.7 C91.8,138.3 105.7,131.4 114.9,120.8 C116.2,119.3 116,117.1 114.5,115.9 C112.8,114.7 110.6,114.8 109.3,116.3 Z" id="Shape"></path>
                </g>
            </g>
        </g>
    </g>
</svg>