<?xml version="1.0" encoding="UTF-8"?>
<svg width="112px" height="113px" viewBox="0 0 112 113" version="1.1" xmlns="http://www.w3.org/2000/svg" xmlns:xlink="http://www.w3.org/1999/xlink">
    <!-- Generator: Sketch 41.2 (35397) - http://www.bohemiancoding.com/sketch -->
    <title>inbound-marketing</title>
    <desc>Created with Sketch.</desc>
    <defs></defs>
    <g id="Page-1" stroke="none" stroke-width="1" fill="none" fill-rule="evenodd">
        <g id="Desktop-HD" transform="translate(-277.000000, -456.000000)">
            <g id="noun_547855_cc" transform="translate(277.000000, 456.000000)">
                <g id="Group">
                    <g>
                        <circle id="Oval-2" fill="#8AE3AB" cx="57" cy="50" r="11"></circle>
                        <ellipse id="Oval" fill="#000000" cx="60.104" cy="16.784" rx="2.964" ry="2.964"></ellipse>
                        <ellipse id="Oval" fill="#000000" cx="3.104" cy="24.536" rx="2.964" ry="2.964"></ellipse>
                        <ellipse id="Oval" fill="#000000" cx="6.296" cy="34.796" rx="2.964" ry="2.964"></ellipse>
                        <ellipse id="Oval" fill="#000000" cx="105.02" cy="80.852" rx="2.964" ry="2.964"></ellipse>
                        <ellipse id="Oval" fill="#000000" cx="108.896" cy="56" rx="2.964" ry="2.964"></ellipse>
                        <ellipse id="Oval" fill="#000000" cx="40.268" cy="93.62" rx="2.964" ry="2.964"></ellipse>
                        <path d="M94.988,91.796 C85.64,101.144 73.1,106.16 59.876,106.16 C46.652,106.16 34.112,100.916 24.764,91.568 C17.468,84.272 13.364,74.24 13.364,63.98 C13.364,53.492 17.468,43.688 24.764,36.392 C30.692,30.464 38.216,27.272 46.424,27.272 C54.632,27.272 62.384,30.464 68.084,36.392 C77.432,45.74 77.432,61.016 68.084,70.364 C66.944,71.504 66.944,73.1 68.084,74.24 C69.224,75.38 70.82,75.38 71.96,74.24 C83.588,62.612 83.588,43.916 71.96,32.516 C65.12,25.676 56,21.8 46.196,21.8 C36.392,21.8 27.5,25.676 20.432,32.516 C11.996,40.952 7.436,52.124 7.436,64.208 C7.436,76.292 11.996,87.464 20.432,95.9 C30.92,106.388 44.6,112.088 59.42,112.088 C74.24,112.088 87.92,106.388 98.408,95.9 C99.548,94.76 99.548,93.164 98.408,92.024 C97.724,90.656 95.9,90.656 94.988,91.796 Z" id="Shape" fill="#000000"></path>
                        <path d="M8.576,16.328 C7.436,17.468 7.436,19.064 8.576,20.204 C9.716,21.344 11.312,21.344 12.452,20.204 C31.832,0.824 63.296,0.824 82.676,20.204 C89.972,27.5 94.076,37.532 94.076,47.792 C94.076,58.28 89.972,68.084 82.676,75.38 C76.748,81.308 69.224,84.5 61.016,84.5 C52.808,84.5 45.056,81.308 39.356,75.38 C34.796,70.82 32.288,64.892 32.288,58.28 C32.288,51.896 34.796,45.74 39.356,41.18 C40.496,40.04 40.496,38.444 39.356,37.304 C38.216,36.164 36.62,36.164 35.48,37.304 C23.852,48.932 23.852,67.628 35.48,79.028 C42.32,85.868 51.44,89.744 61.244,89.744 C71.048,89.744 79.94,85.868 87.008,79.028 C95.444,70.592 100.004,59.42 100.004,47.336 C100.004,35.252 95.444,24.08 87.008,15.644 C65.12,-5.104 30.008,-5.104 8.576,16.328 Z" id="Shape" fill="#000000"></path>
                        <path d="M54.176,39.128 C45.056,39.128 37.76,46.424 37.76,55.544 C37.76,64.664 45.056,71.96 54.176,71.96 C63.296,71.96 70.592,64.664 70.592,55.544 C70.592,46.424 63.068,39.128 54.176,39.128 Z M54.176,66.488 C48.248,66.488 43.232,61.472 43.232,55.544 C43.232,49.616 48.248,44.6 54.176,44.6 C60.104,44.6 65.12,49.616 65.12,55.544 C65.12,61.472 60.104,66.488 54.176,66.488 Z" id="Shape" fill="#000000"></path>
                    </g>
                </g>
            </g>
        </g>
    </g>
</svg>