<?xml version="1.0" encoding="UTF-8" standalone="no"?>
<svg width="106px" height="106px" viewBox="0 0 106 106" version="1.1" xmlns="http://www.w3.org/2000/svg" xmlns:xlink="http://www.w3.org/1999/xlink">
    <!-- Generator: Sketch 39.1 (31720) - http://www.bohemiancoding.com/sketch -->
    <title>no-results</title>
    <desc>Created with Sketch.</desc>
    <defs></defs>
    <g id="Page-1" stroke="none" stroke-width="1" fill="none" fill-rule="evenodd">
        <g id="blog-landing-copy" transform="translate(-655.000000, -216.000000)">
            <g id="no-results" transform="translate(654.000000, 215.000000)">
                <g id="search" transform="translate(0.660156, 0.660156)" fill="#000000">
                    <path d="M103.339604,92.5045533 L81.05692,70.221869 C94.1127105,51.549454 90.7353704,25.9959853 73.2768367,11.3565745 C55.8183029,-3.28283624 30.067336,-2.15417079 13.9565826,13.9565826 C-2.15417079,30.067336 -3.28283624,55.8183029 11.3565745,73.2768367 C25.9959853,90.7353704 51.549454,94.1127105 70.221869,81.05692 L92.5045533,103.339604 C94.4400488,105.2751 97.2610949,106.030997 99.9050308,105.322556 C102.548967,104.614116 104.614116,102.548967 105.322556,99.9050308 C106.030997,97.2610949 105.2751,94.4400488 103.339604,92.5045533 L103.339604,92.5045533 Z M24.8524859,65.3212099 C13.6711804,54.1363466 13.6731031,36.0052807 24.8567806,24.8227892 C36.0404581,13.6402976 54.1715241,13.6402976 65.3552016,24.8227892 C76.5388791,36.0052807 76.5408018,54.1363466 65.3594963,65.3212099 C54.1660996,76.48832 36.0458826,76.48832 24.8524859,65.3212099 L24.8524859,65.3212099 Z" id="Shape"></path>
                </g>
                <g id="Group-2" transform="translate(46.688593, 46.088147) rotate(-315.000000) translate(-46.688593, -46.088147) translate(31.304841, 32.926804)" stroke="#000000" stroke-width="8" stroke-linecap="round" stroke-linejoin="round">
                    <path d="M30.1594264,13.4880353 L0.525520284,13.4880353 L30.1594264,13.4880353 Z" id="Line"></path>
                    <path d="M0.525520284,13.4880353 L30.1594264,13.4880353 L0.525520284,13.4880353 Z" id="Line" transform="translate(15.342473, 13.488035) rotate(-270.000000) translate(-15.342473, -13.488035) "></path>
                </g>
            </g>
        </g>
    </g>
</svg>