<?xml version="1.0" encoding="UTF-8"?>
<svg width="342px" height="269px" viewBox="0 0 342 269" version="1.1" xmlns="http://www.w3.org/2000/svg" xmlns:xlink="http://www.w3.org/1999/xlink">
    <!-- Generator: Sketch 43.2 (39069) - http://www.bohemiancoding.com/sketch -->
    <title>satellite</title>
    <desc>Created with Sketch.</desc>
    <defs></defs>
    <g id="Page-1" stroke="none" stroke-width="1" fill="none" fill-rule="evenodd">
        <g id="Group" fill-rule="nonzero" fill="#000000">
            <path d="M92.5,204.2 C91.7,203.4 90.5,203.4 89.7,204.2 L84.1,209.9 C83.7,210.3 83.5,210.8 83.5,211.3 C83.5,211.8 83.7,212.3 84.1,212.7 L89.8,218.3 C90.2,218.7 90.7,218.9 91.2,218.9 C91.7,218.9 92.2,218.7 92.6,218.3 L98.2,212.6 C98.6,212.2 98.8,211.7 98.8,211.2 C98.8,210.7 98.6,210.2 98.2,209.8 L92.5,204.2 Z M91.1,214.1 L88.3,211.3 L91.1,208.5 L93.9,211.3 L91.1,214.1 Z" id="Shape"></path>
            <path d="M301.8,165.2 L280.4,158 L273.2,136.6 C273.2,136.6 273.2,136.5 273.1,136.5 C273,136.4 273,136.2 272.9,136.1 C272.9,136 272.8,136 272.8,136 C272.7,135.9 272.6,135.8 272.5,135.7 L272.4,135.6 C272.3,135.5 272.2,135.4 272,135.3 C271.9,135.3 271.9,135.2 271.8,135.2 C271.7,135.2 271.6,135.1 271.6,135.1 L252.3,128.6 L255.3,125.6 C259.8,121.1 259.8,113.8 255.4,109.2 C257.4,109.7 259.4,109.9 261.4,109.9 C268.1,109.9 274.8,107.3 279.9,102.3 C280.4,101.8 280.6,101.2 280.6,100.5 C280.6,99.8 280.3,99.2 279.9,98.7 L265,83.7 L267.3,81.5 C268.7,82.3 270.3,82.7 271.9,82.7 C274.3,82.7 276.7,81.8 278.6,79.9 C280.4,78.1 281.3,75.8 281.3,73.2 C281.3,70.7 280.3,68.3 278.5,66.6 C276.7,64.8 274.4,63.9 271.9,63.9 C269.4,63.9 267,64.9 265.3,66.7 C263.5,68.5 262.6,70.8 262.6,73.4 C262.6,75 263,76.6 263.8,78 L261.5,80.2 L246.6,65.3 C245.6,64.3 244,64.3 243.1,65.3 C238.2,70.2 235.5,76.8 235.5,83.7 C235.5,85.8 235.8,87.8 236.2,89.8 C231.6,86.3 225,86.6 220.8,90.8 L219.2,92.4 L199.5,85.8 L192.4,64.6 L192.4,64.6 L192.4,64.5 L192.3,64.3 C192.3,64.3 192.3,64.3 192.3,64.2 C192.2,64 192.2,63.9 192.1,63.8 C192.1,63.7 192,63.7 192,63.6 C191.9,63.5 191.9,63.4 191.8,63.4 C191.7,63.3 191.6,63.2 191.5,63.1 L191.4,63 C191.2,62.9 191.1,62.8 190.9,62.8 L190.9,62.8 L190.9,62.8 C190.8,62.8 190.8,62.7 190.7,62.7 L190.7,62.7 L168,55.2 C167.1,54.9 166.1,55.1 165.4,55.8 L139.3,82 C138.7,82.6 138.4,83.5 138.6,84.3 C138.8,85.1 139.4,85.8 140.2,86.1 L161.6,93.3 L168.8,114.7 C168.8,114.7 168.8,114.8 168.9,114.8 C169,114.9 169,115.1 169.1,115.2 C169.1,115.3 169.2,115.3 169.2,115.4 C169.3,115.5 169.4,115.6 169.5,115.7 L169.6,115.8 C169.7,115.9 169.8,116 170,116 C170.1,116 170.1,116.1 170.2,116.1 C170.3,116.1 170.4,116.2 170.4,116.2 L188.9,122.4 L184.6,126.7 C182.1,129.2 181,132.6 181.2,135.9 C181,135.9 180.9,136 180.7,136.1 L169,141.4 C168.3,141.7 167.7,142.4 167.6,143.2 C167.5,144 167.7,144.8 168.3,145.4 L200.3,177.3 C200.8,177.8 201.4,178 202.1,178 L202.5,178 C203.3,177.9 204,177.3 204.3,176.6 L209.6,164.9 C209.6,164.8 209.7,164.7 209.7,164.6 C210.1,164.6 210.5,164.7 210.9,164.7 C213.9,164.7 216.9,163.6 219.1,161.3 L222,158.4 L242.4,165.3 L249.5,186.5 L249.5,186.5 L249.5,186.6 L249.6,186.8 C249.6,186.8 249.6,186.8 249.6,186.9 C249.7,187.1 249.7,187.2 249.8,187.3 C249.8,187.4 249.9,187.4 249.9,187.5 C250,187.6 250,187.7 250.1,187.7 C250.2,187.8 250.3,187.9 250.4,188 L250.5,188.1 C250.7,188.3 251,188.4 251.3,188.5 L251.3,188.5 L273.6,196 C273.9,196.1 274.1,196.1 274.4,196.1 C275.1,196.1 275.7,195.8 276.2,195.4 L302.3,169.3 C302.9,168.7 303.2,167.8 303,167 C302.8,166.2 302.6,165.5 301.8,165.2 Z M268.7,70.2 C269.5,69.4 270.6,68.9 271.8,68.9 L271.8,68.9 C273,68.9 274.1,69.4 274.9,70.2 C275.7,71 276.2,72.1 276.2,73.3 C276.2,74.5 275.7,75.6 274.9,76.4 C273.2,78.1 270.4,78.1 268.7,76.4 C267.9,75.6 267.4,74.5 267.4,73.3 C267.4,72.2 267.9,71.1 268.7,70.2 Z M244.8,70.7 L274.4,100.3 C266.1,106.8 254.1,106.3 246.5,98.7 C242.5,94.7 240.3,89.4 240.3,83.8 C240.3,79 241.9,74.4 244.8,70.7 Z M145.7,82.7 L167.9,60.5 L185.2,66.3 L163,88.5 L145.7,82.7 Z M166.5,92 L188.7,69.8 L194.5,87.1 L172.3,109.3 L166.5,92 Z M175.9,112.9 L198.1,90.7 L215.1,96.4 L192.9,118.6 L175.9,112.9 Z M174.5,144.7 L181.3,141.6 L185.3,145.6 L180.3,150.6 L174.5,144.7 Z M183.8,154 L188.8,149 L196.2,156.4 L191.2,161.4 L183.8,154 Z M201.3,171.5 L194.7,165 L199.7,160 L204.4,164.7 L201.3,171.5 Z M215.8,158 C213.2,160.6 209,160.6 206.4,158 L188.3,139.9 C185.7,137.3 185.7,133.1 188.3,130.5 L194.8,124 C195.2,123.9 195.5,123.7 195.8,123.4 L221.9,97.3 C222.2,97 222.4,96.7 222.5,96.3 L224.4,94.4 C227,91.8 231.2,91.8 233.8,94.4 L251.9,112.5 C254.5,115.1 254.5,119.3 251.9,121.9 L215.8,158 Z M226.7,154.8 L248.9,132.6 L266.2,138.4 L244,160.7 L226.7,154.8 Z M247.5,164.2 L269.7,142 L275.5,159.3 L253.3,181.5 L247.5,164.2 Z M274.2,190.9 L256.9,185.1 L279.1,162.9 L296.4,168.7 L274.2,190.9 Z" id="Shape"></path>
            <path d="M220,114.5 C213.5,114.5 208.3,119.8 208.3,126.2 C208.3,132.6 213.6,137.9 220,137.9 C226.4,137.9 231.7,132.6 231.7,126.2 C231.7,119.8 226.5,114.5 220,114.5 Z M220,132.9 C216.3,132.9 213.3,129.9 213.3,126.2 C213.3,122.5 216.3,119.5 220,119.5 C223.7,119.5 226.7,122.5 226.7,126.2 C226.7,129.9 223.7,132.9 220,132.9 Z" id="Shape"></path>
            <path d="M130,149.3 L129,149 C128,148.7 126.9,147.6 126.6,146.7 L126.2,145.5 C126,144.9 125.6,144.6 125.2,144.6 C124.8,144.6 124.4,144.9 124.2,145.5 L123.8,146.7 C123.5,147.7 122.4,148.7 121.4,149 L120.4,149.3 C119.8,149.5 119.5,149.9 119.5,150.3 C119.5,150.7 119.8,151.1 120.4,151.3 L121.4,151.6 C122.4,151.9 123.5,153 123.8,153.9 L124.2,155.1 C124.4,155.7 124.8,156 125.2,156 C125.6,156 126,155.7 126.2,155.1 L126.6,153.9 C126.9,152.9 128,151.9 129,151.6 L130,151.3 C130.6,151.1 130.9,150.7 130.9,150.3 C130.9,149.9 130.6,149.5 130,149.3 Z" id="Shape"></path>
            <path d="M210.8,205.9 L210.2,205.7 C209.6,205.5 209,204.9 208.8,204.3 L208.6,203.6 C208.5,203.3 208.3,203.1 208,203.1 C207.8,203.1 207.5,203.3 207.4,203.6 L207.2,204.3 C207,204.9 206.4,205.5 205.8,205.7 L205.2,205.9 C204.8,206 204.7,206.2 204.7,206.5 C204.7,206.8 204.9,207 205.2,207.1 L205.8,207.3 C206.4,207.5 207,208.1 207.2,208.7 L207.4,209.4 C207.5,209.7 207.7,209.9 208,209.9 C208.2,209.9 208.5,209.7 208.6,209.4 L208.8,208.7 C209,208.1 209.6,207.5 210.2,207.3 L210.8,207.1 C211.2,207 211.3,206.8 211.3,206.5 C211.3,206.2 211.1,206 210.8,205.9 Z" id="Shape"></path>
            <circle id="Oval" transform="translate(135.046060, 135.619480) rotate(-63.306828) translate(-135.046060, -135.619480) " cx="135.04606" cy="135.61948" r="1.59995536"></circle>
            <circle id="Oval" cx="149.9" cy="161.9" r="2.8"></circle>
            <circle id="Oval" transform="translate(55.737537, 83.970652) rotate(-87.812364) translate(-55.737537, -83.970652) " cx="55.7375371" cy="83.9706516" r="1.60004615"></circle>
            <circle id="Oval" transform="translate(268.236009, 30.464531) rotate(-87.812364) translate(-268.236009, -30.464531) " cx="268.236009" cy="30.4645311" r="1.60004615"></circle>
            <circle id="Oval" transform="translate(1.739380, 148.972215) rotate(-87.812364) translate(-1.739380, -148.972215) " cx="1.73938002" cy="148.972215" r="1.60004615"></circle>
            <circle id="Oval" transform="translate(240.742794, 266.965262) rotate(-87.812364) translate(-240.742794, -266.965262) " cx="240.742794" cy="266.965262" r="1.60004615"></circle>
            <path d="M160.8,7.6 L161.8,7.9 C162.8,8.2 163.8,9.2 164.1,10.2 L164.5,11.4 C164.7,12 165,12.2 165.4,12.3 C165.8,12.3 166.2,12 166.3,11.4 L166.7,10.2 C167,9.2 168.1,8.2 169,7.9 L170,7.6 C170.6,7.4 170.9,7 170.9,6.6 C170.9,6.2 170.6,5.8 170,5.6 L169,5.3 C168,5 167,4 166.7,3 L166.3,1.8 C166.1,1.2 165.8,1 165.4,0.9 C165,0.9 164.6,1.2 164.5,1.8 L164.1,3 C163.8,4 162.7,5 161.8,5.3 L160.8,5.6 C160.2,5.8 159.9,6.2 159.9,6.6 C159.9,7 160.2,7.4 160.8,7.6 Z" id="Shape"></path>
            <path d="M40.2,90.1 L39.5,89.9 C38.9,89.7 38.2,89 38,88.4 L37.7,87.6 C37.6,87.2 37.3,87 37.1,87 C36.8,87 36.6,87.2 36.5,87.6 L36.2,88.4 C36,89 35.3,89.7 34.7,89.9 L34,90.1 C33.6,90.2 33.4,90.5 33.4,90.8 C33.4,91.1 33.6,91.3 34,91.5 L34.7,91.7 C35.3,91.9 36,92.6 36.2,93.2 L36.5,94 C36.6,94.4 36.9,94.6 37.1,94.6 C37.4,94.6 37.6,94.4 37.7,94 L38,93.2 C38.2,92.6 38.9,91.9 39.5,91.7 L40.2,91.5 C40.6,91.4 40.8,91.1 40.8,90.8 C40.8,90.5 40.6,90.2 40.2,90.1 Z" id="Shape"></path>
            <path d="M340.9,36.4 L340.2,36.2 C339.6,36 338.9,35.3 338.7,34.7 L338.4,33.9 C338.3,33.5 338,33.3 337.8,33.3 C337.5,33.3 337.3,33.5 337.2,33.9 L336.9,34.7 C336.7,35.3 336,36 335.4,36.2 L334.7,36.4 C334.3,36.5 334.1,36.8 334.1,37.1 C334.1,37.4 334.3,37.6 334.7,37.8 L335.4,38 C336,38.2 336.7,38.9 336.9,39.5 L337.2,40.3 C337.3,40.7 337.6,40.9 337.8,40.9 C338.1,40.9 338.3,40.7 338.4,40.3 L338.7,39.5 C338.9,38.9 339.6,38.2 340.2,38 L340.9,37.8 C341.3,37.7 341.5,37.4 341.5,37.1 C341.5,36.8 341.3,36.5 340.9,36.4 Z" id="Shape"></path>
            <path d="M16.3,154.9 L15.6,154.7 C15,154.5 14.3,153.8 14.1,153.2 L13.8,152.4 C13.7,152 13.4,151.8 13.2,151.8 C12.9,151.8 12.7,152 12.6,152.4 L12.3,153.2 C12.1,153.8 11.4,154.5 10.8,154.7 L10.1,154.9 C9.7,155 9.5,155.3 9.5,155.6 C9.5,155.9 9.7,156.1 10.1,156.3 L10.8,156.5 C11.4,156.7 12.1,157.4 12.3,158 L12.6,158.8 C12.7,159.2 13,159.4 13.2,159.4 C13.5,159.4 13.7,159.2 13.8,158.8 L14.1,158 C14.3,157.4 15,156.7 15.6,156.5 L16.3,156.3 C16.7,156.2 16.9,155.9 16.9,155.6 C16.9,155.2 16.7,155 16.3,154.9 Z" id="Shape"></path>
            <circle id="Oval" transform="translate(177.158335, 34.292057) rotate(-87.812406) translate(-177.158335, -34.292057) " cx="177.158335" cy="34.2920565" r="1.60004611"></circle>
            <circle id="Oval" cx="150.6" cy="12.9" r="2.7"></circle>
        </g>
    </g>
</svg>