<?xml version="1.0" encoding="UTF-8"?>
<svg width="106px" height="19px" viewBox="0 0 106 19" version="1.1" xmlns="http://www.w3.org/2000/svg" xmlns:xlink="http://www.w3.org/1999/xlink">
    <!-- Generator: Sketch 44.1 (41455) - http://www.bohemiancoding.com/sketch -->
    <title>separador</title>
    <desc>Created with Sketch.</desc>
    <defs></defs>
    <g id="Page-1" stroke="none" stroke-width="1" fill="none" fill-rule="evenodd">
        <g id="Group" fill-rule="nonzero" fill="#000000">
            <path d="M35.6014852,18.4844226 C35.1247962,18.4844592 34.6637689,18.3142338 34.3014852,18.0044226 L18.7214852,4.63442255 L3.14148521,18.0344226 C2.30337123,18.6169701 1.16105693,18.474943 0.491114911,17.7048947 C-0.178827107,16.9348464 -0.161427436,15.7838682 0.531485212,15.0344226 L17.4214852,0.484422552 C18.1716052,-0.161474184 19.2813653,-0.161474184 20.0314852,0.484422552 L36.9114852,15.0044226 C37.5184279,15.5558393 37.7272751,16.4218813 37.4383789,17.1893308 C37.1494827,17.9567803 36.4213847,18.4701217 35.6014852,18.4844226 Z" id="Shape"></path>
            <path d="M68.6014852,18.4844226 C68.1247962,18.4844592 67.6637689,18.3142338 67.3014852,18.0044226 L51.7214852,4.63442255 L36.1414852,18.0344226 C35.3033712,18.6169701 34.1610569,18.474943 33.4911149,17.7048947 C32.8211729,16.9348464 32.8385726,15.7838682 33.5314852,15.0344226 L50.4214852,0.484422552 C51.1716052,-0.161474184 52.2813653,-0.161474184 53.0314852,0.484422552 L69.9114852,15.0044226 C70.5184279,15.5558393 70.7272751,16.4218813 70.4383789,17.1893308 C70.1494827,17.9567803 69.4213847,18.4701217 68.6014852,18.4844226 Z" id="Shape"></path>
            <path d="M103.601485,18.4844226 C103.124796,18.4844592 102.663769,18.3142338 102.301485,18.0044226 L86.7214852,4.63442255 L71.1414852,18.0344226 C70.3033712,18.6169701 69.1610569,18.474943 68.4911149,17.7048947 C67.8211729,16.9348464 67.8385726,15.7838682 68.5314852,15.0344226 L85.4214852,0.484422552 C86.1716052,-0.161474184 87.2813653,-0.161474184 88.0314852,0.484422552 L104.911485,15.0044226 C105.518428,15.5558393 105.727275,16.4218813 105.438379,17.1893308 C105.149483,17.9567803 104.421385,18.4701217 103.601485,18.4844226 Z" id="Shape"></path>
        </g>
    </g>
</svg>