<?xml version="1.0" encoding="UTF-8"?>
<svg width="59px" height="59px" viewBox="0 0 59 59" version="1.1" xmlns="http://www.w3.org/2000/svg" xmlns:xlink="http://www.w3.org/1999/xlink">
    <!-- Generator: Sketch 44.1 (41455) - http://www.bohemiancoding.com/sketch -->
    <title>treebox-agency-logo</title>
    <desc>Created with Sketch.</desc>
    <defs></defs>
    <g id="Page-1" stroke="none" stroke-width="1" fill="none" fill-rule="evenodd">
        <g id="treebox-logo-elemets" fill-rule="nonzero" fill="#000000">
            <path d="M29.36,58.39 C28.2554305,58.39 27.36,57.4945695 27.36,56.39 L27.36,12.12 C27.36,11.0154305 28.2554305,10.12 29.36,10.12 C30.4645695,10.12 31.36,11.0154305 31.36,12.12 L31.36,56.38 C31.3626609,56.9121635 31.1531224,57.4234441 30.7777609,57.8006825 C30.4023993,58.1779208 29.8921701,58.3900067 29.36,58.39 Z" id="Shape"></path>
            <path d="M46.24,28.1 C45.763311,28.1000367 45.3022837,27.9298112 44.94,27.62 L29.36,14.21 L13.78,27.62 C12.941886,28.2025475 11.7995717,28.0605205 11.1296297,27.2904722 C10.4596877,26.5204239 10.4770874,25.3694456 11.17,24.62 L28.06,10.06 C28.8101199,9.41410326 29.9198801,9.41410326 30.67,10.06 L47.55,24.58 C48.1878359,25.1254309 48.4173055,26.0110619 48.1245874,26.7976021 C47.8318693,27.5841424 47.0792325,28.1042735 46.24,28.1 L46.24,28.1 Z" id="Shape"></path>
            <path d="M46.24,40 C45.763311,40.0000367 45.3022837,39.8298112 44.94,39.52 L29.36,26.15 L13.78,39.55 C12.941886,40.1325475 11.7995717,39.9905205 11.1296297,39.2204722 C10.4596877,38.4504239 10.4770874,37.2994456 11.17,36.55 L28.06,22 C28.8101199,21.3541033 29.9198801,21.3541033 30.67,22 L47.55,36.52 C48.1569427,37.0714167 48.3657899,37.9374588 48.0768937,38.7049083 C47.7879975,39.4723578 47.0598995,39.9856992 46.24,40 Z" id="Shape"></path>
            <path d="M50.52,58.39 L8.21,58.39 C3.791722,58.39 0.21,54.808278 0.21,50.39 L0.21,8.07 C0.21,3.651722 3.791722,0.07 8.21,0.07 L50.52,0.07 C54.938278,0.07 58.52,3.651722 58.52,8.07 L58.52,50.38 C58.5226543,52.503464 57.6809715,54.5408653 56.1803927,56.0433198 C54.6798139,57.5457744 52.6434657,58.3900017 50.52,58.39 L50.52,58.39 Z M8.21,4.07 C6.000861,4.07 4.21,5.860861 4.21,8.07 L4.21,50.38 C4.21,52.589139 6.000861,54.38 8.21,54.38 L50.52,54.38 C52.729139,54.38 54.52,52.589139 54.52,50.38 L54.52,8.07 C54.52,5.860861 52.729139,4.07 50.52,4.07 L8.21,4.07 Z" id="Shape"></path>
        </g>
    </g>
</svg>