<svg width="1444" height="132" viewBox="0 0 1444 132" xmlns="http://www.w3.org/2000/svg"><title>treebox-footer-illustration copy</title><g id="Page-1" fill="none" fill-rule="evenodd"><g id="treebox-footer-illustration-copy" transform="translate(0 -1)" fill="#000"><path d="M1442 101.51H2a2 2 0 0 1 0-4h1440a2 2 0 1 1 0 4z" id="Shape"/><circle id="Oval" cx="1041.64" cy="34.26" r="3.9"/><path d="M1021.73 61.82a2 2 0 0 1-1.41-.59l-5.66-5.66a2 2 0 0 1 0-2.83l5.66-5.66a2.06 2.06 0 0 1 2.83 0l5.66 5.66a2 2 0 0 1 0 2.83l-5.67 5.64a2 2 0 0 1-1.41.61zm-2.83-7.61l2.83 2.83 2.83-2.83-2.83-2.83-2.83 2.83zM762.9 60.43a2 2 0 0 1-1.41-.59l-5.66-5.63a2 2 0 0 1 0-2.83l5.66-5.66a2 2 0 0 1 1.41-.59 2 2 0 0 1 1.41.59l5.69 5.64a2 2 0 0 1 0 2.85l-5.66 5.66a2 2 0 0 1-1.44.56zm-2.83-7.66l2.83 2.83 2.83-2.83-2.83-2.83-2.83 2.83zM718.14 101.51a2 2 0 0 1-2-2V27.34a2 2 0 0 1 4 0v72.17a2 2 0 0 1-2 2z" id="Shape"/><path d="M735 44.77a2 2 0 0 1-1.41-.59l-15.5-15.5-15.45 15.53a2.001 2.001 0 0 1-2.83-2.83l16.91-16.91a2 2 0 0 1 2.83 0l16.91 16.91a2 2 0 0 1-1.46 3.39z" id="Shape"/><path d="M735 56.91a2 2 0 0 1-1.41-.59l-15.5-15.5-15.5 15.5a2.001 2.001 0 0 1-2.83-2.83l16.91-16.91a2 2 0 0 1 2.83 0l16.91 16.91a2 2 0 0 1-1.41 3.42zM1091.38 100.14a2 2 0 0 1-2-2V25.97a2 2 0 1 1 4 0v72.17a2 2 0 0 1-2 2z" id="Shape"/><path d="M1108.3 43.4a2 2 0 0 1-1.41-.59l-15.5-15.5-15.5 15.5a2.001 2.001 0 0 1-2.83-2.83L1090 23.07a2 2 0 0 1 2.83 0l16.91 16.91a2 2 0 0 1-1.44 3.42z" id="Shape"/><path d="M1108.3 55.54a2 2 0 0 1-1.41-.59l-15.5-15.5-15.5 15.5a2.001 2.001 0 0 1-2.83-2.83L1090 35.21a2 2 0 0 1 2.83 0l16.91 16.91a2 2 0 0 1-1.44 3.42zM799.79 44.09a8.75 8.75 0 1 1 8.75-8.75 8.76 8.76 0 0 1-8.75 8.75zm0-13.5a4.75 4.75 0 1 0 4.75 4.75 4.76 4.76 0 0 0-4.75-4.75zM970.55 18.49a8.75 8.75 0 1 1 8.75-8.75 8.76 8.76 0 0 1-8.75 8.75zm0-13.5a4.75 4.75 0 1 0 4.75 4.75A4.76 4.76 0 0 0 970.55 5v-.01z" id="Shape"/><circle id="Oval" transform="rotate(-60.113 923.025 42.136)" cx="923.025" cy="42.136" r="3.913"/><path d="M843.7 98.39a2 2 0 0 1-2-2V24.21a2 2 0 0 1 4 0v72.17a2 2 0 0 1-2 2.01z" id="Shape"/><path d="M860.61 41.65a2 2 0 0 1-1.41-.59l-15.5-15.5-15.5 15.5a2.008 2.008 0 0 1-2.83-2.85l16.91-16.91a2.06 2.06 0 0 1 2.83 0L862 38.21a2 2 0 0 1-1.39 3.44z" id="Shape"/><path d="M860.61 53.79a2 2 0 0 1-1.41-.58l-15.5-15.5-15.5 15.5a2.001 2.001 0 0 1-2.83-2.83l16.91-16.91a2.06 2.06 0 0 1 2.83 0L862 50.38a2 2 0 0 1-1.39 3.41zM888.81 100.79a2 2 0 0 1-2-2V53.92a2 2 0 0 1 4 0V98.8a2 2 0 0 1-2 1.99z" id="Shape"/><path d="M905.73 71.34a2 2 0 0 1-1.41-.59l-15.51-15.54-15.5 15.5a2.001 2.001 0 0 1-2.83-2.83l16.92-16.87a2 2 0 0 1 2.83 0l16.91 16.91a2 2 0 0 1-1.41 3.42z" id="Shape"/><path d="M905.73 83.48a2 2 0 0 1-1.41-.59l-15.5-15.5-15.5 15.5a2.001 2.001 0 0 1-2.83-2.83l16.91-16.9a2 2 0 0 1 2.83 0l16.91 16.91a2 2 0 0 1-1.41 3.41zM1137 99.67a2 2 0 0 1-2-2V52.8a2 2 0 1 1 4 0v44.88a2 2 0 0 1-2 1.99z" id="Shape"/><path d="M1153.9 70.21a2 2 0 0 1-1.41-.59L1137 54.14l-15.5 15.5a2.001 2.001 0 0 1-2.83-2.83l16.91-16.91a2.06 2.06 0 0 1 2.83 0l16.91 16.91a2 2 0 0 1-1.42 3.4z" id="Shape"/><path d="M1153.9 82.36a2 2 0 0 1-1.41-.59L1137 66.28l-15.5 15.5a2.001 2.001 0 0 1-2.83-2.83l16.91-16.91a2.06 2.06 0 0 1 2.83 0l16.91 16.91a2 2 0 0 1-1.42 3.41z" id="Shape"/><circle id="Oval" cx="545.3" cy="34.26" r="3.9"/><path d="M525.39 61.82a2 2 0 0 1-1.39-.61l-5.66-5.66a2 2 0 0 1 0-2.83l5.66-5.63a2 2 0 0 1 2.83 0l5.66 5.66a2 2 0 0 1 0 2.83l-5.69 5.63a2 2 0 0 1-1.41.61zm-2.83-7.61l2.83 2.83 2.82-2.83-2.83-2.83-2.82 2.83zM266.56 60.43a2 2 0 0 1-1.41-.59l-5.66-5.63a2 2 0 0 1 0-2.83l5.66-5.66a2 2 0 0 1 2.83 0l5.66 5.66a2 2 0 0 1 0 2.83L268 59.84a2 2 0 0 1-1.44.59zm-2.83-7.66l2.83 2.83 2.83-2.83-2.83-2.83-2.83 2.83zM221.79 101.51a2 2 0 0 1-2-2V27.34a2 2 0 0 1 4 0v72.17a2 2 0 0 1-2 2z" id="Shape"/><path d="M238.71 44.77a2 2 0 0 1-1.41-.59l-15.5-15.5-15.5 15.53a2.001 2.001 0 0 1-2.83-2.83l16.91-16.91a2 2 0 0 1 2.83 0l16.91 16.91a2 2 0 0 1-1.41 3.39z" id="Shape"/><path d="M238.71 56.91a2 2 0 0 1-1.41-.59l-15.5-15.5-15.5 15.5a2.001 2.001 0 0 1-2.83-2.83l16.91-16.91a2.06 2.06 0 0 1 2.83 0l16.91 16.91a2 2 0 0 1-1.41 3.42zM595 100.14a2 2 0 0 1-2-2V25.97a2 2 0 0 1 4 0v72.17a2 2 0 0 1-2 2z" id="Shape"/><path d="M612 43.4a2 2 0 0 1-1.41-.59L595 27.31l-15.5 15.5a2.001 2.001 0 0 1-2.83-2.83l16.91-16.91a2 2 0 0 1 2.83 0l16.91 16.91A2 2 0 0 1 612 43.4z" id="Shape"/><path d="M612 55.54a2 2 0 0 1-1.41-.59L595 39.46l-15.5 15.5a2.001 2.001 0 0 1-2.83-2.83l16.96-16.92a2.06 2.06 0 0 1 2.83 0l16.91 16.91a2 2 0 0 1-1.37 3.42zM303.44 44.09a8.75 8.75 0 1 1 8.75-8.75 8.76 8.76 0 0 1-8.75 8.75zm0-13.5a4.75 4.75 0 1 0 4.75 4.75 4.76 4.76 0 0 0-4.75-4.75zM474.21 18.49A8.75 8.75 0 1 1 483 9.74a8.76 8.76 0 0 1-8.79 8.75zm0-13.5A4.75 4.75 0 1 0 479 9.74 4.76 4.76 0 0 0 474.21 5v-.01z" id="Shape"/><circle id="Oval" transform="rotate(-60.113 426.685 44.102)" cx="426.685" cy="44.102" r="3.913"/><path d="M347.36 98.39a2 2 0 0 1-2-2V24.21a2 2 0 0 1 4 0v72.17a2 2 0 0 1-2 2.01z" id="Shape"/><path d="M364.27 41.65a2 2 0 0 1-1.41-.59l-15.5-15.5-15.5 15.5a2.019 2.019 0 1 1-2.86-2.85l16.91-16.91a2.06 2.06 0 0 1 2.83 0l16.94 16.91a2 2 0 0 1-1.41 3.44z" id="Shape"/><path d="M330.44 53.79a2 2 0 0 1-1.44-3.41l16.91-16.91a2 2 0 0 1 2.83 0l16.91 16.91a2 2 0 0 1-2.8 2.83l-15.5-15.5-15.49 15.5a2 2 0 0 1-1.42.58zM392.47 99.79a2 2 0 0 1-2-2V52.92a2 2 0 0 1 4 0V97.8a2 2 0 0 1-2 1.99z" id="Shape"/><path d="M409.38 70.34a2 2 0 0 1-1.41-.59l-15.5-15.54L377 69.75a2.001 2.001 0 0 1-2.83-2.83l16.89-16.91a2 2 0 0 1 2.83 0l16.91 16.92a2 2 0 0 1-1.42 3.41z" id="Shape"/><path d="M409.38 82.48a2 2 0 0 1-1.41-.59l-15.5-15.5L377 81.9a2.001 2.001 0 0 1-2.83-2.83l16.91-16.91a2.06 2.06 0 0 1 2.83 0l16.91 16.91a2 2 0 0 1-1.44 3.41zM640.64 99.67a2 2 0 0 1-2-2V52.8a2 2 0 0 1 4 0v44.88a2 2 0 0 1-2 1.99z" id="Shape"/><path d="M657.55 70.21a2 2 0 0 1-1.41-.59l-15.5-15.5-15.5 15.5a2.001 2.001 0 0 1-2.83-2.83l16.91-16.91a2.06 2.06 0 0 1 2.83 0L659 66.81a2 2 0 0 1-1.45 3.4z" id="Shape"/><path d="M657.55 82.36a2 2 0 0 1-1.41-.59l-15.5-15.5-15.5 15.5a2.001 2.001 0 0 1-2.83-2.83l16.91-16.91a2 2 0 0 1 2.83 0L659 78.95a2 2 0 0 1-1.45 3.41z" id="Shape"/><circle id="Oval" cx="49.7" cy="34.26" r="3.9"/><path d="M29.79 61.82a2 2 0 0 1-1.42-.61l-5.66-5.66a2 2 0 0 1 0-2.83l5.66-5.66a2 2 0 0 1 2.83 0l5.66 5.66a2 2 0 0 1 0 2.83l-5.66 5.66a2 2 0 0 1-1.41.61zM27 54.21l2.83 2.83 2.79-2.83-2.83-2.83L27 54.21zM99.44 100.14a2 2 0 0 1-2-2V25.97a2 2 0 1 1 4 0v72.17a2 2 0 0 1-2 2z" id="Shape"/><path d="M116.36 43.4a2 2 0 0 1-1.41-.59l-15.51-15.5-15.49 15.5a2.001 2.001 0 0 1-2.83-2.83L98 23.07a2 2 0 0 1 2.83 0l16.91 16.91a2 2 0 0 1-1.38 3.42z" id="Shape"/><path d="M116.36 55.54a2 2 0 0 1-1.41-.59l-15.5-15.5-15.5 15.5a2.001 2.001 0 0 1-2.83-2.83L98 35.21a2.06 2.06 0 0 1 2.83 0l16.91 16.91a2 2 0 0 1-1.38 3.42zM145 99.67a2 2 0 0 1-2-2V52.8a2 2 0 0 1 4 0v44.88a2 2 0 0 1-2 1.99z" id="Shape"/><path d="M162 70.21a2 2 0 0 1-1.41-.59L145 54.14l-15.5 15.5a2.001 2.001 0 0 1-2.83-2.83l16.91-16.91a2.06 2.06 0 0 1 2.83 0l16.96 16.91a2 2 0 0 1-1.37 3.4z" id="Shape"/><path d="M162 82.36a2 2 0 0 1-1.41-.59L145 66.28l-15.5 15.5a2.001 2.001 0 0 1-2.83-2.83l16.91-16.91a2 2 0 0 1 2.83 0l16.91 16.91a2 2 0 0 1-1.32 3.41zM1259.25 60.43a2 2 0 0 1-1.41-.59l-5.67-5.63a2 2 0 0 1 0-2.83l5.66-5.66a2.06 2.06 0 0 1 2.83 0l5.66 5.66a2 2 0 0 1 0 2.83l-5.66 5.66a2 2 0 0 1-1.41.56zm-2.83-7.66l2.83 2.83 2.83-2.83-2.83-2.83-2.83 2.83zM1214.48 101.51a2 2 0 0 1-2-2V27.34a2 2 0 1 1 4 0v72.17a2 2 0 0 1-2 2z" id="Shape"/><path d="M1231.39 44.77a2 2 0 0 1-1.39-.56l-15.5-15.5-15.5 15.5a2.001 2.001 0 0 1-2.83-2.83l16.91-16.91a2 2 0 0 1 1.41-.59 2 2 0 0 1 1.41.59l16.91 16.91a2 2 0 0 1-1.42 3.39z" id="Shape"/><path d="M1197.57 56.91a2 2 0 0 1-1.41-3.41l16.91-16.91a2 2 0 0 1 1.41-.59 2 2 0 0 1 1.41.59l16.91 16.91a2.001 2.001 0 0 1-2.83 2.83l-15.5-15.5-15.47 15.5a2 2 0 0 1-1.43.58zM1296.13 44.09a8.75 8.75 0 1 1 8.75-8.75 8.76 8.76 0 0 1-8.75 8.75zm0-13.5a4.75 4.75 0 1 0 4.75 4.75 4.76 4.76 0 0 0-4.75-4.75z" id="Shape"/><circle id="Oval" transform="rotate(-60.113 1419.365 40.16)" cx="1419.365" cy="40.16" r="3.913"/><path d="M1340 98.39a2 2 0 0 1-2-2V24.21a2 2 0 1 1 4 0v72.17a2 2 0 0 1-2 2.01z" id="Shape"/><path d="M1357 41.65a2 2 0 0 1-1.41-.59L1340 25.56l-15.5 15.5a2.001 2.001 0 0 1-2.83-2.83l16.91-16.91a2 2 0 0 1 2.83 0l16.96 16.89a2 2 0 0 1-1.37 3.44z" id="Shape"/><path d="M1357 53.79a2 2 0 0 1-1.41-.59L1340 37.71l-15.46 15.5a2.001 2.001 0 0 1-2.83-2.83l16.91-16.91a2 2 0 0 1 2.83 0l16.91 16.91a2 2 0 0 1-1.36 3.41zM1385.16 100.79a2 2 0 0 1-2-2V53.92a2 2 0 1 1 4 0V98.8a2 2 0 0 1-2 1.99z" id="Shape"/><path d="M1368.24 71.34a2 2 0 0 1-1.41-3.41l16.91-16.91a2 2 0 0 1 1.41-.59 2 2 0 0 1 1.41.59l16.91 16.91a2.001 2.001 0 0 1-2.83 2.83l-15.48-15.55-15.5 15.5a2 2 0 0 1-1.42.63z" id="Shape"/><path d="M1402.07 83.48a2 2 0 0 1-1.41-.59l-15.5-15.5-15.5 15.5a2.001 2.001 0 0 1-2.83-2.83l16.91-16.91a2 2 0 0 1 1.41-.59 2 2 0 0 1 1.41.59l16.91 16.91a2 2 0 0 1-1.4 3.42zM128.46 132.26H82.53a2 2 0 0 1 0-4h45.93a2 2 0 0 1 0 4zM143.64 121.09H97.71a2 2 0 0 1 0-4h45.93a2 2 0 0 1 0 4zM159.54 121.09h-7.9a2 2 0 0 1 0-4h7.9a2 2 0 0 1 0 4zM284.64 132.26h-45.93a2 2 0 0 1 0-4h45.93a2 2 0 0 1 0 4zM299.82 121.09H215a2 2 0 0 1 0-4h84.82a2 2 0 0 1 0 4zM300.65 132.26h-7.9a2 2 0 0 1 0-4h7.9a2 2 0 0 1 0 4zM404.9 132.26H359a2 2 0 0 1 0-4h45.9a2 2 0 0 1 0 4zM459.8 121.09H375a2 2 0 0 1 0-4h84.8a2 2 0 0 1 0 4zM420.91 132.26H413a2 2 0 0 1 0-4h7.9a2 2 0 0 1 .01 4zM540.56 132.26h-45.93a2 2 0 0 1 0-4h45.93a2 2 0 0 1 0 4zM555.74 121.09h-45.93a2 2 0 0 1 0-4h45.93a2 2 0 0 1 0 4zM571.65 121.09h-7.9a2 2 0 0 1 0-4h7.9a2 2 0 0 1 0 4zM696.74 132.26h-45.93a2 2 0 0 1 0-4h45.93a2 2 0 0 1 0 4zM711.92 121.09H627.1a2 2 0 0 1 0-4h84.82a2 2 0 0 1 0 4zM712.75 132.26h-7.9a2 2 0 0 1 0-4h7.9a2 2 0 0 1 0 4zM817 132.26h-45.93a2 2 0 0 1 0-4H817a2 2 0 0 1 0 4zM871.9 121.09h-84.82a2 2 0 0 1 0-4h84.82a2 2 0 0 1 0 4zM833 132.26h-7.9a2 2 0 0 1 0-4h7.9a2 2 0 0 1 0 4zM948.68 132.26h-45.93a2 2 0 0 1 0-4h45.93a2 2 0 0 1 0 4zM963.86 121.09h-45.93a2 2 0 0 1 0-4h45.93a2 2 0 0 1 0 4zM979.76 121.09h-7.9a2 2 0 0 1 0-4h7.9a2 2 0 0 1 0 4zM1104.86 132.26h-45.93a2 2 0 1 1 0-4h45.93a2 2 0 1 1 0 4zM1120 121.09h-84.82a2 2 0 1 1 0-4H1120a2 2 0 1 1 0 4zM1120.86 132.26H1113a2 2 0 1 1 0-4h7.9a2 2 0 1 1-.04 4zM1225.12 132.26h-45.93a2 2 0 1 1 0-4h45.93a2 2 0 1 1 0 4zM1280 121.09h-84.8a2 2 0 1 1 0-4h84.8a2 2 0 1 1 0 4zM1241.13 132.26h-7.9a2 2 0 1 1 0-4h7.9a2 2 0 1 1 0 4zM1369.06 132.26h-45.93a2 2 0 1 1 0-4h45.93a2 2 0 1 1 0 4zM1384.24 121.09h-45.93a2 2 0 1 1 0-4h45.93a2 2 0 1 1 0 4zM1400.14 121.09h-7.9a2 2 0 1 1 0-4h7.9a2 2 0 1 1 0 4z" id="Shape"/></g></g></svg>