<svg width="314" height="78" viewBox="0 0 314 78" xmlns="http://www.w3.org/2000/svg"><title>treebox-contact-illustration</title><g id="Page-1" fill="none" fill-rule="evenodd"><g id="home-team" transform="translate(-4 -4399)" fill="#000"><g id="treebox-contact-illustration" transform="translate(4 4399)"><path d="M2 78a2 2 0 1 1 0-4h310a2 2 0 0 1 0 4H2z" id="Shape"/><path d="M256.916 77.367a2 2 0 0 1-2-2v-44.87a2 2 0 1 1 4 0v44.88a2 2 0 0 1-2 1.99zM160 77.18a2 2 0 0 1-2-2V3a2 2 0 0 1 4 0v72.17a2 2 0 0 1-2 2.01zM16.657 40.297a2 2 0 0 1-1.41-.59l-5.66-5.63a2 2 0 0 1 0-2.83l5.66-5.66a2 2 0 0 1 2.83 0l5.66 5.66a2 2 0 0 1 0 2.83l-5.64 5.63a2 2 0 0 1-1.44.59zm-2.83-7.66l2.83 2.83 2.83-2.83-2.83-2.83-2.83 2.83z" id="Shape"/><path d="M176.833 20.913a2 2 0 0 1-1.41-.59l-15.5-15.5-15.5 15.5a2.008 2.008 0 0 1-2.83-2.85l16.91-16.91a2.06 2.06 0 0 1 2.83 0l16.89 16.91a2 2 0 0 1-1.39 3.44z" id="Shape"/><path d="M176.826 32.883a2 2 0 0 1-1.41-.58l-15.5-15.5-15.5 15.5a2.001 2.001 0 0 1-2.83-2.83l16.91-16.91a2.06 2.06 0 0 1 2.83 0l16.89 16.91a2 2 0 0 1-1.39 3.41zM110.75 56.1a8.75 8.75 0 1 1 8.75-8.75 8.76 8.76 0 0 1-8.75 8.75zm0-13.5a4.75 4.75 0 1 0 4.75 4.75 4.76 4.76 0 0 0-4.75-4.75zM231.52 30.5a8.75 8.75 0 1 1 8.79-8.75 8.76 8.76 0 0 1-8.79 8.75zm0-13.5a4.75 4.75 0 1 0 4.79 4.75 4.76 4.76 0 0 0-4.79-4.74V17z" id="Shape"/><path d="M213.995 50.025a3.913 3.913 0 1 0 0-7.827 3.913 3.913 0 0 0 0 7.827z" id="Oval" transform="rotate(-60.113 213.995 46.112)"/><path d="M273.836 47.917a2 2 0 0 1-1.41-.59l-15.51-15.54-15.5 15.5a2.001 2.001 0 0 1-2.83-2.83l16.92-16.87a2 2 0 0 1 2.83 0l16.91 16.91a2 2 0 0 1-1.41 3.42z" id="Shape"/><path d="M273.836 60.057a2 2 0 0 1-1.41-.59l-15.5-15.5-15.5 15.5a2.001 2.001 0 0 1-2.83-2.83l16.91-16.9a2 2 0 0 1 2.83 0l16.91 16.91a2 2 0 0 1-1.41 3.41zM50.916 77.367a2 2 0 0 1-2-2v-44.87a2 2 0 1 1 4 0v44.88a2 2 0 0 1-2 1.99z" id="Shape"/><path d="M67.836 47.917a2 2 0 0 1-1.41-.59l-15.51-15.54-15.5 15.5a2.001 2.001 0 0 1-2.83-2.83l16.92-16.87a2 2 0 0 1 2.83 0l16.91 16.91a2 2 0 0 1-1.41 3.42z" id="Shape"/><path d="M67.836 60.057a2 2 0 0 1-1.41-.59l-15.5-15.5-15.5 15.5a2.001 2.001 0 0 1-2.83-2.83l16.91-16.9a2 2 0 0 1 2.83 0l16.91 16.91a2 2 0 0 1-1.41 3.41z" id="Shape"/></g></g></g></svg>