<?xml version="1.0" encoding="UTF-8"?>
<svg width="888px" height="181px" viewBox="0 0 888 181" version="1.1" xmlns="http://www.w3.org/2000/svg" xmlns:xlink="http://www.w3.org/1999/xlink">
    <!-- Generator: Sketch 41.2 (35397) - http://www.bohemiancoding.com/sketch -->
    <title>treebox-metodologia</title>
    <desc>Created with Sketch.</desc>
    <defs></defs>
    <g id="Page-1" stroke="none" stroke-width="1" fill="none" fill-rule="evenodd">
        <g id="Desktop-HD" transform="translate(-277.000000, -101.000000)">
            <g id="treebox-metodologia" transform="translate(279.000000, 107.000000)">
                <g id="metodologia" transform="translate(0.000000, 51.000000)" stroke-width="3">
                    <path d="M133,63 C133,60.9984239 148.990054,69.0280893 148.990054,43.6484237 C148.990054,21 147,4 164,4 C181,4 177,26 178,43.6484237 C178.421651,51.0899049 178,63 178,63" id="Path-3" stroke="#8AE3AB"></path>
                    <path d="M178,122 C178,122 178,106 178,102.648424 C178,84 176,63 193,63 C210,63 207,84 207,102.648424 C207,106 207,122 207,122" id="Path-3" stroke="#8AE3AB" transform="translate(192.565798, 92.500000) scale(1, -1) translate(-192.565798, -92.500000) "></path>
                    <path d="M236,122 C236,122 236,106 236,102.648424 C236,84 234,63 251,63 C268,63 265,84 265,102.648424 C265,106 265,122 265,122" id="Path-3" stroke="#8AE3AB" transform="translate(250.565798, 92.500000) scale(1, -1) translate(-250.565798, -92.500000) "></path>
                    <path d="M294,101 C294,101 294,90.6949153 294,88.5362729 C294,76.5254237 292,63 309,63 C326,63 323,76.5254237 323,88.5362729 C323,90.6949153 323,101 323,101" id="Path-3" stroke="#8AE3AB" transform="translate(308.565798, 82.000000) scale(1, -1) translate(-308.565798, -82.000000) "></path>
                    <path d="M352,101 C352,101 352,90.6949153 352,88.5362729 C352,76.5254237 350,63 367,63 C384,63 381,76.5254237 381,88.5362729 C381,90.6949153 381,101 381,101" id="Path-3" stroke="#000000" transform="translate(366.565798, 82.000000) scale(1, -1) translate(-366.565798, -82.000000) "></path>
                    <path d="M468,82 C468,82 468,76.8474576 468,75.7681364 C468,69.7627119 471,63 483,63 C495,63 497,69.7627119 497,75.7681364 C497,76.8474576 497,82 497,82" id="Path-3" stroke="#000000" transform="translate(482.500000, 72.500000) scale(1, -1) translate(-482.500000, -72.500000) "></path>
                    <path d="M497,63 C497,63 497,57.8474576 497,56.7681364 C497,50.7627119 500,44 512,44 C524,44 526,50.7627119 526,56.7681364 C526,57.8474576 526,63 526,63" id="Path-3" stroke="#000000"></path>
                    <path d="M526,82 C526,82 526,76.8474576 526,75.7681364 C526,69.7627119 529,63 541,63 C553,63 555,69.7627119 555,75.7681364 C555,76.8474576 555,82 555,82" id="Path-3" stroke="#000000" transform="translate(540.500000, 72.500000) scale(1, -1) translate(-540.500000, -72.500000) "></path>
                    <path d="M555,63 C555,63 555,57.8474576 555,56.7681364 C555,50.7627119 558,44 570,44 C582,44 584,50.7627119 584,56.7681364 C584,57.8474576 584,63 584,63" id="Path-3" stroke="#000000"></path>
                    <path d="M584,82 C584,82 584,76.8474576 584,75.7681364 C584,69.7627119 587,63 599,63 C611,63 613,69.7627119 613,75.7681364 C613,76.8474576 613,82 613,82" id="Path-3" stroke="#000000" transform="translate(598.500000, 72.500000) scale(1, -1) translate(-598.500000, -72.500000) "></path>
                    <path d="M613,63 C613,63 613,57.8474576 613,56.7681364 C613,50.7627119 616,44 628,44 C640,44 642,50.7627119 642,56.7681364 C642,57.8474576 642,63 642,63" id="Path-3" stroke="#000000"></path>
                    <path d="M642,82 C642,82 642,76.8474576 642,75.7681364 C642,69.7627119 645,63 657,63 C669,63 671,69.7627119 671,75.7681364 C671,76.8474576 671,82 671,82" id="Path-3" stroke="#000000" transform="translate(656.500000, 72.500000) scale(1, -1) translate(-656.500000, -72.500000) "></path>
                    <path d="M671,63 C671,63 671,57.8474576 671,56.7681364 C671,50.7627119 674,44 686,44 C698,44 698.742713,45.7427129 705,52" id="Path-3" stroke="#000000"></path>
                    <path d="M323,64 C323,64 323,53.6949153 323,51.5362729 C323,39.5254237 321,26 338,26 C355,26 352,39.5254237 352,51.5362729 C352,53.6949153 352,64 352,64" id="Path-3" stroke="#000000" stroke-linecap="round"></path>
                    <path d="M381,64 C381,64 381,53.6949153 381,51.5362729 C381,39.5254237 379,26 396,26 C413,26 410,39.5254237 410,51.5362729 C410,53.6949153 410,64 410,64" id="Path-3" stroke="#000000"></path>
                    <path d="M410,101 C410,101 410,90.6949153 410,88.5362729 C410,76.5254237 408,63 425,63 C442,63 439,76.5254237 439,88.5362729 C439,90.6949153 439,101 439,101" id="Path-3" stroke="#000000" transform="translate(424.565798, 82.000000) scale(1, -1) translate(-424.565798, -82.000000) "></path>
                    <path d="M439,64 C439,64 439,53.6949153 439,51.5362729 C439,39.5254237 437,26 454,26 C471,26 468,39.5254237 468,51.5362729 C468,53.6949153 468,64 468,64" id="Path-3" stroke="#000000" stroke-linecap="round"></path>
                    <path d="M207,64 C207,64 207,48 207,44.6484237 C207,26 205,5 222,5 C239,5 236,26 236,44.6484237 C236,48 236,64 236,64" id="Path-3" stroke="#8AE3AB"></path>
                    <path d="M265,64 C265,64 265,48 265,44.6484237 C265,26 263,5 280,5 C297,5 294,26 294,44.6484237 C294,48 294,64 294,64" id="Path-3" stroke="#8AE3AB"></path>
                    <path d="M2,83.9896081 C-7.56811412,83.6596731 22.5505289,83.9295442 33.4099536,82.7229414 C44.2693784,81.5163387 43.4741053,80.6054929 54.943287,77.6562747 C66.4124687,74.7070566 66.9011527,75.0941185 77.743287,71.3229414 C88.5854212,67.5517643 107.717961,62.4408481 107.509954,47.2562747 C107.301946,32.0717014 136.009954,-5.31039192 82.8099536,1.65627474 C29.6099536,8.62294141 35.9627223,65.5263011 47.9766203,71.9562747 C59.9905183,78.3862483 67.2049947,77.9811802 73.943287,82.7229414 C80.6815792,87.4647026 88.5099536,88.4229414 82.1766203,96.0229414 C75.843287,103.622941 58.1033094,104.889608 56.2099536,97.2896081 C54.3165978,89.6896081 72.8023126,71.9954146 79.0099536,66.2562747 C85.2175947,60.5171349 82.1766203,44.7229414 76.4766203,41.5562747 C70.7766203,38.3896081 57.4766203,35.8562747 44.8099536,48.5229414 C32.143287,61.1896081 44.1766203,73.8562747 56.2099536,83.9896081 C68.243287,94.1229414 77.2532807,87.2086017 75.843287,75.1229414 C74.4332933,63.0372811 57.9149305,54.2229414 67.6099536,42.8229414 C77.3049768,31.4229414 93.0042745,40.615801 101.809954,48.5229414 C110.615633,56.4300818 119.543287,67.5229414 117.009954,81.4562747 C114.47662,95.3896081 104.946881,102.592462 93.5766203,106.156275 C82.2063595,109.720088 68.8766203,111.222941 53.6766203,102.356275 C38.4766203,93.4896081 34.3280152,77.8225012 39.1099536,67.5229414 C43.8918921,57.2233816 52.3033937,67.3229702 61.2766203,60.5562747 C70.2498469,53.7895793 82.6257873,37.524407 93.5766203,40.9229414 C104.527453,44.3214758 118.27662,52.9562747 123.97662,42.1896081 C129.67662,31.4229414 118.022465,19.5451038 110.67662,13.0562747 C103.330776,6.56744566 83.443287,6.08960808 70.143287,16.2229414 C56.843287,26.3562747 56.2099536,45.9896081 76.4766203,54.2229414 C96.743287,62.4562747 138,62.6000061 138,62.6000061" id="Path-2" stroke="#000000" stroke-linecap="round"></path>
                </g>
                <g id="Group-2" transform="translate(789.000000, 115.500000) rotate(90.000000) translate(-789.000000, -115.500000) translate(773.500000, 28.500000)" fill="#0B1015">
                    <path d="M29.3574887,154.995626 C28.9782521,154.995626 28.5973738,154.874171 28.2870893,154.60697 L15.4997569,143.757003 L2.71242456,154.60697 C2.02454521,155.189954 0.98944275,155.117081 0.397603834,154.436934 C-0.194235082,153.756786 -0.116253533,152.736566 0.570804959,152.153582 L14.4293576,140.388656 C15.0450014,139.870448 15.9553333,139.870448 16.5709772,140.388656 L30.4295297,152.153582 C31.1165882,152.736566 31.1937489,153.756786 30.6027309,154.436934 C30.2776709,154.809395 29.8196319,154.995626 29.3574887,154.995626" id="Fill-46"></path>
                    <path d="M29.3574887,154.995626 C28.9782521,154.995626 28.5973738,154.874171 28.2870893,154.60697 L15.4997569,143.757003 L2.71242456,154.60697 C2.02454521,155.189954 0.98944275,155.117081 0.397603834,154.436934 C-0.194235082,153.756786 -0.116253533,152.736566 0.570804959,152.153582 L14.4293576,140.388656 C15.0450014,139.870448 15.9553333,139.870448 16.5709772,140.388656 L30.4295297,152.153582 C31.1165882,152.736566 31.1937489,153.756786 30.6027309,154.436934 C30.2776709,154.809395 29.8196319,154.995626 29.3574887,154.995626" id="Fill-46"></path>
                    <path d="M29.3574887,134.995626 C28.9782521,134.995626 28.5973738,134.874171 28.2870893,134.60697 L15.4997569,123.757003 L2.71242456,134.60697 C2.02454521,135.189954 0.98944275,135.117081 0.397603834,134.436934 C-0.194235082,133.756786 -0.116253533,132.736566 0.570804959,132.153582 L14.4293576,120.388656 C15.0450014,119.870448 15.9553333,119.870448 16.5709772,120.388656 L30.4295297,132.153582 C31.1165882,132.736566 31.1937489,133.756786 30.6027309,134.436934 C30.2776709,134.809395 29.8196319,134.995626 29.3574887,134.995626" id="Fill-46"></path>
                    <path d="M29.3574887,114.995626 C28.9782521,114.995626 28.5973738,114.874171 28.2870893,114.60697 L15.4997569,103.757003 L2.71242456,114.60697 C2.02454521,115.189954 0.98944275,115.117081 0.397603834,114.436934 C-0.194235082,113.756786 -0.116253533,112.736566 0.570804959,112.153582 L14.4293576,100.388656 C15.0450014,99.8704482 15.9553333,99.8704482 16.5709772,100.388656 L30.4295297,112.153582 C31.1165882,112.736566 31.1937489,113.756786 30.6027309,114.436934 C30.2776709,114.809395 29.8196319,114.995626 29.3574887,114.995626" id="Fill-46"></path>
                    <path d="M29.3574887,94.995626 C28.9782521,94.995626 28.5973738,94.8741711 28.2870893,94.6069705 L15.4997569,83.7570035 L2.71242456,94.6069705 C2.02454521,95.1899538 0.98944275,95.1170809 0.397603834,94.4369337 C-0.194235082,93.7567865 -0.116253533,92.7365657 0.570804959,92.1535824 L14.4293576,80.3886555 C15.0450014,79.8704482 15.9553333,79.8704482 16.5709772,80.3886555 L30.4295297,92.1535824 C31.1165882,92.7365657 31.1937489,93.7567865 30.6027309,94.4369337 C30.2776709,94.8093952 29.8196319,94.995626 29.3574887,94.995626" id="Fill-46"></path>
                    <path d="M29.3574887,74.995626 C28.9782521,74.995626 28.5973738,74.8741711 28.2870893,74.6069705 L15.4997569,63.7570035 L2.71242456,74.6069705 C2.02454521,75.1899538 0.98944275,75.1170809 0.397603834,74.4369337 C-0.194235082,73.7567865 -0.116253533,72.7365657 0.570804959,72.1535824 L14.4293576,60.3886555 C15.0450014,59.8704482 15.9553333,59.8704482 16.5709772,60.3886555 L30.4295297,72.1535824 C31.1165882,72.7365657 31.1937489,73.7567865 30.6027309,74.4369337 C30.2776709,74.8093952 29.8196319,74.995626 29.3574887,74.995626" id="Fill-46"></path>
                    <path d="M29.3574887,54.995626 C28.9782521,54.995626 28.5973738,54.8741711 28.2870893,54.6069705 L15.4997569,43.7570035 L2.71242456,54.6069705 C2.02454521,55.1899538 0.98944275,55.1170809 0.397603834,54.4369337 C-0.194235082,53.7567865 -0.116253533,52.7365657 0.570804959,52.1535824 L14.4293576,40.3886555 C15.0450014,39.8704482 15.9553333,39.8704482 16.5709772,40.3886555 L30.4295297,52.1535824 C31.1165882,52.7365657 31.1937489,53.7567865 30.6027309,54.4369337 C30.2776709,54.8093952 29.8196319,54.995626 29.3574887,54.995626" id="Fill-46"></path>
                    <path d="M29.3574887,34.995626 C28.9782521,34.995626 28.5973738,34.8741711 28.2870893,34.6069705 L15.4997569,23.7570035 L2.71242456,34.6069705 C2.02454521,35.1899538 0.98944275,35.1170809 0.397603834,34.4369337 C-0.194235082,33.7567865 -0.116253533,32.7365657 0.570804959,32.1535824 L14.4293576,20.3886555 C15.0450014,19.8704482 15.9553333,19.8704482 16.5709772,20.3886555 L30.4295297,32.1535824 C31.1165882,32.7365657 31.1937489,33.7567865 30.6027309,34.4369337 C30.2776709,34.8093952 29.8196319,34.995626 29.3574887,34.995626" id="Fill-46"></path>
                    <path d="M29.3574887,14.995626 C28.9782521,14.995626 28.5973738,14.8741711 28.2870893,14.6069705 L15.4997569,3.75700349 L2.71242456,14.6069705 C2.02454521,15.1899538 0.98944275,15.1170809 0.397603834,14.4369337 C-0.194235082,13.7567865 -0.116253533,12.7365657 0.570804959,12.1535824 L14.4293576,0.388655534 C15.0450014,-0.129551845 15.9553333,-0.129551845 16.5709772,0.388655534 L30.4295297,12.1535824 C31.1165882,12.7365657 31.1937489,13.7567865 30.6027309,14.4369337 C30.2776709,14.8093952 29.8196319,14.995626 29.3574887,14.995626" id="Fill-46"></path>
                    <path d="M28.4104729,173.999075 C28.0434697,173.999075 27.6748778,173.869545 27.3746025,173.610487 L14.9997648,162.754322 L2.62492699,173.610487 C1.9592373,174.193368 0.957525242,174.112413 0.384777903,173.432384 C-0.187969435,172.760452 -0.112503419,171.732314 0.552391896,171.149433 L13.9638944,159.394659 C14.5596787,158.868447 15.4406452,158.868447 16.0364295,159.394659 L29.447932,171.149433 C30.1128273,171.732314 30.187499,172.760452 29.615546,173.432384 C29.3009719,173.804781 28.8577083,173.999075 28.4104729,173.999075" id="Fill-47"></path>
                </g>
                <g id="noun_547849_cc" transform="translate(681.000000, 0.000000)" fill="#000000">
                    <g id="Group">
                        <g id="Shape">
                            <path d="M5.4,0.8 C2.9,0.8 0.8,2.9 0.8,5.4 C0.8,7.9 2.9,10 5.4,10 C7.9,10 10,8 10,5.4 C10,2.8 7.9,0.8 5.4,0.8 Z M5.4,7.6 C4.2,7.6 3.3,6.6 3.3,5.5 C3.3,4.4 4.3,3.4 5.4,3.4 C6.6,3.4 7.5,4.4 7.5,5.5 C7.5,6.6 6.6,7.6 5.4,7.6 Z"></path>
                            <path d="M35.3,7.9 C34.4,7.9 33.7,8.6 33.7,9.5 C33.7,10.4 34.4,11.1 35.3,11.1 C36.2,11.1 36.9,10.4 36.9,9.5 C36.9,8.7 36.2,7.9 35.3,7.9 Z"></path>
                        </g>
                    </g>
                </g>
            </g>
            <circle id="Oval" fill="#FEF000" cx="982.5" cy="128.5" r="8.5"></circle>
            <path d="M979.9,115.7 C974.2,115.7 969.7,120.3 969.7,125.9 C969.7,131.5 974.3,136.1 979.9,136.1 C985.6,136.1 990.1,131.5 990.1,125.9 C990.1,120.3 985.5,115.7 979.9,115.7 Z M979.9,133.7 C975.6,133.7 972.1,130.2 972.1,125.9 C972.1,121.6 975.6,118.1 979.9,118.1 C984.2,118.1 987.6,121.6 987.6,125.9 C987.6,130.2 984.2,133.7 979.9,133.7 Z" id="Shape" fill="#000000"></path>
            <path d="M444,138 C439.6,138 436,134.4 436,130 C436,125.6 439.6,122 444,122 C448.4,122 452,125.6 452,130 C452,134.4 448.5,138 444,138 Z" id="Path" fill="#000000"></path>
            <path d="M444,125 C441.272727,125 439,127.159091 439,130 C439,132.727273 441.159091,135 444,135 C446.840909,135 449,132.840909 449,130 C449,127.159091 446.840909,125 444,125 Z" id="Path" fill="#FFFFFF"></path>
            <ellipse id="Oval" fill="#010101" cx="470.6" cy="145.6" rx="3.6" ry="3.6"></ellipse>
            <path d="M471.9,120.825 C471.4,120.825 470.9,120.625 470.6,120.325 L465.5,115.225 C465.1,114.825 465,114.425 465,113.925 C465,113.425 465.2,112.925 465.5,112.625 L470.6,107.525 C471.3,106.825 472.4,106.825 473.2,107.525 L478.3,112.625 C478.7,113.025 478.8,113.425 478.8,113.925 C478.8,114.425 478.6,114.925 478.3,115.225 L473.2,120.325 C472.9,120.625 472.4,120.825 471.9,120.825 Z M469.4,113.825 L472,116.425 L474.6,113.825 L472,111.225 L469.4,113.825 Z" id="Shape" fill="#010101"></path>
        </g>
    </g>
</svg>