<svg id="Layer_1" xmlns="http://www.w3.org/2000/svg" viewBox="0 0 400 125"><style>.st0{fill:none;stroke:#010101;stroke-width:4;stroke-linecap:round;stroke-linejoin:round;stroke-miterlimit:10}.st1{fill:#010101}</style><path class="st0" d="M6.2 82.1h389.3"/><path transform="rotate(45.001 241.717 35.349)" class="st0" d="M237.7 31.4h8v8h-8z"/><path class="st0" d="M196.9 82.1V9.9M180 25.3l16.9-16.9 17 16.9"/><path class="st0" d="M180 37.5l16.9-16.9 17 16.9"/><circle class="st0" cx="258.6" cy="17.9" r="6.7"/><ellipse transform="rotate(-60 367.536 22.982)" class="st1" cx="367.5" cy="23" rx="3.9" ry="3.9"/><path class="st0" d="M310.5 79V6.8M293.6 22.2l16.9-16.9 16.9 16.9"/><path class="st0" d="M293.6 34.4l16.9-16.9 16.9 16.9M355.6 80.4V35.5M338.7 50.9L355.6 34l16.9 16.9"/><path class="st0" d="M338.7 63.1l16.9-16.9 16.9 16.9"/><circle class="st1" cx="31.9" cy="16.8" r="3.9"/><path transform="rotate(45.001 11.947 36.746)" class="st0" d="M7.9 32.7h8v8h-8z"/><path class="st0" d="M62.6 80.7V8.6M45.7 24L62.6 7.1 79.5 24"/><path class="st0" d="M45.7 36.1l16.9-16.9 16.9 16.9M108.2 80.3V35.4M91.3 50.8l16.9-16.9 16.9 16.9"/><path class="st0" d="M91.3 62.9L108.2 46l16.9 16.9M9.7 111.8h45.9M24.8 100.7h46M78.8 100.7h7.9M165.8 111.8h46M142.1 100.7h84.8M219.9 111.8h7.9M286.1 111.8H332M302.1 100.7h84.8M340.1 111.8h7.9"/></svg>