<svg width="142" height="28" viewBox="0 0 142 28" xmlns="http://www.w3.org/2000/svg"><title>treebox</title><g id="Page-1" fill="none" fill-rule="evenodd"><g id="home" transform="translate(-238 -27)"><g id="treebox" transform="translate(238 27)"><path d="M42.458 13.193H38.26v7.024c0 .427 0 .854.047 1.281.047.427.094.807.236 1.14.141.331.377.616.66.806.283.19.708.332 1.274.332.33 0 .708-.047 1.085-.095a2.28 2.28 0 0 0 .99-.38v2.658c-.33.19-.801.333-1.367.427-.566.095-.991.095-1.274.095-1.132 0-2.029-.142-2.642-.474-.613-.332-1.085-.712-1.368-1.234-.283-.522-.472-1.044-.519-1.661a24.34 24.34 0 0 1-.094-1.898v-8.068H31.89v-2.563h3.397V6.217h2.925v4.366h4.245v2.61zM46.28 10.63h2.925v2.373h.047c.189-.427.472-.806.802-1.139.33-.332.707-.617 1.085-.854.424-.237.849-.427 1.32-.57.473-.142.944-.19 1.416-.19s.896.048 1.321.19l-.142 3.18c-.235-.047-.471-.142-.707-.142-.236-.047-.472-.047-.708-.047-1.415 0-2.547.38-3.302 1.186-.755.807-1.132 2.04-1.132 3.75v7.735H46.28V10.63zM59.253 19.458a4.1 4.1 0 0 0 .425 1.85 3.82 3.82 0 0 0 1.18 1.424c.518.38 1.037.712 1.65.902.614.237 1.274.332 1.982.332.896 0 1.698-.19 2.406-.617.66-.427 1.273-.996 1.84-1.66l2.217 1.708c-1.651 2.088-3.916 3.18-6.84 3.18-1.227 0-2.312-.19-3.303-.618-.99-.427-1.84-.996-2.5-1.708-.708-.712-1.227-1.566-1.604-2.563-.378-.996-.566-2.04-.566-3.227 0-1.139.188-2.23.613-3.227.424-.997.943-1.85 1.651-2.563a8.028 8.028 0 0 1 2.547-1.708c.991-.427 2.03-.617 3.208-.617 1.369 0 2.548.237 3.491.712.944.474 1.746 1.091 2.312 1.898.613.76 1.038 1.66 1.321 2.61.283.95.425 1.946.425 2.942v.95H59.253zm9.294-2.326c0-.664-.142-1.234-.33-1.803a4.387 4.387 0 0 0-.85-1.424 4.712 4.712 0 0 0-1.368-.95c-.566-.236-1.18-.331-1.934-.331-.708 0-1.368.142-1.981.427a5.041 5.041 0 0 0-1.51 1.044c-.424.427-.755.902-.943 1.471-.19.57-.33 1.044-.33 1.566h9.246zM76.755 19.458a4.1 4.1 0 0 0 .425 1.85 3.82 3.82 0 0 0 1.18 1.424c.471.38 1.037.712 1.65.902.614.237 1.274.332 1.982.332.896 0 1.698-.19 2.406-.617.66-.427 1.274-.996 1.84-1.66l2.217 1.708c-1.651 2.088-3.915 3.18-6.84 3.18-1.227 0-2.312-.19-3.303-.618-.99-.427-1.84-.996-2.5-1.708-.708-.712-1.227-1.566-1.604-2.563-.377-.996-.566-2.04-.566-3.227 0-1.139.189-2.23.613-3.227.425-.997.944-1.85 1.651-2.563a8.028 8.028 0 0 1 2.548-1.708c.99-.427 2.028-.617 3.208-.617 1.368 0 2.547.237 3.49.712.944.474 1.746 1.091 2.312 1.898.614.76 1.038 1.66 1.321 2.61.283.95.425 1.946.425 2.942v.95H76.755zm9.294-2.326c0-.664-.141-1.234-.33-1.803a4.387 4.387 0 0 0-.85-1.424 4.712 4.712 0 0 0-1.367-.95c-.52-.236-1.18-.331-1.935-.331-.707 0-1.368.142-1.981.427a5.041 5.041 0 0 0-1.51 1.044c-.424.427-.754.902-.943 1.471-.189.57-.33 1.044-.33 1.566h9.246zM91.38 1.424h2.925V12.86h.047c.52-.807 1.274-1.424 2.265-1.898a7.121 7.121 0 0 1 3.113-.712c1.18 0 2.265.19 3.255.617.991.427 1.793.996 2.5 1.708.708.712 1.227 1.566 1.605 2.563.377.997.566 2.04.566 3.227 0 1.14-.189 2.23-.566 3.18-.378.996-.897 1.85-1.604 2.562-.708.76-1.51 1.33-2.5 1.709-.991.427-2.03.617-3.256.617-1.038 0-2.076-.237-3.066-.665-.99-.474-1.746-1.091-2.312-1.945h-.047v2.278H91.38V1.424zm8.02 22.352c.802 0 1.51-.142 2.123-.427.613-.285 1.18-.664 1.604-1.091a5.075 5.075 0 0 0 .99-1.709 6.415 6.415 0 0 0 .378-2.183c0-.807-.142-1.519-.377-2.183a5.075 5.075 0 0 0-.991-1.708 4.206 4.206 0 0 0-1.604-1.092c-.613-.285-1.321-.427-2.123-.427-.802 0-1.51.142-2.123.427-.613.285-1.18.664-1.604 1.092-.424.427-.755 1.044-.99 1.708a6.415 6.415 0 0 0-.378 2.183c0 .807.142 1.519.377 2.183.236.665.567 1.234.991 1.709.425.474.99.854 1.604 1.091.66.285 1.368.427 2.123.427zM109.26 18.366c0-1.139.189-2.183.613-3.18.425-.996.99-1.85 1.746-2.562.754-.712 1.604-1.33 2.594-1.756.991-.427 2.076-.617 3.255-.617 1.133 0 2.218.19 3.256.617.99.427 1.887.996 2.594 1.756a8.509 8.509 0 0 1 1.746 2.562c.424.997.613 2.041.613 3.18 0 1.14-.189 2.183-.613 3.18-.425.996-.99 1.85-1.746 2.562-.755.712-1.604 1.33-2.594 1.709-.991.427-2.076.617-3.256.617-1.132 0-2.217-.19-3.255-.617-.99-.427-1.887-.997-2.594-1.709-.755-.711-1.321-1.566-1.746-2.562a8.669 8.669 0 0 1-.613-3.18zm3.16 0c0 .807.142 1.519.378 2.183.236.665.566 1.234.99 1.709.425.474.991.854 1.605 1.091.613.285 1.32.427 2.123.427.802 0 1.51-.142 2.123-.427.613-.285 1.179-.664 1.604-1.091a5.075 5.075 0 0 0 .99-1.709 6.415 6.415 0 0 0 .378-2.183c0-.807-.142-1.519-.378-2.183a5.075 5.075 0 0 0-.99-1.708 4.206 4.206 0 0 0-1.604-1.092c-.614-.285-1.321-.427-2.123-.427-.802 0-1.51.142-2.123.427-.614.285-1.18.664-1.604 1.092-.425.427-.755 1.044-.991 1.708-.283.712-.377 1.424-.377 2.183zM131.716 17.844l-5.473-7.213h3.774l3.774 5.505 3.68-5.505h3.538l-5.283 7.213L142 26.102h-3.774L133.65 19.6l-4.576 6.502h-3.633z" id="Shape" fill="#000"/><rect id="Rectangle-1" fill="#FFF100" x="1" y="1" width="26" height="26" rx="3"/><path d="M23.918.19H3.963C1.887.19.189 1.898.189 3.986v20.075c0 2.088 1.698 3.797 3.774 3.797h19.955c2.076 0 3.774-1.709 3.774-3.797V3.986A3.766 3.766 0 0 0 23.918.19zm1.887 23.871c0 1.044-.849 1.898-1.887 1.898h-9.01V13.336l6.416 5.552c.188.143.377.237.613.237a.847.847 0 0 0 .708-.332c.33-.38.283-.996-.095-1.329l-7.642-6.596v-3.18l6.416 5.553c.188.142.377.237.613.237a.847.847 0 0 0 .708-.332c.33-.38.283-.997-.095-1.33l-7.973-6.928c-.377-.285-.896-.285-1.226 0l-7.973 6.929c-.377.332-.425.95-.094 1.329.33.38.943.427 1.32.095l6.417-5.553v3.18l-7.643 6.596c-.377.333-.425.95-.094 1.33.33.379.943.426 1.32.094l6.417-5.552v12.576H3.963a1.898 1.898 0 0 1-1.887-1.898V3.986c0-1.044.849-1.898 1.887-1.898h19.955c1.038 0 1.887.854 1.887 1.898v20.075z" id="Shape" fill="#000"/></g></g></g></svg>