<?xml version="1.0" encoding="UTF-8"?>
<svg width="1444px" height="344px" viewBox="0 0 1444 344" version="1.1" xmlns="http://www.w3.org/2000/svg" xmlns:xlink="http://www.w3.org/1999/xlink">
    <!-- Generator: Sketch 43.2 (39069) - http://www.bohemiancoding.com/sketch -->
    <title>treebox-header-illustration</title>
    <desc>Created with Sketch.</desc>
    <defs></defs>
    <g id="Page-1" stroke="none" stroke-width="1" fill="none" fill-rule="evenodd">
        <g id="treebox-header-illustration" fill-rule="nonzero">
            <g id="Group" transform="translate(62.000000, 264.000000)">
                <path d="M2.3,77.2 C2.3,77.2 113.3,2.2 245.3,2.2 C377.3,2.2 422,52.4 545.6,52.4 C827.2,52.4 864,52.1 1034.2,52.1 C1189.6,52.1 1307.3,77.2 1307.3,77.2 L2.3,77.2 Z" id="Shape" fill="#FFFFFF"></path>
                <path d="M1307.2,79.2 L2.3,79.2 C1.4,79.2 0.6,78.6 0.4,77.8 C0.1,77 0.5,76 1.2,75.6 C1.5,75.4 29.6,56.5 73.5,37.9 C114,20.7 176.8,0.2 245.3,0.2 C312.7,0.2 357.7,13.3 401.3,26 C444.4,38.6 485.1,50.4 545.6,50.4 C704,50.4 784.7,50.3 855.8,50.2 C911.6,50.1 959.8,50.1 1034.2,50.1 C1188,50.1 1306.5,75 1307.7,75.2 C1308.7,75.4 1309.4,76.3 1309.3,77.4 C1309.1,78.4 1308.3,79.2 1307.2,79.2 Z M9.2,75.2 L1285.7,75.2 C1245,68.1 1149.5,54.1 1034.2,54.1 C959.8,54.1 911.6,54.2 855.9,54.2 C784.8,54.3 704.1,54.4 545.7,54.4 C484.6,54.4 443.7,42.5 400.3,29.8 C357,17.2 312.2,4.1 245.4,4.1 C177.6,4.1 115.4,24.4 75.2,41.4 C43,55.1 19.5,68.8 9.2,75.2 Z" id="Shape" fill="#000000"></path>
            </g>
            <path d="M685.5,238.6 L605.2,238.6 C604.1,238.6 603.2,237.7 603.2,236.6 L603.2,156.3 C603.2,155.2 604.1,154.3 605.2,154.3 C650.6,154.3 687.5,191.2 687.5,236.6 C687.5,237.7 686.6,238.6 685.5,238.6 Z M607.1,234.6 L683.4,234.6 C682.4,193 648.7,159.3 607.1,158.3 L607.1,234.6 Z" id="Shape" fill="#000000"></path>
            <g id="Group" transform="translate(532.000000, 167.000000)">
                <path d="M73.1,2.1 C34.1,2.1 2.6,33.7 2.6,72.6 L2.6,161.8 L143.7,161.8 L143.7,72.6 C143.7,33.7 112.1,2.1 73.1,2.1 Z" id="Shape" fill="#FFFFFF"></path>
                <path d="M143.7,163.9 L2.6,163.9 C1.5,163.9 0.6,163 0.6,161.9 L0.6,72.7 C0.6,32.7 33.1,0.2 73.1,0.2 C113.1,0.2 145.6,32.7 145.6,72.7 L145.6,161.9 C145.7,163 144.8,163.9 143.7,163.9 Z M4.6,159.9 L141.7,159.9 L141.7,72.7 C141.7,34.9 111,4.2 73.2,4.2 C35.4,4.2 4.7,34.9 4.7,72.7 L4.7,159.9 L4.6,159.9 Z" id="Shape" fill="#000000"></path>
            </g>
            <g id="Group" transform="translate(792.000000, 223.000000)">
                <g transform="translate(8.000000, 8.000000)" id="Shape">
                    <path d="M54.4,2.1 C68.8,16.5 68.8,39.9 54.4,54.3 C40,68.7 16.6,68.7 2.2,54.3 L54.4,2.1 Z" fill="#FFFFFF"></path>
                    <path d="M28.3,67.1 C18.3,67.1 8.4,63.3 0.8,55.7 C0.4,55.3 0.2,54.8 0.2,54.3 C0.2,53.8 0.4,53.3 0.8,52.9 L53,0.7 C53.8,-0.1 55.1,-0.1 55.8,0.7 C71,15.9 71,40.5 55.8,55.7 C48.3,63.3 38.3,67.1 28.3,67.1 Z M5.1,54.3 C18.8,66.5 39.9,66.1 53,52.9 C66.1,39.8 66.6,18.7 54.4,5 L5.1,54.3 Z" fill="#000000"></path>
                </g>
                <path d="M36.3,38.2 C35.8,38.2 35.3,38 34.9,37.6 L21.5,24.2 C20.7,23.4 20.7,22.2 21.5,21.4 C22.3,20.6 23.5,20.6 24.3,21.4 L37.7,34.8 C38.5,35.6 38.5,36.8 37.7,37.6 C37.4,38 36.9,38.2 36.3,38.2 Z" id="Shape" fill="#000000"></path>
                <path d="M17.8,56.8 C17.5,56.8 17.2,56.7 16.9,56.6 C16.1,56.2 15.7,55.4 15.8,54.5 L21,22.5 C21.1,21.6 21.8,21 22.7,20.8 L54.7,15.6 C55.5,15.5 56.4,15.9 56.8,16.7 C57.2,17.5 57,18.4 56.4,19 L19.3,56.1 C18.8,56.6 18.3,56.8 17.8,56.8 Z M24.7,24.6 L20.8,49 L49.2,20.6 L24.7,24.6 Z" id="Shape" fill="#000000"></path>
                <g transform="translate(17.000000, 17.000000)">
                    <circle id="Oval" fill="#FFFFFF" transform="translate(6.519690, 6.387590) rotate(-45.000000) translate(-6.519690, -6.387590) " cx="6.51969" cy="6.38759" r="3.99996164"></circle>
                    <path d="M6.5,12.3 C5,12.3 3.4,11.7 2.3,10.5 C0,8.2 0,4.4 2.3,2 C4.6,-0.3 8.4,-0.3 10.8,2 C13.1,4.3 13.1,8.1 10.8,10.5 C9.6,11.8 8,12.3 6.5,12.3 Z M6.5,4.4 C6,4.4 5.5,4.6 5.1,5 C4.3,5.8 4.3,7 5.1,7.8 C5.9,8.6 7.1,8.6 7.9,7.8 C8.7,7 8.7,5.8 7.9,5 C7.5,4.6 7,4.4 6.5,4.4 Z" id="Shape" fill="#000000"></path>
                </g>
                <path d="M15,35.5 C14.5,35.5 14,35.3 13.6,34.9 C7.7,29 7.7,19.4 13.6,13.5 C19.5,7.6 29.1,7.6 35,13.5 C35.8,14.3 35.8,15.5 35,16.3 C34.2,17.1 33,17.1 32.2,16.3 C27.9,12 20.8,12 16.4,16.3 C12.1,20.6 12.1,27.7 16.4,32.1 C17.2,32.9 17.2,34.1 16.4,34.9 C16,35.3 15.5,35.5 15,35.5 Z" id="Shape" fill="#000000"></path>
                <path d="M9.1,41.4 C8.6,41.4 8.1,41.2 7.7,40.8 C-1.4,31.7 -1.4,16.8 7.7,7.6 C16.8,-1.6 31.7,-1.5 40.9,7.6 C41.7,8.4 41.7,9.6 40.9,10.4 C40.1,11.2 38.9,11.2 38.1,10.4 C30.5,2.8 18.2,2.8 10.6,10.4 C3,18 3,30.3 10.6,37.9 C11.4,38.7 11.4,39.9 10.6,40.7 C10.2,41.2 9.7,41.4 9.1,41.4 Z" id="Shape" fill="#000000"></path>
            </g>
            <g id="Group" transform="translate(1182.000000, 57.000000)" fill="#000000">
                <path d="M113.3,286.2 L68.6,286.2 C67.5,286.2 66.6,285.3 66.6,284.2 L66.6,2.3 C66.6,1.2 67.5,0.3 68.6,0.3 L113.3,0.3 C114.4,0.3 115.3,1.2 115.3,2.3 L115.3,284.1 C115.3,285.3 114.4,286.2 113.3,286.2 Z M70.6,282.2 L111.3,282.2 L111.3,4.3 L70.6,4.3 L70.6,282.2 Z" id="Shape"></path>
                <path d="M113.3,51.7 L68.6,51.7 C67.5,51.7 66.6,50.8 66.6,49.7 C66.6,48.6 67.5,47.7 68.6,47.7 L113.3,47.7 C114.4,47.7 115.3,48.6 115.3,49.7 C115.3,50.8 114.4,51.7 113.3,51.7 Z" id="Shape"></path>
                <path d="M113.3,49 C112.8,49 112.3,48.8 111.9,48.4 L67.2,3.7 C66.4,2.9 66.4,1.7 67.2,0.9 C68,0.1 69.2,0.1 70,0.9 L114.7,45.6 C115.5,46.4 115.5,47.6 114.7,48.4 C114.3,48.8 113.8,49 113.3,49 Z" id="Shape"></path>
                <path d="M113.3,146.6 L68.6,146.6 C67.5,146.6 66.6,145.7 66.6,144.6 C66.6,143.5 67.5,142.6 68.6,142.6 L113.3,142.6 C114.4,142.6 115.3,143.5 115.3,144.6 C115.3,145.7 114.4,146.6 113.3,146.6 Z" id="Shape"></path>
                <path d="M113.3,143.9 C112.8,143.9 112.3,143.7 111.9,143.3 L67.2,98.6 C66.4,97.8 66.4,96.6 67.2,95.8 C68,95 69.2,95 70,95.8 L114.7,140.5 C115.5,141.3 115.5,142.5 114.7,143.3 C114.3,143.7 113.8,143.9 113.3,143.9 Z" id="Shape"></path>
                <path d="M113.3,241.5 L68.6,241.5 C67.5,241.5 66.6,240.6 66.6,239.5 C66.6,238.4 67.5,237.5 68.6,237.5 L113.3,237.5 C114.4,237.5 115.3,238.4 115.3,239.5 C115.3,240.6 114.4,241.5 113.3,241.5 Z" id="Shape"></path>
                <path d="M113.3,238.7 C112.8,238.7 112.3,238.5 111.9,238.1 L67.2,193.4 C66.4,192.6 66.4,191.4 67.2,190.6 C68,189.8 69.2,189.8 70,190.6 L114.7,235.3 C115.5,236.1 115.5,237.3 114.7,238.1 C114.3,238.5 113.8,238.7 113.3,238.7 Z" id="Shape"></path>
                <path d="M113.3,99.2 L68.6,99.2 C67.5,99.2 66.6,98.3 66.6,97.2 C66.6,96.1 67.5,95.2 68.6,95.2 L113.3,95.2 C114.4,95.2 115.3,96.1 115.3,97.2 C115.3,98.3 114.4,99.2 113.3,99.2 Z" id="Shape"></path>
                <path d="M68.6,96.4 C68.1,96.4 67.6,96.2 67.2,95.8 C66.4,95 66.4,93.8 67.2,93 L111.9,48.3 C112.7,47.5 113.9,47.5 114.7,48.3 C115.5,49.1 115.5,50.3 114.7,51.1 L70,95.8 C69.6,96.3 69.1,96.4 68.6,96.4 Z" id="Shape"></path>
                <path d="M113.3,194 L68.6,194 C67.5,194 66.6,193.1 66.6,192 C66.6,190.9 67.5,190 68.6,190 L113.3,190 C114.4,190 115.3,190.9 115.3,192 C115.3,193.1 114.4,194 113.3,194 Z" id="Shape"></path>
                <path d="M68.6,191.3 C68.1,191.3 67.6,191.1 67.2,190.7 C66.4,189.9 66.4,188.7 67.2,187.9 L111.9,143.2 C112.7,142.4 113.9,142.4 114.7,143.2 C115.5,144 115.5,145.2 114.7,146 L70,190.7 C69.6,191.1 69.1,191.3 68.6,191.3 Z" id="Shape"></path>
                <path d="M68.6,283.4 C68.1,283.4 67.6,283.2 67.2,282.8 C66.4,282 66.4,280.8 67.2,280 L111.9,235.3 C112.7,234.5 113.9,234.5 114.7,235.3 C115.5,236.1 115.5,237.3 114.7,238.1 L70,282.8 C69.6,283.2 69.1,283.4 68.6,283.4 Z" id="Shape"></path>
                <path d="M68.6,51.7 L2.8,51.7 C1.7,51.7 0.8,50.8 0.8,49.7 C0.8,48.6 1.7,47.7 2.8,47.7 L68.6,47.7 C69.7,47.7 70.6,48.6 70.6,49.7 C70.6,50.8 69.7,51.7 68.6,51.7 Z" id="Shape"></path>
                <path d="M68.6,99.2 L2.8,99.2 C1.7,99.2 0.8,98.3 0.8,97.2 C0.8,96.1 1.7,95.2 2.8,95.2 L68.6,95.2 C69.7,95.2 70.6,96.1 70.6,97.2 C70.6,98.3 69.7,99.2 68.6,99.2 Z" id="Shape"></path>
                <path d="M68.6,146.6 L2.8,146.6 C1.7,146.6 0.8,145.7 0.8,144.6 C0.8,143.5 1.7,142.6 2.8,142.6 L68.6,142.6 C69.7,142.6 70.6,143.5 70.6,144.6 C70.6,145.7 69.7,146.6 68.6,146.6 Z" id="Shape"></path>
            </g>
            <g id="Group" transform="translate(1049.000000, 3.000000)">
                <path d="M91.6,233.9 L2.9,233.9 L2.9,78.3 C2.9,36.9 23,1.9 47.3,1.9 C71.6,1.9 91.7,41.2 91.7,78.3 C91.6,100.8 91.6,233.9 91.6,233.9 Z" id="Shape" fill="#FFFFFF"></path>
                <path d="M91.6,235.9 L2.9,235.9 C1.8,235.9 0.9,235 0.9,233.9 L0.9,78.3 C0.9,57.9 5.6,38.4 14.3,23.6 C23.1,8.4 34.8,-7.10542736e-15 47.3,-7.10542736e-15 C59.5,-7.10542736e-15 71.2,9 80.3,25.3 C88.8,40.5 93.6,59.8 93.6,78.4 L93.6,234 C93.6,235 92.7,235.9 91.6,235.9 Z M4.9,231.9 L89.6,231.9 L89.6,78.3 C89.6,40.1 69,3.9 47.2,3.9 C24.2,3.9 4.8,38 4.8,78.3 L4.8,231.9 L4.9,231.9 Z" id="Shape" fill="#000000"></path>
            </g>
            <g id="Group" transform="translate(1147.000000, 58.000000)">
                <path d="M37.8,212.9 L2.6,212.9 L2.6,33 C2.6,11.9 13.3,2 20.2,2 C27.1,2 37.8,11.9 37.8,33 C37.8,42.1 37.8,212.9 37.8,212.9 Z" id="Shape" fill="#FFFFFF"></path>
                <path d="M37.8,214.9 L2.6,214.9 C1.5,214.9 0.6,214 0.6,212.9 L0.6,33 C0.6,10.5 12.3,0 20.2,0 C28.1,0 39.8,10.5 39.8,33 L39.8,212.9 C39.8,214 38.9,214.9 37.8,214.9 Z M4.6,210.9 L35.8,210.9 L35.8,33 C35.8,12.5 25.6,4 20.2,4 C14.8,4 4.6,12.5 4.6,33 L4.6,210.9 L4.6,210.9 Z" id="Shape" fill="#000000"></path>
            </g>
            <g id="Group" transform="translate(1006.000000, 58.000000)">
                <path d="M37.4,212.9 L2.2,212.9 L2.2,33 C2.2,11.9 12.9,2 19.8,2 C26.7,2 37.4,11.9 37.4,33 L37.4,212.9 Z" id="Shape" fill="#FFFFFF"></path>
                <path d="M37.4,214.9 L2.2,214.9 C1.1,214.9 0.2,214 0.2,212.9 L0.2,33 C0.2,10.5 11.9,0 19.8,0 C27.7,0 39.4,10.5 39.4,33 L39.4,212.9 C39.4,214 38.5,214.9 37.4,214.9 Z M4.2,210.9 L35.4,210.9 L35.4,33 C35.4,12.5 25.2,4 19.8,4 C14.4,4 4.2,12.5 4.2,33 L4.2,210.9 Z" id="Shape" fill="#000000"></path>
            </g>
            <path d="M1442,343.2 L2,343.2 C0.9,343.2 0,342.3 0,341.2 C0,340.1 0.9,339.2 2,339.2 L1442,339.2 C1443.1,339.2 1444,340.1 1444,341.2 C1444,342.3 1443.1,343.2 1442,343.2 Z" id="Shape" fill="#000000"></path>
            <path d="M918.3,232.1 C913.5,232.1 909.5,228.2 909.5,223.3 C909.5,218.4 913.4,214.5 918.3,214.5 C923.1,214.5 927,218.4 927,223.3 C927,228.2 923.1,232.1 918.3,232.1 Z M918.3,218.6 C915.7,218.6 913.5,220.7 913.5,223.4 C913.5,226.1 915.6,228.2 918.3,228.2 C920.9,228.2 923,226.1 923,223.4 C923,220.7 920.9,218.6 918.3,218.6 Z" id="Shape" fill="#000000"></path>
            <path d="M387.3,230.9 C382.5,230.9 378.6,227 378.6,222.1 C378.6,217.3 382.5,213.4 387.3,213.4 C392.1,213.4 396,217.3 396,222.1 C396,227 392.1,230.9 387.3,230.9 Z M387.3,217.4 C384.7,217.4 382.6,219.5 382.6,222.1 C382.6,224.7 384.7,226.9 387.3,226.9 C389.9,226.9 392,224.8 392,222.1 C392,219.5 389.9,217.4 387.3,217.4 Z" id="Shape" fill="#000000"></path>
            <path d="M1155.2,33.7 C1149.9,33.7 1145.6,29.4 1145.6,24.1 C1145.6,18.8 1149.9,14.5 1155.2,14.5 C1160.5,14.5 1164.8,18.8 1164.8,24.1 C1164.8,29.4 1160.5,33.7 1155.2,33.7 Z M1155.2,18.6 C1152.1,18.6 1149.6,21.1 1149.6,24.2 C1149.6,27.3 1152.1,29.8 1155.2,29.8 C1158.3,29.8 1160.8,27.3 1160.8,24.2 C1160.8,21.1 1158.3,18.6 1155.2,18.6 Z" id="Shape" fill="#000000"></path>
            <circle id="Oval" fill="#000000" cx="958" cy="255.3" r="3.9"></circle>
            <circle id="Oval" fill="#000000" cx="1319.2" cy="222.1" r="3.9"></circle>
            <circle id="Oval" fill="#000000" cx="729.2" cy="174.6" r="3.9"></circle>
            <circle id="Oval" fill="#000000" transform="translate(498.214200, 236.616600) rotate(-59.999272) translate(-498.214200, -236.616600) " cx="498.2142" cy="236.6166" r="3.8999142"></circle>
            <circle id="Oval" fill="#000000" cx="1167.6" cy="4.6" r="4.4"></circle>
            <path d="M1140.6,104.3 L1051.9,104.3 C1050.8,104.3 1049.9,103.4 1049.9,102.3 C1049.9,101.2 1050.8,100.3 1051.9,100.3 L1140.6,100.3 C1141.7,100.3 1142.6,101.2 1142.6,102.3 C1142.6,103.4 1141.7,104.3 1140.6,104.3 Z" id="Shape" fill="#000000"></path>
            <path d="M1140.6,93.1 L1051.9,93.1 C1050.8,93.1 1049.9,92.2 1049.9,91.1 C1049.9,90 1050.8,89.1 1051.9,89.1 L1140.6,89.1 C1141.7,89.1 1142.6,90 1142.6,91.1 C1142.6,92.2 1141.7,93.1 1140.6,93.1 Z" id="Shape" fill="#000000"></path>
            <g id="Group" transform="translate(1070.000000, 67.000000)">
                <path d="M50.5,168.8 L2,168.8 L2,44.6 C2,21.9 16.7,2.9 26.3,2.9 C35.9,2.9 50.6,24.4 50.6,44.6 C50.5,57 50.5,168.8 50.5,168.8 Z" id="Shape" fill="#FFFFFF"></path>
                <path d="M50.5,170.8 L2,170.8 C0.9,170.8 0,169.9 0,168.8 L0,44.6 C0,33.9 3.1,23.1 8.9,14.2 C14.2,6 20.8,0.9 26.3,0.9 C31.7,0.9 38.2,6.2 43.7,15.1 C49.3,24.2 52.5,35 52.5,44.6 L52.5,168.8 C52.5,169.9 51.6,170.8 50.5,170.8 Z M4,166.8 L48.5,166.8 L48.5,44.6 C48.5,24.9 34.2,4.9 26.2,4.9 C17.8,4.9 3.9,23.5 3.9,44.6 L3.9,166.8 L4,166.8 Z" id="Shape" fill="#000000"></path>
            </g>
            <g id="Group" transform="translate(1084.000000, 105.000000)">
                <path d="M2.7,11.6 C2.7,6.3 7,2.1 12.2,2.1 C17.5,2.1 21.7,6.4 21.7,11.6" id="Shape" fill="#FFFFFF"></path>
                <path d="M21.8,13.6 C20.7,13.6 19.8,12.7 19.8,11.6 C19.8,7.4 16.4,4.1 12.3,4.1 C8.2,4.1 4.8,7.5 4.8,11.6 C4.8,12.7 3.9,13.6 2.8,13.6 C1.7,13.6 0.8,12.7 0.8,11.6 C0.8,5.2 6,0.1 12.3,0.1 C18.6,0.1 23.8,5.3 23.8,11.6 C23.8,12.7 22.9,13.6 21.8,13.6 Z" id="Shape" fill="#000000"></path>
            </g>
            <g id="Group" transform="translate(1118.000000, 154.000000)">
                <path d="M2.5,2.1 L2.5,74.4 L33.5,74.4 L33.5,66.1 C33.5,47 9.9,53.4 9.9,28.5 C9.9,2.4 2.5,2.1 2.5,2.1 Z" id="Shape" fill="#FFFFFF"></path>
                <path d="M33.5,76.5 L2.5,76.5 C1.4,76.5 0.5,75.6 0.5,74.5 L0.5,2.2 C0.5,1.7 0.7,1.1 1.1,0.8 C1.5,0.4 2,0.2 2.6,0.2 C4.2,0.3 12,1.9 12,28.6 C12,40.8 17.9,44.7 24.1,48.7 C29.8,52.4 35.6,56.2 35.6,66.2 L35.6,74.5 C35.5,75.6 34.6,76.5 33.5,76.5 Z M4.5,72.5 L31.5,72.5 L31.5,66.2 C31.5,58.4 27.2,55.6 21.8,52 C15.3,47.8 7.9,42.9 7.9,28.5 C7.9,15.6 6,9.5 4.4,6.6 L4.4,72.5 L4.5,72.5 Z" id="Shape" fill="#000000"></path>
            </g>
            <path d="M1127.8,230.5 C1126.7,230.5 1125.8,229.6 1125.8,228.5 L1125.8,214.8 C1125.8,213.7 1126.7,212.8 1127.8,212.8 C1128.9,212.8 1129.8,213.7 1129.8,214.8 L1129.8,228.5 C1129.8,229.6 1128.9,230.5 1127.8,230.5 Z" id="Shape" fill="#000000"></path>
            <path d="M1134.7,230.5 C1133.6,230.5 1132.7,229.6 1132.7,228.5 L1132.7,220.2 C1132.7,219.1 1133.6,218.2 1134.7,218.2 C1135.8,218.2 1136.7,219.1 1136.7,220.2 L1136.7,228.5 C1136.7,229.6 1135.8,230.5 1134.7,230.5 Z" id="Shape" fill="#000000"></path>
            <g id="Group" transform="translate(1038.000000, 154.000000)">
                <path d="M33.3,2.1 L33.3,74.4 L2.3,74.4 L2.3,66.1 C2.3,47 25.9,53.4 25.9,28.5 C25.8,2.4 33.3,2.1 33.3,2.1 Z" id="Shape" fill="#FFFFFF"></path>
                <path d="M33.3,76.5 L2.3,76.5 C1.2,76.5 0.3,75.6 0.3,74.5 L0.3,66.2 C0.3,56.2 6.2,52.4 11.8,48.7 C18,44.6 23.9,40.8 23.9,28.6 C23.9,1.9 31.7,0.3 33.3,0.2 C33.8,0.2 34.4,0.4 34.8,0.8 C35.2,1.2 35.4,1.7 35.4,2.2 L35.4,74.5 C35.3,75.6 34.4,76.5 33.3,76.5 Z M4.2,72.5 L31.2,72.5 L31.2,6.6 C29.6,9.5 27.7,15.6 27.7,28.5 C27.7,42.9 20.3,47.7 13.8,52 C8.4,55.5 4.1,58.3 4.1,66.2 L4.1,72.5 L4.2,72.5 Z" id="Shape" fill="#000000"></path>
            </g>
            <path d="M1063.9,230.5 C1062.8,230.5 1061.9,229.6 1061.9,228.5 L1061.9,214.8 C1061.9,213.7 1062.8,212.8 1063.9,212.8 C1065,212.8 1065.9,213.7 1065.9,214.8 L1065.9,228.5 C1065.9,229.6 1065,230.5 1063.9,230.5 Z" id="Shape" fill="#000000"></path>
            <path d="M1057.1,230.5 C1056,230.5 1055.1,229.6 1055.1,228.5 L1055.1,220.2 C1055.1,219.1 1056,218.2 1057.1,218.2 C1058.2,218.2 1059.1,219.1 1059.1,220.2 L1059.1,228.5 C1059.1,229.6 1058.2,230.5 1057.1,230.5 Z" id="Shape" fill="#000000"></path>
            <path d="M1183.7,148.7 L1150.8,148.7 C1149.7,148.7 1148.8,147.8 1148.8,146.7 C1148.8,145.6 1149.7,144.7 1150.8,144.7 L1183.7,144.7 C1184.8,144.7 1185.7,145.6 1185.7,146.7 C1185.7,147.8 1184.8,148.7 1183.7,148.7 Z" id="Shape" fill="#000000"></path>
            <path d="M1183.7,140.9 L1150.8,140.9 C1149.7,140.9 1148.8,140 1148.8,138.9 C1148.8,137.8 1149.7,136.9 1150.8,136.9 L1183.7,136.9 C1184.8,136.9 1185.7,137.8 1185.7,138.9 C1185.7,140 1184.8,140.9 1183.7,140.9 Z" id="Shape" fill="#000000"></path>
            <path d="M1042.3,148.7 L1009.4,148.7 C1008.3,148.7 1007.4,147.8 1007.4,146.7 C1007.4,145.6 1008.3,144.7 1009.4,144.7 L1042.3,144.7 C1043.4,144.7 1044.3,145.6 1044.3,146.7 C1044.3,147.8 1043.4,148.7 1042.3,148.7 Z" id="Shape" fill="#000000"></path>
            <path d="M1042.3,140.9 L1009.4,140.9 C1008.3,140.9 1007.4,140 1007.4,138.9 C1007.4,137.8 1008.3,136.9 1009.4,136.9 L1042.3,136.9 C1043.4,136.9 1044.3,137.8 1044.3,138.9 C1044.3,140 1043.4,140.9 1042.3,140.9 Z" id="Shape" fill="#000000"></path>
            <g id="Group" transform="translate(882.000000, 238.000000)">
                <path d="M387,63.9 C377.2,63.9 368.3,67.5 361.4,73.4 C357,63 346.7,55.7 334.7,55.7 C334.7,33.1 316.4,14.8 293.8,14.8 C278.2,14.8 264.6,23.5 257.7,36.4 C254.2,32.6 249.3,30.2 243.7,30.2 C237.8,30.2 232.6,32.9 229.1,37.1 L229.1,2.1 L199.4,2.1 L199.4,36.5 C195.9,32.7 190.9,30.2 185.4,30.2 C179,30.2 173.3,33.4 169.9,38.3 C163.4,24.4 149.2,14.8 132.8,14.8 C110.2,14.8 91.9,33.1 91.9,55.7 C80.3,55.7 70.3,62.5 65.7,72.4 C59,67.1 50.6,64 41.4,64 C19.7,64 2.1,81.6 2.1,103.3 L426.4,103.3 C426.3,81.5 408.7,63.9 387,63.9 Z" id="Shape" fill="#FFFFFF"></path>
                <path d="M426.3,105.2 L2,105.2 C0.9,105.2 0,104.3 0,103.2 C0,80.4 18.5,61.9 41.3,61.9 C49.9,61.9 58,64.5 64.9,69.3 C70,60.3 79.5,54.4 89.9,53.7 C90.9,30.9 109.8,12.7 132.8,12.7 C148.3,12.7 162.7,21.2 170.2,34.6 C174.1,30.5 179.6,28.1 185.3,28.1 C189.6,28.1 193.8,29.5 197.3,31.9 L197.3,2 C197.3,0.9 198.2,0 199.3,0 L229,0 C230.1,0 231,0.9 231,2 L231,32.3 C234.6,29.6 239,28.1 243.6,28.1 C248.6,28.1 253.4,29.9 257.1,33.1 C264.9,20.5 278.7,12.7 293.6,12.7 C316.6,12.7 335.5,30.9 336.5,53.7 C347.3,54.4 356.9,60.6 362,70.2 C369.1,64.8 377.9,61.9 386.9,61.9 C409.7,61.9 428.2,80.4 428.2,103.2 C428.3,104.3 427.4,105.2 426.3,105.2 Z M4.1,101.2 L424.3,101.2 C423.3,81.6 407,65.9 387.1,65.9 C378.2,65.9 369.6,69.1 362.8,74.9 C362.3,75.3 361.7,75.5 361,75.3 C360.4,75.2 359.9,74.7 359.6,74.1 C355.4,64.1 345.6,57.6 334.7,57.6 C333.6,57.6 332.7,56.7 332.7,55.6 C332.7,34.1 315.2,16.7 293.8,16.7 C279.4,16.7 266.3,24.6 259.5,37.3 C259.2,37.9 258.6,38.3 258,38.3 C257.4,38.4 256.7,38.1 256.3,37.7 C253.1,34.2 248.5,32.1 243.8,32.1 C238.7,32.1 234,34.4 230.7,38.3 C230.2,39 229.3,39.2 228.5,38.9 C227.7,38.6 227.2,37.9 227.2,37 L227.2,4 L201.5,4 L201.5,36.4 C201.5,37.2 201,38 200.2,38.3 C199.4,38.6 198.6,38.4 198,37.8 C194.8,34.2 190.2,32.2 185.4,32.2 C179.9,32.2 174.7,34.9 171.5,39.5 C171.1,40.1 170.4,40.4 169.7,40.3 C169,40.2 168.4,39.8 168.1,39.2 C161.7,25.6 147.9,16.8 132.9,16.8 C111.4,16.8 94,34.3 94,55.7 C94,56.8 93.1,57.7 92,57.7 C81.6,57.7 72,63.8 67.6,73.2 C67.3,73.8 66.8,74.2 66.2,74.3 C65.6,74.4 65,74.3 64.5,73.9 C57.9,68.7 49.9,65.9 41.4,65.9 C21.4,65.9 5.1,81.5 4.1,101.2 Z" id="Shape" fill="#000000"></path>
            </g>
            <path d="M1091.3,283.1 C1090.2,283.1 1089.3,282.2 1089.3,281.1 L1089.3,248.9 C1089.3,247.8 1090.2,246.9 1091.3,246.9 C1092.4,246.9 1093.3,247.8 1093.3,248.9 L1093.3,281.1 C1093.3,282.2 1092.4,283.1 1091.3,283.1 Z" id="Shape" fill="#000000"></path>
            <path d="M1101.7,299.3 C1100.6,299.3 1099.7,298.4 1099.7,297.3 L1099.7,249 C1099.7,247.9 1100.6,247 1101.7,247 C1102.8,247 1103.7,247.9 1103.7,249 L1103.7,297.3 C1103.7,298.4 1102.8,299.3 1101.7,299.3 Z" id="Shape" fill="#000000"></path>
            <path d="M1203.8,294.8 C1202.7,294.8 1201.8,293.9 1201.8,292.8 C1201.8,278.4 1190.1,266.6 1175.6,266.6 C1161.1,266.6 1149.4,278.3 1149.4,292.8 C1149.4,293.9 1148.5,294.8 1147.4,294.8 C1146.3,294.8 1145.4,293.9 1145.4,292.8 C1145.4,276.2 1158.9,262.6 1175.6,262.6 C1192.3,262.6 1205.8,276.1 1205.8,292.8 C1205.8,293.9 1204.9,294.8 1203.8,294.8 Z" id="Shape" fill="#000000"></path>
            <path d="M1043.4,294.8 C1042.3,294.8 1041.4,293.9 1041.4,292.8 C1041.4,278.4 1029.7,266.6 1015.2,266.6 C1000.7,266.6 989,278.3 989,292.8 C989,293.9 988.1,294.8 987,294.8 C985.9,294.8 985,293.9 985,292.8 C985,276.2 998.5,262.6 1015.2,262.6 C1031.9,262.6 1045.4,276.1 1045.4,292.8 C1045.4,293.9 1044.5,294.8 1043.4,294.8 Z" id="Shape" fill="#000000"></path>
            <path d="M1069.2,314 C1068.1,314 1067.2,313.1 1067.2,312 C1067.2,302.5 1059.5,294.8 1050,294.8 C1040.5,294.8 1032.8,302.5 1032.8,312 C1032.8,313.1 1031.9,314 1030.8,314 C1029.7,314 1028.8,313.1 1028.8,312 C1028.8,300.3 1038.3,290.8 1050,290.8 C1061.7,290.8 1071.2,300.3 1071.2,312 C1071.2,313.1 1070.3,314 1069.2,314 Z" id="Shape" fill="#000000"></path>
            <path d="M1159.8,314 C1158.7,314 1157.8,313.1 1157.8,312 C1157.8,302.5 1150.1,294.8 1140.6,294.8 C1131.1,294.8 1123.4,302.5 1123.4,312 C1123.4,313.1 1122.5,314 1121.4,314 C1120.3,314 1119.4,313.1 1119.4,312 C1119.4,300.3 1128.9,290.8 1140.6,290.8 C1152.3,290.8 1161.8,300.3 1161.8,312 C1161.8,313.1 1160.9,314 1159.8,314 Z" id="Shape" fill="#000000"></path>
            <g id="Group" transform="translate(1071.000000, 233.000000)">
                <polygon id="Shape" fill="#FFFFFF" points="47.8 14.8 2.6 14.8 7.1 2.8 43.3 2.8"></polygon>
                <path d="M47.8,16.8 L2.6,16.8 C1.9,16.8 1.3,16.5 1,15.9 C0.6,15.4 0.5,14.7 0.8,14.1 L5.3,2.1 C5.6,1.3 6.3,0.8 7.2,0.8 L43.4,0.8 C44.2,0.8 45,1.3 45.3,2.1 L49.8,14.1 C50,14.7 49.9,15.4 49.6,15.9 C49.1,16.5 48.5,16.8 47.8,16.8 Z M5.5,12.8 L44.9,12.8 L41.9,4.8 L8.5,4.8 L5.5,12.8 Z" id="Shape" fill="#000000"></path>
            </g>
            <path d="M948.8,212.3 C948.3,212.3 947.8,212.1 947.4,211.7 L941.7,206 C941.3,205.6 941.1,205.1 941.1,204.6 C941.1,204.1 941.3,203.6 941.7,203.2 L947.4,197.5 C947.8,197.1 948.3,196.9 948.8,196.9 L948.8,196.9 C949.3,196.9 949.8,197.1 950.2,197.5 L955.9,203.2 C956.7,204 956.7,205.2 955.9,206 L950.2,211.7 C949.9,212.1 949.3,212.3 948.8,212.3 Z M946,204.7 L948.8,207.5 L951.6,204.7 L948.8,201.9 L946,204.7 Z" id="Shape" fill="#000000"></path>
            <path d="M709.3,202.1 L709.3,202.1 C708.8,202.1 708.3,201.9 707.9,201.5 L702.2,195.8 C701.4,195 701.4,193.8 702.2,193 L707.9,187.3 C708.7,186.5 710,186.5 710.7,187.3 L716.4,193 C717.2,193.8 717.2,195 716.4,195.8 L710.7,201.5 C710.4,201.9 709.8,202.1 709.3,202.1 Z M706.5,194.5 L709.3,197.3 L712.1,194.5 L709.3,191.7 L706.5,194.5 Z" id="Shape" fill="#000000"></path>
            <path d="M1392.7,296.7 L1392.7,296.7 C1392.2,296.7 1391.7,296.5 1391.3,296.1 L1385.6,290.4 C1384.8,289.6 1384.8,288.4 1385.6,287.6 L1391.3,281.9 C1392.1,281.1 1393.4,281.1 1394.1,281.9 L1399.8,287.6 C1400.6,288.4 1400.6,289.6 1399.8,290.4 L1394.1,296.1 C1393.7,296.5 1393.2,296.7 1392.7,296.7 Z M1389.8,289 L1392.6,291.8 L1395.4,289 L1392.6,286.2 L1389.8,289 Z" id="Shape" fill="#000000"></path>
            <path d="M1341,209.3 L1341,209.3 C1340.5,209.3 1340,209.1 1339.6,208.7 L1333.9,203 C1333.1,202.2 1333.1,201 1333.9,200.2 L1339.6,194.5 C1340.4,193.7 1341.6,193.7 1342.4,194.5 L1348.1,200.2 C1348.5,200.6 1348.7,201.1 1348.7,201.6 C1348.7,202.1 1348.5,202.6 1348.1,203 L1342.4,208.7 C1342,209.1 1341.5,209.3 1341,209.3 Z M1338.2,201.7 L1341,204.5 L1343.8,201.7 L1341,198.9 L1338.2,201.7 Z" id="Shape" fill="#000000"></path>
            <path d="M1103.4,248.7 C1102.3,248.7 1101.4,247.8 1101.4,246.7 L1101.4,236.9 C1101.4,235.8 1102.3,234.9 1103.4,234.9 C1104.5,234.9 1105.4,235.8 1105.4,236.9 L1105.4,246.7 C1105.4,247.8 1104.5,248.7 1103.4,248.7 Z" id="Shape" fill="#000000"></path>
            <path d="M1088,249 C1086.9,249 1086,248.1 1086,247 L1086,236 C1086,234.9 1086.9,234 1088,234 C1089.1,234 1090,234.9 1090,236 L1090,247 C1090,248.1 1089.1,249 1088,249 Z" id="Shape" fill="#000000"></path>
            <path d="M1096.2,237.8 C1095.1,237.8 1094.2,236.9 1094.2,235.8 L1094.2,149.1 C1094.2,148 1095.1,147.1 1096.2,147.1 C1097.3,147.1 1098.2,148 1098.2,149.1 L1098.2,235.8 C1098.2,236.9 1097.3,237.8 1096.2,237.8 Z" id="Shape" fill="#000000"></path>
            <path d="M1101.7,314 C1100.6,314 1099.7,313.1 1099.7,312 L1099.7,306.3 C1099.7,305.2 1100.6,304.3 1101.7,304.3 C1102.8,304.3 1103.7,305.2 1103.7,306.3 L1103.7,312 C1103.7,313.1 1102.8,314 1101.7,314 Z" id="Shape" fill="#000000"></path>
            <g id="Group" transform="translate(825.000000, 262.000000)">
                <path d="M19.7,2.3 C10,2.3 2.2,10.1 2.2,19.8 L2.2,66.4 L37.3,66.4 L37.3,19.8 C37.2,10.2 29.3,2.3 19.7,2.3 Z" id="Shape" fill="#FFFFFF"></path>
                <path d="M37.2,68.5 L2.1,68.5 C1,68.5 0.1,67.6 0.1,66.5 L0.1,19.9 C0.1,9.1 8.9,0.4 19.6,0.4 C30.3,0.4 39.1,9.2 39.1,19.9 L39.1,66.5 C39.2,67.6 38.3,68.5 37.2,68.5 Z M4.1,64.5 L35.2,64.5 L35.2,19.9 C35.2,11.3 28.2,4.4 19.7,4.4 C11.2,4.4 4.2,11.4 4.2,19.9 L4.2,64.5 L4.1,64.5 Z" id="Shape" fill="#000000"></path>
            </g>
            <g id="Group" transform="translate(839.000000, 271.000000)">
                <circle id="Oval" fill="#FFFFFF" cx="5.7" cy="5.3" r="3"></circle>
                <path d="M5.7,10.4 C2.9,10.4 0.7,8.1 0.7,5.4 C0.7,2.7 3,0.4 5.7,0.4 C8.4,0.4 10.7,2.7 10.7,5.4 C10.7,8.1 8.4,10.4 5.7,10.4 Z M5.7,4.3 C5.1,4.3 4.7,4.8 4.7,5.3 C4.7,5.8 5.2,6.3 5.7,6.3 C6.2,6.3 6.7,5.8 6.7,5.3 C6.7,4.8 6.2,4.3 5.7,4.3 Z" id="Shape" fill="#000000"></path>
            </g>
            <g id="Group" transform="translate(816.000000, 326.000000)">
                <rect id="Rectangle-path" fill="#FFFFFF" x="2.6" y="2.5" width="52.1" height="12.7"></rect>
                <path d="M54.7,17.2 L2.6,17.2 C1.5,17.2 0.6,16.3 0.6,15.2 L0.6,2.5 C0.6,1.4 1.5,0.5 2.6,0.5 L54.7,0.5 C55.8,0.5 56.7,1.4 56.7,2.5 L56.7,15.2 C56.7,16.3 55.8,17.2 54.7,17.2 Z M4.6,13.2 L52.7,13.2 L52.7,4.5 L4.6,4.5 L4.6,13.2 Z" id="Shape" fill="#000000"></path>
            </g>
            <g id="Group" transform="translate(519.000000, 326.000000)">
                <rect id="Rectangle-path" fill="#FFFFFF" x="2.8" y="2.5" width="166.7" height="12.7"></rect>
                <path d="M169.5,17.2 L2.8,17.2 C1.7,17.2 0.8,16.3 0.8,15.2 L0.8,2.5 C0.8,1.4 1.7,0.5 2.8,0.5 L169.5,0.5 C170.6,0.5 171.5,1.4 171.5,2.5 L171.5,15.2 C171.5,16.3 170.6,17.2 169.5,17.2 Z M4.8,13.2 L167.5,13.2 L167.5,4.5 L4.8,4.5 L4.8,13.2 Z" id="Shape" fill="#000000"></path>
            </g>
            <g id="Group" transform="translate(520.000000, 227.000000)">
                <rect id="Rectangle-path" fill="#FFFFFF" x="2.6" y="2.1" width="33.2" height="26.6"></rect>
                <path d="M35.8,30.8 L2.6,30.8 C1.5,30.8 0.6,29.9 0.6,28.8 L0.6,2.2 C0.6,1.1 1.5,0.2 2.6,0.2 L35.8,0.2 C36.9,0.2 37.8,1.1 37.8,2.2 L37.8,28.8 C37.8,29.9 36.9,30.8 35.8,30.8 Z M4.6,26.8 L33.8,26.8 L33.8,4.2 L4.6,4.2 L4.6,26.8 Z" id="Shape" fill="#000000"></path>
            </g>
            <g id="Group" transform="translate(553.000000, 227.000000)">
                <rect id="Rectangle-path" fill="#FFFFFF" x="2.8" y="2.1" width="33.2" height="26.6"></rect>
                <path d="M35.9,30.8 L2.7,30.8 C1.6,30.8 0.7,29.9 0.7,28.8 L0.7,2.2 C0.7,1.1 1.6,0.2 2.7,0.2 L35.9,0.2 C37,0.2 37.9,1.1 37.9,2.2 L37.9,28.8 C37.9,29.9 37,30.8 35.9,30.8 Z M4.8,26.8 L34,26.8 L34,4.2 L4.8,4.2 L4.8,26.8 Z" id="Shape" fill="#000000"></path>
            </g>
            <g id="Group" transform="translate(586.000000, 227.000000)">
                <rect id="Rectangle-path" fill="#FFFFFF" x="2.9" y="2.1" width="33.2" height="26.6"></rect>
                <path d="M36.1,30.8 L2.9,30.8 C1.8,30.8 0.9,29.9 0.9,28.8 L0.9,2.2 C0.9,1.1 1.8,0.2 2.9,0.2 L36.1,0.2 C37.2,0.2 38.1,1.1 38.1,2.2 L38.1,28.8 C38.1,29.9 37.2,30.8 36.1,30.8 Z M4.9,26.8 L34.1,26.8 L34.1,4.2 L4.9,4.2 L4.9,26.8 Z" id="Shape" fill="#000000"></path>
            </g>
            <g id="Group" transform="translate(620.000000, 227.000000)">
                <rect id="Rectangle-path" fill="#FFFFFF" x="2.1" y="2.1" width="33.2" height="26.6"></rect>
                <path d="M35.3,30.8 L2.1,30.8 C1,30.8 0.1,29.9 0.1,28.8 L0.1,2.2 C0.1,1.1 1,0.2 2.1,0.2 L35.3,0.2 C36.4,0.2 37.3,1.1 37.3,2.2 L37.3,28.8 C37.3,29.9 36.4,30.8 35.3,30.8 Z M4.1,26.8 L33.3,26.8 L33.3,4.2 L4.1,4.2 L4.1,26.8 Z" id="Shape" fill="#000000"></path>
            </g>
            <g id="Group" transform="translate(653.000000, 227.000000)">
                <rect id="Rectangle-path" fill="#FFFFFF" x="2.3" y="2.1" width="33.2" height="26.6"></rect>
                <path d="M35.5,30.8 L2.3,30.8 C1.2,30.8 0.3,29.9 0.3,28.8 L0.3,2.2 C0.3,1.1 1.2,0.2 2.3,0.2 L35.5,0.2 C36.6,0.2 37.5,1.1 37.5,2.2 L37.5,28.8 C37.5,29.9 36.6,30.8 35.5,30.8 Z M4.3,26.8 L33.5,26.8 L33.5,4.2 L4.3,4.2 L4.3,26.8 Z" id="Shape" fill="#000000"></path>
            </g>
            <g id="Group" transform="translate(587.000000, 301.000000)">
                <rect id="Rectangle-path" fill="#FFFFFF" x="2.4" y="2" width="31.5" height="25.4"></rect>
                <path d="M33.9,29.5 L2.4,29.5 C1.3,29.5 0.4,28.6 0.4,27.5 L0.4,2 C0.4,0.9 1.3,0 2.4,0 L33.9,0 C35,0 35.9,0.9 35.9,2 L35.9,27.4 C35.9,28.6 35,29.5 33.9,29.5 Z M4.4,25.5 L31.9,25.5 L31.9,4 L4.4,4 L4.4,25.5 Z" id="Shape" fill="#000000"></path>
            </g>
            <path d="M605.1,330.5 C604,330.5 603.1,329.6 603.1,328.5 L603.1,304.3 C603.1,303.2 604,302.3 605.1,302.3 C606.2,302.3 607.1,303.2 607.1,304.3 L607.1,328.5 C607.1,329.6 606.2,330.5 605.1,330.5 Z" id="Shape" fill="#000000"></path>
            <g id="Group" transform="translate(583.000000, 292.000000)">
                <rect id="Rectangle-path" fill="#FFFFFF" x="2.4" y="2.8" width="39.5" height="8.2"></rect>
                <path d="M41.9,13 L2.4,13 C1.3,13 0.4,12.1 0.4,11 L0.4,2.8 C0.4,1.7 1.3,0.8 2.4,0.8 L41.9,0.8 C43,0.8 43.9,1.7 43.9,2.8 L43.9,11 C43.9,12.2 43,13 41.9,13 Z M4.4,9 L39.9,9 L39.9,4.8 L4.4,4.8 L4.4,9 Z" id="Shape" fill="#000000"></path>
            </g>
            <path d="M605.7,216.1 L559.8,216.1 C558.7,216.1 557.8,215.2 557.8,214.1 C557.8,213 558.7,212.1 559.8,212.1 L605.7,212.1 C606.8,212.1 607.7,213 607.7,214.1 C607.7,215.2 606.8,216.1 605.7,216.1 Z" id="Shape" fill="#000000"></path>
            <path d="M646.3,282.2 L564,282.2 C562.9,282.2 562,281.3 562,280.2 C562,279.1 562.9,278.2 564,278.2 L646.3,278.2 C647.4,278.2 648.3,279.1 648.3,280.2 C648.3,281.3 647.4,282.2 646.3,282.2 Z" id="Shape" fill="#000000"></path>
            <path d="M620.9,204.9 L575,204.9 C573.9,204.9 573,204 573,202.9 C573,201.8 573.9,200.9 575,200.9 L620.9,200.9 C622,200.9 622.9,201.8 622.9,202.9 C622.9,204 622,204.9 620.9,204.9 Z" id="Shape" fill="#000000"></path>
            <path d="M636.8,204.9 L628.9,204.9 C627.8,204.9 626.9,204 626.9,202.9 C626.9,201.8 627.8,200.9 628.9,200.9 L636.8,200.9 C637.9,200.9 638.8,201.8 638.8,202.9 C638.8,204 637.9,204.9 636.8,204.9 Z" id="Shape" fill="#000000"></path>
            <path d="M339.6,300.3 L293.7,300.3 C292.6,300.3 291.7,299.4 291.7,298.3 C291.7,297.2 292.6,296.3 293.7,296.3 L339.6,296.3 C340.7,296.3 341.6,297.2 341.6,298.3 C341.6,299.4 340.7,300.3 339.6,300.3 Z" id="Shape" fill="#000000"></path>
            <path d="M339.6,314.6 L238.9,314.6 C237.8,314.6 236.9,313.7 236.9,312.6 C236.9,311.5 237.8,310.6 238.9,310.6 L339.6,310.6 C340.7,310.6 341.6,311.5 341.6,312.6 C341.6,313.7 340.7,314.6 339.6,314.6 Z" id="Shape" fill="#000000"></path>
            <path d="M355.5,300.3 L347.6,300.3 C346.5,300.3 345.6,299.4 345.6,298.3 C345.6,297.2 346.5,296.3 347.6,296.3 L355.5,296.3 C356.6,296.3 357.5,297.2 357.5,298.3 C357.5,299.4 356.6,300.3 355.5,300.3 Z" id="Shape" fill="#000000"></path>
            <path d="M572.4,282.2 C571.3,282.2 570.4,281.3 570.4,280.2 L570.4,268.6 C570.4,267.5 571.3,266.6 572.4,266.6 C573.5,266.6 574.4,267.5 574.4,268.6 L574.4,280.2 C574.4,281.3 573.5,282.2 572.4,282.2 Z" id="Shape" fill="#000000"></path>
            <path d="M600.6,282.2 C599.5,282.2 598.6,281.3 598.6,280.2 L598.6,268.6 C598.6,267.5 599.5,266.6 600.6,266.6 C601.7,266.6 602.6,267.5 602.6,268.6 L602.6,280.2 C602.6,281.3 601.7,282.2 600.6,282.2 Z" id="Shape" fill="#000000"></path>
            <path d="M1347.9,337.8 C1346.8,337.8 1345.9,336.9 1345.9,335.8 L1345.9,263.6 C1345.9,262.5 1346.8,261.6 1347.9,261.6 C1349,261.6 1349.9,262.5 1349.9,263.6 L1349.9,335.8 C1349.9,336.9 1349,337.8 1347.9,337.8 Z" id="Shape" fill="#000000"></path>
            <path d="M1364.8,281 C1364.3,281 1363.8,280.8 1363.4,280.4 L1347.9,264.9 L1332.4,280.4 C1331.6,281.2 1330.4,281.2 1329.6,280.4 C1328.8,279.6 1328.8,278.4 1329.6,277.6 L1346.5,260.7 C1347.3,259.9 1348.6,259.9 1349.3,260.7 L1366.2,277.6 C1367,278.4 1367,279.6 1366.2,280.4 C1365.8,280.8 1365.3,281 1364.8,281 Z" id="Shape" fill="#000000"></path>
            <path d="M1364.8,293.2 C1364.3,293.2 1363.8,293 1363.4,292.6 L1347.9,277.1 L1332.4,292.6 C1331.6,293.4 1330.4,293.4 1329.6,292.6 C1328.8,291.8 1328.8,290.6 1329.6,289.8 L1346.5,272.9 C1347.3,272.1 1348.5,272.1 1349.3,272.9 L1366.2,289.8 C1367,290.6 1367,291.8 1366.2,292.6 C1365.8,293 1365.3,293.2 1364.8,293.2 Z" id="Shape" fill="#000000"></path>
            <path d="M720.6,317.2 C719.5,317.2 718.6,316.3 718.6,315.2 L718.6,243 C718.6,241.9 719.5,241 720.6,241 C721.7,241 722.6,241.9 722.6,243 L722.6,315.2 C722.6,316.4 721.7,317.2 720.6,317.2 Z" id="Shape" fill="#000000"></path>
            <path d="M737.5,260.5 C737,260.5 736.5,260.3 736.1,259.9 L720.6,244.4 L705.1,259.9 C704.3,260.7 703.1,260.7 702.3,259.9 C701.5,259.1 701.5,257.9 702.3,257.1 L719.2,240.2 C720,239.4 721.3,239.4 722,240.2 L738.9,257.1 C739.7,257.9 739.7,259.1 738.9,259.9 C738.5,260.3 738,260.5 737.5,260.5 Z" id="Shape" fill="#000000"></path>
            <path d="M737.5,272.6 C737,272.6 736.5,272.4 736.1,272 L720.6,256.5 L705.1,272 C704.3,272.8 703.1,272.8 702.3,272 C701.5,271.2 701.5,270 702.3,269.2 L719.2,252.3 C720,251.5 721.2,251.5 722,252.3 L738.9,269.2 C739.7,270 739.7,271.2 738.9,272 C738.5,272.5 738,272.6 737.5,272.6 Z" id="Shape" fill="#000000"></path>
            <path d="M431.2,285.2 C430.1,285.2 429.2,284.3 429.2,283.2 L429.2,211 C429.2,209.9 430.1,209 431.2,209 C432.3,209 433.2,209.9 433.2,211 L433.2,283.2 C433.2,284.3 432.3,285.2 431.2,285.2 Z" id="Shape" fill="#000000"></path>
            <path d="M448.1,228.4 C447.6,228.4 447.1,228.2 446.7,227.8 L431.2,212.3 L415.7,227.8 C414.9,228.6 413.7,228.6 412.9,227.8 C412.1,227 412.1,225.8 412.9,225 L429.8,208.1 C430.6,207.3 431.8,207.3 432.6,208.1 L449.5,225 C450.3,225.8 450.3,227 449.5,227.8 C449.1,228.2 448.6,228.4 448.1,228.4 Z" id="Shape" fill="#000000"></path>
            <path d="M448.1,240.6 C447.6,240.6 447.1,240.4 446.7,240 L431.2,224.5 L415.7,240 C414.9,240.8 413.7,240.8 412.9,240 C412.1,239.2 412.1,238 412.9,237.2 L429.8,220.3 C430.2,219.9 430.7,219.7 431.2,219.7 L431.2,219.7 C431.7,219.7 432.2,219.9 432.6,220.3 L449.5,237.2 C450.3,238 450.3,239.2 449.5,240 C449.1,240.4 448.6,240.6 448.1,240.6 Z" id="Shape" fill="#000000"></path>
            <path d="M464.3,293.6 C463.2,293.6 462.3,292.7 462.3,291.6 L462.3,246.7 C462.3,245.6 463.2,244.7 464.3,244.7 C465.4,244.7 466.3,245.6 466.3,246.7 L466.3,291.6 C466.3,292.7 465.4,293.6 464.3,293.6 Z" id="Shape" fill="#000000"></path>
            <path d="M481.2,264.1 C480.7,264.1 480.2,263.9 479.8,263.5 L464.3,248 L448.8,263.5 C448,264.3 446.8,264.3 446,263.5 C445.2,262.7 445.2,261.5 446,260.7 L462.9,243.8 C463.7,243 465,243 465.7,243.8 L482.6,260.7 C483.4,261.5 483.4,262.7 482.6,263.5 C482.2,263.9 481.7,264.1 481.2,264.1 Z" id="Shape" fill="#000000"></path>
            <path d="M481.2,276.3 C480.7,276.3 480.2,276.1 479.8,275.7 L464.3,260.2 L448.8,275.7 C448,276.5 446.8,276.5 446,275.7 C445.2,274.9 445.2,273.7 446,272.9 L462.9,256 C463.7,255.2 465,255.2 465.7,256 L482.6,272.9 C483.4,273.7 483.4,274.9 482.6,275.7 C482.2,276.1 481.7,276.3 481.2,276.3 Z" id="Shape" fill="#000000"></path>
            <path d="M766.2,316.8 C765.1,316.8 764.2,315.9 764.2,314.8 L764.2,269.9 C764.2,268.8 765.1,267.9 766.2,267.9 C767.3,267.9 768.2,268.8 768.2,269.9 L768.2,314.8 C768.2,315.9 767.3,316.8 766.2,316.8 Z" id="Shape" fill="#000000"></path>
            <path d="M783.1,287.3 C782.6,287.3 782.1,287.1 781.7,286.7 L766.2,271.2 L750.7,286.7 C749.9,287.5 748.7,287.5 747.9,286.7 C747.1,285.9 747.1,284.7 747.9,283.9 L764.8,267 C765.6,266.2 766.8,266.2 767.6,267 L784.5,283.9 C785.3,284.7 785.3,285.9 784.5,286.7 C784.1,287.1 783.6,287.3 783.1,287.3 Z" id="Shape" fill="#000000"></path>
            <path d="M783.1,299.5 C782.6,299.5 782.1,299.3 781.7,298.9 L766.2,283.4 L750.7,298.9 C749.9,299.7 748.7,299.7 747.9,298.9 C747.1,298.1 747.1,296.9 747.9,296.1 L764.8,279.2 C765.6,278.4 766.8,278.4 767.6,279.2 L784.5,296.1 C785.3,296.9 785.3,298.1 784.5,298.9 C784.1,299.3 783.6,299.5 783.1,299.5 Z" id="Shape" fill="#000000"></path>
        </g>
    </g>
</svg>