<svg id="Layer_1" xmlns="http://www.w3.org/2000/svg" viewBox="0 0 400 321.8"><style>.st0{fill:#010101}.st1{fill:#fff}.st2{fill:none;stroke:#010101;stroke-width:4;stroke-linecap:round;stroke-linejoin:round;stroke-miterlimit:10}</style><path class="st0" d="M382.3 317.1h-40.7c-1 0-1.8-.8-1.8-1.8V58.6c0-1 .8-1.8 1.8-1.8h40.7c1 0 1.8.8 1.8 1.8v256.7c0 1-.8 1.8-1.8 1.8zm-38.9-3.6h37.1V60.4h-37.1v253.1z"/><path class="st0" d="M382.3 103.6h-40.7c-1 0-1.8-.8-1.8-1.8s.8-1.8 1.8-1.8h40.7c1 0 1.8.8 1.8 1.8s-.8 1.8-1.8 1.8z"/><path class="st0" d="M382.3 101.1c-.5 0-1-.2-1.3-.5L340.4 60c-.7-.7-.7-1.8 0-2.6.7-.7 1.8-.7 2.6 0L383.6 98c.7.7.7 1.8 0 2.6-.3.3-.8.5-1.3.5zM382.3 190h-40.7c-1 0-1.8-.8-1.8-1.8 0-1.1.8-1.8 1.8-1.8h40.7c1 0 1.8.8 1.8 1.8s-.8 1.8-1.8 1.8z"/><path class="st0" d="M382.3 187.5c-.5 0-1-.2-1.3-.5l-40.7-40.7c-.7-.7-.7-1.8 0-2.6.7-.7 1.8-.7 2.6 0l40.7 40.7c.7.7.7 1.8 0 2.6-.3.3-.8.5-1.3.5zM382.3 276.4h-40.7c-1 0-1.8-.8-1.8-1.8 0-1.1.8-1.8 1.8-1.8h40.7c1 0 1.8.8 1.8 1.8s-.8 1.8-1.8 1.8z"/><path class="st0" d="M382.3 273.9c-.5 0-1-.2-1.3-.5l-40.7-40.7c-.7-.7-.7-1.8 0-2.6.7-.7 1.8-.7 2.6 0l40.7 40.7c.7.7.7 1.8 0 2.6-.3.3-.8.5-1.3.5zM382.3 146.8h-40.7c-1 0-1.8-.8-1.8-1.8 0-1.1.8-1.8 1.8-1.8h40.7c1 0 1.8.8 1.8 1.8 0 1.1-.8 1.8-1.8 1.8z"/><path class="st0" d="M341.6 144.3c-.5 0-1-.2-1.3-.5-.7-.7-.7-1.8 0-2.6l40.7-40.7c.7-.7 1.8-.7 2.6 0 .7.7.7 1.8 0 2.6L343 143.8c-.5.3-1 .5-1.4.5zM382.3 233.2h-40.7c-1 0-1.8-.8-1.8-1.8s.8-1.8 1.8-1.8h40.7c1 0 1.8.8 1.8 1.8 0 .9-.8 1.8-1.8 1.8z"/><path class="st0" d="M341.6 230.7c-.5 0-1-.2-1.3-.5-.7-.7-.7-1.8 0-2.6l40.7-40.7c.7-.7 1.8-.7 2.6 0 .7.7.7 1.8 0 2.6L343 230.2c-.5.3-1 .5-1.4.5zM341.6 314.6c-.5 0-1-.2-1.3-.5-.7-.7-.7-1.8 0-2.6l40.7-40.7c.7-.7 1.8-.7 2.6 0 .7.7.7 1.8 0 2.6L343 314.1c-.5.3-1 .5-1.4.5zM341.6 103.6h-59.9c-1 0-1.8-.8-1.8-1.8s.8-1.8 1.8-1.8h59.9c1 0 1.8.8 1.8 1.8s-.8 1.8-1.8 1.8zM341.6 146.8h-59.9c-1 0-1.8-.8-1.8-1.8 0-1.1.8-1.8 1.8-1.8h59.9c1 0 1.8.8 1.8 1.8.1 1.1-.8 1.8-1.8 1.8zM341.6 190h-59.9c-1 0-1.8-.8-1.8-1.8 0-1.1.8-1.8 1.8-1.8h59.9c1 0 1.8.8 1.8 1.8.1 1-.8 1.8-1.8 1.8z"/><path class="st1" d="M241.4 220.3h-80.7V78.6c0-37.8 18.3-69.5 40.4-69.5s40.4 35.7 40.4 69.5c-.1 20.5-.1 141.7-.1 141.7z"/><path class="st0" d="M241.4 222.1h-80.7c-1 0-1.8-.8-1.8-1.8V78.6c0-18.6 4.4-36.3 12.1-49.9 8-13.9 18.6-21.5 30-21.5 11.1 0 21.8 8.2 30.1 23 7.8 13.9 12.1 31.4 12.1 48.3v141.7c0 1.1-.8 1.9-1.8 1.9zm-78.9-3.7h77.2V78.6c0-34.8-18.7-67.7-38.5-67.7-20.9 0-38.5 31.1-38.5 67.7l-.2 139.8z"/><path class="st1" d="M281.6 251.3h-32V87.5c0-19.2 9.7-28.2 16-28.2s16 9 16 28.2v163.8z"/><path class="st0" d="M281.6 253.1h-32c-1 0-1.8-.8-1.8-1.8V87.4c0-20.5 10.7-30 17.9-30s17.9 9.5 17.9 30v163.8c-.1 1-.9 1.9-2 1.9zm-30.1-3.7h28.4v-162c0-18.6-9.2-26.4-14.2-26.4s-14.2 7.8-14.2 26.4v162z"/><path class="st1" d="M152.9 251.3h-32V87.5c0-19.2 9.7-28.2 16-28.2s16 9 16 28.2v163.8z"/><path class="st0" d="M152.9 253.1h-32c-1 0-1.8-.8-1.8-1.8V87.4c0-20.5 10.7-30 17.9-30s17.9 9.5 17.9 30v163.8c-.2 1-1 1.9-2 1.9zm-30.2-3.7h28.4v-162c0-18.6-9.3-26.4-14.3-26.4s-14.2 7.8-14.2 26.4c.1 0 .1 162 .1 162zM38.9 215.9c-4.4 0-8-3.6-8-8s3.6-8 8-8 8 3.6 8 8-3.5 8-8 8zm0-12.2c-2.4 0-4.4 1.9-4.4 4.4 0 2.4 1.9 4.4 4.4 4.4s4.4-1.9 4.4-4.4c0-2.5-1.9-4.4-4.4-4.4zM254.8 35.3c-4.9 0-8.7-3.9-8.7-8.7s3.9-8.7 8.7-8.7 8.7 3.9 8.7 8.7-4 8.7-8.7 8.7zm0-13.9c-2.8 0-5 2.2-5 5s2.2 5 5 5 5-2.2 5-5c0-2.6-2.3-5-5-5z"/><circle class="st0" cx="75.1" cy="237.1" r="3.6"/><circle class="st0" cx="266" cy="8.7" r="4"/><path class="st0" d="M241.4 99.6h-80.7c-1 0-1.8-.8-1.8-1.8s.8-1.8 1.8-1.8h80.7c1 0 1.8.8 1.8 1.8 0 .9-.8 1.8-1.8 1.8zM241.4 89.3h-80.7c-1 0-1.8-.8-1.8-1.8s.8-1.8 1.8-1.8h80.7c1 0 1.8.8 1.8 1.8s-.8 1.8-1.8 1.8z"/><path class="st1" d="M223.1 219.3H179V106.2c0-20.7 13.4-38 22.1-38s22.1 19.5 22.1 38c-.1 11.2-.1 113.1-.1 113.1z"/><path class="st0" d="M223.1 221.2H179c-1 0-1.8-.8-1.8-1.8V106.3c0-9.8 2.9-19.6 8.1-27.8C189.9 71 196 66.4 201 66.4s10.9 4.9 15.8 12.9c5.1 8.3 8.1 18.1 8.1 26.9v113.1c0 1-.8 1.9-1.8 1.9zm-42.4-3.7h40.6V106.3c0-18-13-36.2-20.3-36.2-7.7 0-20.3 16.9-20.3 36.2v111.2z"/><path class="st1" d="M192.4 110.7c0-4.8 3.9-8.7 8.7-8.7 4.9 0 8.7 3.9 8.7 8.7"/><path class="st0" d="M209.7 112.6c-1 0-1.8-.8-1.8-1.8 0-3.8-3.1-6.9-6.9-6.9s-6.9 3.1-6.9 6.9c0 1-.8 1.8-1.8 1.8s-1.8-.8-1.8-1.8c0-5.8 4.8-10.5 10.5-10.5 5.8 0 10.5 4.8 10.5 10.5 0 1-.8 1.8-1.8 1.8z"/><path class="st1" d="M223.1 146.7v65.9h28.2V205c0-17.4-21.4-11.5-21.4-34.3 0-23.7-6.8-24-6.8-24z"/><path class="st0" d="M251.4 214.5h-28.2c-1 0-1.8-.8-1.8-1.8v-65.9c0-.5.2-1 .6-1.4.4-.4.9-.5 1.4-.5 1.5.1 8.5 1.6 8.5 25.8 0 11.2 5.3 14.7 11 18.3 5.1 3.4 10.5 6.9 10.5 15.9v7.6c-.2 1.1-1.1 2-2 2zm-26.5-3.7h24.7v-5.7c0-7.1-3.9-9.7-8.8-12.9-5.9-3.9-12.6-8.2-12.6-21.4 0-11.7-1.6-17.4-3.1-20l-.2 60z"/><path class="st0" d="M229.8 214.5c-1 0-1.8-.8-1.8-1.8v-12.4c0-1 .8-1.8 1.8-1.8s1.8.8 1.8 1.8v12.4c0 .9-.8 1.8-1.8 1.8zM236 214.5c-1 0-1.8-.8-1.8-1.8v-7.6c0-1 .8-1.8 1.8-1.8s1.8.8 1.8 1.8v7.6c.1.9-.8 1.8-1.8 1.8z"/><g><path class="st1" d="M178.3 146.7v65.9H150V205c0-17.4 21.4-11.5 21.4-34.3.1-23.7 6.9-24 6.9-24z"/><path class="st0" d="M178.3 214.5H150c-1 0-1.8-.8-1.8-1.8v-7.6c0-9.1 5.3-12.6 10.5-15.9 5.6-3.7 11-7.2 11-18.3 0-24.3 7.1-25.8 8.5-25.8.5 0 1 .2 1.4.5.4.4.6.8.6 1.4v65.9c-.1.7-.9 1.6-1.9 1.6zm-26.5-3.7h24.7v-60c-1.5 2.6-3.1 8.2-3.1 20 0 13.1-6.7 17.5-12.6 21.4-4.9 3.2-8.8 5.7-8.8 12.9l-.2 5.7z"/></g><g><path class="st0" d="M171.6 214.5c-1 0-1.8-.8-1.8-1.8v-12.4c0-1 .8-1.8 1.8-1.8s1.8.8 1.8 1.8v12.4c0 .9-.8 1.8-1.8 1.8z"/></g><g><path class="st0" d="M165.4 214.5c-1 0-1.8-.8-1.8-1.8v-7.6c0-1 .8-1.8 1.8-1.8s1.8.8 1.8 1.8v7.6c0 .9-.8 1.8-1.8 1.8z"/></g><g><path class="st0" d="M280.7 140h-30c-1 0-1.8-.8-1.8-1.8 0-1.1.8-1.8 1.8-1.8h30c1 0 1.8.8 1.8 1.8 0 1.1-.9 1.8-1.8 1.8z"/></g><g><path class="st0" d="M280.7 132.9h-30c-1 0-1.8-.8-1.8-1.8s.8-1.8 1.8-1.8h30c1 0 1.8.8 1.8 1.8s-.9 1.8-1.8 1.8z"/></g><g><path class="st0" d="M151.9 140h-30c-1 0-1.8-.8-1.8-1.8 0-1.1.8-1.8 1.8-1.8h30c1 0 1.8.8 1.8 1.8 0 1.1-.8 1.8-1.8 1.8z"/></g><g><path class="st0" d="M151.9 132.9h-30c-1 0-1.8-.8-1.8-1.8s.8-1.8 1.8-1.8h30c1 0 1.8.8 1.8 1.8s-.8 1.8-1.8 1.8z"/></g><g><path class="st1" d="M358.3 279.5c-8.9 0-17 3.3-23.3 8.6-4-9.5-13.4-16.1-24.3-16.1 0-20.6-16.7-37.3-37.3-37.3-14.3 0-26.6 8-32.9 19.7-3.1-3.5-7.7-5.6-12.7-5.6-5.3 0-10.2 2.4-13.3 6.3v-32h-27.1v31.2c-3.1-3.5-7.7-5.7-12.8-5.7-5.8 0-11.1 2.9-14.2 7.4-5.9-12.6-18.8-21.4-33.8-21.4-20.6 0-37.3 16.7-37.3 37.3-10.6 0-19.7 6.2-23.9 15.1-6.1-4.8-13.8-7.7-22.1-7.7-19.8 0-35.8 16-35.8 35.8h386.4c.2-19.6-15.8-35.6-35.6-35.6z"/><path class="st0" d="M394.1 317.1H7.8c-1 0-1.8-.8-1.8-1.8 0-20.8 16.9-37.6 37.6-37.6 7.8 0 15.1 2.3 21.4 6.8 4.7-8.2 13.3-13.6 22.7-14.2 1-20.8 18.1-37.4 39.1-37.4 14.1 0 27.2 7.8 34.1 20 3.6-3.8 8.5-5.9 13.8-5.9 4 0 7.8 1.3 11 3.5v-27.4c0-1 .8-1.8 1.8-1.8h27.2c1 0 1.8.8 1.8 1.8v27.6c3.3-2.5 7.3-3.9 11.5-3.9 4.6 0 8.9 1.6 12.3 4.6 7.1-11.5 19.6-18.5 33.3-18.5 21 0 38.1 16.6 39.1 37.4 9.9.6 18.6 6.3 23.2 15 6.5-4.9 14.5-7.6 22.6-7.6 20.8 0 37.6 16.9 37.6 37.6-.1 1-1 1.8-2 1.8zM9.6 313.5h382.7c-1-17.9-15.8-32.1-33.9-32.1-8.1 0-15.9 2.9-22.1 8.2-.5.4-1.1.5-1.6.4-.6-.1-1.1-.5-1.3-1.1-3.9-9.1-12.7-15-22.6-15-1 0-1.8-.8-1.8-1.8 0-19.6-15.9-35.4-35.4-35.4-13.1 0-25 7.2-31.2 18.7-.3.5-.8.9-1.4 1-.6.1-1.2-.1-1.6-.6-2.9-3.2-7.1-5-11.4-5-4.7 0-8.9 2-11.9 5.6-.5.6-1.3.8-2 .6-.7-.3-1.2-1-1.2-1.7V225h-23.5v29.5c0 .8-.5 1.5-1.2 1.7s-1.5.1-2-.5c-2.9-3.2-7.1-5.1-11.5-5.1-5 0-9.8 2.4-12.6 6.6-.4.6-1 .8-1.6.8-.7-.1-1.3-.5-1.5-1.1-5.8-12.4-18.4-20.4-32.1-20.4-19.6 0-35.4 15.9-35.4 35.4 0 1-.8 1.8-1.8 1.8-9.5 0-18.2 5.5-22.2 14.2-.2.5-.7.9-1.3 1-.6.1-1.1 0-1.6-.4-6-4.8-13.3-7.3-21-7.3-18.2.1-33 14.3-34 32.3z"/></g><g><path class="st0" d="M196.5 262.4c-1 0-1.8-.8-1.8-1.8v-29.3c0-1 .8-1.8 1.8-1.8 1.1 0 1.8.8 1.8 1.8v29.3c0 .9-.8 1.8-1.8 1.8z"/></g><g><path class="st0" d="M206 277.1c-1 0-1.8-.8-1.8-1.8v-44c0-1 .8-1.8 1.8-1.8s1.8.8 1.8 1.8v44c.1 1-.8 1.8-1.8 1.8z"/></g><g><path class="st0" d="M299 273c-1 0-1.8-.8-1.8-1.8 0-13.1-10.7-23.9-23.9-23.9s-23.9 10.7-23.9 23.9c0 1-.8 1.8-1.8 1.8s-1.8-.8-1.8-1.8c0-15.1 12.3-27.5 27.5-27.5 15.1 0 27.5 12.3 27.5 27.5 0 1-.8 1.8-1.8 1.8z"/></g><g><path class="st0" d="M152.9 273c-1 0-1.8-.8-1.8-1.8 0-13.1-10.7-23.9-23.9-23.9-13.1 0-23.9 10.7-23.9 23.9 0 1-.8 1.8-1.8 1.8s-1.8-.8-1.8-1.8c0-15.1 12.3-27.5 27.5-27.5 15.1 0 27.5 12.3 27.5 27.5 0 1-.8 1.8-1.8 1.8z"/></g><g><path class="st0" d="M176.3 290.5c-1 0-1.8-.8-1.8-1.8 0-8.6-7-15.6-15.6-15.6s-15.6 7-15.6 15.6c0 1-.8 1.8-1.8 1.8-1.1 0-1.8-.8-1.8-1.8 0-10.7 8.6-19.3 19.3-19.3s19.3 8.6 19.3 19.3c-.1 1-.9 1.8-2 1.8z"/></g><g><path class="st0" d="M258.9 290.5c-1 0-1.8-.8-1.8-1.8 0-8.6-7-15.6-15.6-15.6s-15.6 7-15.6 15.6c0 1-.8 1.8-1.8 1.8-1.1 0-1.8-.8-1.8-1.8 0-10.7 8.6-19.3 19.3-19.3s19.3 8.6 19.3 19.3c-.2 1-1 1.8-2 1.8z"/></g><g><path class="st1" d="M221.6 230.3h-41.2l4.1-11h33z"/><path class="st0" d="M221.6 232h-41.1c-.6 0-1.2-.3-1.5-.8-.4-.5-.4-1.2-.2-1.6l4.1-11c.3-.7 1-1.2 1.7-1.2h32.9c.8 0 1.5.5 1.7 1.2l4.1 11c.2.6.1 1.2-.2 1.6-.4.5-.9.8-1.5.8zm-38.6-3.6h36l-2.7-7.3h-30.4l-2.9 7.3z"/></g><g><path class="st0" d="M66.8 198c-.5 0-1-.2-1.3-.5l-5.1-5.1c-.4-.4-.5-.8-.5-1.3s.2-1 .5-1.3l5.1-5.1c.7-.7 1.8-.7 2.6 0l5.1 5.1c.4.4.5.8.5 1.3s-.2 1-.5 1.3l-5.1 5.1c-.3.3-.8.5-1.3.5zm-2.5-7l2.6 2.6 2.6-2.6-2.6-2.6-2.6 2.6z"/></g><g><path class="st0" d="M207.6 231.1c-1 0-1.8-.8-1.8-1.8v-8.9c0-1 .8-1.8 1.8-1.8 1.1 0 1.8.8 1.8 1.8v8.9c0 .9-.8 1.8-1.8 1.8z"/></g><g><path class="st0" d="M193.5 231.4c-1 0-1.8-.8-1.8-1.8v-10.1c0-1 .8-1.8 1.8-1.8 1.1 0 1.8.8 1.8 1.8v10.1c.1.9-.8 1.8-1.8 1.8z"/></g><g><path class="st0" d="M201 221.2c-1 0-1.8-.8-1.8-1.8v-79c0-1 .8-1.8 1.8-1.8 1.1 0 1.8.8 1.8 1.8v79c0 .9-.7 1.8-1.8 1.8z"/></g><g><path class="st0" d="M206 290.5c-1 0-1.8-.8-1.8-1.8v-5.2c0-1 .8-1.8 1.8-1.8s1.8.8 1.8 1.8v5.2c.1 1-.8 1.8-1.8 1.8z"/></g></svg>