<?xml version="1.0" encoding="UTF-8"?>
<svg width="302px" height="59px" viewBox="0 0 302 59" version="1.1" xmlns="http://www.w3.org/2000/svg" xmlns:xlink="http://www.w3.org/1999/xlink">
    <!-- Generator: Sketch 49 (51002) - http://www.bohemiancoding.com/sketch -->
    <title>treebox-white-logo</title>
    <desc>Created with Sketch.</desc>
    <defs></defs>
    <g id="Page-1" stroke="none" stroke-width="1" fill="none" fill-rule="evenodd">
        <g id="treebox-white-logo" fill="#FFFFFF" fill-rule="nonzero">
            <path d="M90.37,27.52 L81.44,27.52 L81.44,42.31 C81.44,43.23 81.4633333,44.1366667 81.51,45.03 C81.5408446,45.8575888 81.7168536,46.6733227 82.03,47.44 C82.3144616,48.1344435 82.7937214,48.7317818 83.41,49.16 C84.233767,49.6466722 85.1853042,49.8732287 86.14,49.81 C86.9046455,49.8061204 87.6675103,49.7358565 88.42,49.6 C89.1752834,49.473134 89.9027736,49.2159746 90.57,48.84 L90.57,54.48 C89.6745245,54.9411286 88.7014999,55.232697 87.7,55.34 C86.795953,55.4773344 85.8841418,55.5574937 84.97,55.58 C83.0615271,55.6733156 81.1568258,55.3313585 79.4,54.58 C78.2038417,54.0190455 77.1963645,53.1227382 76.5,52 C75.8679603,50.9187247 75.4885051,49.7085701 75.39,48.46 C75.2766667,47.1266667 75.22,45.7933333 75.22,44.46 L75.22,27.46 L68,27.46 L68,22.15 L75.2,22.15 L75.2,13 L81.43,13 L81.43,22.15 L90.36,22.15 L90.36,27.52 L90.37,27.52 Z" id="Shape"></path>
            <path d="M98.4,22.15 L104.63,22.15 L104.63,27.15 L104.77,27.15 C105.189566,26.2742805 105.750393,25.4735808 106.43,24.78 C107.118905,24.088269 107.895522,23.4898367 108.74,23 C109.620142,22.4857976 110.560652,22.082722 111.54,21.8 C112.513731,21.5090805 113.523767,21.3575752 114.54,21.35 C115.47931,21.3377734 116.414507,21.4761961 117.31,21.76 L117.03,28.43 C116.52,28.29 116.03,28.18 115.51,28.09 C115.008521,27.9981085 114.499827,27.9512552 113.99,27.95 C110.943333,27.95 108.61,28.8 106.99,30.5 C105.37,32.2 104.563333,34.8366667 104.57,38.41 L104.57,54.78 L98.4,54.78 L98.4,22.15 Z" id="Shape"></path>
            <path d="M125.94,40.73 C125.921234,42.0838792 126.240907,43.4210075 126.87,44.62 C127.47915,45.775761 128.315954,46.7962536 129.33,47.62 C130.382708,48.4678713 131.57805,49.1214155 132.86,49.55 C134.1954,50.0089321 135.597942,50.2421259 137.01,50.24 C138.786664,50.2839552 140.538857,49.8190167 142.06,48.9 C143.55854,47.9440022 144.88964,46.74804 146,45.36 L150.71,48.94 C147.25,53.3866667 142.406667,55.61 136.18,55.61 C133.783099,55.6393465 131.404079,55.1941299 129.18,54.3 C127.167134,53.4888219 125.350149,52.2581813 123.85,50.69 C122.375391,49.1212059 121.232575,47.2709328 120.49,45.25 C119.688972,43.0802026 119.289136,40.7828405 119.31,38.47 C119.288038,36.1479386 119.722957,33.8442256 120.59,31.69 C121.401512,29.6642635 122.600594,27.8163865 124.12,26.25 C125.644499,24.6969903 127.467844,23.4689537 129.48,22.64 C131.629552,21.7539783 133.935103,21.3085103 136.26,21.33 C138.800833,21.2513958 141.324802,21.7685182 143.63,22.84 C145.554777,23.7920016 147.245152,25.1579615 148.58,26.84 C149.870065,28.4687191 150.822001,30.3385925 151.38,32.34 C151.95295,34.3669963 152.242367,36.463586 152.24,38.57 L152.24,40.77 L125.94,40.77 L125.94,40.73 Z M145.59,35.73 C145.558191,34.4442895 145.335769,33.170416 144.93,31.95 C144.560968,30.8372959 143.96123,29.8150145 143.17,28.95 C142.349364,28.0748181 141.345414,27.3918589 140.23,26.95 C138.916564,26.444329 137.51709,26.1997607 136.11,26.23 C134.667654,26.2111141 133.238294,26.5044911 131.92,27.09 C130.711854,27.6213113 129.618304,28.3820418 128.7,29.33 C127.856887,30.2231221 127.179638,31.2593125 126.7,32.39 C126.229732,33.4413396 125.981228,34.5783313 125.97,35.73 L145.62,35.73 L145.59,35.73 Z" id="Shape"></path>
            <path d="M163,40.73 C162.981656,42.0838323 163.301305,43.4208581 163.93,44.62 C164.538919,45.7759146 165.375758,46.7964504 166.39,47.62 C167.442469,48.468228 168.637879,49.1218088 169.92,49.55 C171.255354,50.0091137 172.657927,50.2423125 174.07,50.24 C175.846598,50.2833972 177.598638,49.8184996 179.12,48.9 C180.61832,47.9437125 181.949375,46.7477901 183.06,45.36 L187.77,48.94 C184.31,53.3866667 179.466667,55.61 173.24,55.61 C170.843099,55.6393465 168.464079,55.1941299 166.24,54.3 C164.227134,53.4888219 162.410149,52.2581813 160.91,50.69 C159.435391,49.1212059 158.292575,47.2709328 157.55,45.25 C156.748972,43.0802026 156.349136,40.7828405 156.37,38.47 C156.348558,36.1479849 156.783459,33.8443724 157.65,31.69 C158.462425,29.6647368 159.661398,27.8170272 161.18,26.25 C162.704676,24.6972039 164.527975,23.4691986 166.54,22.64 C168.689473,21.7537168 170.995079,21.3082384 173.32,21.33 C175.860865,21.2510241 178.384918,21.7681638 180.69,22.84 C182.614956,23.7917216 184.305388,25.1577274 185.64,26.84 C186.93052,28.4684273 187.882504,30.3383965 188.44,32.34 C189.016204,34.3665479 189.308985,36.4631288 189.31,38.57 L189.31,40.77 L163,40.77 L163,40.73 Z M182.65,35.73 C182.616523,34.4616083 182.397534,33.2049501 182,32 C181.630419,30.8875447 181.030745,29.8653723 180.24,29 C179.41958,28.1245656 178.415569,27.4415652 177.3,27 C175.986564,26.494329 174.58709,26.2497607 173.18,26.28 C171.737654,26.2611141 170.308294,26.5544911 168.99,27.14 C167.781854,27.6713113 166.688304,28.4320418 165.77,29.38 C164.926718,30.2729893 164.249449,31.3092116 163.77,32.44 C163.299732,33.4913396 163.051228,34.6283313 163.04,35.78 L182.69,35.78 L182.65,35.73 Z" id="Shape"></path>
            <path d="M194,2.75 L200.23,2.75 L200.23,26.83 L200.37,26.83 C201.55613,25.078166 203.208279,23.6927165 205.14,22.83 C207.21422,21.8446182 209.483646,21.3387823 211.78,21.35 C214.138224,21.3180629 216.478524,21.7636722 218.66,22.66 C220.671946,23.4691626 222.491295,24.6922832 224,26.25 C225.474609,27.8187941 226.617425,29.6690672 227.36,31.69 C228.159953,33.8600866 228.559755,36.1572504 228.54,38.47 C228.561143,40.7698406 228.161222,43.0541343 227.36,45.21 C226.606354,47.2255281 225.46482,49.0737259 224,50.65 C222.525291,52.2258494 220.732294,53.4700393 218.74,54.3 C216.558524,55.1963278 214.218224,55.6419371 211.86,55.61 C209.624234,55.6066001 207.416162,55.1151591 205.39,54.17 C203.398209,53.2973395 201.685488,51.8925621 200.44,50.11 L200.3,50.11 L200.3,54.79 L194,54.79 L194,2.79 L194,2.75 Z M211,49.81 C212.542987,49.8336084 214.074458,49.5409272 215.5,48.95 C216.780145,48.4137079 217.934634,47.6168039 218.89,46.61 C219.839556,45.5747543 220.567759,44.3565457 221.03,43.03 C222.04562,40.0645479 222.04562,36.8454521 221.03,33.88 C220.567503,32.5535737 219.83933,31.3354142 218.89,30.3 C217.945437,29.3132645 216.808734,28.5305049 215.55,28 C212.659633,26.8530041 209.440367,26.8530041 206.55,28 C205.269005,28.534736 204.114213,29.3318492 203.16,30.34 C202.207446,31.3613556 201.472553,32.5657625 201,33.88 C199.98438,36.8454521 199.98438,40.0645479 201,43.03 C201.461471,44.3569052 202.189763,45.5752621 203.14,46.61 C204.094019,47.6183768 205.248862,48.4155253 206.53,48.95 C207.961743,49.5436182 209.500298,49.8363522 211.05,49.81 L211,49.81 Z" id="Shape"></path>
            <path d="M231.95,38.46 C231.931928,36.1670419 232.391694,33.8954602 233.3,31.79 C236.081818,25.3803054 242.402676,21.2330867 249.39,21.2330867 C256.377324,21.2330867 262.698182,25.3803054 265.48,31.79 C266.388306,33.8954602 266.848072,36.1670419 266.83,38.46 C266.852122,43.021991 265.031118,47.3996122 261.78,50.6 C254.877228,57.2868987 243.912772,57.2868987 237.01,50.6 C233.755209,47.4012818 231.930512,43.0234505 231.95,38.46 Z M238.59,38.46 C238.572649,40.0194331 238.829906,41.5697499 239.35,43.04 C239.811471,44.3669052 240.539763,45.5852621 241.49,46.62 C242.444019,47.6283768 243.598862,48.4255253 244.88,48.96 C247.770173,50.1080083 250.989827,50.1080083 253.88,48.96 C255.160145,48.4237079 256.314634,47.6268039 257.27,46.62 C258.219556,45.5847543 258.947759,44.3665457 259.41,43.04 C260.42562,40.0745479 260.42562,36.8554521 259.41,33.89 C258.947503,32.5635737 258.21933,31.3454142 257.27,30.31 C256.311774,29.3140078 255.157491,28.5274607 253.88,28 C250.989633,26.8530041 247.770367,26.8530041 244.88,28 C243.599005,28.534736 242.444213,29.3318492 241.49,30.34 C240.53999,31.3749075 239.811728,32.5932149 239.35,33.92 C238.834518,35.3776063 238.577328,36.9139803 238.59,38.46 Z" id="Shape"></path>
            <polygon id="Shape" points="279.49 37.36 267.86 22.15 275.86 22.15 283.86 33.71 291.68 22.15 299.22 22.15 288 37.36 301.29 54.77 293.29 54.77 283.6 41.08 273.91 54.77 266.2 54.77"></polygon>
            <path d="M29.91,58.39 C28.8054305,58.39 27.91,57.4945695 27.91,56.39 L27.91,12.12 C27.91,11.0154305 28.8054305,10.12 29.91,10.12 C31.0145695,10.12 31.91,11.0154305 31.91,12.12 L31.91,56.38 C31.9126609,56.9121635 31.7031224,57.4234441 31.3277609,57.8006825 C30.9523993,58.1779208 30.4421701,58.3900067 29.91,58.39 Z" id="Shape"></path>
            <path d="M46.79,28.1 C46.313311,28.1000367 45.8522837,27.9298112 45.49,27.62 L29.91,14.21 L14.33,27.62 C13.491886,28.2025475 12.3495717,28.0605205 11.6796297,27.2904722 C11.0096877,26.5204239 11.0270874,25.3694456 11.72,24.62 L28.6,10.06 C29.3501199,9.41410326 30.4598801,9.41410326 31.21,10.06 L48.09,24.59 C48.7185422,25.1358676 48.9432206,26.0139964 48.6540854,26.7946613 C48.3649503,27.5753261 47.6224748,28.0952498 46.79,28.1 Z" id="Shape"></path>
            <path d="M46.79,40 C46.313311,40.0000367 45.8522837,39.8298112 45.49,39.52 L29.91,26.15 L14.33,39.55 C13.491886,40.1325475 12.3495717,39.9905205 11.6796297,39.2204722 C11.0096877,38.4504239 11.0270874,37.2994456 11.72,36.55 L28.6,22 C29.3501199,21.3541033 30.4598801,21.3541033 31.21,22 L48.09,36.53 C48.6883978,37.0814215 48.893052,37.9404171 48.6075753,38.7024202 C48.3220987,39.4644232 47.6034121,39.9774986 46.79,40 Z" id="Shape"></path>
            <path d="M51.06,58.39 L8.75,58.39 C4.331722,58.39 0.75,54.808278 0.75,50.39 L0.75,8.07 C0.75,3.651722 4.331722,0.07 8.75,0.07 L51.06,0.07 C55.478278,0.07 59.06,3.651722 59.06,8.07 L59.06,50.38 C59.0626543,52.503464 58.2209715,54.5408653 56.7203927,56.0433198 C55.2198139,57.5457744 53.1834657,58.3900017 51.06,58.39 Z M8.75,4.07 C6.540861,4.07 4.75,5.860861 4.75,8.07 L4.75,50.38 C4.75,52.589139 6.540861,54.38 8.75,54.38 L51.06,54.38 C53.269139,54.38 55.06,52.589139 55.06,50.38 L55.06,8.07 C55.06,5.860861 53.269139,4.07 51.06,4.07 L8.75,4.07 Z" id="Shape"></path>
        </g>
    </g>
</svg>