<svg id="Layer_1" xmlns="http://www.w3.org/2000/svg" viewBox="0 0 400 61"><style>.st0{fill:#010101}</style><path class="st0" d="M397 56.7H4c-1.1 0-2-.9-2-2s.9-2 2-2h393c1.1 0 2 .9 2 2s-.9 2-2 2z"/><path class="st0" d="M229.6 56.4c-1.1 0-2-.9-2-2V9.5c0-1.1.9-2 2-2s2 .9 2 2v44.9c0 1.1-.9 2-2 2z"/><path class="st0" d="M246.5 27c-.5 0-1-.2-1.4-.6l-15.5-15.5-15.5 15.5c-.8.8-2 .8-2.8 0s-.8-2 0-2.8l16.9-16.9c.8-.8 2-.8 2.8 0l16.9 16.9c.8.8.8 2 0 2.8-.4.4-.9.6-1.4.6z"/><path class="st0" d="M246.5 39.1c-.5 0-1-.2-1.4-.6L229.6 23l-15.5 15.5c-.8.8-2 .8-2.8 0s-.8-2 0-2.8l16.9-16.9c.8-.8 2-.8 2.8 0l16.9 16.9c.8.8.8 2 0 2.8-.4.4-.9.6-1.4.6zM297.7 56.4c-1.1 0-2-.9-2-2V9.5c0-1.1.9-2 2-2s2 .9 2 2v44.9c0 1.1-.9 2-2 2z"/><path class="st0" d="M314.6 27c-.5 0-1-.2-1.4-.6l-15.5-15.5-15.5 15.5c-.8.8-2 .8-2.8 0s-.8-2 0-2.8l16.9-16.9c.8-.8 2-.8 2.8 0L316 23.5c.8.8.8 2 0 2.8-.4.5-.9.7-1.4.7z"/><path class="st0" d="M314.6 39.1c-.5 0-1-.2-1.4-.6L297.7 23l-15.5 15.5c-.8.8-2 .8-2.8 0s-.8-2 0-2.8l16.9-16.9c.8-.8 2-.8 2.8 0L316 35.7c.8.8.8 2 0 2.8-.4.4-.9.6-1.4.6z"/><g><path class="st0" d="M365.8 56.4c-1.1 0-2-.9-2-2V9.5c0-1.1.9-2 2-2s2 .9 2 2v44.9c0 1.1-.9 2-2 2z"/><path class="st0" d="M382.7 27c-.5 0-1-.2-1.4-.6l-15.5-15.5-15.5 15.5c-.8.8-2 .8-2.8 0s-.8-2 0-2.8l16.9-16.9c.4-.4.9-.6 1.4-.6.5 0 1 .2 1.4.6l16.9 16.9c.8.8.8 2 0 2.8-.4.4-.9.6-1.4.6z"/><path class="st0" d="M382.7 39.1c-.5 0-1-.2-1.4-.6L365.8 23l-15.5 15.5c-.8.8-2 .8-2.8 0s-.8-2 0-2.8l16.9-16.9c.8-.8 2-.8 2.8 0l16.9 16.9c.8.8.8 2 0 2.8-.4.4-.9.6-1.4.6z"/></g><g><path class="st0" d="M25.2 56.4c-1.1 0-2-.9-2-2V9.5c0-1.1.9-2 2-2s2 .9 2 2v44.9c0 1.1-.9 2-2 2z"/><path class="st0" d="M42.1 27c-.5 0-1-.2-1.4-.6L25.2 10.9 9.7 26.4c-.8.8-2 .8-2.8 0s-.8-2 0-2.8l16.9-17c.8-.8 2-.8 2.8 0l16.9 16.9c.8.8.8 2 0 2.8-.4.5-.9.7-1.4.7z"/><path class="st0" d="M42.1 39.1c-.5 0-1-.2-1.4-.6L25.2 23 9.7 38.5c-.8.8-2 .8-2.8 0s-.8-2 0-2.8l16.9-16.9c.8-.8 2-.8 2.8 0l16.9 16.9c.8.8.8 2 0 2.8-.4.4-.9.6-1.4.6z"/></g><g><path class="st0" d="M93.3 56.4c-1.1 0-2-.9-2-2V9.5c0-1.1.9-2 2-2s2 .9 2 2v44.9c0 1.1-.9 2-2 2z"/><path class="st0" d="M110.2 27c-.5 0-1-.2-1.4-.6L93.3 10.9 77.8 26.4c-.8.8-2 .8-2.8 0s-.8-2 0-2.8l16.9-17c.4-.3.9-.6 1.4-.6.5 0 1 .2 1.4.6l16.9 16.9c.8.8.8 2 0 2.8-.3.5-.9.7-1.4.7z"/><path class="st0" d="M110.2 39.1c-.5 0-1-.2-1.4-.6L93.3 23 77.8 38.5c-.8.8-2 .8-2.8 0s-.8-2 0-2.8l16.9-16.9c.8-.8 2-.8 2.8 0l16.9 16.9c.8.8.8 2 0 2.8-.3.4-.9.6-1.4.6z"/></g><g><path class="st0" d="M161.4 56.4c-1.1 0-2-.9-2-2V9.5c0-1.1.9-2 2-2s2 .9 2 2v44.9c0 1.1-.9 2-2 2z"/><path class="st0" d="M144.5 27c-.5 0-1-.2-1.4-.6-.8-.8-.8-2 0-2.8l16.9-17c.8-.8 2.1-.8 2.8 0l16.9 16.9c.8.8.8 2 0 2.8s-2 .8-2.8 0l-15.5-15.5-15.5 15.5c-.3.5-.9.7-1.4.7z"/><path class="st0" d="M178.4 39.1c-.5 0-1-.2-1.4-.6L161.4 23l-15.5 15.5c-.8.8-2 .8-2.8 0s-.8-2 0-2.8L160 18.8c.8-.8 2-.8 2.8 0l16.9 16.9c.8.8.8 2 0 2.8-.3.4-.8.6-1.3.6z"/></g></svg>