<?xml version="1.0" encoding="UTF-8"?>
<svg width="145px" height="28px" viewBox="0 0 145 28" version="1.1" xmlns="http://www.w3.org/2000/svg" xmlns:xlink="http://www.w3.org/1999/xlink">
    <!-- Generator: Sketch 46.2 (44496) - http://www.bohemiancoding.com/sketch -->
    <title>treebox-logo-white</title>
    <desc>Created with Sketch.</desc>
    <defs></defs>
    <g id="Page-1" stroke="none" stroke-width="1" fill="none" fill-rule="evenodd">
        <g id="treebox-logo-line-white" fill-rule="nonzero" fill="#FFFFFF">
            <path d="M43.3554817,13.1932203 L39.0536545,13.1932203 L39.0536545,20.2122034 C39.0536545,20.6488136 39.0648948,21.079096 39.0873754,21.5030508 C39.1022341,21.8958049 39.1870225,22.2829328 39.3378738,22.6467797 C39.4749068,22.9763461 39.7057794,23.2598286 40.0026578,23.4630508 C40.3994891,23.6940139 40.8578708,23.8015323 41.3177741,23.7715254 C41.6861249,23.7696842 42.0536179,23.7363387 42.416113,23.6718644 C42.7799538,23.6116568 43.1304059,23.4896151 43.4518272,23.3111864 L43.4518272,25.9877966 C43.020452,26.2066373 42.5517192,26.3450087 42.0692691,26.3959322 C41.6337647,26.4611079 41.1945201,26.4991495 40.7541528,26.5098305 C39.8347888,26.5541159 38.9172417,26.3918311 38.0709302,26.0352542 C37.4929337,25.7698017 37.0058512,25.3443662 36.669103,24.8108475 C36.3646321,24.2976998 36.181838,23.7233892 36.1343854,23.1308475 C36.0797896,22.4980791 36.0524917,21.8653107 36.0524917,21.2325424 L36.0524917,13.1647458 L32.5840532,13.1647458 L32.5840532,10.6447458 L36.0524917,10.6447458 L36.0524917,6.30237288 L39.0536545,6.30237288 L39.0536545,10.6447458 L43.3554817,10.6447458 L43.3554817,13.1932203 Z" id="Shape"></path>
            <path d="M47.2430233,10.6447458 L50.244186,10.6447458 L50.244186,13.0176271 L50.3116279,13.0176271 C50.5137442,12.6020314 50.7839103,12.2220384 51.1112957,11.8928814 C51.443451,11.5575822 51.8192607,11.2671426 52.2289037,11.0291525 C52.6528924,10.7851243 53.1059619,10.5938342 53.5777409,10.459661 C54.0468141,10.3215975 54.5333761,10.2496967 55.0229236,10.2461017 C55.4770277,10.2397904 55.9292055,10.3054885 56.3621262,10.440678 L56.2272425,13.6061017 C55.9815615,13.539661 55.745515,13.4874576 55.4950166,13.4447458 C55.2534402,13.4011363 55.0083886,13.3789008 54.7627907,13.3783051 C53.2951274,13.3783051 52.1710963,13.7816949 51.3906977,14.5884746 C50.610299,15.3952542 50.2217054,16.6465537 50.2249169,18.3423729 L50.2249169,26.1016949 L47.2237542,26.1016949 L47.2237542,10.6447458 L47.2430233,10.6447458 Z" id="Shape"></path>
            <path d="M60.5098007,19.4576271 C60.5007604,20.1001461 60.6547559,20.7347154 60.9578073,21.3037288 C61.2512517,21.8522255 61.6543633,22.3365271 62.1428571,22.7274576 C62.6499756,23.1298372 63.225805,23.4399938 63.8433555,23.6433898 C64.4866546,23.8611881 65.1622976,23.9718563 65.8425249,23.9708475 C66.6983929,23.9917075 67.5424728,23.7710588 68.2752492,23.3349153 C68.9971374,22.8812214 69.6383646,22.3136461 70.1732558,21.6549153 L72.4421927,23.3538983 C70.7754153,25.4641808 68.4422481,26.519322 65.442691,26.519322 C64.2880376,26.5332492 63.1419983,26.32196 62.070598,25.8976271 C61.0992314,25.5194157 60.2206908,24.9418774 59.4933555,24.2033898 C58.7829956,23.4588774 58.2324697,22.5807816 57.8747508,21.6216949 C57.493128,20.5847794 57.307016,19.4879008 57.3255814,18.3850847 C57.3129298,17.2904109 57.5174807,16.2038457 57.9277409,15.1864407 C58.3186687,14.2250742 58.8962996,13.3481156 59.6282392,12.6047458 C60.3626324,11.8677242 61.240988,11.2849272 62.210299,10.8915254 C63.2457972,10.4710405 64.3564451,10.259632 65.476412,10.2698305 C66.7004015,10.2325268 67.9162665,10.4779408 69.0267442,10.9864407 C69.9539622,11.4382381 70.7682626,12.0864902 71.4112957,12.8847458 C72.0327558,13.6576972 72.4913294,14.5450947 72.7601329,15.4949153 C73.0361386,16.4568796 73.1755587,17.4518713 73.1744186,18.4515254 L73.1744186,19.4576271 L60.5098007,19.4576271 Z M69.9757475,17.0847458 C69.9604242,16.4745781 69.8532772,15.8700279 69.6578073,15.2908475 C69.4799021,14.7628436 69.191007,14.277719 68.8099668,13.8671186 C68.4146437,13.4517781 67.9310133,13.1276618 67.3936877,12.9179661 C66.7609694,12.6779866 66.0868042,12.5619203 65.4089701,12.5762712 C64.7141522,12.5673084 64.02559,12.7065381 63.3905316,12.9844068 C62.8085345,13.2365545 62.2817413,13.5975791 61.8393688,14.0474576 C61.4332179,14.4713122 61.1069686,14.9630636 60.8759136,15.499661 C60.6493726,15.9986018 60.5296613,16.5381911 60.5242525,17.0847458 L69.9901993,17.0847458 L69.9757475,17.0847458 Z" id="Shape"></path>
            <path d="M78.3770764,19.4576271 C78.3682398,20.1001238 78.5222235,20.7346445 78.8250831,21.3037288 C79.118416,21.8522984 79.5215446,22.3366205 80.0101329,22.7274576 C80.5171364,23.1300065 81.0929981,23.4401804 81.7106312,23.6433898 C82.3539082,23.8612743 83.029566,23.9719449 83.7098007,23.9708475 C84.565637,23.9914427 85.4096428,23.7708134 86.1425249,23.3349153 C86.8643071,22.8810839 87.5055129,22.3135275 88.0405316,21.6549153 L90.3094684,23.3538983 C88.642691,25.4641808 86.3095238,26.519322 83.3099668,26.519322 C82.1553134,26.5332492 81.0092741,26.32196 79.9378738,25.8976271 C78.9682206,25.5126613 78.092929,24.9286284 77.3702658,24.1844068 C76.6599059,23.4398943 76.10938,22.5617986 75.7516611,21.6027119 C75.3657839,20.5729775 75.1731719,19.482704 75.1832226,18.3850847 C75.1738819,17.2898041 75.3817009,16.2032636 75.7950166,15.1864407 C76.1863841,14.2252988 76.7639627,13.3484197 77.495515,12.6047458 C78.2299937,11.8678256 79.1083269,11.2850434 80.0775748,10.8915254 C81.110517,10.4666627 82.2195262,10.2504129 83.3388704,10.2555932 C84.5628753,10.2181131 85.7787813,10.4635354 86.8892027,10.9722034 C87.8165071,11.4238679 88.6308349,12.0721418 89.2737542,12.8705085 C89.8954333,13.6433215 90.3540304,14.5307644 90.6225914,15.480678 C90.9001647,16.4424295 91.0412053,17.4374171 91.0416944,18.4372881 L91.0416944,19.4576271 L78.3770764,19.4576271 Z M87.8430233,17.0847458 C87.8276999,16.4745781 87.7205529,15.8700279 87.5250831,15.2908475 C87.3470458,14.7629026 87.0581661,14.2778038 86.6772425,13.8671186 C86.2820235,13.4516582 85.7983639,13.1275225 85.2609635,12.9179661 C84.6282452,12.6779866 83.9540799,12.5619203 83.2762458,12.5762712 C82.5814279,12.5673084 81.8928658,12.7065381 81.2578073,12.9844068 C80.6758102,13.2365545 80.149017,13.5975791 79.7066445,14.0474576 C79.3004126,14.4712492 78.9741532,14.9630157 78.7431894,15.499661 C78.5166483,15.9986018 78.396937,16.5381911 78.3915282,17.0847458 L87.8574751,17.0847458 L87.8430233,17.0847458 Z" id="Shape"></path>
            <path d="M93.3106312,1.42372881 L96.311794,1.42372881 L96.311794,12.8657627 L96.3792359,12.8657627 C96.9506275,12.0343839 97.746513,11.3768824 98.6770764,10.9674576 C99.6762855,10.4998188 100.769531,10.2597611 101.875748,10.2650847 C103.011769,10.2499281 104.139156,10.4614038 105.190033,10.8867797 C106.146313,11.2782154 107.009289,11.8616938 107.72392,12.6 C108.438286,13.3450584 108.992156,14.2248751 109.352159,15.1864407 C109.737519,16.2163123 109.930114,17.3064917 109.920598,18.4040678 C109.930783,19.4955176 109.73813,20.5795892 109.352159,21.6027119 C108.989107,22.5592337 108.439199,23.4363445 107.733555,24.1844068 C107.023147,24.9322675 106.159411,25.5227305 105.199668,25.9166102 C104.148791,26.3419861 103.021404,26.5534617 101.885382,26.5383051 C100.808352,26.5366916 99.744663,26.3034653 98.7686047,25.8549153 C97.809104,25.4407713 96.984039,24.7740973 96.3840532,23.9281356 L96.3166113,23.9281356 L96.3166113,26.1016949 L93.3106312,26.1016949 L93.3106312,1.42372881 Z M101.5,23.7572881 C102.243299,23.7684921 102.981051,23.6295926 103.667774,23.3491525 C104.284455,23.094641 104.840604,22.7164493 105.300831,22.2386441 C105.758258,21.747341 106.109053,21.1692081 106.331728,20.539661 C106.82098,19.1323278 106.82098,17.6046213 106.331728,16.1972881 C106.10893,15.5677977 105.758149,14.9896881 105.300831,14.4983051 C104.840604,14.0204998 104.284455,13.6423081 103.667774,13.3877966 C102.275405,12.8434596 100.724595,12.8434596 99.3322259,13.3877966 C98.7151354,13.6415696 98.1588401,14.0198606 97.6991694,14.4983051 C97.2415236,14.9894476 96.8906997,15.5676274 96.6682724,16.1972881 C96.1790202,17.6046213 96.1790202,19.1323278 96.6682724,20.539661 C96.8905759,21.1693787 97.241414,21.747582 97.6991694,22.2386441 C98.1587468,22.7171958 98.7150667,23.0955035 99.3322259,23.3491525 C100.022379,23.6363882 100.76529,23.7801796 101.514452,23.7715254 L101.5,23.7572881 Z" id="Shape"></path>
            <path d="M111.577741,18.3850847 C111.573594,17.2958922 111.800006,16.217812 112.242525,15.219661 C113.582603,12.177772 116.627535,10.2096005 119.993522,10.2096005 C123.359508,10.2096005 126.40444,12.177772 127.744518,15.219661 C128.182075,16.2188625 128.403556,17.2969012 128.39485,18.3850847 C128.405507,20.5500974 127.528279,22.6276126 125.962126,24.1464407 C122.63687,27.3198841 117.35499,27.3198841 114.029734,24.1464407 C112.456502,22.6307861 111.572156,20.552871 111.577741,18.3850847 Z M114.776412,18.3850847 C114.768053,19.1251547 114.891981,19.8608983 115.142525,20.5586441 C115.364828,21.1883618 115.715666,21.7665651 116.173422,22.2576271 C116.632999,22.7361788 117.189319,23.1144866 117.806478,23.3681356 C119.198754,23.9129531 120.749751,23.9129531 122.142027,23.3681356 C122.758707,23.1136241 123.314857,22.7354324 123.775083,22.2576271 C124.23251,21.7663241 124.583306,21.1881912 124.80598,20.5586441 C125.295232,19.1513109 125.295232,17.6236044 124.80598,16.2162712 C124.591791,15.5891297 124.250948,15.0111952 123.803987,14.5172881 C123.34376,14.0394829 122.787611,13.6612912 122.17093,13.4067797 C120.778561,12.8624426 119.227751,12.8624426 117.835382,13.4067797 C117.218292,13.6605527 116.661996,14.0388437 116.202326,14.5172881 C115.731406,15.0035974 115.367346,15.5803546 115.13289,16.2115254 C114.887261,16.9101398 114.768229,17.6458597 114.781229,18.3850847 L114.776412,18.3850847 Z" id="Shape"></path>
            <polygon id="Shape" points="134.47907 17.8630508 128.881395 10.6447458 132.735216 10.6447458 136.589037 16.1308475 140.356146 10.6447458 143.988372 10.6447458 138.578571 17.8630508 145 26.1016949 141.146179 26.1016949 136.478239 19.6047458 131.781395 26.1016949 128.081728 26.1016949"></polygon>
            <path d="M24.4428571,0.166101695 L4.06096346,0.166101695 C1.93255711,0.166101695 0.207142857,1.86590197 0.207142857,3.96271186 L0.207142857,24.0420339 C0.207142857,26.1388438 1.93255711,27.8386441 4.06096346,27.8386441 L24.4428571,27.8386441 C26.5712635,27.8386441 28.2966777,26.1388438 28.2966777,24.0420339 L28.2966777,3.96271186 C28.2966777,2.95578824 27.8906514,1.99010559 27.1679198,1.27810307 C26.4451883,0.566100546 25.4649539,0.166101695 24.4428571,0.166101695 Z M26.3697674,24.0420339 C26.3697674,25.0904388 25.5070603,25.940339 24.4428571,25.940339 L15.2129568,25.940339 L15.2129568,13.359322 L21.7548173,18.9023729 C22.1585599,19.1788361 22.7088442,19.1114334 23.0315737,18.7459868 C23.3543033,18.3805401 23.3459214,17.8343132 23.0121262,17.4786441 L15.2129568,10.8535593 L15.2129568,7.69288136 L21.7548173,13.240678 C22.1585599,13.5171412 22.7088442,13.4497385 23.0315737,13.0842919 C23.3543033,12.7188452 23.3459214,12.1726183 23.0121262,11.8169492 L14.8805648,4.90711864 C14.5192113,4.60059138 13.9846093,4.60059138 13.6232558,4.90711864 L5.49169435,11.7979661 C5.15789922,12.1536352 5.14951732,12.6998622 5.47224687,13.0653088 C5.79497641,13.4307555 6.34526071,13.4981582 6.74900332,13.2216949 L13.2860465,7.69288136 L13.2860465,10.8535593 L5.49169435,17.4644068 C5.15789922,17.8200759 5.14951732,18.3663029 5.47224687,18.7317495 C5.79497641,19.0971961 6.34526071,19.1645988 6.74900332,18.8881356 L13.2860465,13.359322 L13.2860465,25.9450847 L4.06096346,25.9450847 C2.99676028,25.9450847 2.13405316,25.0951846 2.13405316,24.0467797 L2.13405316,3.96271186 C2.13405316,2.91430692 2.99676028,2.06440678 4.06096346,2.06440678 L24.4428571,2.06440678 C25.5070603,2.06440678 26.3697674,2.91430692 26.3697674,3.96271186 L26.3697674,24.0420339 L26.3697674,24.0420339 Z" id="Shape"></path>
        </g>
    </g>
</svg>