<?xml version="1.0" encoding="UTF-8"?>
<svg width="200px" height="39px" viewBox="0 0 200 39" version="1.1" xmlns="http://www.w3.org/2000/svg" xmlns:xlink="http://www.w3.org/1999/xlink">
    <!-- Generator: Sketch 49 (51002) - http://www.bohemiancoding.com/sketch -->
    <title>treebox-logo-black</title>
    <desc>Created with Sketch.</desc>
    <defs></defs>
    <g id="Page-1" stroke="none" stroke-width="1" fill="none" fill-rule="evenodd">
        <g id="treebox-logo-line-black" fill="#000000" fill-rule="nonzero">
            <path d="M59.8006645,18.3762712 L53.8671096,18.3762712 L53.8671096,28.1527119 C53.8671096,28.7608475 53.8826135,29.3601695 53.9136213,29.950678 C53.934116,30.4977282 54.0510655,31.0369422 54.2591362,31.5437288 C54.4481472,32.0027678 54.7665923,32.3976185 55.1760797,32.680678 C55.7234332,33.0023765 56.3556839,33.1521342 56.9900332,33.110339 C57.4981033,33.1077745 58.0049902,33.0613289 58.5049834,32.9715254 C59.0068328,32.8876648 59.490215,32.7176782 59.9335548,32.4691525 L59.9335548,36.1972881 C59.3385545,36.502102 58.6920265,36.6948336 58.0265781,36.7657627 C57.4258824,36.8565431 56.8200278,36.9095297 56.2126246,36.9244068 C54.9445363,36.98609 53.678954,36.7600505 52.5116279,36.2633898 C51.7143913,35.8936523 51.0425534,35.3010815 50.5780731,34.5579661 C50.1581132,33.8432248 49.9059834,33.0432921 49.8405316,32.2179661 C49.765227,31.3366102 49.7275748,30.4552542 49.7275748,29.5738983 L49.7275748,18.3366102 L44.9435216,18.3366102 L44.9435216,14.8266102 L49.7275748,14.8266102 L49.7275748,8.77830508 L53.8671096,8.77830508 L53.8671096,14.8266102 L59.8006645,14.8266102 L59.8006645,18.3762712 Z" id="Shape"></path>
            <path d="M65.1627907,14.8266102 L69.3023256,14.8266102 L69.3023256,18.1316949 L69.3953488,18.1316949 C69.6741299,17.5528295 70.0467728,17.0235534 70.4983389,16.5650847 C70.9564842,16.098061 71.4748424,15.69352 72.0398671,15.3620339 C72.6246792,15.0221374 73.2496026,14.7556976 73.9003322,14.5688136 C74.5473299,14.3765109 75.2184498,14.2763633 75.8936877,14.2713559 C76.5200382,14.2625651 77.1437317,14.3540732 77.7408638,14.5423729 L77.5548173,18.9513559 C77.2159468,18.8588136 76.8903654,18.7861017 76.5448505,18.7266102 C76.2116417,18.6658684 75.8736394,18.6348975 75.5348837,18.6340678 C73.5105205,18.6340678 71.9601329,19.1959322 70.8837209,20.319661 C69.807309,21.4433898 69.2713178,23.1862712 69.2757475,25.5483051 L69.2757475,36.3559322 L65.1362126,36.3559322 L65.1362126,14.8266102 L65.1627907,14.8266102 Z" id="Shape"></path>
            <path d="M83.461794,27.1016949 C83.4493247,27.996632 83.6617322,28.8804965 84.0797342,29.6730508 C84.4844852,30.4370284 85.040501,31.1115913 85.7142857,31.6561017 C86.4137594,32.216559 87.2080069,32.6485628 88.0598007,32.9318644 C88.9471097,33.2352263 89.8790312,33.3893713 90.8172757,33.3879661 C91.9977834,33.4170212 93.1620314,33.109689 94.1727575,32.5022034 C95.1684654,31.8702727 96.0529167,31.0797213 96.7906977,30.1622034 L99.9202658,32.5286441 C97.6212625,35.4679661 94.4031008,36.9376271 90.2657807,36.9376271 C88.6731553,36.9570256 87.0924115,36.66273 85.6146179,36.0716949 C84.274802,35.5449004 83.0630218,34.7404721 82.0598007,33.7118644 C81.0799939,32.6748649 80.3206479,31.451803 79.8272425,30.1159322 C79.3008663,28.6716571 79.04416,27.1438619 79.0697674,25.6077966 C79.052317,24.0830723 79.3344562,22.5696423 79.9003322,21.1525424 C80.4395431,19.8134962 81.2362753,18.5920182 82.2458472,17.5566102 C83.2588032,16.5300444 84.4703282,15.7182914 85.807309,15.170339 C87.2355824,14.5846636 88.7675105,14.2902017 90.3122924,14.3044068 C92.0005538,14.2524481 93.677609,14.5942747 95.2093023,15.3025424 C96.4882238,15.9318316 97.6113967,16.8347542 98.4983389,17.9466102 C99.3555252,19.0232211 99.9880406,20.2592391 100.358804,21.5822034 C100.739502,22.9220823 100.931805,24.3079637 100.930233,25.700339 L100.930233,27.1016949 L83.461794,27.1016949 Z M96.5182724,23.7966102 C96.4971368,22.9467338 96.3493479,22.1046817 96.0797342,21.2979661 C95.8343478,20.5625322 95.4358718,19.8868229 94.910299,19.3149153 C94.3650258,18.7364052 93.6979493,18.2849576 92.9568106,17.9928814 C92.0840958,17.6586242 91.1542127,17.4969605 90.2192691,17.5169492 C89.2608995,17.5044652 88.3111587,17.6983924 87.4352159,18.0854237 C86.6324614,18.4366295 85.90585,18.9394852 85.2956811,19.5661017 C84.735473,20.1564705 84.2854739,20.84141 83.9667774,21.5888136 C83.654307,22.2837668 83.4891879,23.0353377 83.4817276,23.7966102 L96.538206,23.7966102 L96.5182724,23.7966102 Z" id="Shape"></path>
            <path d="M108.106312,27.1016949 C108.094124,27.996601 108.306515,28.8803977 108.724252,29.6730508 C109.12885,30.43713 109.684889,31.1117215 110.358804,31.6561017 C111.058119,32.2167948 111.852411,32.6488228 112.704319,32.9318644 C113.591597,33.2353463 114.523539,33.3894947 115.461794,33.3879661 C116.642258,33.4166524 117.806404,33.1093472 118.817276,32.5022034 C119.812837,31.8700811 120.697259,31.0795562 121.435216,30.1622034 L124.564784,32.5286441 C122.265781,35.4679661 119.047619,36.9376271 114.910299,36.9376271 C113.317674,36.9570256 111.73693,36.66273 110.259136,36.0716949 C108.921684,35.5354925 107.714385,34.7220181 106.717608,33.6854237 C105.737801,32.6484243 104.978455,31.4253623 104.48505,30.0894915 C103.952805,28.6552187 103.687134,27.1366234 103.700997,25.6077966 C103.688113,24.0822272 103.97476,22.5688314 104.54485,21.1525424 C105.084668,19.8138091 105.881328,18.5924417 106.890365,17.5566102 C107.90344,16.5301856 109.114934,15.7184533 110.451827,15.170339 C111.876575,14.578566 113.406243,14.2773608 114.950166,14.2845763 C116.638449,14.2323718 118.31556,14.57421 119.847176,15.2827119 C121.126217,15.9118159 122.249427,16.8147689 123.136213,17.9267797 C123.993701,19.0031977 124.626249,20.239279 124.996678,21.5623729 C125.379537,22.9019554 125.574076,24.2878309 125.574751,25.6805085 L125.574751,27.1016949 L108.106312,27.1016949 Z M121.162791,23.7966102 C121.141655,22.9467338 120.993866,22.1046817 120.724252,21.2979661 C120.478684,20.5626143 120.080229,19.886941 119.554817,19.3149153 C119.009688,18.7362383 118.342571,18.2847635 117.601329,17.9928814 C116.728614,17.6586242 115.798731,17.4969605 114.863787,17.5169492 C113.905418,17.5044652 112.955677,17.6983924 112.079734,18.0854237 C111.27698,18.4366295 110.550368,18.9394852 109.940199,19.5661017 C109.379879,20.1563828 108.929866,20.8413433 108.611296,21.5888136 C108.298825,22.2837668 108.133706,23.0353377 108.126246,23.7966102 L121.182724,23.7966102 L121.162791,23.7966102 Z" id="Shape"></path>
            <path d="M128.704319,1.98305085 L132.843854,1.98305085 L132.843854,17.9201695 L132.936877,17.9201695 C133.725003,16.7621775 134.822777,15.8463719 136.106312,15.2761017 C137.484532,14.6247476 138.992456,14.2903815 140.518272,14.2977966 C142.085199,14.2766856 143.640215,14.571241 145.089701,15.1637288 C146.408707,15.7089429 147.599019,16.521645 148.584718,17.55 C149.57005,18.5877599 150.334008,19.8132189 150.830565,21.1525424 C151.362095,22.5870064 151.627744,24.1054706 151.614618,25.6342373 C151.628666,27.1544709 151.362938,28.6644278 150.830565,30.0894915 C150.329803,31.4217898 149.571309,32.6434798 148.598007,33.6854237 C147.618133,34.7270869 146.426773,35.5495175 145.10299,36.0981356 C143.653504,36.6906234 142.098488,36.9851788 140.531561,36.9640678 C139.046003,36.9618204 137.578845,36.6369696 136.232558,36.0122034 C134.909109,35.43536 133.771088,34.5067783 132.943522,33.3284746 L132.850498,33.3284746 L132.850498,36.3559322 L128.704319,36.3559322 L128.704319,1.98305085 Z M140,33.0905085 C141.02524,33.106114 142.042829,32.9126468 142.990033,32.5220339 C143.840628,32.1675357 144.60773,31.6407687 145.242525,30.9752542 C145.873459,30.2909393 146.357315,29.4856828 146.664452,28.6088136 C147.339282,26.6485995 147.339282,24.5207226 146.664452,22.5605085 C146.357145,21.6837182 145.873309,20.8784941 145.242525,20.1940678 C144.60773,19.5285533 143.840628,19.0017863 142.990033,18.6472881 C141.069524,17.8891044 138.930476,17.8891044 137.009967,18.6472881 C136.158807,19.0007577 135.391504,19.527663 134.757475,20.1940678 C134.126239,20.8781592 133.642344,21.683481 133.335548,22.5605085 C132.660718,24.5207226 132.660718,26.6485995 133.335548,28.6088136 C133.642174,29.4859204 134.126088,30.291275 134.757475,30.9752542 C135.391375,31.6418084 136.158713,32.1687371 137.009967,32.5220339 C137.961902,32.9221121 138.986606,33.1223929 140.019934,33.110339 L140,33.0905085 Z" id="Shape"></path>
            <path d="M153.900332,25.6077966 C153.894613,24.0907069 154.206905,22.5890953 154.817276,21.1988136 C156.66566,16.9618968 160.865565,14.2205149 165.508306,14.2205149 C170.151046,14.2205149 174.350951,16.9618968 176.199336,21.1988136 C176.802861,22.5905585 177.108353,24.0921124 177.096346,25.6077966 C177.111044,28.62335 175.901075,31.5170318 173.740864,33.6325424 C169.154304,38.0526958 161.868952,38.0526958 157.282392,33.6325424 C155.112417,31.5214521 153.892629,28.6272131 153.900332,25.6077966 Z M158.312292,25.6077966 C158.300763,26.6386083 158.471699,27.663394 158.817276,28.6352542 C159.123901,29.5123611 159.607816,30.3177156 160.239203,31.0016949 C160.873102,31.6682491 161.64044,32.1951777 162.491694,32.5484746 C164.412075,33.3073275 166.55138,33.3073275 168.471761,32.5484746 C169.322355,32.1939764 170.089458,31.6672094 170.724252,31.0016949 C171.355187,30.31738 171.839043,29.5121234 172.146179,28.6352542 C172.82101,26.6750401 172.82101,24.5471633 172.146179,22.5869492 C171.850746,21.7134307 171.380618,20.9084504 170.76412,20.2205085 C170.129325,19.554994 169.362222,19.028227 168.511628,18.6737288 C166.591118,17.9155451 164.452071,17.9155451 162.531561,18.6737288 C161.680402,19.0271984 160.913098,19.5541037 160.27907,20.2205085 C159.629526,20.8978678 159.127374,21.7012081 158.803987,22.580339 C158.465188,23.553409 158.301005,24.5781618 158.318937,25.6077966 L158.312292,25.6077966 Z" id="Shape"></path>
            <polygon id="Shape" points="185.488372 24.880678 177.767442 14.8266102 183.083056 14.8266102 188.398671 22.4679661 193.594684 14.8266102 198.604651 14.8266102 191.142857 24.880678 200 36.3559322 194.684385 36.3559322 188.245847 27.3066102 181.767442 36.3559322 176.664452 36.3559322"></polygon>
            <path d="M33.7142857,0.231355932 L5.6013289,0.231355932 C2.66559601,0.231355932 0.285714286,2.59893488 0.285714286,5.51949153 L0.285714286,33.4871186 C0.285714286,36.4076753 2.66559601,38.7752542 5.6013289,38.7752542 L33.7142857,38.7752542 C36.6500186,38.7752542 39.0299003,36.4076753 39.0299003,33.4871186 L39.0299003,5.51949153 C39.0299003,4.11699077 38.469864,2.77193279 37.4729929,1.78021499 C36.4761217,0.78849719 35.1240744,0.231355932 33.7142857,0.231355932 Z M36.372093,33.4871186 C36.372093,34.947397 35.1821522,36.1311864 33.7142857,36.1311864 L20.9833887,36.1311864 L20.9833887,18.6076271 L30.0066445,26.3283051 C30.5635309,26.7133789 31.3225437,26.6194966 31.7676879,26.1104816 C32.2128321,25.6014666 32.2012709,24.8406505 31.7408638,24.3452542 L20.9833887,15.1174576 L20.9833887,10.7150847 L30.0066445,18.4423729 C30.5635309,18.8274467 31.3225437,18.7335644 31.7676879,18.2245494 C32.2128321,17.7155344 32.2012709,16.9547183 31.7408638,16.459322 L20.5249169,6.83491525 C20.0264984,6.40796656 19.2891162,6.40796656 18.7906977,6.83491525 L7.57475083,16.4328814 C7.11434376,16.9282776 7.10278251,17.6890937 7.54792671,18.1981087 C7.99307091,18.7071237 8.75208373,18.801006 9.3089701,18.4159322 L18.3255814,10.7150847 L18.3255814,15.1174576 L7.57475083,24.3254237 C7.11434376,24.82082 7.10278251,25.5816361 7.54792671,26.0906511 C7.99307091,26.5996661 8.75208373,26.6935484 9.3089701,26.3084746 L18.3255814,18.6076271 L18.3255814,36.1377966 L5.6013289,36.1377966 C4.13346246,36.1377966 2.94352159,34.9540071 2.94352159,33.4937288 L2.94352159,5.51949153 C2.94352159,4.0592132 4.13346246,2.87542373 5.6013289,2.87542373 L33.7142857,2.87542373 C35.1821522,2.87542373 36.372093,4.0592132 36.372093,5.51949153 L36.372093,33.4871186 Z" id="Shape"></path>
        </g>
    </g>
</svg>