<?xml version="1.0" encoding="UTF-8"?>
<svg width="284px" height="231px" viewBox="0 0 284 231" version="1.1" xmlns="http://www.w3.org/2000/svg" xmlns:xlink="http://www.w3.org/1999/xlink">
    <!-- Generator: Sketch 43.2 (39069) - http://www.bohemiancoding.com/sketch -->
    <title>comet</title>
    <desc>Created with Sketch.</desc>
    <defs></defs>
    <g id="Page-1" stroke="none" stroke-width="1" fill="none" fill-rule="evenodd">
        <g id="comet" fill-rule="nonzero" fill="#000000">
            <g id="Group">
                <path d="M257.1,113.7 C247.2,113.7 239.2,121.7 239.2,131.6 C239.2,141.5 247.2,149.5 257.1,149.5 C267,149.5 275,141.5 275,131.6 C275,121.7 266.9,113.7 257.1,113.7 Z M251.8,134.7 L268.5,134.7 C268.3,135.4 268.1,136.1 267.8,136.7 L258.1,136.7 L258.1,136.7 C257,136.7 256.1,137.6 256.1,138.7 C256.1,139.8 257,140.7 258.1,140.7 L264.7,140.7 C262.6,142.4 260,143.5 257.1,143.5 C250.5,143.5 245.2,138.2 245.2,131.6 C245.2,125 250.5,119.7 257.1,119.7 C260.8,119.7 264.1,121.4 266.3,124.1 L258.1,124.1 L258.1,124.1 C257,124.1 256.1,125 256.1,126.1 C256.1,127.2 257,128.1 258.1,128.1 L268.4,128.1 C268.7,128.9 268.8,129.8 268.9,130.7 L251.8,130.7 L251.8,130.7 C250.7,130.7 249.8,131.6 249.8,132.7 C249.8,133.8 250.7,134.7 251.8,134.7 Z" id="Shape"></path>
                <path d="M255.1,102.7 L149.7,102.7 C142.2,102.7 134.2,107.3 134.2,117.4 C134.2,129.1 143.6,132.2 149.2,132.2 L193.8,132.2 C195.3,132.2 198.8,132.6 198.8,136 C198.8,139.6 195.8,140.1 193.9,140.1 L167.8,140.1 C162,140.1 155.2,142.8 155.2,150.3 C155.2,158.4 162.4,160.5 166.2,160.5 L255,160.5 C271,160.5 284,147.5 284,131.5 C284,115.5 271.1,102.7 255.1,102.7 Z M255.1,155.6 L166.3,155.6 C165.3,155.6 160.3,155.3 160.3,150.4 C160.3,145.6 166.1,145.2 167.9,145.2 L194,145.2 C198.9,145.2 203.9,142.4 203.9,136.1 C203.9,130 198.9,127.3 193.9,127.3 L149.3,127.3 C147.6,127.3 139.3,126.8 139.3,117.5 C139.3,108.1 148.7,107.8 149.8,107.8 L255.2,107.8 C268.4,107.8 279.2,118.5 279.2,131.8 C279.1,144.8 268.3,155.6 255.1,155.6 Z" id="Shape"></path>
                <path d="M149.2,146.5 L114.1,146.5 L114.1,146.5 C112.7,146.5 111.6,147.6 111.6,149 C111.6,150.4 112.7,151.5 114.1,151.5 L149.2,151.5 L149.2,151.5 C150.6,151.5 151.7,150.4 151.7,149 C151.7,147.6 150.6,146.5 149.2,146.5 Z" id="Shape"></path>
                <path d="M100.8,119.6 C100.8,121 101.9,122.1 103.3,122.1 L125.7,122.1 L125.7,122.1 C127.1,122.1 128.2,121 128.2,119.6 C128.2,118.2 127.1,117.1 125.7,117.1 L103.3,117.1 L103.3,117.1 C102,117.1 100.8,118.2 100.8,119.6 Z" id="Shape"></path>
                <path d="M133.4,136.4 C134.8,136.4 135.9,135.3 135.9,133.9 C135.9,132.5 134.8,131.4 133.4,131.4 L83.5,131.4 L83.5,131.4 C82.1,131.4 81,132.5 81,133.9 C81,135.3 82.1,136.4 83.5,136.4 L133.4,136.4 L133.4,136.4 Z" id="Shape"></path>
                <path d="M102.6,151.5 C104,151.5 105.1,150.4 105.1,149 C105.1,147.6 104,146.5 102.6,146.5 L91.4,146.5 L91.4,146.5 C90,146.5 88.9,147.6 88.9,149 C88.9,150.4 90,151.5 91.4,151.5 L102.6,151.5 L102.6,151.5 Z" id="Shape"></path>
                <circle id="Oval" transform="translate(128.804040, 103.904161) rotate(-2.188073) translate(-128.804040, -103.904161) " cx="128.80404" cy="103.904161" r="1.30003788"></circle>
                <circle id="Oval" transform="translate(216.907898, 129.602338) rotate(-2.188021) translate(-216.907898, -129.602338) " cx="216.907898" cy="129.602338" r="1.30003783"></circle>
                <circle id="Oval" transform="translate(235.907090, 121.703227) rotate(-2.188073) translate(-235.907090, -121.703227) " cx="235.90709" cy="121.703227" r="1.30003788"></circle>
                <circle id="Oval" transform="translate(2.202026, 130.804233) rotate(-2.188073) translate(-2.202026, -130.804233) " cx="2.20202622" cy="130.804233" r="1.30003788"></circle>
                <circle id="Oval" cx="120.5" cy="101.3" r="2.2"></circle>
                <circle id="Oval" cx="257.1" cy="228.1" r="2.2"></circle>
                <circle id="Oval" cx="229.3" cy="117.8" r="2.2"></circle>
                <circle id="Oval" cx="161.5" cy="168" r="2.2"></circle>
                <circle id="Oval" cx="8.6" cy="127.1" r="2.2"></circle>
                <circle id="Oval" transform="translate(103.702753, 207.706820) rotate(-2.187983) translate(-103.702753, -207.706820) " cx="103.702753" cy="207.70682" r="1.40004071"></circle>
                <circle id="Oval" transform="translate(196.704581, 72.000565) rotate(-2.188029) translate(-196.704581, -72.000565) " cx="196.704581" cy="72.0005651" r="1.40004075"></circle>
                <path d="M92.5,61.2 L93.4,61.5 C94.3,61.8 95.2,62.7 95.5,63.5 L95.8,64.6 C96,65.1 96.3,65.4 96.7,65.4 C97.1,65.4 97.4,65.1 97.6,64.6 L97.9,63.5 C98.2,62.6 99.1,61.7 100,61.5 L100.9,61.2 C101.4,61 101.7,60.7 101.7,60.3 C101.7,59.9 101.4,59.6 100.9,59.4 L100,59.1 C99.1,58.8 98.2,57.9 97.9,57.1 L97.6,56 C97.4,55.5 97.1,55.2 96.7,55.2 C96.3,55.2 96,55.5 95.8,56 L95.5,57.1 C95.2,58 94.3,58.9 93.4,59.1 L92.5,59.4 C92,59.6 91.7,59.9 91.7,60.3 C91.7,60.7 92,61.1 92.5,61.2 Z" id="Shape"></path>
                <path d="M234.4,183.2 L233.8,183 C233.2,182.8 232.6,182.2 232.4,181.7 L232.2,181 C232.1,180.7 231.9,180.5 231.6,180.5 C231.4,180.5 231.2,180.7 231,181 L230.8,181.7 C230.6,182.3 230,182.9 229.4,183 L228.8,183.2 C228.5,183.3 228.3,183.5 228.3,183.8 C228.3,184.1 228.5,184.3 228.8,184.4 L229.4,184.6 C230,184.8 230.6,185.4 230.8,185.9 L231,186.6 C231.1,186.9 231.3,187.1 231.6,187.1 C231.8,187.1 232,186.9 232.2,186.6 L232.4,185.9 C232.6,185.3 233.2,184.7 233.8,184.6 L234.4,184.4 C234.7,184.3 234.9,184.1 234.9,183.8 C234.9,183.5 234.7,183.3 234.4,183.2 Z" id="Shape"></path>
                <path d="M236.8,145.9 L236.2,145.7 C235.6,145.5 235,144.9 234.8,144.4 L234.6,143.7 C234.5,143.4 234.3,143.2 234,143.2 C233.8,143.2 233.6,143.4 233.4,143.7 L233.2,144.4 C233,145 232.4,145.6 231.8,145.7 L231.2,145.9 C230.9,146 230.7,146.2 230.7,146.5 C230.7,146.8 230.9,147 231.2,147.1 L231.8,147.3 C232.4,147.5 233,148.1 233.2,148.6 L233.4,149.3 C233.5,149.6 233.7,149.8 234,149.8 C234.2,149.8 234.4,149.6 234.6,149.3 L234.8,148.6 C235,148 235.6,147.4 236.2,147.3 L236.8,147.1 C237.1,147 237.3,146.8 237.3,146.5 C237.3,146.2 237.1,146 236.8,145.9 Z" id="Shape"></path>
                <path d="M128.9,196.3 L128,196 C127.1,195.7 126.2,194.8 125.9,194 L125.6,192.9 C125.4,192.4 125.1,192.1 124.7,192.1 C124.3,192.1 124,192.4 123.8,192.9 L123.5,194 C123.2,194.9 122.3,195.8 121.4,196 L120.5,196.3 C120,196.5 119.7,196.8 119.7,197.2 C119.7,197.6 120,197.9 120.5,198.1 L121.4,198.4 C122.3,198.7 123.2,199.6 123.5,200.4 L123.8,201.5 C124,202 124.3,202.3 124.7,202.3 C125.1,202.3 125.4,202 125.6,201.5 L125.9,200.4 C126.2,199.5 127.1,198.6 128,198.4 L128.9,198.1 C129.4,197.9 129.7,197.6 129.7,197.2 C129.7,196.8 129.4,196.5 128.9,196.3 Z" id="Shape"></path>
                <path d="M91,106.7 L91.6,106.9 C92.2,107.1 92.8,107.7 93,108.3 L93.2,109 C93.3,109.3 93.5,109.5 93.8,109.5 C94,109.5 94.3,109.3 94.4,109 L94.6,108.3 C94.8,107.7 95.4,107.1 96,106.9 L96.6,106.7 C97,106.6 97.1,106.4 97.1,106.1 C97.1,105.8 96.9,105.6 96.6,105.5 L96,105.3 C95.4,105.1 94.8,104.5 94.6,103.9 L94.4,103.2 C94.3,102.9 94.1,102.7 93.8,102.7 C93.6,102.7 93.3,102.9 93.2,103.2 L93,104 C92.8,104.6 92.2,105.2 91.6,105.4 L91,105.6 C90.6,105.7 90.5,105.9 90.5,106.2 C90.5,106.4 90.7,106.6 91,106.7 Z" id="Shape"></path>
                <path d="M60.4,152.3 L59.8,152.1 C59.2,151.9 58.6,151.3 58.4,150.7 L58.2,150 C58.1,149.7 57.9,149.5 57.6,149.5 C57.4,149.5 57.1,149.7 57,150 L56.8,150.7 C56.6,151.3 56,151.9 55.4,152.1 L54.8,152.3 C54.4,152.4 54.3,152.6 54.3,152.9 C54.3,153.2 54.5,153.4 54.8,153.5 L55.4,153.7 C56,153.9 56.6,154.5 56.8,155.1 L57,155.8 C57.1,156.1 57.3,156.3 57.6,156.3 C57.8,156.3 58.1,156.1 58.2,155.8 L58.4,155.1 C58.6,154.5 59.2,153.9 59.8,153.7 L60.4,153.5 C60.8,153.4 60.9,153.2 60.9,152.9 C61,152.6 60.8,152.4 60.4,152.3 Z" id="Shape"></path>
                <circle id="Oval" transform="translate(167.805515, 89.103145) rotate(-2.187983) translate(-167.805515, -89.103145) " cx="167.805515" cy="89.1031451" r="1.40004071"></circle>
                <circle id="Oval" transform="translate(145.804142, 1.699270) rotate(-2.187983) translate(-145.804142, -1.699270) " cx="145.804142" cy="1.69927039" r="1.40004071"></circle>
                <circle id="Oval" transform="translate(99.704320, 159.006127) rotate(-2.187983) translate(-99.704320, -159.006127) " cx="99.7043201" cy="159.006127" r="1.40004071"></circle>
                <circle id="Oval" transform="translate(217.908152, 192.306021) rotate(-2.187983) translate(-217.908152, -192.306021) " cx="217.908152" cy="192.306021" r="1.40004071"></circle>
                <circle id="Oval" transform="translate(201.605290, 78.703364) rotate(-2.187983) translate(-201.605290, -78.703364) " cx="201.60529" cy="78.7033638" r="1.40004071"></circle>
                <circle id="Oval" transform="translate(153.302998, 170.705425) rotate(-2.187983) translate(-153.302998, -170.705425) " cx="153.302998" cy="170.705425" r="1.40004071"></circle>
                <circle id="Oval" transform="translate(72.403906, 84.704133) rotate(-2.187983) translate(-72.403906, -84.704133) " cx="72.4039059" cy="84.7041332" r="1.40004071"></circle>
            </g>
        </g>
    </g>
</svg>