<?xml version="1.0" encoding="UTF-8"?>
<svg width="30px" height="30px" viewBox="0 0 30 30" version="1.1" xmlns="http://www.w3.org/2000/svg" xmlns:xlink="http://www.w3.org/1999/xlink">
    <!-- Generator: Sketch 43.2 (39069) - http://www.bohemiancoding.com/sketch -->
    <title>Group 2</title>
    <desc>Created with Sketch.</desc>
    <defs></defs>
    <g id="Page-1" stroke="none" stroke-width="1" fill="none" fill-rule="evenodd">
        <g id="Mobile-Portrait" transform="translate(-17.000000, -15.000000)" fill-rule="nonzero" fill="#000000">
            <g id="Group-2" transform="translate(17.000000, 15.000000)">
                <path d="M25.5813559,29.6542373 L4.06779661,29.6542373 C1.82121458,29.6542373 0,27.8330227 0,25.5864407 L0,4.06779661 C0,1.82121458 1.82121458,0 4.06779661,0 L25.5813559,0 C27.827938,0 29.6491525,1.82121458 29.6491525,4.06779661 L29.6491525,25.5813559 C29.6505022,26.6610834 29.2225279,27.6970501 28.4595217,28.4610101 C27.6965155,29.22497 26.6610842,29.6542381 25.5813559,29.6542373 L25.5813559,29.6542373 Z M4.06779661,2.03389831 C2.94450559,2.03389831 2.03389831,2.94450559 2.03389831,4.06779661 L2.03389831,25.5813559 C2.03389831,26.7046469 2.94450559,27.6152542 4.06779661,27.6152542 L25.5813559,27.6152542 C26.7046469,27.6152542 27.6152542,26.7046469 27.6152542,25.5813559 L27.6152542,4.06779661 C27.6152542,2.94450559 26.7046469,2.03389831 25.5813559,2.03389831 L4.06779661,2.03389831 L4.06779661,2.03389831 Z" id="Shape"></path>
                <path d="M14.8220339,29.6542373 C14.2603884,29.6542373 13.8050847,29.1989336 13.8050847,28.6372881 L13.8050847,6.12711864 C13.8050847,5.56547314 14.2603884,5.11016949 14.8220339,5.11016949 C15.3836794,5.11016949 15.8389831,5.56547314 15.8389831,6.12711864 L15.8389831,28.6322034 C15.840336,28.902795 15.7337911,29.1627682 15.5429293,29.3545843 C15.3520675,29.5464004 15.0926289,29.6542407 14.8220339,29.6542373 Z" id="Shape"></path>
                <path d="M23.4050847,14.2525424 C23.1627005,14.252561 22.9282798,14.1660057 22.7440678,14.0084746 L14.8220339,7.18983051 L6.9,14.0084746 C6.47384035,14.3046852 5.89300257,14.232468 5.55235408,13.840918 C5.2117056,13.4493681 5.22055289,12.8641249 5.57288136,12.4830508 L14.1610169,5.07966102 C14.5424339,4.75123895 15.1067187,4.75123895 15.4881356,5.07966102 L24.0711864,12.4627119 C24.3955098,12.7400496 24.5121892,13.1903704 24.3633495,13.5903062 C24.2145098,13.9902419 23.8318131,14.2547153 23.4050847,14.2525424 L23.4050847,14.2525424 Z" id="Shape"></path>
                <path d="M23.4050847,20.3033898 C23.1627005,20.3034085 22.9282798,20.2168532 22.7440678,20.059322 L14.8220339,13.2610169 L6.9,20.0745763 C6.47384035,20.3707869 5.89300257,20.2985697 5.55235408,19.9070197 C5.2117056,19.5154698 5.22055289,18.9302266 5.57288136,18.5491525 L14.1610169,11.1508475 C14.5424339,10.8224254 15.1067187,10.8224254 15.4881356,11.1508475 L24.0711864,18.5338983 C24.3798013,18.8142797 24.4859949,19.25464 24.3390985,19.6448686 C24.1922021,20.0350972 23.8219828,20.2961182 23.4050847,20.3033898 Z" id="Shape"></path>
            </g>
        </g>
    </g>
</svg>