<svg width="16" height="13" viewBox="0 0 16 13" xmlns="http://www.w3.org/2000/svg"><title>arrow</title><g id="Page-1" fill="none" fill-rule="evenodd"><g id="home" transform="translate(-797 -2907)" fill="#000"><g id="arrow" transform="rotate(90 -1047 1860)"><path d="M6.113 15.94a.653.653 0 0 1-.653-.654V.831a.653.653 0 0 1 1.306 0v14.452a.653.653 0 0 1-.653.656z" id="Shape"/><path d="M11.625 6.049a.653.653 0 0 1-.425-.157L6.113 1.513 1.026 5.89a.653.653 0 0 1-.852-.98L5.689.16a.653.653 0 0 1 .852 0l5.512 4.744a.653.653 0 0 1-.428 1.146z" id="Shape"/></g></g></g></svg>