<?xml version="1.0" encoding="UTF-8" standalone="no"?>
<svg width="16px" height="13px" viewBox="0 0 16 13" version="1.1" xmlns="http://www.w3.org/2000/svg" xmlns:xlink="http://www.w3.org/1999/xlink">
    <!-- Generator: Sketch 3.8.3 (29802) - http://www.bohemiancoding.com/sketch -->
    <title>arrow-icon</title>
    <desc>Created with Sketch.</desc>
    <defs></defs>
    <g id="Page-1" stroke="none" stroke-width="1" fill="none" fill-rule="evenodd">
        <g id="arrow-icon" transform="translate(8.000000, 6.500000) rotate(-180.000000) translate(-8.000000, -6.500000) translate(-0.000000, 0.000000)" fill="#000000">
            <g id="Page-1">
                <g id="home">
                    <g id="arrow" transform="translate(8.000000, 6.500000) rotate(90.000000) translate(-8.000000, -6.500000) translate(1.500000, -1.500000)">
                        <path d="M6.11313803,15.9394033 C5.75246227,15.9394033 5.4600768,15.6470178 5.4600768,15.2863421 L5.4600768,0.830831854 C5.4600768,0.470156099 5.75246227,0.177770629 6.11313803,0.177770629 C6.47381378,0.177770629 6.76619925,0.470156099 6.76619925,0.830831854 L6.76619925,15.2830768 C6.7670681,15.4568444 6.69864739,15.6237932 6.57608035,15.7469731 C6.45351332,15.8701529 6.28690787,15.9394055 6.11313803,15.9394033 L6.11313803,15.9394033 L6.11313803,15.9394033 Z" id="Shape"></path>
                        <path d="M11.6249748,6.04879104 C11.4693212,6.04880301 11.3187817,5.99321919 11.200485,5.89205634 L6.11313803,1.51328083 L1.02579109,5.88879104 C0.752121217,6.07901064 0.37912063,6.03263445 0.160364053,5.78119011 C-0.0583925248,5.52974577 -0.0527109995,5.15391614 0.173546192,4.9091992 L5.68864823,0.158178793 C5.93358536,-0.0527262642 6.29595601,-0.0527262642 6.54089313,0.158178793 L12.0527299,4.90266859 C12.2584109,5.08130444 12.3315956,5.36885093 12.2363393,5.62407967 C12.141083,5.87930841 11.8973999,6.04859367 11.6249748,6.04879104 L11.6249748,6.04879104 L11.6249748,6.04879104 Z" id="Shape"></path>
                    </g>
                </g>
            </g>
        </g>
    </g>
</svg>