<svg width="32" height="32" viewBox="0 0 32 32" xmlns="http://www.w3.org/2000/svg"><title>Blue_1_</title><g id="Page-1" fill="none" fill-rule="evenodd"><g id="home" transform="translate(-238 -3366)" fill="#000"><g id="Group-2" transform="translate(238 3366)"><path d="M29.749.423H1.735C.779.423 0 1.192 0 2.136V29.81c0 .944.779 1.713 1.735 1.713h15.08V19.481H12.71v-4.698h4.107v-3.462c0-4.021 2.49-6.2 6.112-6.2 1.735 0 3.233.127 3.67.186v4.196h-2.513c-1.971 0-2.36.92-2.36 2.285v2.995h4.708l-.614 4.698h-4.095v12.053h8.025c.956 0 1.734-.77 1.734-1.714V2.136c0-.956-.767-1.713-1.734-1.713z" id="Blue_1_"/></g></g></g></svg>