<svg width="25" height="19" viewBox="0 0 25 19" xmlns="http://www.w3.org/2000/svg"><title>hamburger</title><g id="Page-1" fill="none" fill-rule="evenodd"><g id="home" transform="translate(-283 -20)" fill="#000"><g id="hamburger" transform="translate(283 20)"><g id="Group"><path d="M23.571 2.553H1.607c-.655 0-1.19-.534-1.19-1.187C.417.712.952.178 1.607.178h21.964c.655 0 1.19.535 1.19 1.188 0 .653-.535 1.187-1.19 1.187zM23.571 10.569H1.607c-.655 0-1.19-.535-1.19-1.188 0-.653.535-1.187 1.19-1.187h21.964c.655 0 1.19.534 1.19 1.187s-.535 1.188-1.19 1.188zM23.571 18.584H1.607c-.655 0-1.19-.534-1.19-1.187s.535-1.188 1.19-1.188h21.964c.655 0 1.19.535 1.19 1.188 0 .653-.535 1.187-1.19 1.187z" id="Shape"/></g></g></g></g></svg>