<svg width="64" height="55" viewBox="0 0 64 55" xmlns="http://www.w3.org/2000/svg"><title>inbound</title><g id="Page-1" fill="none" fill-rule="evenodd"><g id="home" transform="translate(-567 -808)" fill="#000"><g id="services-2" transform="translate(483 772)"><g id="inbound" transform="translate(84 36)"><path d="M32.1 54.6c-.4 0-.7-.1-1.1-.3-1.1-.7-26.3-16.7-29.4-30.1-.6-1.8-.9-3.7-.9-5.6 0-6.8 3.7-13 9.6-16.3C13.1.8 16.2 0 19.3 0c4.8 0 9.3 1.8 12.8 5.1 3.4-3.3 8-5.1 12.8-5.1 3.1 0 6.2.8 9 2.3 5.9 3.3 9.6 9.5 9.6 16.3 0 1.9-.3 3.8-.9 5.6-3.1 13.4-28.3 29.4-29.4 30.1-.4.2-.8.3-1.1.3zM19.3 3.9c-2.5 0-4.8.6-7 1.8-4.6 2.6-7.5 7.5-7.5 12.8 0 1.5.2 3 .7 4.5 0 .1 0 .1.1.2 2.1 9.4 19 22 26.6 27 2.1-1.4 6.9-4.7 12-8.9 8.5-7.1 13.6-13.3 14.6-18.1 0-.1 0-.1.1-.2.5-1.5.7-3 .7-4.5 0-5.3-2.9-10.2-7.5-12.8-2.2-1.2-4.5-1.8-7-1.8-4.4 0-8.4 1.9-11.2 5.3-.4.5-.9.7-1.5.7s-1.2-.3-1.5-.7c-3.2-3.3-7.3-5.3-11.6-5.3z" id="Shape"/></g></g></g></g></svg>