<svg width="33" height="32" viewBox="0 0 33 32" xmlns="http://www.w3.org/2000/svg"><title>Fill 1</title><g id="Page-1" fill="none" fill-rule="evenodd"><g id="home" transform="translate(-284 -3366)" fill="#000"><g id="Group-2" transform="translate(238 3366)"><path d="M74.063 27.268h-4.78v-7.426c0-1.77-.033-4.05-2.485-4.05-2.49 0-2.87 1.929-2.87 3.922v7.554h-4.777v-15.27h4.585v2.086h.066c.638-1.201 2.2-2.467 4.526-2.467 4.84 0 5.735 3.162 5.735 7.275v8.376zM53.758 9.908a2.761 2.761 0 0 1-2.775-2.752 2.762 2.762 0 0 1 2.775-2.75c1.53 0 2.773 1.233 2.773 2.75 0 1.52-1.243 2.752-2.773 2.752zm-2.395 2.09h4.788v15.27h-4.788v-15.27zM76.445 0H48.962c-1.313 0-2.379 1.033-2.379 2.306V29.69c0 1.274 1.066 2.309 2.379 2.309h27.483c1.315 0 2.39-1.035 2.39-2.31V2.307C78.834 1.033 77.76 0 76.444 0z" id="Fill-1"/></g></g></g></svg>