<svg id="Layer_1" xmlns="http://www.w3.org/2000/svg" viewBox="0 0 57 61"><title>outbound</title><path d="M42.7 35.7c-4 0-7.6 1.9-9.8 4.8l-8.7-4.8c.6-1.5 1-3.1 1-4.7s-.3-3.2-.9-4.6l10.3-5.6c2.3 2.7 5.7 4.4 9.5 4.4 6.9 0 12.6-5.6 12.5-12.5C56.6 5.8 51 .2 44.1.2S31.5 5.8 31.5 12.7c0 1.6.3 3.2.9 4.7L22.1 23c-2.3-2.7-5.7-4.4-9.5-4.4C5.7 18.5.1 24.1.1 31s5.6 12.5 12.5 12.5c3.8 0 7.2-1.7 9.4-4.4l8.9 4.9c-.5 1.3-.7 2.7-.7 4.2 0 6.9 5.6 12.5 12.5 12.5s12.5-5.6 12.5-12.5-5.6-12.5-12.5-12.5zM44 4.1c4.7 0 8.6 3.8 8.5 8.5 0 4.7-3.8 8.5-8.5 8.5s-8.5-3.8-8.5-8.5 3.8-8.5 8.5-8.5zM12.6 39.4c-4.7 0-8.5-3.8-8.5-8.5s3.8-8.5 8.5-8.5 8.5 3.8 8.5 8.5-3.8 8.5-8.5 8.5zm30.1 17.2c-4.7 0-8.5-3.8-8.5-8.5s3.8-8.5 8.5-8.5 8.5 3.8 8.5 8.5-3.8 8.5-8.5 8.5z"/></svg>