<svg width="83" height="62" viewBox="0 0 83 62" xmlns="http://www.w3.org/2000/svg"><title>strategy</title><g id="Page-1" fill="none" fill-rule="evenodd"><g id="home" transform="translate(-312 -801)" fill="#000"><g id="services-1" transform="translate(238 772)"><g id="strategy" transform="translate(74 29)"><path d="M72.9 32.9H31.5c-1.1 0-2-.9-2-2s.9-2 2-2H73c1.1 0 2 .9 2 2-.1 1.1-1 2-2.1 2z" id="Shape"/><path d="M73 42.4c-.6 0-1.1-.2-1.5-.7l-8.1-9.4c-.6-.7-.6-1.9 0-2.6l8.1-9.4c.7-.8 2-.9 2.8-.2.8.7.9 2 .2 2.8l-7 8.1 7 8.1c.7.8.6 2.1-.2 2.8-.4.3-.8.5-1.3.5z" id="Shape"/><path d="M81 42.4c-.6 0-1.1-.2-1.5-.7l-8.1-9.4c-.6-.7-.6-1.9 0-2.6l8.1-9.4c.7-.8 2-.9 2.8-.2.8.7.9 2 .2 2.8l-7 8.1 7 8.1c.7.8.6 2.1-.2 2.8-.3.3-.8.5-1.3.5zM30.5 61.2C13.8 61.2.2 47.6.2 30.9.2 14.2 13.8.6 30.5.6c16.7 0 30.3 13.6 30.3 30.3 0 16.7-13.6 30.3-30.3 30.3zm0-56.6C16 4.6 4.2 16.4 4.2 30.9S16 57.2 30.5 57.2s26.3-11.8 26.3-26.3S45 4.6 30.5 4.6z" id="Shape"/><path d="M30.5 48.5c-9.7 0-17.6-7.9-17.6-17.6 0-9.7 7.9-17.6 17.6-17.6 9.7 0 17.6 7.9 17.6 17.6 0 9.7-7.9 17.6-17.6 17.6zm0-31.1c-7.5 0-13.6 6.1-13.6 13.6S23 44.6 30.5 44.6 44.1 38.5 44.1 31 38 17.4 30.5 17.4z" id="Shape"/></g></g></g></g></svg>