<svg width="43" height="31" viewBox="0 0 43 31" xmlns="http://www.w3.org/2000/svg"><title>”</title><g id="Page-1" fill="none" fill-rule="evenodd"><g id="home" transform="translate(-699 -2249)" fill="#000"><g id="testimonial" transform="translate(238 2220)"><g id="testimonial-icon" transform="translate(438)"><path d="M23.933 55.907c2.402-1.383 4.24-2.64 5.515-3.768 1.274-1.128 2.202-2.166 2.784-3.112.583-.947.929-1.802 1.038-2.566.109-.765.164-1.438.164-2.02 0-1.093-.51-1.639-1.53-1.639-4.659 0-6.988-1.893-6.988-5.678 0-4.806 2.475-7.208 7.426-7.208 6.333 0 9.5 3.494 9.5 10.484 0 4.15-1.365 7.735-4.095 10.756-2.73 3.022-6.607 5.77-11.63 8.245l-2.184-3.494zm23.588 0c2.403-1.383 4.24-2.64 5.515-3.768 1.274-1.128 2.202-2.166 2.785-3.112.582-.947.928-1.802 1.037-2.566.11-.765.164-1.438.164-2.02 0-1.093-.51-1.639-1.529-1.639-4.66 0-6.99-1.893-6.99-5.678 0-4.806 2.476-7.208 7.427-7.208 6.334 0 9.5 3.494 9.5 10.484 0 4.15-1.364 7.735-4.094 10.756-2.73 3.022-6.607 5.77-11.63 8.245l-2.185-3.494z" id="”"/></g></g></g></g></svg>