<svg width="36" height="30" viewBox="0 0 36 30" xmlns="http://www.w3.org/2000/svg"><title>twitter copy</title><g id="Page-1" fill="none" fill-rule="evenodd"><g id="home" transform="translate(-331 -3366)" fill="#000"><g id="Group-2" transform="translate(238 3366)"><path d="M93.178 26.149c.575.069 1.16.104 1.753.104 3.443 0 6.612-1.19 9.128-3.187-3.216-.06-5.93-2.213-6.866-5.171a7.247 7.247 0 0 0 3.32-.128c-3.363-.684-5.896-3.693-5.896-7.301v-.094a7.248 7.248 0 0 0 3.33.932 7.469 7.469 0 0 1-3.27-6.198c0-1.364.362-2.643.995-3.743 3.625 4.505 9.04 7.469 15.148 7.78a7.569 7.569 0 0 1-.19-1.697c0-4.112 3.29-7.446 7.35-7.446 2.113 0 4.023.904 5.364 2.351A14.603 14.603 0 0 0 128.01.545a7.452 7.452 0 0 1-3.231 4.119c1.487-.18 2.903-.58 4.221-1.173a15.048 15.048 0 0 1-3.667 3.855c.014.32.021.64.021.963 0 9.84-7.392 21.185-20.91 21.185-4.15 0-8.013-1.232-11.266-3.345z" id="twitter-copy"/></g></g></g></svg>